<?xml version="1.0" encoding="UTF-8" standalone="no"?>
<!DOCTYPE svg PUBLIC "-//W3C//DTD SVG 1.1//EN"
 "http://www.w3.org/Graphics/SVG/1.1/DTD/svg11.dtd">
<!-- Generated by graphviz version 2.43.0 (0)
 -->
<!-- Title: fms2_io/include/compute_global_checksum.inc Pages: 1 -->
<svg width="148pt" height="106pt"
 viewBox="0.00 0.00 148.00 106.00" xmlns="http://www.w3.org/2000/svg" xmlns:xlink="http://www.w3.org/1999/xlink">
<g id="graph0" class="graph" transform="scale(1 1) rotate(0) translate(4 102)">
<title>fms2_io/include/compute_global_checksum.inc</title>
<polygon fill="white" stroke="transparent" points="-4,4 -4,-102 144,-102 144,4 -4,4"/>
<!-- Node1 -->
<g id="node1" class="node">
<title>Node1</title>
<g id="a_node1"><a xlink:title="Routines for calculating variable checksums across pes for the compute_global_checksum interface.">
<polygon fill="#bfbfbf" stroke="black" points="0,-67.5 0,-97.5 140,-97.5 140,-67.5 0,-67.5"/>
<text text-anchor="start" x="8" y="-85.5" font-family="Helvetica,sans-Serif" font-size="10.00">fms2_io/include/compute</text>
<text text-anchor="middle" x="70" y="-74.5" font-family="Helvetica,sans-Serif" font-size="10.00">_global_checksum.inc</text>
</a>
</g>
</g>
<!-- Node2 -->
<g id="node2" class="node">
<title>Node2</title>
<g id="a_node2"><a xlink:href="fms__netcdf__domain__io_8F90.html" target="_top" xlink:title="File for fms_netcdf_domain_io_mod.">
<polygon fill="white" stroke="black" points="13.5,-0.5 13.5,-30.5 126.5,-30.5 126.5,-0.5 13.5,-0.5"/>
<text text-anchor="start" x="21.5" y="-18.5" font-family="Helvetica,sans-Serif" font-size="10.00">fms2_io/fms_netcdf</text>
<text text-anchor="middle" x="70" y="-7.5" font-family="Helvetica,sans-Serif" font-size="10.00">_domain_io.F90</text>
</a>
</g>
</g>
<!-- Node1&#45;&gt;Node2 -->
<g id="edge1" class="edge">
<title>Node1&#45;&gt;Node2</title>
<path fill="none" stroke="midnightblue" d="M70,-57.11C70,-48.15 70,-38.32 70,-30.58"/>
<polygon fill="midnightblue" stroke="midnightblue" points="66.5,-57.4 70,-67.4 73.5,-57.4 66.5,-57.4"/>
</g>
</g>
</svg>
