<?xml version="1.0" encoding="UTF-8" standalone="no"?>
<!DOCTYPE svg PUBLIC "-//W3C//DTD SVG 1.1//EN"
 "http://www.w3.org/Graphics/SVG/1.1/DTD/svg11.dtd">
<!-- Generated by graphviz version 2.43.0 (0)
 -->
<!-- Title: drifters/drifters.F90 Pages: 1 -->
<svg width="570pt" height="84pt"
 viewBox="0.00 0.00 569.50 84.00" xmlns="http://www.w3.org/2000/svg" xmlns:xlink="http://www.w3.org/1999/xlink">
<g id="graph0" class="graph" transform="scale(1 1) rotate(0) translate(4 80)">
<title>drifters/drifters.F90</title>
<polygon fill="white" stroke="transparent" points="-4,4 -4,-80 565.5,-80 565.5,4 -4,4"/>
<!-- Node1 -->
<g id="node1" class="node">
<title>Node1</title>
<g id="a_node1"><a xlink:title="File for drifters_mod.">
<polygon fill="#bfbfbf" stroke="black" points="200,-56.5 200,-75.5 310,-75.5 310,-56.5 200,-56.5"/>
<text text-anchor="middle" x="255" y="-63.5" font-family="Helvetica,sans-Serif" font-size="10.00">drifters/drifters.F90</text>
</a>
</g>
</g>
<!-- Node2 -->
<g id="node2" class="node">
<title>Node2</title>
<g id="a_node2"><a xlink:href="fms__switches_8h_source.html" target="_top" xlink:title=" ">
<polygon fill="white" stroke="black" points="0,-0.5 0,-19.5 92,-19.5 92,-0.5 0,-0.5"/>
<text text-anchor="middle" x="46" y="-7.5" font-family="Helvetica,sans-Serif" font-size="10.00">fms_switches.h</text>
</a>
</g>
</g>
<!-- Node1&#45;&gt;Node2 -->
<g id="edge1" class="edge">
<title>Node1&#45;&gt;Node2</title>
<path fill="none" stroke="midnightblue" d="M221.88,-56.44C185.88,-47.14 128.23,-32.25 88.81,-22.06"/>
<polygon fill="midnightblue" stroke="midnightblue" points="89.52,-18.63 78.96,-19.52 87.77,-25.41 89.52,-18.63"/>
</g>
<!-- Node3 -->
<g id="node3" class="node">
<title>Node3</title>
<g id="a_node3"><a xlink:href="file__version_8h_source.html" target="_top" xlink:title=" ">
<polygon fill="white" stroke="black" points="110,-0.5 110,-19.5 192,-19.5 192,-0.5 110,-0.5"/>
<text text-anchor="middle" x="151" y="-7.5" font-family="Helvetica,sans-Serif" font-size="10.00">file_version.h</text>
</a>
</g>
</g>
<!-- Node1&#45;&gt;Node3 -->
<g id="edge2" class="edge">
<title>Node1&#45;&gt;Node3</title>
<path fill="none" stroke="midnightblue" d="M238.29,-56.32C221.69,-47.7 196,-34.36 176.78,-24.39"/>
<polygon fill="midnightblue" stroke="midnightblue" points="178.16,-21.16 167.67,-19.65 174.93,-27.37 178.16,-21.16"/>
</g>
<!-- Node4 -->
<g id="node4" class="node">
<title>Node4</title>
<g id="a_node4"><a xlink:href="drifters__push_8h_source.html" target="_top" xlink:title=" ">
<polygon fill="white" stroke="black" points="210.5,-0.5 210.5,-19.5 299.5,-19.5 299.5,-0.5 210.5,-0.5"/>
<text text-anchor="middle" x="255" y="-7.5" font-family="Helvetica,sans-Serif" font-size="10.00">drifters_push.h</text>
</a>
</g>
</g>
<!-- Node1&#45;&gt;Node4 -->
<g id="edge3" class="edge">
<title>Node1&#45;&gt;Node4</title>
<path fill="none" stroke="midnightblue" d="M255,-56.08C255,-49.01 255,-38.86 255,-29.99"/>
<polygon fill="midnightblue" stroke="midnightblue" points="258.5,-29.75 255,-19.75 251.5,-29.75 258.5,-29.75"/>
</g>
<!-- Node5 -->
<g id="node5" class="node">
<title>Node5</title>
<g id="a_node5"><a xlink:href="drifters__set__field_8h_source.html" target="_top" xlink:title=" ">
<polygon fill="white" stroke="black" points="317.5,-0.5 317.5,-19.5 424.5,-19.5 424.5,-0.5 317.5,-0.5"/>
<text text-anchor="middle" x="371" y="-7.5" font-family="Helvetica,sans-Serif" font-size="10.00">drifters_set_field.h</text>
</a>
</g>
</g>
<!-- Node1&#45;&gt;Node5 -->
<g id="edge4" class="edge">
<title>Node1&#45;&gt;Node5</title>
<path fill="none" stroke="midnightblue" d="M273.38,-56.44C292.22,-47.68 321.73,-33.94 343.38,-23.86"/>
<polygon fill="midnightblue" stroke="midnightblue" points="345.12,-26.91 352.71,-19.52 342.16,-20.56 345.12,-26.91"/>
</g>
<!-- Node6 -->
<g id="node6" class="node">
<title>Node6</title>
<g id="a_node6"><a xlink:href="drifters__compute__k_8h_source.html" target="_top" xlink:title=" ">
<polygon fill="white" stroke="black" points="442.5,-0.5 442.5,-19.5 561.5,-19.5 561.5,-0.5 442.5,-0.5"/>
<text text-anchor="middle" x="502" y="-7.5" font-family="Helvetica,sans-Serif" font-size="10.00">drifters_compute_k.h</text>
</a>
</g>
</g>
<!-- Node1&#45;&gt;Node6 -->
<g id="edge5" class="edge">
<title>Node1&#45;&gt;Node6</title>
<path fill="none" stroke="midnightblue" d="M294.14,-56.44C337.23,-47.02 406.56,-31.87 453.17,-21.68"/>
<polygon fill="midnightblue" stroke="midnightblue" points="454.02,-25.07 463.05,-19.52 452.53,-18.23 454.02,-25.07"/>
</g>
</g>
</svg>
