<?xml version="1.0" encoding="UTF-8" standalone="no"?>
<!DOCTYPE svg PUBLIC "-//W3C//DTD SVG 1.1//EN"
 "http://www.w3.org/Graphics/SVG/1.1/DTD/svg11.dtd">
<!-- Generated by graphviz version 2.43.0 (0)
 -->
<!-- Title: Random Numbers Pages: 1 -->
<svg width="277pt" height="64pt"
 viewBox="0.00 0.00 277.00 64.00" xmlns="http://www.w3.org/2000/svg" xmlns:xlink="http://www.w3.org/1999/xlink">
<g id="graph0" class="graph" transform="scale(1 1) rotate(0) translate(4 60)">
<title>Random Numbers</title>
<polygon fill="white" stroke="transparent" points="-4,4 -4,-60 273,-60 273,4 -4,4"/>
<!-- Node1 -->
<g id="node1" class="node">
<title>Node1</title>
<g id="a_node1"><a xlink:title="Modules and associated files in the random_numbers directory.">
<polygon fill="#bfbfbf" stroke="black" points="104,-37 0,-37 0,-18 104,-18 104,-37"/>
<text text-anchor="middle" x="52" y="-25" font-family="Helvetica,sans-Serif" font-size="10.00">Random Numbers</text>
</a>
</g>
</g>
<!-- Node2 -->
<g id="node2" class="node">
<title>Node2</title>
<g id="a_node2"><a xlink:href="group__mersennetwister__mod.html" target="_top" xlink:title="Fortran&#45;95 implementation of the Mersenne Twister 19937 algorithm.">
<polygon fill="white" stroke="black" points="267.5,-56 141.5,-56 141.5,-37 267.5,-37 267.5,-56"/>
<text text-anchor="middle" x="204.5" y="-44" font-family="Helvetica,sans-Serif" font-size="10.00">MersenneTwister_mod</text>
</a>
</g>
</g>
<!-- Node1&#45;&gt;Node2 -->
<g id="edge1" class="edge">
<title>Node1&#45;&gt;Node2</title>
<path fill="none" stroke="black" d="M114.32,-35.24C123.27,-36.37 132.48,-37.53 141.43,-38.66"/>
<polygon fill="black" stroke="black" points="114.73,-31.77 104.37,-33.99 113.86,-38.71 114.73,-31.77"/>
</g>
<!-- Node3 -->
<g id="node3" class="node">
<title>Node3</title>
<g id="a_node3"><a xlink:href="group__random__numbers__mod.html" target="_top" xlink:title="Generic module to wrap random number generators.">
<polygon fill="white" stroke="black" points="269,-19 140,-19 140,0 269,0 269,-19"/>
<text text-anchor="middle" x="204.5" y="-7" font-family="Helvetica,sans-Serif" font-size="10.00">random_numbers_mod</text>
</a>
</g>
</g>
<!-- Node1&#45;&gt;Node3 -->
<g id="edge2" class="edge">
<title>Node1&#45;&gt;Node3</title>
<path fill="none" stroke="black" d="M114.44,-20.15C122.82,-19.15 131.43,-18.12 139.85,-17.11"/>
<polygon fill="black" stroke="black" points="113.89,-16.69 104.37,-21.36 114.72,-23.64 113.89,-16.69"/>
</g>
</g>
</svg>
