<?xml version="1.0" encoding="UTF-8" standalone="no"?>
<!DOCTYPE svg PUBLIC "-//W3C//DTD SVG 1.1//EN"
 "http://www.w3.org/Graphics/SVG/1.1/DTD/svg11.dtd">
<!-- Generated by graphviz version 2.43.0 (0)
 -->
<!-- Title: Time Interpolator Pages: 1 -->
<svg width="297pt" height="101pt"
 viewBox="0.00 0.00 297.00 101.00" xmlns="http://www.w3.org/2000/svg" xmlns:xlink="http://www.w3.org/1999/xlink">
<g id="graph0" class="graph" transform="scale(1 1) rotate(0) translate(4 97)">
<title>Time Interpolator</title>
<polygon fill="white" stroke="transparent" points="-4,4 -4,-97 293,-97 293,4 -4,4"/>
<!-- Node4 -->
<g id="node1" class="node">
<title>Node4</title>
<g id="a_node1"><a xlink:href="group__time__interp__external2__mod.html" target="_top" xlink:title="Perform I/O and time interpolation of external fields (contained in a file), using fms2_io.">
<polygon fill="white" stroke="black" points="289,-93 137,-93 137,-74 289,-74 289,-93"/>
<text text-anchor="middle" x="213" y="-81" font-family="Helvetica,sans-Serif" font-size="10.00">time_interp_external2_mod</text>
</a>
</g>
</g>
<!-- Node2 -->
<g id="node2" class="node">
<title>Node2</title>
<g id="a_node2"><a xlink:href="group__time__interp__mod.html" target="_top" xlink:title="Computes a weight and dates/indices for linearly interpolating between two dates.">
<polygon fill="white" stroke="black" points="263,-56 163,-56 163,-37 263,-37 263,-56"/>
<text text-anchor="middle" x="213" y="-44" font-family="Helvetica,sans-Serif" font-size="10.00">time_interp_mod</text>
</a>
</g>
</g>
<!-- Node3 -->
<g id="node3" class="node">
<title>Node3</title>
<g id="a_node3"><a xlink:href="group__time__interp__external__mod.html" target="_top" xlink:title="Perform I/O and time interpolation of external fields (contained in a file).">
<polygon fill="white" stroke="black" points="286,-19 140,-19 140,0 286,0 286,-19"/>
<text text-anchor="middle" x="213" y="-7" font-family="Helvetica,sans-Serif" font-size="10.00">time_interp_external_mod</text>
</a>
</g>
</g>
<!-- Node1 -->
<g id="node4" class="node">
<title>Node1</title>
<g id="a_node4"><a xlink:title="Modules and associated files in the time_interp directory.">
<polygon fill="#bfbfbf" stroke="black" points="101,-56 0,-56 0,-37 101,-37 101,-56"/>
<text text-anchor="middle" x="50.5" y="-44" font-family="Helvetica,sans-Serif" font-size="10.00">Time Interpolator</text>
</a>
</g>
</g>
<!-- Node1&#45;&gt;Node4 -->
<g id="edge3" class="edge">
<title>Node1&#45;&gt;Node4</title>
<path fill="none" stroke="black" d="M102.64,-58.29C124.55,-63.34 149.81,-69.16 170.53,-73.94"/>
<polygon fill="black" stroke="black" points="103.36,-54.86 92.83,-56.03 101.79,-61.69 103.36,-54.86"/>
</g>
<!-- Node1&#45;&gt;Node2 -->
<g id="edge1" class="edge">
<title>Node1&#45;&gt;Node2</title>
<path fill="none" stroke="black" d="M111.73,-46.5C128.63,-46.5 146.79,-46.5 162.95,-46.5"/>
<polygon fill="black" stroke="black" points="111.4,-43 101.4,-46.5 111.4,-50 111.4,-43"/>
</g>
<!-- Node1&#45;&gt;Node3 -->
<g id="edge2" class="edge">
<title>Node1&#45;&gt;Node3</title>
<path fill="none" stroke="black" d="M102.64,-34.71C124.55,-29.66 149.81,-23.84 170.53,-19.06"/>
<polygon fill="black" stroke="black" points="101.79,-31.31 92.83,-36.97 103.36,-38.14 101.79,-31.31"/>
</g>
</g>
</svg>
