<?xml version="1.0" encoding="UTF-8" standalone="no"?>
<!DOCTYPE svg PUBLIC "-//W3C//DTD SVG 1.1//EN"
 "http://www.w3.org/Graphics/SVG/1.1/DTD/svg11.dtd">
<!-- Generated by graphviz version 2.43.0 (0)
 -->
<!-- Title: Time Manager Pages: 1 -->
<svg width="246pt" height="64pt"
 viewBox="0.00 0.00 246.00 64.00" xmlns="http://www.w3.org/2000/svg" xmlns:xlink="http://www.w3.org/1999/xlink">
<g id="graph0" class="graph" transform="scale(1 1) rotate(0) translate(4 60)">
<title>Time Manager</title>
<polygon fill="white" stroke="transparent" points="-4,4 -4,-60 242,-60 242,4 -4,4"/>
<!-- Node3 -->
<g id="node1" class="node">
<title>Node3</title>
<g id="a_node1"><a xlink:href="group__time__manager__mod.html" target="_top" xlink:title="A software package that provides a set of simple interfaces for modelers to perform computations rela...">
<polygon fill="white" stroke="black" points="238,-56 123,-56 123,-37 238,-37 238,-56"/>
<text text-anchor="middle" x="180.5" y="-44" font-family="Helvetica,sans-Serif" font-size="10.00">time_manager_mod</text>
</a>
</g>
</g>
<!-- Node2 -->
<g id="node2" class="node">
<title>Node2</title>
<g id="a_node2"><a xlink:href="group__get__cal__time__mod.html" target="_top" xlink:title="Given a time increment as a real number, and base time and calendar as a character strings,...">
<polygon fill="white" stroke="black" points="234,-19 127,-19 127,0 234,0 234,-19"/>
<text text-anchor="middle" x="180.5" y="-7" font-family="Helvetica,sans-Serif" font-size="10.00">get_cal_time_mod</text>
</a>
</g>
</g>
<!-- Node1 -->
<g id="node3" class="node">
<title>Node1</title>
<g id="a_node3"><a xlink:title="Modules and associated files in the time_manager directory.">
<polygon fill="#bfbfbf" stroke="black" points="87,-37 0,-37 0,-18 87,-18 87,-37"/>
<text text-anchor="middle" x="43.5" y="-25" font-family="Helvetica,sans-Serif" font-size="10.00">Time Manager</text>
</a>
</g>
</g>
<!-- Node1&#45;&gt;Node3 -->
<g id="edge2" class="edge">
<title>Node1&#45;&gt;Node3</title>
<path fill="none" stroke="black" d="M97.23,-34.92C105.59,-36.1 114.28,-37.32 122.74,-38.51"/>
<polygon fill="black" stroke="black" points="97.61,-31.44 87.21,-33.51 96.63,-38.37 97.61,-31.44"/>
</g>
<!-- Node1&#45;&gt;Node2 -->
<g id="edge1" class="edge">
<title>Node1&#45;&gt;Node2</title>
<path fill="none" stroke="black" d="M97.43,-20.44C107.02,-19.16 117.03,-17.83 126.63,-16.55"/>
<polygon fill="black" stroke="black" points="96.66,-17.01 87.21,-21.8 97.59,-23.95 96.66,-17.01"/>
</g>
</g>
</svg>
