<?xml version="1.0" encoding="UTF-8" standalone="no"?>
<!DOCTYPE svg PUBLIC "-//W3C//DTD SVG 1.1//EN"
 "http://www.w3.org/Graphics/SVG/1.1/DTD/svg11.dtd">
<!-- Generated by graphviz version 2.43.0 (0)
 -->
<!-- Title: Diag Manager Pages: 1 -->
<svg width="242pt" height="249pt"
 viewBox="0.00 0.00 242.00 249.00" xmlns="http://www.w3.org/2000/svg" xmlns:xlink="http://www.w3.org/1999/xlink">
<g id="graph0" class="graph" transform="scale(1 1) rotate(0) translate(4 245)">
<title>Diag Manager</title>
<polygon fill="white" stroke="transparent" points="-4,4 -4,-245 238,-245 238,4 -4,4"/>
<!-- Node5 -->
<g id="node1" class="node">
<title>Node5</title>
<g id="a_node1"><a xlink:href="group__diag__manager__mod.html" target="_top" xlink:title="diag_manager_mod is a set of simple calls for parallel diagnostics on distributed systems....">
<polygon fill="white" stroke="black" points="234,-241 121,-241 121,-222 234,-222 234,-241"/>
<text text-anchor="middle" x="177.5" y="-229" font-family="Helvetica,sans-Serif" font-size="10.00">diag_manager_mod</text>
</a>
</g>
</g>
<!-- Node8 -->
<g id="node2" class="node">
<title>Node8</title>
<g id="a_node2"><a xlink:href="group__diag__util__mod.html" target="_top" xlink:title="Functions and subroutines necessary for the diag_manager_mod.">
<polygon fill="white" stroke="black" points="220.5,-204 134.5,-204 134.5,-185 220.5,-185 220.5,-204"/>
<text text-anchor="middle" x="177.5" y="-192" font-family="Helvetica,sans-Serif" font-size="10.00">diag_util_mod</text>
</a>
</g>
</g>
<!-- Node6 -->
<g id="node3" class="node">
<title>Node6</title>
<g id="a_node3"><a xlink:href="group__diag__output__mod.html" target="_top" xlink:title="diag_output_mod is an integral part of diag_manager_mod. Its function is to write axis&#45;meta&#45;data,...">
<polygon fill="white" stroke="black" points="228,-167 127,-167 127,-148 228,-148 228,-167"/>
<text text-anchor="middle" x="177.5" y="-155" font-family="Helvetica,sans-Serif" font-size="10.00">diag_output_mod</text>
</a>
</g>
</g>
<!-- Node1 -->
<g id="node4" class="node">
<title>Node1</title>
<g id="a_node4"><a xlink:title="Modules and associated files in the diag_manager directory.">
<polygon fill="#bfbfbf" stroke="black" points="85,-130 0,-130 0,-111 85,-111 85,-130"/>
<text text-anchor="middle" x="42.5" y="-118" font-family="Helvetica,sans-Serif" font-size="10.00">Diag Manager</text>
</a>
</g>
</g>
<!-- Node1&#45;&gt;Node5 -->
<g id="edge4" class="edge">
<title>Node1&#45;&gt;Node5</title>
<path fill="none" stroke="black" d="M54.26,-138.81C67.45,-159.75 91.72,-193.69 121,-213.5 126.03,-216.91 131.76,-219.7 137.57,-221.99"/>
<polygon fill="black" stroke="black" points="57.19,-136.91 48.99,-130.2 51.22,-140.56 57.19,-136.91"/>
</g>
<!-- Node1&#45;&gt;Node8 -->
<g id="edge7" class="edge">
<title>Node1&#45;&gt;Node8</title>
<path fill="none" stroke="black" d="M62.33,-136.7C77.39,-148.98 99.47,-165.57 121,-176.5 127.41,-179.76 134.54,-182.59 141.49,-184.99"/>
<polygon fill="black" stroke="black" points="64.26,-133.75 54.33,-130.03 59.77,-139.12 64.26,-133.75"/>
</g>
<!-- Node1&#45;&gt;Node6 -->
<g id="edge5" class="edge">
<title>Node1&#45;&gt;Node6</title>
<path fill="none" stroke="black" d="M87.81,-132.83C105.42,-137.73 125.38,-143.28 141.9,-147.88"/>
<polygon fill="black" stroke="black" points="88.32,-129.34 77.75,-130.03 86.45,-136.08 88.32,-129.34"/>
</g>
<!-- Node3 -->
<g id="node5" class="node">
<title>Node3</title>
<g id="a_node5"><a xlink:href="group__diag__data__mod.html" target="_top" xlink:title="Type descriptions and global variables for the diag_manager modules.">
<polygon fill="white" stroke="black" points="223.5,-130 131.5,-130 131.5,-111 223.5,-111 223.5,-130"/>
<text text-anchor="middle" x="177.5" y="-118" font-family="Helvetica,sans-Serif" font-size="10.00">diag_data_mod</text>
</a>
</g>
</g>
<!-- Node1&#45;&gt;Node3 -->
<g id="edge2" class="edge">
<title>Node1&#45;&gt;Node3</title>
<path fill="none" stroke="black" d="M95.41,-120.5C107.24,-120.5 119.71,-120.5 131.24,-120.5"/>
<polygon fill="black" stroke="black" points="95.22,-117 85.22,-120.5 95.22,-124 95.22,-117"/>
</g>
<!-- Node7 -->
<g id="node6" class="node">
<title>Node7</title>
<g id="a_node6"><a xlink:href="group__diag__table__mod.html" target="_top" xlink:title="diag_table_mod is a set of subroutines use to parse out the data from a diag_table....">
<polygon fill="white" stroke="black" points="225,-93 130,-93 130,-74 225,-74 225,-93"/>
<text text-anchor="middle" x="177.5" y="-81" font-family="Helvetica,sans-Serif" font-size="10.00">diag_table_mod</text>
</a>
</g>
</g>
<!-- Node1&#45;&gt;Node7 -->
<g id="edge6" class="edge">
<title>Node1&#45;&gt;Node7</title>
<path fill="none" stroke="black" d="M87.81,-108.17C105.42,-103.27 125.38,-97.72 141.9,-93.12"/>
<polygon fill="black" stroke="black" points="86.45,-104.92 77.75,-110.97 88.32,-111.66 86.45,-104.92"/>
</g>
<!-- Node2 -->
<g id="node7" class="node">
<title>Node2</title>
<g id="a_node7"><a xlink:href="group__diag__axis__mod.html" target="_top" xlink:title="An integral part of diag_manager_mod. It helps to create axis IDs that are used in register_diag_fiel...">
<polygon fill="white" stroke="black" points="222.5,-56 132.5,-56 132.5,-37 222.5,-37 222.5,-56"/>
<text text-anchor="middle" x="177.5" y="-44" font-family="Helvetica,sans-Serif" font-size="10.00">diag_axis_mod</text>
</a>
</g>
</g>
<!-- Node1&#45;&gt;Node2 -->
<g id="edge1" class="edge">
<title>Node1&#45;&gt;Node2</title>
<path fill="none" stroke="black" d="M62.95,-104.3C78.04,-92.33 99.89,-76.32 121,-65.5 128.07,-61.88 135.98,-58.7 143.57,-56.03"/>
<polygon fill="black" stroke="black" points="60.48,-101.79 54.9,-110.8 64.88,-107.24 60.48,-101.79"/>
</g>
<!-- Node4 -->
<g id="node8" class="node">
<title>Node4</title>
<g id="a_node8"><a xlink:href="group__diag__grid__mod.html" target="_top" xlink:title="diag_grid_mod is a set of procedures to work with the model&#39;s global grid to allow regional output.">
<polygon fill="white" stroke="black" points="222,-19 133,-19 133,0 222,0 222,-19"/>
<text text-anchor="middle" x="177.5" y="-7" font-family="Helvetica,sans-Serif" font-size="10.00">diag_grid_mod</text>
</a>
</g>
</g>
<!-- Node1&#45;&gt;Node4 -->
<g id="edge3" class="edge">
<title>Node1&#45;&gt;Node4</title>
<path fill="none" stroke="black" d="M54.36,-102.47C67.65,-81.84 92.01,-48.35 121,-28.5 126.55,-24.7 132.92,-21.6 139.33,-19.09"/>
<polygon fill="black" stroke="black" points="51.39,-100.62 49.05,-110.95 57.32,-104.33 51.39,-100.62"/>
</g>
</g>
</svg>
