<?xml version="1.0" encoding="UTF-8" standalone="no"?>
<!DOCTYPE svg PUBLIC "-//W3C//DTD SVG 1.1//EN"
 "http://www.w3.org/Graphics/SVG/1.1/DTD/svg11.dtd">
<!-- Generated by graphviz version 2.43.0 (0)
 -->
<!-- Title: Exchange Pages: 1 -->
<svg width="230pt" height="64pt"
 viewBox="0.00 0.00 230.00 64.00" xmlns="http://www.w3.org/2000/svg" xmlns:xlink="http://www.w3.org/1999/xlink">
<g id="graph0" class="graph" transform="scale(1 1) rotate(0) translate(4 60)">
<title>Exchange</title>
<polygon fill="white" stroke="transparent" points="-4,4 -4,-60 226,-60 226,4 -4,4"/>
<!-- Node1 -->
<g id="node1" class="node">
<title>Node1</title>
<g id="a_node1"><a xlink:title="Modules and associated files in the exchange directory.">
<polygon fill="#bfbfbf" stroke="black" points="64,-37 0,-37 0,-18 64,-18 64,-37"/>
<text text-anchor="middle" x="32" y="-25" font-family="Helvetica,sans-Serif" font-size="10.00">Exchange</text>
</a>
</g>
</g>
<!-- Node3 -->
<g id="node2" class="node">
<title>Node3</title>
<g id="a_node2"><a xlink:href="group__xgrid__mod.html" target="_top" xlink:title="Implements exchange grids for coupled models running on multiple processors.">
<polygon fill="white" stroke="black" points="195,-56 127,-56 127,-37 195,-37 195,-56"/>
<text text-anchor="middle" x="161" y="-44" font-family="Helvetica,sans-Serif" font-size="10.00">xgrid_mod</text>
</a>
</g>
</g>
<!-- Node1&#45;&gt;Node3 -->
<g id="edge2" class="edge">
<title>Node1&#45;&gt;Node3</title>
<path fill="none" stroke="black" d="M74.25,-33.67C91.19,-36.21 110.55,-39.1 126.58,-41.5"/>
<polygon fill="black" stroke="black" points="74.48,-30.17 64.07,-32.15 73.44,-37.09 74.48,-30.17"/>
</g>
<!-- Node2 -->
<g id="node3" class="node">
<title>Node2</title>
<g id="a_node3"><a xlink:href="group__stock__constants__mod.html" target="_top" xlink:title="Parameters, routines, and types for computing stocks in xgrid_mod.">
<polygon fill="white" stroke="black" points="222,-19 100,-19 100,0 222,0 222,-19"/>
<text text-anchor="middle" x="161" y="-7" font-family="Helvetica,sans-Serif" font-size="10.00">stock_constants_mod</text>
</a>
</g>
</g>
<!-- Node1&#45;&gt;Node2 -->
<g id="edge1" class="edge">
<title>Node1&#45;&gt;Node2</title>
<path fill="none" stroke="black" d="M74.16,-21.67C82.4,-20.5 91.23,-19.25 99.96,-18.01"/>
<polygon fill="black" stroke="black" points="73.48,-18.23 64.07,-23.1 74.46,-25.16 73.48,-18.23"/>
</g>
</g>
</svg>
