<?xml version="1.0" encoding="UTF-8" standalone="no"?>
<!DOCTYPE svg PUBLIC "-//W3C//DTD SVG 1.1//EN"
 "http://www.w3.org/Graphics/SVG/1.1/DTD/svg11.dtd">
<!-- Generated by graphviz version 2.43.0 (0)
 -->
<!-- Title: Drifters Pages: 1 -->
<svg width="229pt" height="212pt"
 viewBox="0.00 0.00 229.00 212.00" xmlns="http://www.w3.org/2000/svg" xmlns:xlink="http://www.w3.org/1999/xlink">
<g id="graph0" class="graph" transform="scale(1 1) rotate(0) translate(4 208)">
<title>Drifters</title>
<polygon fill="white" stroke="transparent" points="-4,4 -4,-208 225,-208 225,4 -4,4"/>
<!-- Node4 -->
<g id="node1" class="node">
<title>Node4</title>
<g id="a_node1"><a xlink:href="group__drifters__comm__mod.html" target="_top" xlink:title="Routines and types to update drifter positions across processor domains.">
<polygon fill="white" stroke="black" points="212,-204 98,-204 98,-185 212,-185 212,-204"/>
<text text-anchor="middle" x="155" y="-192" font-family="Helvetica,sans-Serif" font-size="10.00">drifters_comm_mod</text>
</a>
</g>
</g>
<!-- Node2 -->
<g id="node2" class="node">
<title>Node2</title>
<g id="a_node2"><a xlink:href="group__cloud__interpolator__mod.html" target="_top" xlink:title="Cloud interpolation routines for use in drifters_mod.">
<polygon fill="white" stroke="black" points="221,-167 89,-167 89,-148 221,-148 221,-167"/>
<text text-anchor="middle" x="155" y="-155" font-family="Helvetica,sans-Serif" font-size="10.00">cloud_interpolator_mod</text>
</a>
</g>
</g>
<!-- Node7 -->
<g id="node3" class="node">
<title>Node7</title>
<g id="a_node3"><a xlink:href="group__drifters__io__mod.html" target="_top" xlink:title="Saves drifter data for postprocessing and restarts.">
<polygon fill="white" stroke="black" points="201,-130 109,-130 109,-111 201,-111 201,-130"/>
<text text-anchor="middle" x="155" y="-118" font-family="Helvetica,sans-Serif" font-size="10.00">drifters_io_mod</text>
</a>
</g>
</g>
<!-- Node1 -->
<g id="node4" class="node">
<title>Node1</title>
<g id="a_node4"><a xlink:title="Modules and associated files in the drifters directory.">
<polygon fill="#bfbfbf" stroke="black" points="53,-111 0,-111 0,-92 53,-92 53,-111"/>
<text text-anchor="middle" x="26.5" y="-99" font-family="Helvetica,sans-Serif" font-size="10.00">Drifters</text>
</a>
</g>
</g>
<!-- Node1&#45;&gt;Node4 -->
<g id="edge3" class="edge">
<title>Node1&#45;&gt;Node4</title>
<path fill="none" stroke="black" d="M37.88,-119.75C48.55,-136.89 66.73,-162.01 89,-176.5 94.2,-179.89 100.03,-182.64 106.02,-184.88"/>
<polygon fill="black" stroke="black" points="40.88,-117.95 32.74,-111.16 34.87,-121.54 40.88,-117.95"/>
</g>
<!-- Node1&#45;&gt;Node2 -->
<g id="edge1" class="edge">
<title>Node1&#45;&gt;Node2</title>
<path fill="none" stroke="black" d="M49.01,-116.89C60.46,-124.52 75.02,-133.4 89,-139.5 96.51,-142.78 104.77,-145.61 112.82,-148"/>
<polygon fill="black" stroke="black" points="50.8,-113.87 40.57,-111.11 46.85,-119.65 50.8,-113.87"/>
</g>
<!-- Node1&#45;&gt;Node7 -->
<g id="edge6" class="edge">
<title>Node1&#45;&gt;Node7</title>
<path fill="none" stroke="black" d="M63.02,-106.83C77.28,-108.98 93.89,-111.47 108.98,-113.74"/>
<polygon fill="black" stroke="black" points="63.51,-103.37 53.1,-105.34 62.47,-110.29 63.51,-103.37"/>
</g>
<!-- Node6 -->
<g id="node5" class="node">
<title>Node6</title>
<g id="a_node5"><a xlink:href="group__drifters__input__mod.html" target="_top" xlink:title="Imports initial drifter positions from a netCDF file.">
<polygon fill="white" stroke="black" points="209,-93 101,-93 101,-74 209,-74 209,-93"/>
<text text-anchor="middle" x="155" y="-81" font-family="Helvetica,sans-Serif" font-size="10.00">drifters_input_mod</text>
</a>
</g>
</g>
<!-- Node1&#45;&gt;Node6 -->
<g id="edge5" class="edge">
<title>Node1&#45;&gt;Node6</title>
<path fill="none" stroke="black" d="M63.3,-96.41C74.94,-94.75 88.11,-92.87 100.75,-91.08"/>
<polygon fill="black" stroke="black" points="62.51,-92.98 53.1,-97.86 63.49,-99.91 62.51,-92.98"/>
</g>
<!-- Node5 -->
<g id="node6" class="node">
<title>Node5</title>
<g id="a_node6"><a xlink:href="group__drifters__core__mod.html" target="_top" xlink:title="Handles the mechanics for adding and removing drifters.">
<polygon fill="white" stroke="black" points="207,-56 103,-56 103,-37 207,-37 207,-56"/>
<text text-anchor="middle" x="155" y="-44" font-family="Helvetica,sans-Serif" font-size="10.00">drifters_core_mod</text>
</a>
</g>
</g>
<!-- Node1&#45;&gt;Node5 -->
<g id="edge4" class="edge">
<title>Node1&#45;&gt;Node5</title>
<path fill="none" stroke="black" d="M50.39,-86.29C61.67,-79.27 75.69,-71.24 89,-65.5 97.42,-61.87 106.75,-58.69 115.64,-56.02"/>
<polygon fill="black" stroke="black" points="48.18,-83.54 41.63,-91.87 51.95,-89.45 48.18,-83.54"/>
</g>
<!-- Node3 -->
<g id="node7" class="node">
<title>Node3</title>
<g id="a_node7"><a xlink:href="group__drifters__mod.html" target="_top" xlink:title="Drifters_modis a module designed to advect a set of particles, in parallel or sequentially,...">
<polygon fill="white" stroke="black" points="194,-19 116,-19 116,0 194,0 194,-19"/>
<text text-anchor="middle" x="155" y="-7" font-family="Helvetica,sans-Serif" font-size="10.00">drifters_mod</text>
</a>
</g>
</g>
<!-- Node1&#45;&gt;Node3 -->
<g id="edge2" class="edge">
<title>Node1&#45;&gt;Node3</title>
<path fill="none" stroke="black" d="M38.51,-83.08C49.36,-66.48 67.41,-42.57 89,-28.5 97.08,-23.24 106.65,-19.4 115.93,-16.61"/>
<polygon fill="black" stroke="black" points="35.34,-81.55 32.99,-91.89 41.27,-85.28 35.34,-81.55"/>
</g>
</g>
</svg>
