<?xml version="1.0" encoding="UTF-8" standalone="no"?>
<!DOCTYPE svg PUBLIC "-//W3C//DTD SVG 1.1//EN"
 "http://www.w3.org/Graphics/SVG/1.1/DTD/svg11.dtd">
<!-- Generated by graphviz version 2.43.0 (0)
 -->
<!-- Title: Coupler Pages: 1 -->
<svg width="241pt" height="101pt"
 viewBox="0.00 0.00 241.00 101.00" xmlns="http://www.w3.org/2000/svg" xmlns:xlink="http://www.w3.org/1999/xlink">
<g id="graph0" class="graph" transform="scale(1 1) rotate(0) translate(4 97)">
<title>Coupler</title>
<polygon fill="white" stroke="transparent" points="-4,4 -4,-97 237,-97 237,4 -4,4"/>
<!-- Node2 -->
<g id="node1" class="node">
<title>Node2</title>
<g id="a_node1"><a xlink:href="group__atmos__ocean__fluxes__mod.html" target="_top" xlink:title="Implementation of routines to solve the gas fluxes at the ocean surface for a coupled model as outlin...">
<polygon fill="white" stroke="black" points="233,-93 90,-93 90,-74 233,-74 233,-93"/>
<text text-anchor="middle" x="161.5" y="-81" font-family="Helvetica,sans-Serif" font-size="10.00">atmos_ocean_fluxes_mod</text>
</a>
</g>
</g>
<!-- Node1 -->
<g id="node2" class="node">
<title>Node1</title>
<g id="a_node2"><a xlink:title="Modules and associated files in the coupler directory.">
<polygon fill="#bfbfbf" stroke="black" points="54,-56 0,-56 0,-37 54,-37 54,-56"/>
<text text-anchor="middle" x="27" y="-44" font-family="Helvetica,sans-Serif" font-size="10.00">Coupler</text>
</a>
</g>
</g>
<!-- Node1&#45;&gt;Node2 -->
<g id="edge1" class="edge">
<title>Node1&#45;&gt;Node2</title>
<path fill="none" stroke="black" d="M63.87,-57.81C72.41,-60.41 81.51,-63.12 90,-65.5 100.22,-68.37 111.32,-71.29 121.63,-73.93"/>
<polygon fill="black" stroke="black" points="64.75,-54.42 54.16,-54.82 62.69,-61.11 64.75,-54.42"/>
</g>
<!-- Node3 -->
<g id="node3" class="node">
<title>Node3</title>
<g id="a_node3"><a xlink:href="group__coupler__types__mod.html" target="_top" xlink:title="This module contains type declarations for the coupler.">
<polygon fill="white" stroke="black" points="217.5,-56 105.5,-56 105.5,-37 217.5,-37 217.5,-56"/>
<text text-anchor="middle" x="161.5" y="-44" font-family="Helvetica,sans-Serif" font-size="10.00">coupler_types_mod</text>
</a>
</g>
</g>
<!-- Node1&#45;&gt;Node3 -->
<g id="edge2" class="edge">
<title>Node1&#45;&gt;Node3</title>
<path fill="none" stroke="black" d="M64.32,-46.5C76.99,-46.5 91.49,-46.5 105.34,-46.5"/>
<polygon fill="black" stroke="black" points="64.18,-43 54.18,-46.5 64.18,-50 64.18,-43"/>
</g>
<!-- Node4 -->
<g id="node4" class="node">
<title>Node4</title>
<g id="a_node4"><a xlink:href="group__ensemble__manager__mod.html" target="_top" xlink:title="Routines for setting up and managing ensembles and ensemble pe lists.">
<polygon fill="white" stroke="black" points="231.5,-19 91.5,-19 91.5,0 231.5,0 231.5,-19"/>
<text text-anchor="middle" x="161.5" y="-7" font-family="Helvetica,sans-Serif" font-size="10.00">ensemble_manager_mod</text>
</a>
</g>
</g>
<!-- Node1&#45;&gt;Node4 -->
<g id="edge3" class="edge">
<title>Node1&#45;&gt;Node4</title>
<path fill="none" stroke="black" d="M63.92,-35.94C72.46,-33.47 81.54,-30.87 90,-28.5 101.23,-25.36 113.49,-22.02 124.6,-19.03"/>
<polygon fill="black" stroke="black" points="62.84,-32.61 54.21,-38.77 64.79,-39.33 62.84,-32.61"/>
</g>
</g>
</svg>
