<?xml version="1.0" encoding="UTF-8" standalone="no"?>
<!DOCTYPE svg PUBLIC "-//W3C//DTD SVG 1.1//EN"
 "http://www.w3.org/Graphics/SVG/1.1/DTD/svg11.dtd">
<!-- Generated by graphviz version 2.43.0 (0)
 -->
<!-- Title: FMS Pages: 1 -->
<svg width="159pt" height="64pt"
 viewBox="0.00 0.00 159.00 64.00" xmlns="http://www.w3.org/2000/svg" xmlns:xlink="http://www.w3.org/1999/xlink">
<g id="graph0" class="graph" transform="scale(1 1) rotate(0) translate(4 60)">
<title>FMS</title>
<polygon fill="white" stroke="transparent" points="-4,4 -4,-60 155,-60 155,4 -4,4"/>
<!-- Node3 -->
<g id="node1" class="node">
<title>Node3</title>
<g id="a_node1"><a xlink:href="group__fms__io__mod.html" target="_top" xlink:title="Module for writing and reading restart data via NetCDF files.">
<polygon fill="white" stroke="black" points="151,-56 74,-56 74,-37 151,-37 151,-56"/>
<text text-anchor="middle" x="112.5" y="-44" font-family="Helvetica,sans-Serif" font-size="10.00">fms_io_mod</text>
</a>
</g>
</g>
<!-- Node2 -->
<g id="node2" class="node">
<title>Node2</title>
<g id="a_node2"><a xlink:href="group__fms__mod.html" target="_top" xlink:title="The fms module provides routines that are commonly used by most FMS modules.">
<polygon fill="white" stroke="black" points="143.5,-19 81.5,-19 81.5,0 143.5,0 143.5,-19"/>
<text text-anchor="middle" x="112.5" y="-7" font-family="Helvetica,sans-Serif" font-size="10.00">fms_mod</text>
</a>
</g>
</g>
<!-- Node1 -->
<g id="node3" class="node">
<title>Node1</title>
<g id="a_node3"><a xlink:title="Modules and associated files in the fms directory.">
<polygon fill="#bfbfbf" stroke="black" points="38,-37 0,-37 0,-18 38,-18 38,-37"/>
<text text-anchor="middle" x="19" y="-25" font-family="Helvetica,sans-Serif" font-size="10.00">FMS</text>
</a>
</g>
</g>
<!-- Node1&#45;&gt;Node3 -->
<g id="edge2" class="edge">
<title>Node1&#45;&gt;Node3</title>
<path fill="none" stroke="black" d="M48.12,-33.34C56.23,-35.02 65.2,-36.89 73.78,-38.67"/>
<polygon fill="black" stroke="black" points="48.58,-29.86 38.08,-31.25 47.16,-36.71 48.58,-29.86"/>
</g>
<!-- Node1&#45;&gt;Node2 -->
<g id="edge1" class="edge">
<title>Node1&#45;&gt;Node2</title>
<path fill="none" stroke="black" d="M47.99,-21.99C58.51,-19.92 70.5,-17.57 81.21,-15.46"/>
<polygon fill="black" stroke="black" points="47.21,-18.58 38.08,-23.94 48.57,-25.45 47.21,-18.58"/>
</g>
</g>
</svg>
