<?xml version="1.0" encoding="UTF-8" standalone="no"?>
<!DOCTYPE svg PUBLIC "-//W3C//DTD SVG 1.1//EN"
 "http://www.w3.org/Graphics/SVG/1.1/DTD/svg11.dtd">
<!-- Generated by graphviz version 2.43.0 (0)
 -->
<!-- Title: MPP Pages: 1 -->
<svg width="204pt" height="286pt"
 viewBox="0.00 0.00 204.00 286.00" xmlns="http://www.w3.org/2000/svg" xmlns:xlink="http://www.w3.org/1999/xlink">
<g id="graph0" class="graph" transform="scale(1 1) rotate(0) translate(4 282)">
<title>MPP</title>
<polygon fill="white" stroke="transparent" points="-4,4 -4,-282 200,-282 200,4 -4,4"/>
<!-- Node5 -->
<g id="node1" class="node">
<title>Node5</title>
<g id="a_node1"><a xlink:href="group__mpp__efp__mod.html" target="_top" xlink:title="This module provides interfaces to the non&#45;domain&#45;oriented communication subroutines.">
<polygon fill="white" stroke="black" points="178,-278 92,-278 92,-259 178,-259 178,-278"/>
<text text-anchor="middle" x="135" y="-266" font-family="Helvetica,sans-Serif" font-size="10.00">mpp_efp_mod</text>
</a>
</g>
</g>
<!-- Node7 -->
<g id="node2" class="node">
<title>Node7</title>
<g id="a_node2"><a xlink:href="group__mpp__memutils__mod.html" target="_top" xlink:title="Routines to initialize and report on memory usage during the model run.">
<polygon fill="white" stroke="black" points="193.5,-241 76.5,-241 76.5,-222 193.5,-222 193.5,-241"/>
<text text-anchor="middle" x="135" y="-229" font-family="Helvetica,sans-Serif" font-size="10.00">mpp_memutils_mod</text>
</a>
</g>
</g>
<!-- Node8 -->
<g id="node3" class="node">
<title>Node8</title>
<g id="a_node3"><a xlink:href="group__mpp__parameter__mod.html" target="_top" xlink:title="Parameters values for use in various MPP modules If needed, these values should be imported from thei...">
<polygon fill="white" stroke="black" points="196,-204 74,-204 74,-185 196,-185 196,-204"/>
<text text-anchor="middle" x="135" y="-192" font-family="Helvetica,sans-Serif" font-size="10.00">mpp_parameter_mod</text>
</a>
</g>
</g>
<!-- Node4 -->
<g id="node4" class="node">
<title>Node4</title>
<g id="a_node4"><a xlink:href="group__mpp__domains__mod.html" target="_top" xlink:title="Domain decomposition and domain update for message&#45;passing codes.">
<polygon fill="white" stroke="black" points="191.5,-167 78.5,-167 78.5,-148 191.5,-148 191.5,-167"/>
<text text-anchor="middle" x="135" y="-155" font-family="Helvetica,sans-Serif" font-size="10.00">mpp_domains_mod</text>
</a>
</g>
</g>
<!-- Node1 -->
<g id="node5" class="node">
<title>Node1</title>
<g id="a_node5"><a xlink:title="Modules and associated files in the mpp directory.">
<polygon fill="#bfbfbf" stroke="black" points="38,-148 0,-148 0,-129 38,-129 38,-148"/>
<text text-anchor="middle" x="19" y="-136" font-family="Helvetica,sans-Serif" font-size="10.00">MPP</text>
</a>
</g>
</g>
<!-- Node1&#45;&gt;Node5 -->
<g id="edge4" class="edge">
<title>Node1&#45;&gt;Node5</title>
<path fill="none" stroke="black" d="M24.25,-158.01C30.71,-183.03 45.39,-226.09 74,-250.5 79.21,-254.95 85.49,-258.3 92,-260.82"/>
<polygon fill="black" stroke="black" points="27.64,-157.12 21.91,-148.21 20.83,-158.75 27.64,-157.12"/>
</g>
<!-- Node1&#45;&gt;Node7 -->
<g id="edge6" class="edge">
<title>Node1&#45;&gt;Node7</title>
<path fill="none" stroke="black" d="M28.9,-157.14C37.96,-174.2 53.57,-198.95 74,-213.5 78.78,-216.91 84.22,-219.68 89.82,-221.93"/>
<polygon fill="black" stroke="black" points="31.97,-155.46 24.33,-148.11 25.72,-158.62 31.97,-155.46"/>
</g>
<!-- Node1&#45;&gt;Node8 -->
<g id="edge7" class="edge">
<title>Node1&#45;&gt;Node8</title>
<path fill="none" stroke="black" d="M39.27,-154.36C49.18,-161.89 61.72,-170.53 74,-176.5 80.75,-179.78 88.22,-182.6 95.53,-184.97"/>
<polygon fill="black" stroke="black" points="41.35,-151.54 31.32,-148.12 37.03,-157.04 41.35,-151.54"/>
</g>
<!-- Node1&#45;&gt;Node4 -->
<g id="edge3" class="edge">
<title>Node1&#45;&gt;Node4</title>
<path fill="none" stroke="black" d="M48.06,-143.18C57.18,-144.7 67.64,-146.44 78.06,-148.18"/>
<polygon fill="black" stroke="black" points="48.5,-139.7 38.06,-141.51 47.35,-146.61 48.5,-139.7"/>
</g>
<!-- Node9 -->
<g id="node6" class="node">
<title>Node9</title>
<g id="a_node6"><a xlink:href="group__mpp__utilities__mod.html" target="_top" xlink:title="Module for utiltity routines to be used in MPP modules.">
<polygon fill="white" stroke="black" points="188.5,-130 81.5,-130 81.5,-111 188.5,-111 188.5,-130"/>
<text text-anchor="middle" x="135" y="-118" font-family="Helvetica,sans-Serif" font-size="10.00">mpp_utilities_mod</text>
</a>
</g>
</g>
<!-- Node1&#45;&gt;Node9 -->
<g id="edge8" class="edge">
<title>Node1&#45;&gt;Node9</title>
<path fill="none" stroke="black" d="M48.17,-134.05C58.14,-132.48 69.7,-130.65 81.05,-128.86"/>
<polygon fill="black" stroke="black" points="47.4,-130.63 38.06,-135.65 48.49,-137.55 47.4,-130.63"/>
</g>
<!-- Node6 -->
<g id="node7" class="node">
<title>Node6</title>
<g id="a_node7"><a xlink:href="group__mpp__io__mod.html" target="_top" xlink:title="a set of simple calls for parallel I/O on distributed systems. It is geared toward the writing of dat...">
<polygon fill="white" stroke="black" points="175,-93 95,-93 95,-74 175,-74 175,-93"/>
<text text-anchor="middle" x="135" y="-81" font-family="Helvetica,sans-Serif" font-size="10.00">mpp_io_mod</text>
</a>
</g>
</g>
<!-- Node1&#45;&gt;Node6 -->
<g id="edge5" class="edge">
<title>Node1&#45;&gt;Node6</title>
<path fill="none" stroke="black" d="M40.51,-122.84C50.27,-115.92 62.33,-108.1 74,-102.5 81.59,-98.86 90.04,-95.69 98.14,-93.04"/>
<polygon fill="black" stroke="black" points="38.28,-120.13 32.27,-128.86 42.41,-125.78 38.28,-120.13"/>
</g>
<!-- Node3 -->
<g id="node8" class="node">
<title>Node3</title>
<g id="a_node8"><a xlink:href="group__mpp__data__mod.html" target="_top" xlink:title="Module to hold pointer and stack data for use in MPP modules.">
<polygon fill="white" stroke="black" points="181,-56 89,-56 89,-37 181,-37 181,-56"/>
<text text-anchor="middle" x="135" y="-44" font-family="Helvetica,sans-Serif" font-size="10.00">mpp_data_mod</text>
</a>
</g>
</g>
<!-- Node1&#45;&gt;Node3 -->
<g id="edge2" class="edge">
<title>Node1&#45;&gt;Node3</title>
<path fill="none" stroke="black" d="M29.47,-119.7C38.71,-103.17 54.24,-79.61 74,-65.5 79.42,-61.63 85.67,-58.52 92.04,-56.03"/>
<polygon fill="black" stroke="black" points="26.17,-118.46 24.55,-128.93 32.34,-121.75 26.17,-118.46"/>
</g>
<!-- Node2 -->
<g id="node9" class="node">
<title>Node2</title>
<g id="a_node9"><a xlink:href="group__mpp__mod.html" target="_top" xlink:title="This module defines interfaces for common operations using message&#45;passing libraries.">
<polygon fill="white" stroke="black" points="167.5,-19 102.5,-19 102.5,0 167.5,0 167.5,-19"/>
<text text-anchor="middle" x="135" y="-7" font-family="Helvetica,sans-Serif" font-size="10.00">mpp_mod</text>
</a>
</g>
</g>
<!-- Node1&#45;&gt;Node2 -->
<g id="edge1" class="edge">
<title>Node1&#45;&gt;Node2</title>
<path fill="none" stroke="black" d="M24.5,-119.07C31.17,-94.51 46.03,-52.57 74,-28.5 81.95,-21.66 92.38,-17.28 102.3,-14.47"/>
<polygon fill="black" stroke="black" points="21.05,-118.44 21.99,-129 27.83,-120.16 21.05,-118.44"/>
</g>
</g>
</svg>
