<?xml version="1.0" encoding="UTF-8" standalone="no"?>
<!DOCTYPE svg PUBLIC "-//W3C//DTD SVG 1.1//EN"
 "http://www.w3.org/Graphics/SVG/1.1/DTD/svg11.dtd">
<!-- Generated by graphviz version 2.43.0 (0)
 -->
<!-- Title: Topography Pages: 1 -->
<svg width="237pt" height="64pt"
 viewBox="0.00 0.00 237.00 64.00" xmlns="http://www.w3.org/2000/svg" xmlns:xlink="http://www.w3.org/1999/xlink">
<g id="graph0" class="graph" transform="scale(1 1) rotate(0) translate(4 60)">
<title>Topography</title>
<polygon fill="white" stroke="transparent" points="-4,4 -4,-60 233,-60 233,4 -4,4"/>
<!-- Node3 -->
<g id="node1" class="node">
<title>Node3</title>
<g id="a_node1"><a xlink:href="group__topography__mod.html" target="_top" xlink:title="Routines for creating land surface topography fields and land&#45;water masks for latitude&#45;longitude grid...">
<polygon fill="white" stroke="black" points="218.5,-56 119.5,-56 119.5,-37 218.5,-37 218.5,-56"/>
<text text-anchor="middle" x="169" y="-44" font-family="Helvetica,sans-Serif" font-size="10.00">topography_mod</text>
</a>
</g>
</g>
<!-- Node1 -->
<g id="node2" class="node">
<title>Node1</title>
<g id="a_node2"><a xlink:title="Modules and associated files in the topography directory.">
<polygon fill="#bfbfbf" stroke="black" points="73,-37 0,-37 0,-18 73,-18 73,-37"/>
<text text-anchor="middle" x="36.5" y="-25" font-family="Helvetica,sans-Serif" font-size="10.00">Topography</text>
</a>
</g>
</g>
<!-- Node1&#45;&gt;Node3 -->
<g id="edge2" class="edge">
<title>Node1&#45;&gt;Node3</title>
<path fill="none" stroke="black" d="M83.13,-34.14C94.78,-35.84 107.36,-37.67 119.17,-39.39"/>
<polygon fill="black" stroke="black" points="83.56,-30.67 73.16,-32.69 82.55,-37.6 83.56,-30.67"/>
</g>
<!-- Node2 -->
<g id="node3" class="node">
<title>Node2</title>
<g id="a_node3"><a xlink:href="group__gaussian__topog__mod.html" target="_top" xlink:title="Routines for creating Gaussian&#45;shaped land surface topography for latitude&#45;longitude grids.">
<polygon fill="white" stroke="black" points="229,-19 109,-19 109,0 229,0 229,-19"/>
<text text-anchor="middle" x="169" y="-7" font-family="Helvetica,sans-Serif" font-size="10.00">gaussian_topog_mod</text>
</a>
</g>
</g>
<!-- Node1&#45;&gt;Node2 -->
<g id="edge1" class="edge">
<title>Node1&#45;&gt;Node2</title>
<path fill="none" stroke="black" d="M83.31,-21.18C91.54,-20.05 100.24,-18.85 108.79,-17.67"/>
<polygon fill="black" stroke="black" points="82.59,-17.75 73.16,-22.58 83.54,-24.68 82.59,-17.75"/>
</g>
</g>
</svg>
