<?xml version="1.0" encoding="UTF-8" standalone="no"?>
<!DOCTYPE svg PUBLIC "-//W3C//DTD SVG 1.1//EN"
 "http://www.w3.org/Graphics/SVG/1.1/DTD/svg11.dtd">
<!-- Generated by graphviz version 2.43.0 (0)
 -->
<!-- Title: FMS Global Module Pages: 1 -->
<svg width="240pt" height="64pt"
 viewBox="0.00 0.00 240.00 64.00" xmlns="http://www.w3.org/2000/svg" xmlns:xlink="http://www.w3.org/1999/xlink">
<g id="graph0" class="graph" transform="scale(1 1) rotate(0) translate(4 60)">
<title>FMS Global Module</title>
<polygon fill="white" stroke="transparent" points="-4,4 -4,-60 236,-60 236,4 -4,4"/>
<!-- Node3 -->
<g id="node1" class="node">
<title>Node3</title>
<g id="a_node1"><a xlink:href="group__FMS.html" target="_top" xlink:title="A convenience module to use any FMS routines, functions, values.">
<polygon fill="white" stroke="black" points="208.5,-56 170.5,-56 170.5,-37 208.5,-37 208.5,-56"/>
<text text-anchor="middle" x="189.5" y="-44" font-family="Helvetica,sans-Serif" font-size="10.00">FMS</text>
</a>
</g>
</g>
<!-- Node2 -->
<g id="node2" class="node">
<title>Node2</title>
<g id="a_node2"><a xlink:href="group__fmsconstants.html" target="_top" xlink:title="Essentially a copy of constants_mod for external usage alongside FMS Global Module.">
<polygon fill="white" stroke="black" points="232,-19 147,-19 147,0 232,0 232,-19"/>
<text text-anchor="middle" x="189.5" y="-7" font-family="Helvetica,sans-Serif" font-size="10.00">FMSconstants</text>
</a>
</g>
</g>
<!-- Node1 -->
<g id="node3" class="node">
<title>Node1</title>
<g id="a_node3"><a xlink:title="Modules and associated files in the libfms directory.">
<polygon fill="#bfbfbf" stroke="black" points="111,-37 0,-37 0,-18 111,-18 111,-37"/>
<text text-anchor="middle" x="55.5" y="-25" font-family="Helvetica,sans-Serif" font-size="10.00">FMS Global Module</text>
</a>
</g>
</g>
<!-- Node1&#45;&gt;Node3 -->
<g id="edge2" class="edge">
<title>Node1&#45;&gt;Node3</title>
<path fill="none" stroke="black" d="M121.31,-36.83C139.35,-39.43 157.51,-42.04 170.39,-43.89"/>
<polygon fill="black" stroke="black" points="121.73,-33.35 111.33,-35.39 120.73,-40.28 121.73,-33.35"/>
</g>
<!-- Node1&#45;&gt;Node2 -->
<g id="edge1" class="edge">
<title>Node1&#45;&gt;Node2</title>
<path fill="none" stroke="black" d="M121.46,-18.64C130.12,-17.46 138.81,-16.28 146.92,-15.17"/>
<polygon fill="black" stroke="black" points="120.77,-15.2 111.33,-20.02 121.71,-22.14 120.77,-15.2"/>
</g>
</g>
</svg>
