<?xml version="1.0" encoding="UTF-8" standalone="no"?>
<!DOCTYPE svg PUBLIC "-//W3C//DTD SVG 1.1//EN"
 "http://www.w3.org/Graphics/SVG/1.1/DTD/svg11.dtd">
<!-- Generated by graphviz version 2.43.0 (0)
 -->
<!-- Title: Saturation Vapor Pressure Pages: 1 -->
<svg width="316pt" height="64pt"
 viewBox="0.00 0.00 316.00 64.00" xmlns="http://www.w3.org/2000/svg" xmlns:xlink="http://www.w3.org/1999/xlink">
<g id="graph0" class="graph" transform="scale(1 1) rotate(0) translate(4 60)">
<title>Saturation Vapor Pressure</title>
<polygon fill="white" stroke="transparent" points="-4,4 -4,-60 312,-60 312,4 -4,4"/>
<!-- Node3 -->
<g id="node1" class="node">
<title>Node3</title>
<g id="a_node1"><a xlink:href="group__sat__vapor__pres__k__mod.html" target="_top" xlink:title="Kernel module to be used by sat_vapor_pres_mod for table lookups and calculations.">
<polygon fill="white" stroke="black" points="308,-56 179,-56 179,-37 308,-37 308,-56"/>
<text text-anchor="middle" x="243.5" y="-44" font-family="Helvetica,sans-Serif" font-size="10.00">sat_vapor_pres_k_mod</text>
</a>
</g>
</g>
<!-- Node2 -->
<g id="node2" class="node">
<title>Node2</title>
<g id="a_node2"><a xlink:href="group__sat__vapor__pres__mod.html" target="_top" xlink:title="Routines for computing the saturation vapor pressure (es), the specific humidity (qs) and vapor mixin...">
<polygon fill="white" stroke="black" points="302.5,-19 184.5,-19 184.5,0 302.5,0 302.5,-19"/>
<text text-anchor="middle" x="243.5" y="-7" font-family="Helvetica,sans-Serif" font-size="10.00">sat_vapor_pres_mod</text>
</a>
</g>
</g>
<!-- Node1 -->
<g id="node3" class="node">
<title>Node1</title>
<g id="a_node3"><a xlink:title="Modules and associated files in the sat_vapor_pres directory.">
<polygon fill="#bfbfbf" stroke="black" points="143,-37 0,-37 0,-18 143,-18 143,-37"/>
<text text-anchor="middle" x="71.5" y="-25" font-family="Helvetica,sans-Serif" font-size="10.00">Saturation Vapor Pressure</text>
</a>
</g>
</g>
<!-- Node1&#45;&gt;Node3 -->
<g id="edge2" class="edge">
<title>Node1&#45;&gt;Node3</title>
<path fill="none" stroke="black" d="M153.19,-36.52C161.82,-37.48 170.5,-38.45 178.89,-39.39"/>
<polygon fill="black" stroke="black" points="153.45,-33.03 143.12,-35.39 152.67,-39.98 153.45,-33.03"/>
</g>
<!-- Node1&#45;&gt;Node2 -->
<g id="edge1" class="edge">
<title>Node1&#45;&gt;Node2</title>
<path fill="none" stroke="black" d="M153.2,-18.96C163.76,-17.84 174.41,-16.71 184.5,-15.64"/>
<polygon fill="black" stroke="black" points="152.69,-15.49 143.12,-20.02 153.43,-22.45 152.69,-15.49"/>
</g>
</g>
</svg>
