<?xml version="1.0" encoding="UTF-8" standalone="no"?>
<!DOCTYPE svg PUBLIC "-//W3C//DTD SVG 1.1//EN"
 "http://www.w3.org/Graphics/SVG/1.1/DTD/svg11.dtd">
<!-- Generated by graphviz version 2.43.0 (0)
 -->
<!-- Title: Mosaic Pages: 1 -->
<svg width="179pt" height="101pt"
 viewBox="0.00 0.00 179.00 101.00" xmlns="http://www.w3.org/2000/svg" xmlns:xlink="http://www.w3.org/1999/xlink">
<g id="graph0" class="graph" transform="scale(1 1) rotate(0) translate(4 97)">
<title>Mosaic</title>
<polygon fill="white" stroke="transparent" points="-4,4 -4,-97 175,-97 175,4 -4,4"/>
<!-- Node1 -->
<g id="node1" class="node">
<title>Node1</title>
<g id="a_node1"><a xlink:title="Modules and associated files in the mosaic directory.">
<polygon fill="#bfbfbf" stroke="black" points="51,-56 0,-56 0,-37 51,-37 51,-56"/>
<text text-anchor="middle" x="25.5" y="-44" font-family="Helvetica,sans-Serif" font-size="10.00">Mosaic</text>
</a>
</g>
</g>
<!-- Node2 -->
<g id="node2" class="node">
<title>Node2</title>
<g id="a_node2"><a xlink:href="group__gradient__mod.html" target="_top" xlink:title="Implements some utility routines to calculate gradient.">
<polygon fill="white" stroke="black" points="171,-93 87,-93 87,-74 171,-74 171,-93"/>
<text text-anchor="middle" x="129" y="-81" font-family="Helvetica,sans-Serif" font-size="10.00">gradient_mod</text>
</a>
</g>
</g>
<!-- Node1&#45;&gt;Node2 -->
<g id="edge1" class="edge">
<title>Node1&#45;&gt;Node2</title>
<path fill="none" stroke="black" d="M60.52,-58.9C74.01,-63.82 89.28,-69.39 101.88,-73.98"/>
<polygon fill="black" stroke="black" points="61.66,-55.59 51.07,-55.46 59.27,-62.17 61.66,-55.59"/>
</g>
<!-- Node4 -->
<g id="node3" class="node">
<title>Node4</title>
<g id="a_node3"><a xlink:href="group__mosaic__mod.html" target="_top" xlink:title="Implements some utility routines to read mosaic information.">
<polygon fill="white" stroke="black" points="168.5,-56 89.5,-56 89.5,-37 168.5,-37 168.5,-56"/>
<text text-anchor="middle" x="129" y="-44" font-family="Helvetica,sans-Serif" font-size="10.00">mosaic_mod</text>
</a>
</g>
</g>
<!-- Node1&#45;&gt;Node4 -->
<g id="edge3" class="edge">
<title>Node1&#45;&gt;Node4</title>
<path fill="none" stroke="black" d="M61.28,-46.5C70.34,-46.5 80.16,-46.5 89.4,-46.5"/>
<polygon fill="black" stroke="black" points="61.07,-43 51.07,-46.5 61.07,-50 61.07,-43"/>
</g>
<!-- Node3 -->
<g id="node4" class="node">
<title>Node3</title>
<g id="a_node4"><a xlink:href="group__grid__mod.html" target="_top" xlink:title="Routines for grid calculations.">
<polygon fill="white" stroke="black" points="160,-19 98,-19 98,0 160,0 160,-19"/>
<text text-anchor="middle" x="129" y="-7" font-family="Helvetica,sans-Serif" font-size="10.00">grid_mod</text>
</a>
</g>
</g>
<!-- Node1&#45;&gt;Node3 -->
<g id="edge2" class="edge">
<title>Node1&#45;&gt;Node3</title>
<path fill="none" stroke="black" d="M60.52,-34.1C74.01,-29.18 89.28,-23.61 101.88,-19.02"/>
<polygon fill="black" stroke="black" points="59.27,-30.83 51.07,-37.54 61.66,-37.41 59.27,-30.83"/>
</g>
</g>
</svg>
