<?xml version="1.0" encoding="UTF-8" standalone="no"?>
<!DOCTYPE svg PUBLIC "-//W3C//DTD SVG 1.1//EN"
 "http://www.w3.org/Graphics/SVG/1.1/DTD/svg11.dtd">
<!-- Generated by graphviz version 2.43.0 (0)
 -->
<!-- Title: Monin Obukhov Pages: 1 -->
<svg width="259pt" height="64pt"
 viewBox="0.00 0.00 259.00 64.00" xmlns="http://www.w3.org/2000/svg" xmlns:xlink="http://www.w3.org/1999/xlink">
<g id="graph0" class="graph" transform="scale(1 1) rotate(0) translate(4 60)">
<title>Monin Obukhov</title>
<polygon fill="white" stroke="transparent" points="-4,4 -4,-60 255,-60 255,4 -4,4"/>
<!-- Node3 -->
<g id="node1" class="node">
<title>Node3</title>
<g id="a_node1"><a xlink:href="group__monin__obukhov__inter.html" target="_top" xlink:title="Utility routines to be used in monin_obukhov_mod.">
<polygon fill="white" stroke="black" points="251,-56 129,-56 129,-37 251,-37 251,-56"/>
<text text-anchor="middle" x="190" y="-44" font-family="Helvetica,sans-Serif" font-size="10.00">monin_obukhov_inter</text>
</a>
</g>
</g>
<!-- Node1 -->
<g id="node2" class="node">
<title>Node1</title>
<g id="a_node2"><a xlink:title="Modules and associated files in the monin_obukhov directory.">
<polygon fill="#bfbfbf" stroke="black" points="93,-37 0,-37 0,-18 93,-18 93,-37"/>
<text text-anchor="middle" x="46.5" y="-25" font-family="Helvetica,sans-Serif" font-size="10.00">Monin Obukhov</text>
</a>
</g>
</g>
<!-- Node1&#45;&gt;Node3 -->
<g id="edge2" class="edge">
<title>Node1&#45;&gt;Node3</title>
<path fill="none" stroke="black" d="M103.15,-34.97C111.57,-36.1 120.3,-37.28 128.82,-38.42"/>
<polygon fill="black" stroke="black" points="103.43,-31.48 93.05,-33.62 102.5,-38.42 103.43,-31.48"/>
</g>
<!-- Node2 -->
<g id="node3" class="node">
<title>Node2</title>
<g id="a_node3"><a xlink:href="group__monin__obukhov__mod.html" target="_top" xlink:title="Routines for computing surface drag coefficients from data at the lowest model level and for computin...">
<polygon fill="white" stroke="black" points="251,-19 129,-19 129,0 251,0 251,-19"/>
<text text-anchor="middle" x="190" y="-7" font-family="Helvetica,sans-Serif" font-size="10.00">monin_obukhov_mod</text>
</a>
</g>
</g>
<!-- Node1&#45;&gt;Node2 -->
<g id="edge1" class="edge">
<title>Node1&#45;&gt;Node2</title>
<path fill="none" stroke="black" d="M103.15,-20.42C111.57,-19.35 120.3,-18.24 128.82,-17.16"/>
<polygon fill="black" stroke="black" points="102.53,-16.97 93.05,-21.71 103.41,-23.92 102.53,-16.97"/>
</g>
</g>
</svg>
