<?xml version="1.0" encoding="UTF-8" standalone="no"?>
<!DOCTYPE svg PUBLIC "-//W3C//DTD SVG 1.1//EN"
 "http://www.w3.org/Graphics/SVG/1.1/DTD/svg11.dtd">
<!-- Generated by graphviz version 2.43.0 (0)
 -->
<!-- Title: Mosaic2 Pages: 1 -->
<svg width="186pt" height="64pt"
 viewBox="0.00 0.00 186.00 64.00" xmlns="http://www.w3.org/2000/svg" xmlns:xlink="http://www.w3.org/1999/xlink">
<g id="graph0" class="graph" transform="scale(1 1) rotate(0) translate(4 60)">
<title>Mosaic2</title>
<polygon fill="white" stroke="transparent" points="-4,4 -4,-60 182,-60 182,4 -4,4"/>
<!-- Node1 -->
<g id="node1" class="node">
<title>Node1</title>
<g id="a_node1"><a xlink:title="Modules and associated files in the mosaic2 directory.">
<polygon fill="#bfbfbf" stroke="black" points="57,-37 0,-37 0,-18 57,-18 57,-37"/>
<text text-anchor="middle" x="28.5" y="-25" font-family="Helvetica,sans-Serif" font-size="10.00">Mosaic2</text>
</a>
</g>
</g>
<!-- Node3 -->
<g id="node2" class="node">
<title>Node3</title>
<g id="a_node2"><a xlink:href="group__mosaic2__mod.html" target="_top" xlink:title="Implements some utility routines to read mosaic information.">
<polygon fill="white" stroke="black" points="178,-56 93,-56 93,-37 178,-37 178,-56"/>
<text text-anchor="middle" x="135.5" y="-44" font-family="Helvetica,sans-Serif" font-size="10.00">mosaic2_mod</text>
</a>
</g>
</g>
<!-- Node1&#45;&gt;Node3 -->
<g id="edge2" class="edge">
<title>Node1&#45;&gt;Node3</title>
<path fill="none" stroke="black" d="M66.98,-34.28C75.37,-35.8 84.31,-37.42 92.86,-38.97"/>
<polygon fill="black" stroke="black" points="67.55,-30.83 57.09,-32.49 66.3,-37.72 67.55,-30.83"/>
</g>
<!-- Node2 -->
<g id="node3" class="node">
<title>Node2</title>
<g id="a_node3"><a xlink:href="group__grid2__mod.html" target="_top" xlink:title="Routines for grid calculations, using FMS2 IO.">
<polygon fill="white" stroke="black" points="169.5,-19 101.5,-19 101.5,0 169.5,0 169.5,-19"/>
<text text-anchor="middle" x="135.5" y="-7" font-family="Helvetica,sans-Serif" font-size="10.00">grid2_mod</text>
</a>
</g>
</g>
<!-- Node1&#45;&gt;Node2 -->
<g id="edge1" class="edge">
<title>Node1&#45;&gt;Node2</title>
<path fill="none" stroke="black" d="M67.07,-21.06C78.32,-19.13 90.56,-17.03 101.49,-15.16"/>
<polygon fill="black" stroke="black" points="66.35,-17.63 57.09,-22.77 67.54,-24.53 66.35,-17.63"/>
</g>
</g>
</svg>
