<?xml version="1.0" encoding="UTF-8" standalone="no"?>
<!DOCTYPE svg PUBLIC "-//W3C//DTD SVG 1.1//EN"
 "http://www.w3.org/Graphics/SVG/1.1/DTD/svg11.dtd">
<!-- Generated by graphviz version 2.43.0 (0)
 -->
<!-- Title: Axis Utilities Pages: 1 -->
<svg width="219pt" height="64pt"
 viewBox="0.00 0.00 219.00 64.00" xmlns="http://www.w3.org/2000/svg" xmlns:xlink="http://www.w3.org/1999/xlink">
<g id="graph0" class="graph" transform="scale(1 1) rotate(0) translate(4 60)">
<title>Axis Utilities</title>
<polygon fill="white" stroke="transparent" points="-4,4 -4,-60 215,-60 215,4 -4,4"/>
<!-- Node2 -->
<g id="node1" class="node">
<title>Node2</title>
<g id="a_node1"><a xlink:href="group__axis__utils__mod.html" target="_top" xlink:title="A set of utilities for manipulating axes and extracting axis attributes,.">
<polygon fill="white" stroke="black" points="208,-56 118,-56 118,-37 208,-37 208,-56"/>
<text text-anchor="middle" x="163" y="-44" font-family="Helvetica,sans-Serif" font-size="10.00">axis_utils_mod</text>
</a>
</g>
</g>
<!-- Node1 -->
<g id="node2" class="node">
<title>Node1</title>
<g id="a_node2"><a xlink:title="Modules and associated files in the axis_utils directory.">
<polygon fill="#bfbfbf" stroke="black" points="79,-37 0,-37 0,-18 79,-18 79,-37"/>
<text text-anchor="middle" x="39.5" y="-25" font-family="Helvetica,sans-Serif" font-size="10.00">Axis Utilities</text>
</a>
</g>
</g>
<!-- Node1&#45;&gt;Node2 -->
<g id="edge1" class="edge">
<title>Node1&#45;&gt;Node2</title>
<path fill="none" stroke="black" d="M89.26,-35.13C98.65,-36.59 108.44,-38.12 117.67,-39.57"/>
<polygon fill="black" stroke="black" points="89.7,-31.65 79.28,-33.56 88.62,-38.57 89.7,-31.65"/>
</g>
<!-- Node3 -->
<g id="node3" class="node">
<title>Node3</title>
<g id="a_node3"><a xlink:href="group__axis__utils2__mod.html" target="_top" xlink:title="A set of utilities for manipulating axes and extracting axis attributes.">
<polygon fill="white" stroke="black" points="211,-19 115,-19 115,0 211,0 211,-19"/>
<text text-anchor="middle" x="163" y="-7" font-family="Helvetica,sans-Serif" font-size="10.00">axis_utils2_mod</text>
</a>
</g>
</g>
<!-- Node1&#45;&gt;Node3 -->
<g id="edge2" class="edge">
<title>Node1&#45;&gt;Node3</title>
<path fill="none" stroke="black" d="M89.28,-20.27C97.65,-19.03 106.33,-17.75 114.65,-16.51"/>
<polygon fill="black" stroke="black" points="88.66,-16.83 79.28,-21.76 89.68,-23.75 88.66,-16.83"/>
</g>
</g>
</svg>
