<?xml version="1.0" encoding="UTF-8" standalone="no"?>
<!DOCTYPE svg PUBLIC "-//W3C//DTD SVG 1.1//EN"
 "http://www.w3.org/Graphics/SVG/1.1/DTD/svg11.dtd">
<!-- Generated by graphviz version 2.43.0 (0)
 -->
<!-- Title: Field Manager Pages: 1 -->
<svg width="243pt" height="64pt"
 viewBox="0.00 0.00 243.00 64.00" xmlns="http://www.w3.org/2000/svg" xmlns:xlink="http://www.w3.org/1999/xlink">
<g id="graph0" class="graph" transform="scale(1 1) rotate(0) translate(4 60)">
<title>Field Manager</title>
<polygon fill="white" stroke="transparent" points="-4,4 -4,-60 239,-60 239,4 -4,4"/>
<!-- Node2 -->
<g id="node1" class="node">
<title>Node2</title>
<g id="a_node1"><a xlink:href="group__field__manager__mod.html" target="_top" xlink:title="Reads entries from a field table and stores this information along with the type of field it belongs ...">
<polygon fill="white" stroke="black" points="235,-56 122,-56 122,-37 235,-37 235,-56"/>
<text text-anchor="middle" x="178.5" y="-44" font-family="Helvetica,sans-Serif" font-size="10.00">field_manager_mod</text>
</a>
</g>
</g>
<!-- Node1 -->
<g id="node2" class="node">
<title>Node1</title>
<g id="a_node2"><a xlink:title="Modules and associated files in the field_manager directory.">
<polygon fill="#bfbfbf" stroke="black" points="86,-37 0,-37 0,-18 86,-18 86,-37"/>
<text text-anchor="middle" x="43" y="-25" font-family="Helvetica,sans-Serif" font-size="10.00">Field Manager</text>
</a>
</g>
</g>
<!-- Node1&#45;&gt;Node2 -->
<g id="edge1" class="edge">
<title>Node1&#45;&gt;Node2</title>
<path fill="none" stroke="black" d="M96.28,-34.94C104.67,-36.13 113.38,-37.37 121.85,-38.58"/>
<polygon fill="black" stroke="black" points="96.63,-31.46 86.24,-33.51 95.65,-38.39 96.63,-31.46"/>
</g>
<!-- Node3 -->
<g id="node3" class="node">
<title>Node3</title>
<g id="a_node3"><a xlink:href="group__fm__util__mod.html" target="_top" xlink:title="This module provides utility routines for the field manager.">
<polygon fill="white" stroke="black" points="217.5,-19 139.5,-19 139.5,0 217.5,0 217.5,-19"/>
<text text-anchor="middle" x="178.5" y="-7" font-family="Helvetica,sans-Serif" font-size="10.00">fm_util_mod</text>
</a>
</g>
</g>
<!-- Node1&#45;&gt;Node3 -->
<g id="edge2" class="edge">
<title>Node1&#45;&gt;Node3</title>
<path fill="none" stroke="black" d="M96.42,-20.43C110.67,-18.51 125.84,-16.47 139.15,-14.67"/>
<polygon fill="black" stroke="black" points="95.68,-17 86.24,-21.8 96.62,-23.94 95.68,-17"/>
</g>
</g>
</svg>
