<?xml version="1.0" encoding="UTF-8" standalone="no"?>
<!DOCTYPE svg PUBLIC "-//W3C//DTD SVG 1.1//EN"
 "http://www.w3.org/Graphics/SVG/1.1/DTD/svg11.dtd">
<!-- Generated by graphviz version 2.43.0 (0)
 -->
<!-- Title: Horizontal Interpolator Pages: 1 -->
<svg width="322pt" height="212pt"
 viewBox="0.00 0.00 322.00 212.00" xmlns="http://www.w3.org/2000/svg" xmlns:xlink="http://www.w3.org/1999/xlink">
<g id="graph0" class="graph" transform="scale(1 1) rotate(0) translate(4 208)">
<title>Horizontal Interpolator</title>
<polygon fill="white" stroke="transparent" points="-4,4 -4,-208 318,-208 318,4 -4,4"/>
<!-- Node6 -->
<g id="node1" class="node">
<title>Node6</title>
<g id="a_node1"><a xlink:href="group__horiz__interp__spherical__mod.html" target="_top" xlink:title="Performs spatial interpolation between grids using inverse&#45;distance&#45;weighted scheme....">
<polygon fill="white" stroke="black" points="314,-204 163,-204 163,-185 314,-185 314,-204"/>
<text text-anchor="middle" x="238.5" y="-192" font-family="Helvetica,sans-Serif" font-size="10.00">horiz_interp_spherical_mod</text>
</a>
</g>
</g>
<!-- Node5 -->
<g id="node2" class="node">
<title>Node5</title>
<g id="a_node2"><a xlink:href="group__horiz__interp__conserve__mod.html" target="_top" xlink:title="Performs spatial interpolation between grids using conservative interpolation.">
<polygon fill="white" stroke="black" points="314,-167 163,-167 163,-148 314,-148 314,-167"/>
<text text-anchor="middle" x="238.5" y="-155" font-family="Helvetica,sans-Serif" font-size="10.00">horiz_interp_conserve_mod</text>
</a>
</g>
</g>
<!-- Node1 -->
<g id="node3" class="node">
<title>Node1</title>
<g id="a_node3"><a xlink:title="Modules and associated files in the horiz_interp directory.">
<polygon fill="#bfbfbf" stroke="black" points="127,-111 0,-111 0,-92 127,-92 127,-111"/>
<text text-anchor="middle" x="63.5" y="-99" font-family="Helvetica,sans-Serif" font-size="10.00">Horizontal Interpolator</text>
</a>
</g>
</g>
<!-- Node1&#45;&gt;Node6 -->
<g id="edge5" class="edge">
<title>Node1&#45;&gt;Node6</title>
<path fill="none" stroke="black" d="M81.56,-118.08C100.12,-135.2 131.38,-161.46 163,-176.5 170.09,-179.87 177.87,-182.65 185.64,-184.92"/>
<polygon fill="black" stroke="black" points="83.88,-115.45 74.2,-111.15 79.08,-120.55 83.88,-115.45"/>
</g>
<!-- Node1&#45;&gt;Node5 -->
<g id="edge4" class="edge">
<title>Node1&#45;&gt;Node5</title>
<path fill="none" stroke="black" d="M96.31,-115C115.43,-122.79 140.35,-132.43 163,-139.5 172.91,-142.59 183.69,-145.47 193.9,-147.98"/>
<polygon fill="black" stroke="black" points="97.47,-111.69 86.89,-111.11 94.8,-118.16 97.47,-111.69"/>
</g>
<!-- Node7 -->
<g id="node4" class="node">
<title>Node7</title>
<g id="a_node4"><a xlink:href="group__horiz__interp__type__mod.html" target="_top" xlink:title="define derived data type that contains indices and weights used for subsequent interpolations.">
<polygon fill="white" stroke="black" points="302.5,-130 174.5,-130 174.5,-111 302.5,-111 302.5,-130"/>
<text text-anchor="middle" x="238.5" y="-118" font-family="Helvetica,sans-Serif" font-size="10.00">horiz_interp_type_mod</text>
</a>
</g>
</g>
<!-- Node1&#45;&gt;Node7 -->
<g id="edge6" class="edge">
<title>Node1&#45;&gt;Node7</title>
<path fill="none" stroke="black" d="M137.59,-109.53C149.8,-110.87 162.38,-112.25 174.31,-113.56"/>
<polygon fill="black" stroke="black" points="137.77,-106.03 127.45,-108.41 137,-112.98 137.77,-106.03"/>
</g>
<!-- Node4 -->
<g id="node5" class="node">
<title>Node4</title>
<g id="a_node5"><a xlink:href="group__horiz__interp__bilinear__mod.html" target="_top" xlink:title="Performs spatial interpolation between grids using bilinear interpolation.">
<polygon fill="white" stroke="black" points="310,-93 167,-93 167,-74 310,-74 310,-93"/>
<text text-anchor="middle" x="238.5" y="-81" font-family="Helvetica,sans-Serif" font-size="10.00">horiz_interp_bilinear_mod</text>
</a>
</g>
</g>
<!-- Node1&#45;&gt;Node4 -->
<g id="edge3" class="edge">
<title>Node1&#45;&gt;Node4</title>
<path fill="none" stroke="black" d="M137.51,-93.9C147.27,-92.89 157.27,-91.85 166.99,-90.84"/>
<polygon fill="black" stroke="black" points="137.03,-90.43 127.45,-94.95 137.75,-97.4 137.03,-90.43"/>
</g>
<!-- Node2 -->
<g id="node6" class="node">
<title>Node2</title>
<g id="a_node6"><a xlink:href="group__horiz__interp__mod.html" target="_top" xlink:title="Performs spatial interpolation between grids.">
<polygon fill="white" stroke="black" points="289,-56 188,-56 188,-37 289,-37 289,-56"/>
<text text-anchor="middle" x="238.5" y="-44" font-family="Helvetica,sans-Serif" font-size="10.00">horiz_interp_mod</text>
</a>
</g>
</g>
<!-- Node1&#45;&gt;Node2 -->
<g id="edge1" class="edge">
<title>Node1&#45;&gt;Node2</title>
<path fill="none" stroke="black" d="M97.94,-88.33C116.87,-81.11 141.08,-72.28 163,-65.5 173.97,-62.11 185.97,-58.85 197.08,-56.02"/>
<polygon fill="black" stroke="black" points="96.63,-85.08 88.56,-91.94 99.15,-91.61 96.63,-85.08"/>
</g>
<!-- Node3 -->
<g id="node7" class="node">
<title>Node3</title>
<g id="a_node7"><a xlink:href="group__horiz__interp__bicubic__mod.html" target="_top" xlink:title="Delivers methods for bicubic interpolation from a coarse regular grid on a fine regular grid.">
<polygon fill="white" stroke="black" points="309,-19 168,-19 168,0 309,0 309,-19"/>
<text text-anchor="middle" x="238.5" y="-7" font-family="Helvetica,sans-Serif" font-size="10.00">horiz_interp_bicubic_mod</text>
</a>
</g>
</g>
<!-- Node1&#45;&gt;Node3 -->
<g id="edge2" class="edge">
<title>Node1&#45;&gt;Node3</title>
<path fill="none" stroke="black" d="M81.98,-85.2C100.68,-68.61 131.85,-43.31 163,-28.5 170.96,-24.72 179.76,-21.62 188.45,-19.11"/>
<polygon fill="black" stroke="black" points="79.61,-82.62 74.55,-91.92 84.31,-87.81 79.61,-82.62"/>
</g>
</g>
</svg>
