<?xml version="1.0" encoding="UTF-8" standalone="no"?>
<!DOCTYPE svg PUBLIC "-//W3C//DTD SVG 1.1//EN"
 "http://www.w3.org/Graphics/SVG/1.1/DTD/svg11.dtd">
<!-- Generated by graphviz version 2.43.0 (0)
 -->
<!-- Title: FMS2 IO Pages: 1 -->
<svg width="256pt" height="224pt"
 viewBox="0.00 0.00 256.00 224.00" xmlns="http://www.w3.org/2000/svg" xmlns:xlink="http://www.w3.org/1999/xlink">
<g id="graph0" class="graph" transform="scale(1 1) rotate(0) translate(4 220)">
<title>FMS2 IO</title>
<polygon fill="white" stroke="transparent" points="-4,4 -4,-220 252,-220 252,4 -4,4"/>
<!-- Node7 -->
<g id="node1" class="node">
<title>Node7</title>
<g id="a_node1"><a xlink:href="group__netcdf__io__mod.html" target="_top" xlink:title="Creates a basic netcdf type and routines to extend for other uses.">
<polygon fill="white" stroke="black" points="215,-216 126,-216 126,-197 215,-197 215,-216"/>
<text text-anchor="middle" x="170.5" y="-204" font-family="Helvetica,sans-Serif" font-size="10.00">netcdf_io_mod</text>
</a>
</g>
</g>
<!-- Node2 -->
<g id="node2" class="node">
<title>Node2</title>
<g id="a_node2"><a xlink:href="group__blackboxio.html" target="_top" xlink:title="File utility functions for use within FMS2 IO.">
<polygon fill="white" stroke="black" points="205.5,-179 135.5,-179 135.5,-160 205.5,-160 205.5,-179"/>
<text text-anchor="middle" x="170.5" y="-167" font-family="Helvetica,sans-Serif" font-size="10.00">blackboxio</text>
</a>
</g>
</g>
<!-- Node5 -->
<g id="node3" class="node">
<title>Node5</title>
<g id="a_node3"><a xlink:href="group__fms__netcdf__domain__io__mod.html" target="_top" xlink:title="Domain&#45;specific I/O wrappers.">
<polygon fill="white" stroke="black" points="248,-142 93,-142 93,-123 248,-123 248,-142"/>
<text text-anchor="middle" x="170.5" y="-130" font-family="Helvetica,sans-Serif" font-size="10.00">fms_netcdf_domain_io_mod</text>
</a>
</g>
</g>
<!-- Node3 -->
<g id="node4" class="node">
<title>Node3</title>
<g id="a_node4"><a xlink:href="group__fms2__io__mod.html" target="_top" xlink:title="An updated library for parallel IO to replace mpp_io_mod. This module contains the public API for fms...">
<polygon fill="white" stroke="black" points="212,-105 129,-105 129,-86 212,-86 212,-105"/>
<text text-anchor="middle" x="170.5" y="-93" font-family="Helvetica,sans-Serif" font-size="10.00">fms2_io_mod</text>
</a>
</g>
</g>
<!-- Node6 -->
<g id="node5" class="node">
<title>Node6</title>
<g id="a_node5"><a xlink:href="group__fms__netcdf__unstructured__domain__io__mod.html" target="_top" xlink:title="Handles netcdf I/O for unstructured domains.">
<polygon fill="white" stroke="black" points="239.5,-67.5 101.5,-67.5 101.5,-37.5 239.5,-37.5 239.5,-67.5"/>
<text text-anchor="start" x="109.5" y="-55.5" font-family="Helvetica,sans-Serif" font-size="10.00">fms_netcdf_unstructured</text>
<text text-anchor="middle" x="170.5" y="-44.5" font-family="Helvetica,sans-Serif" font-size="10.00">_domain_io_mod</text>
</a>
</g>
</g>
<!-- Node4 -->
<g id="node6" class="node">
<title>Node4</title>
<g id="a_node6"><a xlink:href="group__fms__io__utils__mod.html" target="_top" xlink:title="Misc. utility routines for use in FMS2 IO.">
<polygon fill="white" stroke="black" points="222,-19 119,-19 119,0 222,0 222,-19"/>
<text text-anchor="middle" x="170.5" y="-7" font-family="Helvetica,sans-Serif" font-size="10.00">fms_io_utils_mod</text>
</a>
</g>
</g>
<!-- Node1 -->
<g id="node7" class="node">
<title>Node1</title>
<g id="a_node7"><a xlink:title="Modules and associated files in the fms2_io directory.">
<polygon fill="#bfbfbf" stroke="black" points="57,-123 0,-123 0,-104 57,-104 57,-123"/>
<text text-anchor="middle" x="28.5" y="-111" font-family="Helvetica,sans-Serif" font-size="10.00">FMS2 IO</text>
</a>
</g>
</g>
<!-- Node1&#45;&gt;Node7 -->
<g id="edge6" class="edge">
<title>Node1&#45;&gt;Node7</title>
<path fill="none" stroke="black" d="M40.06,-131.66C51.06,-148.95 69.92,-174.36 93,-188.5 102.89,-194.56 114.64,-198.58 125.94,-201.25"/>
<polygon fill="black" stroke="black" points="42.97,-129.72 34.77,-123.02 37,-133.37 42.97,-129.72"/>
</g>
<!-- Node1&#45;&gt;Node2 -->
<g id="edge1" class="edge">
<title>Node1&#45;&gt;Node2</title>
<path fill="none" stroke="black" d="M51.33,-128.86C63.19,-136.6 78.39,-145.58 93,-151.5 106.4,-156.93 121.82,-160.95 135.29,-163.8"/>
<polygon fill="black" stroke="black" points="53.23,-125.92 42.98,-123.25 49.33,-131.73 53.23,-125.92"/>
</g>
<!-- Node1&#45;&gt;Node5 -->
<g id="edge4" class="edge">
<title>Node1&#45;&gt;Node5</title>
<path fill="none" stroke="black" d="M67.09,-118.6C77.05,-119.95 88.14,-121.46 99.24,-122.96"/>
<polygon fill="black" stroke="black" points="67.54,-115.13 57.16,-117.25 66.6,-122.07 67.54,-115.13"/>
</g>
<!-- Node1&#45;&gt;Node3 -->
<g id="edge2" class="edge">
<title>Node1&#45;&gt;Node3</title>
<path fill="none" stroke="black" d="M67.28,-108.64C86.33,-106.19 109.46,-103.22 128.9,-100.72"/>
<polygon fill="black" stroke="black" points="66.63,-105.2 57.16,-109.94 67.52,-112.14 66.63,-105.2"/>
</g>
<!-- Node1&#45;&gt;Node6 -->
<g id="edge5" class="edge">
<title>Node1&#45;&gt;Node6</title>
<path fill="none" stroke="black" d="M53.17,-98.58C64.87,-91.6 79.37,-83.52 93,-77.5 101.05,-73.94 109.77,-70.62 118.35,-67.64"/>
<polygon fill="black" stroke="black" points="51.18,-95.7 44.45,-103.89 54.82,-101.68 51.18,-95.7"/>
</g>
<!-- Node1&#45;&gt;Node4 -->
<g id="edge3" class="edge">
<title>Node1&#45;&gt;Node4</title>
<path fill="none" stroke="black" d="M38.55,-94.75C48.97,-75.21 67.91,-45.16 93,-28.5 100.75,-23.35 109.78,-19.6 118.87,-16.86"/>
<polygon fill="black" stroke="black" points="35.32,-93.39 33.9,-103.89 41.56,-96.57 35.32,-93.39"/>
</g>
</g>
</svg>
