<?xml version="1.0" encoding="UTF-8" standalone="no"?>
<!DOCTYPE svg PUBLIC "-//W3C//DTD SVG 1.1//EN"
 "http://www.w3.org/Graphics/SVG/1.1/DTD/svg11.dtd">
<!-- Generated by graphviz version 2.43.0 (0)
 -->
<!-- Title: Data Override Pages: 1 -->
<svg width="254pt" height="64pt"
 viewBox="0.00 0.00 254.00 64.00" xmlns="http://www.w3.org/2000/svg" xmlns:xlink="http://www.w3.org/1999/xlink">
<g id="graph0" class="graph" transform="scale(1 1) rotate(0) translate(4 60)">
<title>Data Override</title>
<polygon fill="white" stroke="transparent" points="-4,4 -4,-60 250,-60 250,4 -4,4"/>
<!-- Node2 -->
<g id="node1" class="node">
<title>Node2</title>
<g id="a_node1"><a xlink:href="group__data__override__mod.html" target="_top" xlink:title="Routines to get data in a file whose path is described in a user&#45;provided data_table and do spatial a...">
<polygon fill="white" stroke="black" points="239,-56 128,-56 128,-37 239,-37 239,-56"/>
<text text-anchor="middle" x="183.5" y="-44" font-family="Helvetica,sans-Serif" font-size="10.00">data_override_mod</text>
</a>
</g>
</g>
<!-- Node3 -->
<g id="node2" class="node">
<title>Node3</title>
<g id="a_node2"><a xlink:href="group__get__grid__version__mod.html" target="_top" xlink:title="get_grid implementations and helper routines for data_override_mod">
<polygon fill="white" stroke="black" points="246,-19 121,-19 121,0 246,0 246,-19"/>
<text text-anchor="middle" x="183.5" y="-7" font-family="Helvetica,sans-Serif" font-size="10.00">get_grid_version_mod</text>
</a>
</g>
</g>
<!-- Node1 -->
<g id="node3" class="node">
<title>Node1</title>
<g id="a_node3"><a xlink:title="Modules and associated files in the data_override directory.">
<polygon fill="#bfbfbf" stroke="black" points="85,-37 0,-37 0,-18 85,-18 85,-37"/>
<text text-anchor="middle" x="42.5" y="-25" font-family="Helvetica,sans-Serif" font-size="10.00">Data Override</text>
</a>
</g>
</g>
<!-- Node1&#45;&gt;Node2 -->
<g id="edge1" class="edge">
<title>Node1&#45;&gt;Node2</title>
<path fill="none" stroke="black" d="M95.22,-34.57C105.9,-36.03 117.18,-37.57 127.95,-39.04"/>
<polygon fill="black" stroke="black" points="95.59,-31.09 85.2,-33.2 94.64,-38.02 95.59,-31.09"/>
</g>
<!-- Node1&#45;&gt;Node3 -->
<g id="edge2" class="edge">
<title>Node1&#45;&gt;Node3</title>
<path fill="none" stroke="black" d="M95.17,-20.81C103.51,-19.73 112.23,-18.6 120.78,-17.49"/>
<polygon fill="black" stroke="black" points="94.67,-17.34 85.2,-22.1 95.57,-24.29 94.67,-17.34"/>
</g>
</g>
</svg>
