<?xml version="1.0" encoding="UTF-8" standalone="no"?>
<!DOCTYPE svg PUBLIC "-//W3C//DTD SVG 1.1//EN"
 "http://www.w3.org/Graphics/SVG/1.1/DTD/svg11.dtd">
<!-- Generated by graphviz version 2.43.0 (0)
 -->
<!-- Title: horiz_interp/horiz_interp_conserve.F90 Pages: 1 -->
<svg width="200pt" height="95pt"
 viewBox="0.00 0.00 200.00 95.00" xmlns="http://www.w3.org/2000/svg" xmlns:xlink="http://www.w3.org/1999/xlink">
<g id="graph0" class="graph" transform="scale(1 1) rotate(0) translate(4 91)">
<title>horiz_interp/horiz_interp_conserve.F90</title>
<polygon fill="white" stroke="transparent" points="-4,4 -4,-91 196,-91 196,4 -4,4"/>
<!-- Node1 -->
<g id="node1" class="node">
<title>Node1</title>
<g id="a_node1"><a xlink:title="File for horiz_interp_conserve_mod.">
<polygon fill="#bfbfbf" stroke="black" points="37.5,-56.5 37.5,-86.5 158.5,-86.5 158.5,-56.5 37.5,-56.5"/>
<text text-anchor="start" x="45.5" y="-74.5" font-family="Helvetica,sans-Serif" font-size="10.00">horiz_interp/horiz</text>
<text text-anchor="middle" x="98" y="-63.5" font-family="Helvetica,sans-Serif" font-size="10.00">_interp_conserve.F90</text>
</a>
</g>
</g>
<!-- Node2 -->
<g id="node2" class="node">
<title>Node2</title>
<g id="a_node2"><a xlink:href="fms__platform_8h_source.html" target="_top" xlink:title=" ">
<polygon fill="white" stroke="black" points="0,-0.5 0,-19.5 92,-19.5 92,-0.5 0,-0.5"/>
<text text-anchor="middle" x="46" y="-7.5" font-family="Helvetica,sans-Serif" font-size="10.00">fms_platform.h</text>
</a>
</g>
</g>
<!-- Node1&#45;&gt;Node2 -->
<g id="edge1" class="edge">
<title>Node1&#45;&gt;Node2</title>
<path fill="none" stroke="midnightblue" d="M85.68,-56.4C78.04,-47.66 68.21,-36.41 60.24,-27.3"/>
<polygon fill="midnightblue" stroke="midnightblue" points="62.78,-24.88 53.57,-19.66 57.51,-29.49 62.78,-24.88"/>
</g>
<!-- Node3 -->
<g id="node3" class="node">
<title>Node3</title>
<g id="a_node3"><a xlink:href="file__version_8h_source.html" target="_top" xlink:title=" ">
<polygon fill="white" stroke="black" points="110,-0.5 110,-19.5 192,-19.5 192,-0.5 110,-0.5"/>
<text text-anchor="middle" x="151" y="-7.5" font-family="Helvetica,sans-Serif" font-size="10.00">file_version.h</text>
</a>
</g>
</g>
<!-- Node1&#45;&gt;Node3 -->
<g id="edge2" class="edge">
<title>Node1&#45;&gt;Node3</title>
<path fill="none" stroke="midnightblue" d="M110.56,-56.4C118.34,-47.66 128.36,-36.41 136.48,-27.3"/>
<polygon fill="midnightblue" stroke="midnightblue" points="139.25,-29.45 143.29,-19.66 134.02,-24.8 139.25,-29.45"/>
</g>
</g>
</svg>
