<?xml version="1.0" encoding="UTF-8" standalone="no"?>
<!DOCTYPE svg PUBLIC "-//W3C//DTD SVG 1.1//EN"
 "http://www.w3.org/Graphics/SVG/1.1/DTD/svg11.dtd">
<!-- Generated by graphviz version 2.43.0 (0)
 -->
<!-- Title: mpp/include/mpp_transmit.inc Pages: 1 -->
<svg width="322pt" height="95pt"
 viewBox="0.00 0.00 322.00 95.00" xmlns="http://www.w3.org/2000/svg" xmlns:xlink="http://www.w3.org/1999/xlink">
<g id="graph0" class="graph" transform="scale(1 1) rotate(0) translate(4 91)">
<title>mpp/include/mpp_transmit.inc</title>
<polygon fill="white" stroke="transparent" points="-4,4 -4,-91 318,-91 318,4 -4,4"/>
<!-- Node1 -->
<g id="node1" class="node">
<title>Node1</title>
<g id="a_node1"><a xlink:title="Routines for data transmission between PE&#39;s.">
<polygon fill="#bfbfbf" stroke="black" points="74.5,-67.5 74.5,-86.5 239.5,-86.5 239.5,-67.5 74.5,-67.5"/>
<text text-anchor="middle" x="157" y="-74.5" font-family="Helvetica,sans-Serif" font-size="10.00">mpp/include/mpp_transmit.inc</text>
</a>
</g>
</g>
<!-- Node2 -->
<g id="node2" class="node">
<title>Node2</title>
<g id="a_node2"><a xlink:href="mpp__transmit__mpi_8h_source.html" target="_top" xlink:title=" ">
<polygon fill="white" stroke="black" points="0,-0.5 0,-30.5 148,-30.5 148,-0.5 0,-0.5"/>
<text text-anchor="start" x="8" y="-18.5" font-family="Helvetica,sans-Serif" font-size="10.00">mpp/include/mpp_transmit</text>
<text text-anchor="middle" x="74" y="-7.5" font-family="Helvetica,sans-Serif" font-size="10.00">_mpi.h</text>
</a>
</g>
</g>
<!-- Node1&#45;&gt;Node2 -->
<g id="edge1" class="edge">
<title>Node1&#45;&gt;Node2</title>
<path fill="none" stroke="midnightblue" d="M136.73,-61.47C123.59,-52.05 106.56,-39.84 93.56,-30.52"/>
<polygon fill="midnightblue" stroke="midnightblue" points="134.94,-64.49 145.11,-67.48 139.02,-58.8 134.94,-64.49"/>
</g>
<!-- Node3 -->
<g id="node3" class="node">
<title>Node3</title>
<g id="a_node3"><a xlink:href="mpp__transmit__nocomm_8h_source.html" target="_top" xlink:title=" ">
<polygon fill="white" stroke="black" points="166,-0.5 166,-30.5 314,-30.5 314,-0.5 166,-0.5"/>
<text text-anchor="start" x="174" y="-18.5" font-family="Helvetica,sans-Serif" font-size="10.00">mpp/include/mpp_transmit</text>
<text text-anchor="middle" x="240" y="-7.5" font-family="Helvetica,sans-Serif" font-size="10.00">_nocomm.h</text>
</a>
</g>
</g>
<!-- Node1&#45;&gt;Node3 -->
<g id="edge2" class="edge">
<title>Node1&#45;&gt;Node3</title>
<path fill="none" stroke="midnightblue" d="M177.27,-61.47C190.41,-52.05 207.44,-39.84 220.44,-30.52"/>
<polygon fill="midnightblue" stroke="midnightblue" points="174.98,-58.8 168.89,-67.48 179.06,-64.49 174.98,-58.8"/>
</g>
</g>
</svg>
