<?xml version="1.0" encoding="UTF-8" standalone="no"?>
<!DOCTYPE svg PUBLIC "-//W3C//DTD SVG 1.1//EN"
 "http://www.w3.org/Graphics/SVG/1.1/DTD/svg11.dtd">
<!-- Generated by graphviz version 2.43.0 (0)
 -->
<!-- Title: mpp/include/mpp_util.inc Pages: 1 -->
<svg width="597pt" height="84pt"
 viewBox="0.00 0.00 597.00 84.00" xmlns="http://www.w3.org/2000/svg" xmlns:xlink="http://www.w3.org/1999/xlink">
<g id="graph0" class="graph" transform="scale(1 1) rotate(0) translate(4 80)">
<title>mpp/include/mpp_util.inc</title>
<polygon fill="white" stroke="transparent" points="-4,4 -4,-80 593,-80 593,4 -4,4"/>
<!-- Node1 -->
<g id="node1" class="node">
<title>Node1</title>
<g id="a_node1"><a xlink:title="General utility functions for use in mpp_mod.">
<polygon fill="#bfbfbf" stroke="black" points="238.5,-56.5 238.5,-75.5 378.5,-75.5 378.5,-56.5 238.5,-56.5"/>
<text text-anchor="middle" x="308.5" y="-63.5" font-family="Helvetica,sans-Serif" font-size="10.00">mpp/include/mpp_util.inc</text>
</a>
</g>
</g>
<!-- Node2 -->
<g id="node2" class="node">
<title>Node2</title>
<g id="a_node2"><a xlink:href="mpp__util__nocomm_8inc.html" target="_top" xlink:title="Utility routines for parallelization, non&#45;mpi version.">
<polygon fill="white" stroke="black" points="0,-0.5 0,-19.5 125,-19.5 125,-0.5 0,-0.5"/>
<text text-anchor="middle" x="62.5" y="-7.5" font-family="Helvetica,sans-Serif" font-size="10.00">mpp_util_nocomm.inc</text>
</a>
</g>
</g>
<!-- Node1&#45;&gt;Node2 -->
<g id="edge1" class="edge">
<title>Node1&#45;&gt;Node2</title>
<path fill="none" stroke="midnightblue" d="M269.52,-56.44C226.61,-47.02 157.55,-31.87 111.13,-21.68"/>
<polygon fill="midnightblue" stroke="midnightblue" points="111.81,-18.24 101.3,-19.52 110.31,-25.08 111.81,-18.24"/>
</g>
<!-- Node3 -->
<g id="node3" class="node">
<title>Node3</title>
<g id="a_node3"><a xlink:href="mpp__error__a__a_8h_source.html" target="_top" xlink:title=" ">
<polygon fill="white" stroke="black" points="143.5,-0.5 143.5,-19.5 241.5,-19.5 241.5,-0.5 143.5,-0.5"/>
<text text-anchor="middle" x="192.5" y="-7.5" font-family="Helvetica,sans-Serif" font-size="10.00">mpp_error_a_a.h</text>
</a>
</g>
</g>
<!-- Node1&#45;&gt;Node3 -->
<g id="edge2" class="edge">
<title>Node1&#45;&gt;Node3</title>
<path fill="none" stroke="midnightblue" d="M290.12,-56.44C271.28,-47.68 241.77,-33.94 220.12,-23.86"/>
<polygon fill="midnightblue" stroke="midnightblue" points="221.34,-20.56 210.79,-19.52 218.38,-26.91 221.34,-20.56"/>
</g>
<!-- Node4 -->
<g id="node4" class="node">
<title>Node4</title>
<g id="a_node4"><a xlink:href="mpp__error__a__s_8h_source.html" target="_top" xlink:title=" ">
<polygon fill="white" stroke="black" points="259.5,-0.5 259.5,-19.5 357.5,-19.5 357.5,-0.5 259.5,-0.5"/>
<text text-anchor="middle" x="308.5" y="-7.5" font-family="Helvetica,sans-Serif" font-size="10.00">mpp_error_a_s.h</text>
</a>
</g>
</g>
<!-- Node1&#45;&gt;Node4 -->
<g id="edge3" class="edge">
<title>Node1&#45;&gt;Node4</title>
<path fill="none" stroke="midnightblue" d="M308.5,-56.08C308.5,-49.01 308.5,-38.86 308.5,-29.99"/>
<polygon fill="midnightblue" stroke="midnightblue" points="312,-29.75 308.5,-19.75 305,-29.75 312,-29.75"/>
</g>
<!-- Node5 -->
<g id="node5" class="node">
<title>Node5</title>
<g id="a_node5"><a xlink:href="mpp__error__s__a_8h_source.html" target="_top" xlink:title=" ">
<polygon fill="white" stroke="black" points="375.5,-0.5 375.5,-19.5 473.5,-19.5 473.5,-0.5 375.5,-0.5"/>
<text text-anchor="middle" x="424.5" y="-7.5" font-family="Helvetica,sans-Serif" font-size="10.00">mpp_error_s_a.h</text>
</a>
</g>
</g>
<!-- Node1&#45;&gt;Node5 -->
<g id="edge4" class="edge">
<title>Node1&#45;&gt;Node5</title>
<path fill="none" stroke="midnightblue" d="M326.88,-56.44C345.72,-47.68 375.23,-33.94 396.88,-23.86"/>
<polygon fill="midnightblue" stroke="midnightblue" points="398.62,-26.91 406.21,-19.52 395.66,-20.56 398.62,-26.91"/>
</g>
<!-- Node6 -->
<g id="node6" class="node">
<title>Node6</title>
<g id="a_node6"><a xlink:href="mpp__error__s__s_8h_source.html" target="_top" xlink:title=" ">
<polygon fill="white" stroke="black" points="492,-0.5 492,-19.5 589,-19.5 589,-0.5 492,-0.5"/>
<text text-anchor="middle" x="540.5" y="-7.5" font-family="Helvetica,sans-Serif" font-size="10.00">mpp_error_s_s.h</text>
</a>
</g>
</g>
<!-- Node1&#45;&gt;Node6 -->
<g id="edge5" class="edge">
<title>Node1&#45;&gt;Node6</title>
<path fill="none" stroke="midnightblue" d="M345.26,-56.44C385.56,-47.06 450.31,-31.99 494.08,-21.8"/>
<polygon fill="midnightblue" stroke="midnightblue" points="494.96,-25.19 503.91,-19.52 493.38,-18.37 494.96,-25.19"/>
</g>
</g>
</svg>
