<?xml version="1.0" encoding="UTF-8" standalone="no"?>
<!DOCTYPE svg PUBLIC "-//W3C//DTD SVG 1.1//EN"
 "http://www.w3.org/Graphics/SVG/1.1/DTD/svg11.dtd">
<!-- Generated by graphviz version 2.43.0 (0)
 -->
<!-- Title: mpp/mpp.F90 Pages: 1 -->
<svg width="597pt" height="140pt"
 viewBox="0.00 0.00 597.00 140.00" xmlns="http://www.w3.org/2000/svg" xmlns:xlink="http://www.w3.org/1999/xlink">
<g id="graph0" class="graph" transform="scale(1 1) rotate(0) translate(4 136)">
<title>mpp/mpp.F90</title>
<polygon fill="white" stroke="transparent" points="-4,4 -4,-136 593,-136 593,4 -4,4"/>
<!-- Node1 -->
<g id="node1" class="node">
<title>Node1</title>
<g id="a_node1"><a xlink:title="File for mpp_mod.">
<polygon fill="#bfbfbf" stroke="black" points="163.5,-112.5 163.5,-131.5 247.5,-131.5 247.5,-112.5 163.5,-112.5"/>
<text text-anchor="middle" x="205.5" y="-119.5" font-family="Helvetica,sans-Serif" font-size="10.00">mpp/mpp.F90</text>
</a>
</g>
</g>
<!-- Node2 -->
<g id="node2" class="node">
<title>Node2</title>
<g id="a_node2"><a xlink:href="file__version_8h_source.html" target="_top" xlink:title=" ">
<polygon fill="white" stroke="black" points="59.5,-56.5 59.5,-75.5 141.5,-75.5 141.5,-56.5 59.5,-56.5"/>
<text text-anchor="middle" x="100.5" y="-63.5" font-family="Helvetica,sans-Serif" font-size="10.00">file_version.h</text>
</a>
</g>
</g>
<!-- Node1&#45;&gt;Node2 -->
<g id="edge1" class="edge">
<title>Node1&#45;&gt;Node2</title>
<path fill="none" stroke="midnightblue" d="M188.63,-112.32C171.79,-103.66 145.69,-90.24 126.26,-80.25"/>
<polygon fill="midnightblue" stroke="midnightblue" points="127.82,-77.12 117.33,-75.65 124.62,-83.34 127.82,-77.12"/>
</g>
<!-- Node3 -->
<g id="node3" class="node">
<title>Node3</title>
<g id="a_node3"><a xlink:href="system__clock_8h_source.html" target="_top" xlink:title=" ">
<polygon fill="white" stroke="black" points="159.5,-56.5 159.5,-75.5 251.5,-75.5 251.5,-56.5 159.5,-56.5"/>
<text text-anchor="middle" x="205.5" y="-63.5" font-family="Helvetica,sans-Serif" font-size="10.00">system_clock.h</text>
</a>
</g>
</g>
<!-- Node1&#45;&gt;Node3 -->
<g id="edge2" class="edge">
<title>Node1&#45;&gt;Node3</title>
<path fill="none" stroke="midnightblue" d="M205.5,-112.08C205.5,-105.01 205.5,-94.86 205.5,-85.99"/>
<polygon fill="midnightblue" stroke="midnightblue" points="209,-85.75 205.5,-75.75 202,-85.75 209,-85.75"/>
</g>
<!-- Node4 -->
<g id="node4" class="node">
<title>Node4</title>
<g id="a_node4"><a xlink:href="mpp__util_8inc.html" target="_top" xlink:title="General utility functions for use in mpp_mod.">
<polygon fill="white" stroke="black" points="270,-56.5 270,-75.5 347,-75.5 347,-56.5 270,-56.5"/>
<text text-anchor="middle" x="308.5" y="-63.5" font-family="Helvetica,sans-Serif" font-size="10.00">mpp_util.inc</text>
</a>
</g>
</g>
<!-- Node1&#45;&gt;Node4 -->
<g id="edge3" class="edge">
<title>Node1&#45;&gt;Node4</title>
<path fill="none" stroke="midnightblue" d="M222.05,-112.32C238.49,-103.7 263.93,-90.36 282.97,-80.39"/>
<polygon fill="midnightblue" stroke="midnightblue" points="284.76,-83.4 291.99,-75.65 281.51,-77.2 284.76,-83.4"/>
</g>
<!-- Node5 -->
<g id="node5" class="node">
<title>Node5</title>
<g id="a_node5"><a xlink:href="mpp__util__nocomm_8inc.html" target="_top" xlink:title="Utility routines for parallelization, non&#45;mpi version.">
<polygon fill="white" stroke="black" points="0,-0.5 0,-19.5 125,-19.5 125,-0.5 0,-0.5"/>
<text text-anchor="middle" x="62.5" y="-7.5" font-family="Helvetica,sans-Serif" font-size="10.00">mpp_util_nocomm.inc</text>
</a>
</g>
</g>
<!-- Node4&#45;&gt;Node5 -->
<g id="edge4" class="edge">
<title>Node4&#45;&gt;Node5</title>
<path fill="none" stroke="midnightblue" d="M269.79,-56.5C226.93,-47.09 157.76,-31.91 111.24,-21.7"/>
<polygon fill="midnightblue" stroke="midnightblue" points="111.91,-18.26 101.39,-19.54 110.41,-25.1 111.91,-18.26"/>
</g>
<!-- Node6 -->
<g id="node6" class="node">
<title>Node6</title>
<g id="a_node6"><a xlink:href="mpp__error__a__a_8h_source.html" target="_top" xlink:title=" ">
<polygon fill="white" stroke="black" points="143.5,-0.5 143.5,-19.5 241.5,-19.5 241.5,-0.5 143.5,-0.5"/>
<text text-anchor="middle" x="192.5" y="-7.5" font-family="Helvetica,sans-Serif" font-size="10.00">mpp_error_a_a.h</text>
</a>
</g>
</g>
<!-- Node4&#45;&gt;Node6 -->
<g id="edge5" class="edge">
<title>Node4&#45;&gt;Node6</title>
<path fill="none" stroke="midnightblue" d="M290.12,-56.44C271.28,-47.68 241.77,-33.94 220.12,-23.86"/>
<polygon fill="midnightblue" stroke="midnightblue" points="221.34,-20.56 210.79,-19.52 218.38,-26.91 221.34,-20.56"/>
</g>
<!-- Node7 -->
<g id="node7" class="node">
<title>Node7</title>
<g id="a_node7"><a xlink:href="mpp__error__a__s_8h_source.html" target="_top" xlink:title=" ">
<polygon fill="white" stroke="black" points="259.5,-0.5 259.5,-19.5 357.5,-19.5 357.5,-0.5 259.5,-0.5"/>
<text text-anchor="middle" x="308.5" y="-7.5" font-family="Helvetica,sans-Serif" font-size="10.00">mpp_error_a_s.h</text>
</a>
</g>
</g>
<!-- Node4&#45;&gt;Node7 -->
<g id="edge6" class="edge">
<title>Node4&#45;&gt;Node7</title>
<path fill="none" stroke="midnightblue" d="M308.5,-56.08C308.5,-49.01 308.5,-38.86 308.5,-29.99"/>
<polygon fill="midnightblue" stroke="midnightblue" points="312,-29.75 308.5,-19.75 305,-29.75 312,-29.75"/>
</g>
<!-- Node8 -->
<g id="node8" class="node">
<title>Node8</title>
<g id="a_node8"><a xlink:href="mpp__error__s__a_8h_source.html" target="_top" xlink:title=" ">
<polygon fill="white" stroke="black" points="375.5,-0.5 375.5,-19.5 473.5,-19.5 473.5,-0.5 375.5,-0.5"/>
<text text-anchor="middle" x="424.5" y="-7.5" font-family="Helvetica,sans-Serif" font-size="10.00">mpp_error_s_a.h</text>
</a>
</g>
</g>
<!-- Node4&#45;&gt;Node8 -->
<g id="edge7" class="edge">
<title>Node4&#45;&gt;Node8</title>
<path fill="none" stroke="midnightblue" d="M326.88,-56.44C345.72,-47.68 375.23,-33.94 396.88,-23.86"/>
<polygon fill="midnightblue" stroke="midnightblue" points="398.62,-26.91 406.21,-19.52 395.66,-20.56 398.62,-26.91"/>
</g>
<!-- Node9 -->
<g id="node9" class="node">
<title>Node9</title>
<g id="a_node9"><a xlink:href="mpp__error__s__s_8h_source.html" target="_top" xlink:title=" ">
<polygon fill="white" stroke="black" points="492,-0.5 492,-19.5 589,-19.5 589,-0.5 492,-0.5"/>
<text text-anchor="middle" x="540.5" y="-7.5" font-family="Helvetica,sans-Serif" font-size="10.00">mpp_error_s_s.h</text>
</a>
</g>
</g>
<!-- Node4&#45;&gt;Node9 -->
<g id="edge8" class="edge">
<title>Node4&#45;&gt;Node9</title>
<path fill="none" stroke="midnightblue" d="M345.26,-56.44C385.56,-47.06 450.31,-31.99 494.08,-21.8"/>
<polygon fill="midnightblue" stroke="midnightblue" points="494.96,-25.19 503.91,-19.52 493.38,-18.37 494.96,-25.19"/>
</g>
</g>
</svg>
