<?xml version="1.0" encoding="UTF-8" standalone="no"?>
<!DOCTYPE svg PUBLIC "-//W3C//DTD SVG 1.1//EN"
 "http://www.w3.org/Graphics/SVG/1.1/DTD/svg11.dtd">
<!-- Generated by graphviz version 2.43.0 (0)
 -->
<!-- Title: mpp/include/mpp_sum_ad.inc Pages: 1 -->
<svg width="282pt" height="106pt"
 viewBox="0.00 0.00 282.00 106.00" xmlns="http://www.w3.org/2000/svg" xmlns:xlink="http://www.w3.org/1999/xlink">
<g id="graph0" class="graph" transform="scale(1 1) rotate(0) translate(4 102)">
<title>mpp/include/mpp_sum_ad.inc</title>
<polygon fill="white" stroke="transparent" points="-4,4 -4,-102 278,-102 278,4 -4,4"/>
<!-- Node1 -->
<g id="node1" class="node">
<title>Node1</title>
<g id="a_node1"><a xlink:title="Adjoint summation routines for mpp_mod.">
<polygon fill="#bfbfbf" stroke="black" points="73,-67.5 73,-97.5 201,-97.5 201,-67.5 73,-67.5"/>
<text text-anchor="start" x="81" y="-85.5" font-family="Helvetica,sans-Serif" font-size="10.00">mpp/include/mpp_sum</text>
<text text-anchor="middle" x="137" y="-74.5" font-family="Helvetica,sans-Serif" font-size="10.00">_ad.inc</text>
</a>
</g>
</g>
<!-- Node2 -->
<g id="node2" class="node">
<title>Node2</title>
<g id="a_node2"><a xlink:href="mpp__sum__mpi__ad_8h_source.html" target="_top" xlink:title=" ">
<polygon fill="white" stroke="black" points="0,-0.5 0,-30.5 128,-30.5 128,-0.5 0,-0.5"/>
<text text-anchor="start" x="8" y="-18.5" font-family="Helvetica,sans-Serif" font-size="10.00">mpp/include/mpp_sum</text>
<text text-anchor="middle" x="64" y="-7.5" font-family="Helvetica,sans-Serif" font-size="10.00">_mpi_ad.h</text>
</a>
</g>
</g>
<!-- Node1&#45;&gt;Node2 -->
<g id="edge1" class="edge">
<title>Node1&#45;&gt;Node2</title>
<path fill="none" stroke="midnightblue" d="M113.53,-60.6C102.5,-50.78 89.66,-39.34 79.81,-30.58"/>
<polygon fill="midnightblue" stroke="midnightblue" points="111.36,-63.36 121.16,-67.4 116.02,-58.13 111.36,-63.36"/>
</g>
<!-- Node3 -->
<g id="node3" class="node">
<title>Node3</title>
<g id="a_node3"><a xlink:href="mpp__sum__nocomm__ad_8h_source.html" target="_top" xlink:title=" ">
<polygon fill="white" stroke="black" points="146,-0.5 146,-30.5 274,-30.5 274,-0.5 146,-0.5"/>
<text text-anchor="start" x="154" y="-18.5" font-family="Helvetica,sans-Serif" font-size="10.00">mpp/include/mpp_sum</text>
<text text-anchor="middle" x="210" y="-7.5" font-family="Helvetica,sans-Serif" font-size="10.00">_nocomm_ad.h</text>
</a>
</g>
</g>
<!-- Node1&#45;&gt;Node3 -->
<g id="edge2" class="edge">
<title>Node1&#45;&gt;Node3</title>
<path fill="none" stroke="midnightblue" d="M160.47,-60.6C171.5,-50.78 184.34,-39.34 194.19,-30.58"/>
<polygon fill="midnightblue" stroke="midnightblue" points="157.98,-58.13 152.84,-67.4 162.64,-63.36 157.98,-58.13"/>
</g>
</g>
</svg>
