<?xml version="1.0" encoding="UTF-8" standalone="no"?>
<!DOCTYPE svg PUBLIC "-//W3C//DTD SVG 1.1//EN"
 "http://www.w3.org/Graphics/SVG/1.1/DTD/svg11.dtd">
<!-- Generated by graphviz version 2.43.0 (0)
 -->
<!-- Title: mpp/mpp_io.F90 Pages: 1 -->
<svg width="316pt" height="84pt"
 viewBox="0.00 0.00 316.00 84.00" xmlns="http://www.w3.org/2000/svg" xmlns:xlink="http://www.w3.org/1999/xlink">
<g id="graph0" class="graph" transform="scale(1 1) rotate(0) translate(4 80)">
<title>mpp/mpp_io.F90</title>
<polygon fill="white" stroke="transparent" points="-4,4 -4,-80 312,-80 312,4 -4,4"/>
<!-- Node1 -->
<g id="node1" class="node">
<title>Node1</title>
<g id="a_node1"><a xlink:title="File for mpp_io_mod.">
<polygon fill="#bfbfbf" stroke="black" points="97,-56.5 97,-75.5 195,-75.5 195,-56.5 97,-56.5"/>
<text text-anchor="middle" x="146" y="-63.5" font-family="Helvetica,sans-Serif" font-size="10.00">mpp/mpp_io.F90</text>
</a>
</g>
</g>
<!-- Node2 -->
<g id="node2" class="node">
<title>Node2</title>
<g id="a_node2"><a xlink:href="file__version_8h_source.html" target="_top" xlink:title=" ">
<polygon fill="white" stroke="black" points="0,-0.5 0,-19.5 82,-19.5 82,-0.5 0,-0.5"/>
<text text-anchor="middle" x="41" y="-7.5" font-family="Helvetica,sans-Serif" font-size="10.00">file_version.h</text>
</a>
</g>
</g>
<!-- Node1&#45;&gt;Node2 -->
<g id="edge1" class="edge">
<title>Node1&#45;&gt;Node2</title>
<path fill="none" stroke="midnightblue" d="M129.13,-56.32C112.29,-47.66 86.19,-34.24 66.76,-24.25"/>
<polygon fill="midnightblue" stroke="midnightblue" points="68.32,-21.12 57.83,-19.65 65.12,-27.34 68.32,-21.12"/>
</g>
<!-- Node3 -->
<g id="node3" class="node">
<title>Node3</title>
<g id="a_node3"><a xlink:href="mpp__io__util_8inc.html" target="_top" xlink:title="Routines to retrieve data used in mpp_io_mod.">
<polygon fill="white" stroke="black" points="100.5,-0.5 100.5,-19.5 191.5,-19.5 191.5,-0.5 100.5,-0.5"/>
<text text-anchor="middle" x="146" y="-7.5" font-family="Helvetica,sans-Serif" font-size="10.00">mpp_io_util.inc</text>
</a>
</g>
</g>
<!-- Node1&#45;&gt;Node3 -->
<g id="edge2" class="edge">
<title>Node1&#45;&gt;Node3</title>
<path fill="none" stroke="midnightblue" d="M146,-56.08C146,-49.01 146,-38.86 146,-29.99"/>
<polygon fill="midnightblue" stroke="midnightblue" points="149.5,-29.75 146,-19.75 142.5,-29.75 149.5,-29.75"/>
</g>
<!-- Node4 -->
<g id="node4" class="node">
<title>Node4</title>
<g id="a_node4"><a xlink:href="mpp__io__misc_8inc.html" target="_top" xlink:title="Misc. routines including initialization and finalization of mpp_io_mod.">
<polygon fill="white" stroke="black" points="210,-0.5 210,-19.5 308,-19.5 308,-0.5 210,-0.5"/>
<text text-anchor="middle" x="259" y="-7.5" font-family="Helvetica,sans-Serif" font-size="10.00">mpp_io_misc.inc</text>
</a>
</g>
</g>
<!-- Node1&#45;&gt;Node4 -->
<g id="edge3" class="edge">
<title>Node1&#45;&gt;Node4</title>
<path fill="none" stroke="midnightblue" d="M163.91,-56.44C182.25,-47.68 211.01,-33.94 232.09,-23.86"/>
<polygon fill="midnightblue" stroke="midnightblue" points="233.67,-26.99 241.18,-19.52 230.65,-20.67 233.67,-26.99"/>
</g>
</g>
</svg>
