<?xml version="1.0" encoding="UTF-8" standalone="no"?>
<!DOCTYPE svg PUBLIC "-//W3C//DTD SVG 1.1//EN"
 "http://www.w3.org/Graphics/SVG/1.1/DTD/svg11.dtd">
<!-- Generated by graphviz version 2.43.0 (0)
 -->
<!-- Title: bc_information Pages: 1 -->
<svg width="535pt" height="161pt"
 viewBox="0.00 0.00 534.50 161.00" xmlns="http://www.w3.org/2000/svg" xmlns:xlink="http://www.w3.org/1999/xlink">
<g id="graph0" class="graph" transform="scale(1 1) rotate(0) translate(4 157)">
<title>bc_information</title>
<polygon fill="white" stroke="transparent" points="-4,4 -4,-157 530.5,-157 530.5,4 -4,4"/>
<!-- Node1 -->
<g id="node1" class="node">
<title>Node1</title>
<g id="a_node1"><a xlink:title="information needed fr regional restart variables">
<polygon fill="#bfbfbf" stroke="black" points="209.5,-0.5 209.5,-19.5 299.5,-19.5 299.5,-0.5 209.5,-0.5"/>
<text text-anchor="middle" x="254.5" y="-7.5" font-family="Helvetica,sans-Serif" font-size="10.00">bc_information</text>
</a>
</g>
</g>
<!-- Node2 -->
<g id="node2" class="node">
<title>Node2</title>
<g id="a_node2"><a xlink:title=" ">
<polygon fill="white" stroke="#bfbfbf" points="0,-133.5 0,-152.5 49,-152.5 49,-133.5 0,-133.5"/>
<text text-anchor="middle" x="24.5" y="-140.5" font-family="Helvetica,sans-Serif" font-size="10.00">logical</text>
</a>
</g>
</g>
<!-- Node2&#45;&gt;Node1 -->
<g id="edge1" class="edge">
<title>Node2&#45;&gt;Node1</title>
<path fill="none" stroke="#9a32cd" stroke-dasharray="5,2" d="M21.3,-123.13C18.51,-99.67 17.89,-60.01 40.5,-38 63.78,-15.34 153.8,-11 209.4,-10.55"/>
<polygon fill="#9a32cd" stroke="#9a32cd" points="17.86,-123.81 22.75,-133.21 24.79,-122.81 17.86,-123.81"/>
<text text-anchor="middle" x="84.5" y="-79.5" font-family="Helvetica,sans-Serif" font-size="10.00"> data_on_file_root</text>
<text text-anchor="middle" x="84.5" y="-68.5" font-family="Helvetica,sans-Serif" font-size="10.00">is_root_pe</text>
</g>
<!-- Node3 -->
<g id="node3" class="node">
<title>Node3</title>
<g id="a_node3"><a xlink:title=" ">
<polygon fill="white" stroke="#bfbfbf" points="74.5,-133.5 74.5,-152.5 182.5,-152.5 182.5,-133.5 74.5,-133.5"/>
<text text-anchor="middle" x="128.5" y="-140.5" font-family="Helvetica,sans-Serif" font-size="10.00">real(kind=r8_kind)</text>
</a>
</g>
</g>
<!-- Node3&#45;&gt;Node1 -->
<g id="edge2" class="edge">
<title>Node3&#45;&gt;Node1</title>
<path fill="none" stroke="#9a32cd" stroke-dasharray="5,2" d="M130.71,-123.41C134.44,-100.23 144.14,-60.87 168.5,-38 179.68,-27.5 194.9,-21.09 209.44,-17.16"/>
<polygon fill="#9a32cd" stroke="#9a32cd" points="127.24,-122.96 129.32,-133.35 134.17,-123.93 127.24,-122.96"/>
<text text-anchor="middle" x="209.5" y="-79.5" font-family="Helvetica,sans-Serif" font-size="10.00"> globaldata2d_r8</text>
<text text-anchor="middle" x="209.5" y="-68.5" font-family="Helvetica,sans-Serif" font-size="10.00">globaldata3d_r8</text>
</g>
<!-- Node4 -->
<g id="node4" class="node">
<title>Node4</title>
<g id="a_node4"><a xlink:title=" ">
<polygon fill="white" stroke="#bfbfbf" points="200.5,-133.5 200.5,-152.5 308.5,-152.5 308.5,-133.5 200.5,-133.5"/>
<text text-anchor="middle" x="254.5" y="-140.5" font-family="Helvetica,sans-Serif" font-size="10.00">real(kind=r4_kind)</text>
</a>
</g>
</g>
<!-- Node4&#45;&gt;Node1 -->
<g id="edge3" class="edge">
<title>Node4&#45;&gt;Node1</title>
<path fill="none" stroke="#9a32cd" stroke-dasharray="5,2" d="M254.5,-123.09C254.5,-94.36 254.5,-40.82 254.5,-19.8"/>
<polygon fill="#9a32cd" stroke="#9a32cd" points="251,-123.4 254.5,-133.4 258,-123.4 251,-123.4"/>
<text text-anchor="middle" x="295.5" y="-79.5" font-family="Helvetica,sans-Serif" font-size="10.00"> globaldata2d_r4</text>
<text text-anchor="middle" x="295.5" y="-68.5" font-family="Helvetica,sans-Serif" font-size="10.00">globaldata3d_r4</text>
</g>
<!-- Node5 -->
<g id="node5" class="node">
<title>Node5</title>
<g id="a_node5"><a xlink:title=" ">
<polygon fill="white" stroke="#bfbfbf" points="327,-133.5 327,-152.5 432,-152.5 432,-133.5 327,-133.5"/>
<text text-anchor="middle" x="379.5" y="-140.5" font-family="Helvetica,sans-Serif" font-size="10.00">character(len=32)</text>
</a>
</g>
</g>
<!-- Node5&#45;&gt;Node1 -->
<g id="edge4" class="edge">
<title>Node5&#45;&gt;Node1</title>
<path fill="none" stroke="#9a32cd" stroke-dasharray="5,2" d="M377.48,-123.42C373.99,-100.25 364.69,-60.9 340.5,-38 329.36,-27.46 314.15,-21.03 299.61,-17.11"/>
<polygon fill="#9a32cd" stroke="#9a32cd" points="374.01,-123.88 378.77,-133.35 380.96,-122.98 374.01,-123.88"/>
<text text-anchor="middle" x="396.5" y="-74" font-family="Helvetica,sans-Serif" font-size="10.00"> chksum</text>
</g>
<!-- Node6 -->
<g id="node6" class="node">
<title>Node6</title>
<g id="a_node6"><a xlink:title=" ">
<polygon fill="white" stroke="#bfbfbf" points="450,-133.5 450,-152.5 501,-152.5 501,-133.5 450,-133.5"/>
<text text-anchor="middle" x="475.5" y="-140.5" font-family="Helvetica,sans-Serif" font-size="10.00">integer</text>
</a>
</g>
</g>
<!-- Node6&#45;&gt;Node1 -->
<g id="edge5" class="edge">
<title>Node6&#45;&gt;Node1</title>
<path fill="none" stroke="#9a32cd" stroke-dasharray="5,2" d="M471.3,-123.37C464.89,-99.51 450.25,-58.79 421.5,-38 402.52,-24.28 342.36,-17.17 299.71,-13.77"/>
<polygon fill="#9a32cd" stroke="#9a32cd" points="467.95,-124.42 473.75,-133.28 474.75,-122.74 467.95,-124.42"/>
<text text-anchor="middle" x="497.5" y="-107" font-family="Helvetica,sans-Serif" font-size="10.00"> global_size</text>
<text text-anchor="middle" x="497.5" y="-96" font-family="Helvetica,sans-Serif" font-size="10.00">indices</text>
<text text-anchor="middle" x="497.5" y="-85" font-family="Helvetica,sans-Serif" font-size="10.00">ishift</text>
<text text-anchor="middle" x="497.5" y="-74" font-family="Helvetica,sans-Serif" font-size="10.00">jshift</text>
<text text-anchor="middle" x="497.5" y="-63" font-family="Helvetica,sans-Serif" font-size="10.00">pelist</text>
<text text-anchor="middle" x="497.5" y="-52" font-family="Helvetica,sans-Serif" font-size="10.00">x_halo</text>
<text text-anchor="middle" x="497.5" y="-41" font-family="Helvetica,sans-Serif" font-size="10.00">y_halo</text>
</g>
</g>
</svg>
