<?xml version="1.0" encoding="UTF-8" standalone="no"?>
<!DOCTYPE svg PUBLIC "-//W3C//DTD SVG 1.1//EN"
 "http://www.w3.org/Graphics/SVG/1.1/DTD/svg11.dtd">
<!-- Generated by graphviz version 2.43.0 (0)
 -->
<!-- Title: fmsnetcdffile_t Pages: 1 -->
<!--zoomable 810 -->
<svg id="main" version="1.1" xmlns="http://www.w3.org/2000/svg" xmlns:xlink="http://www.w3.org/1999/xlink" xml:space="preserve" onload="init(evt)">
<style type="text/css"><![CDATA[
.edge:hover path { stroke: red; }
.edge:hover polygon { stroke: red; fill: red; }
]]></style>
<script type="text/javascript"><![CDATA[
var edges = document.getElementsByTagName('g');
if (edges && edges.length) {
  for (var i=0;i<edges.length;i++) {
    if (edges[i].id.substr(0,4)=='edge') {
      edges[i].setAttribute('class','edge');
    }
  }
}
]]></script>
        <defs>
                <circle id="rim" cx="0" cy="0" r="7"/>
                <circle id="rim2" cx="0" cy="0" r="3.5"/>
                <g id="zoomPlus">
                        <use xlink:href="#rim" fill="#404040">
                                <set attributeName="fill" to="#808080" begin="zoomplus.mouseover" end="zoomplus.mouseout"/>
                        </use>
                        <path d="M-4,0h8M0,-4v8" fill="none" stroke="white" stroke-width="1.5" pointer-events="none"/>
                </g>
                <g id="zoomMin">
                        <use xlink:href="#rim" fill="#404040">
                                <set attributeName="fill" to="#808080" begin="zoomminus.mouseover" end="zoomminus.mouseout"/>
                        </use>
                        <path d="M-4,0h8" fill="none" stroke="white" stroke-width="1.5" pointer-events="none"/>
                </g>
                <g id="dirArrow">
                        <path fill="none" stroke="white" stroke-width="1.5" d="M0,-3.0v7 M-2.5,-0.5L0,-3.0L2.5,-0.5"/>
                </g>
               <g id="resetDef">
                       <use xlink:href="#rim2" fill="#404040">
                               <set attributeName="fill" to="#808080" begin="reset.mouseover" end="reset.mouseout"/>
                       </use>
               </g>
        </defs>

<script type="text/javascript">
var viewWidth = 871;
var viewHeight = 810;
var sectionId = 'dynsection-3';
</script>
<script xlink:href="svgpan.js"/>
<svg id="graph" class="graph">
<g id="viewport">
<title>fmsnetcdffile_t</title>
<polygon fill="white" stroke="transparent" points="-4,4 -4,-805.5 867,-805.5 867,4 -4,4"/>
<!-- Node1 -->
<g id="node1" class="node">
<title>Node1</title>
<g id="a_node1"><a xlink:title="Netcdf file type.">
<polygon fill="#bfbfbf" stroke="black" points="773,-541 773,-560 863,-560 863,-541 773,-541"/>
<text text-anchor="middle" x="818" y="-548" font-family="Helvetica,sans-Serif" font-size="10.00">fmsnetcdffile_t</text>
</a>
</g>
</g>
<!-- Node2 -->
<g id="node2" class="node">
<title>Node2</title>
<g id="a_node2"><a xlink:title=" ">
<polygon fill="white" stroke="#bfbfbf" points="29.5,-293 29.5,-312 78.5,-312 78.5,-293 29.5,-293"/>
<text text-anchor="middle" x="54" y="-300" font-family="Helvetica,sans-Serif" font-size="10.00">logical</text>
</a>
</g>
</g>
<!-- Node2&#45;&gt;Node1 -->
<g id="edge1" class="edge">
<title>Node2&#45;&gt;Node1</title>
<path fill="none" stroke="#9a32cd" stroke-dasharray="5,2" d="M83.12,-316.62C117.34,-333.05 177.33,-359.46 232,-371.5 344.63,-396.3 379,-359.97 491,-387.5 615.81,-418.18 643.73,-441.19 755,-505.5 773.42,-516.15 793.04,-531.06 805.16,-540.75"/>
<polygon fill="#9a32cd" stroke="#9a32cd" points="84.29,-313.3 73.77,-312.07 81.23,-319.59 84.29,-313.3"/>
<text text-anchor="middle" x="426" y="-456.5" font-family="Helvetica,sans-Serif" font-size="10.00"> is_diskless</text>
<text text-anchor="middle" x="426" y="-445.5" font-family="Helvetica,sans-Serif" font-size="10.00">is_netcdf4</text>
<text text-anchor="middle" x="426" y="-434.5" font-family="Helvetica,sans-Serif" font-size="10.00">is_open</text>
<text text-anchor="middle" x="426" y="-423.5" font-family="Helvetica,sans-Serif" font-size="10.00">is_readonly</text>
<text text-anchor="middle" x="426" y="-412.5" font-family="Helvetica,sans-Serif" font-size="10.00">is_restart</text>
<text text-anchor="middle" x="426" y="-401.5" font-family="Helvetica,sans-Serif" font-size="10.00">is_root</text>
<text text-anchor="middle" x="426" y="-390.5" font-family="Helvetica,sans-Serif" font-size="10.00">mode_is_append</text>
</g>
<!-- Node8 -->
<g id="node8" class="node">
<title>Node8</title>
<g id="a_node8"><a xlink:href="group__netcdf__io__mod.html#structnetcdf__io__mod_1_1restartvariable__t" target="_top" xlink:title="Restart variable.">
<polygon fill="white" stroke="black" points="528,-217 528,-236 626,-236 626,-217 528,-217"/>
<text text-anchor="middle" x="577" y="-224" font-family="Helvetica,sans-Serif" font-size="10.00">restartvariable_t</text>
</a>
</g>
</g>
<!-- Node2&#45;&gt;Node8 -->
<g id="edge10" class="edge">
<title>Node2&#45;&gt;Node8</title>
<path fill="none" stroke="#9a32cd" stroke-dasharray="5,2" d="M88.64,-302.34C162.53,-301.31 344.08,-295.04 491,-259.5 513.93,-253.95 538.96,-243.69 555.88,-236.07"/>
<polygon fill="#9a32cd" stroke="#9a32cd" points="88.5,-298.84 78.54,-302.46 88.58,-305.84 88.5,-298.84"/>
<text text-anchor="middle" x="287.5" y="-310.5" font-family="Helvetica,sans-Serif" font-size="10.00"> is_bc_variable</text>
<text text-anchor="middle" x="287.5" y="-299.5" font-family="Helvetica,sans-Serif" font-size="10.00">was_read</text>
</g>
<!-- Node15 -->
<g id="node15" class="node">
<title>Node15</title>
<g id="a_node15"><a xlink:href="group__netcdf__io__mod.html#structnetcdf__io__mod_1_1bc__information" target="_top" xlink:title="information needed fr regional restart variables">
<polygon fill="white" stroke="black" points="242.5,-148 242.5,-167 332.5,-167 332.5,-148 242.5,-148"/>
<text text-anchor="middle" x="287.5" y="-155" font-family="Helvetica,sans-Serif" font-size="10.00">bc_information</text>
</a>
</g>
</g>
<!-- Node2&#45;&gt;Node15 -->
<g id="edge19" class="edge">
<title>Node2&#45;&gt;Node15</title>
<path fill="none" stroke="#9a32cd" stroke-dasharray="5,2" d="M82.25,-288.2C124.96,-265.62 203.87,-223.16 214,-212.5 226.32,-199.53 218.57,-188.31 232,-176.5 236.44,-172.6 241.73,-169.48 247.24,-167"/>
<polygon fill="#9a32cd" stroke="#9a32cd" points="80.44,-285.2 73.22,-292.96 83.7,-291.39 80.44,-285.2"/>
<text text-anchor="middle" x="170" y="-277.5" font-family="Helvetica,sans-Serif" font-size="10.00"> data_on_file_root</text>
<text text-anchor="middle" x="170" y="-266.5" font-family="Helvetica,sans-Serif" font-size="10.00">is_root_pe</text>
</g>
<!-- Node3 -->
<g id="node3" class="node">
<title>Node3</title>
<g id="a_node3"><a xlink:title=" ">
<polygon fill="white" stroke="#bfbfbf" points="232,-515 232,-534 343,-534 343,-515 232,-515"/>
<text text-anchor="middle" x="287.5" y="-522" font-family="Helvetica,sans-Serif" font-size="10.00">character(len=256)</text>
</a>
</g>
</g>
<!-- Node3&#45;&gt;Node1 -->
<g id="edge2" class="edge">
<title>Node3&#45;&gt;Node1</title>
<path fill="none" stroke="#9a32cd" stroke-dasharray="5,2" d="M353.25,-532.82C355.86,-533.07 358.46,-533.3 361,-533.5 511.82,-545.65 691.43,-549.13 772.91,-550.12"/>
<polygon fill="#9a32cd" stroke="#9a32cd" points="353.38,-529.32 343.08,-531.79 352.67,-536.28 353.38,-529.32"/>
<text text-anchor="middle" x="577" y="-560.5" font-family="Helvetica,sans-Serif" font-size="10.00"> nc_format</text>
<text text-anchor="middle" x="577" y="-549.5" font-family="Helvetica,sans-Serif" font-size="10.00">path</text>
</g>
<!-- Node5 -->
<g id="node5" class="node">
<title>Node5</title>
<g id="a_node5"><a xlink:href="group__netcdf__io__mod.html#structnetcdf__io__mod_1_1compresseddimension__t" target="_top" xlink:title="Compressed dimension.">
<polygon fill="white" stroke="black" points="509,-495 509,-514 645,-514 645,-495 509,-495"/>
<text text-anchor="middle" x="577" y="-502" font-family="Helvetica,sans-Serif" font-size="10.00">compresseddimension_t</text>
</a>
</g>
</g>
<!-- Node3&#45;&gt;Node5 -->
<g id="edge5" class="edge">
<title>Node3&#45;&gt;Node5</title>
<path fill="none" stroke="#9a32cd" stroke-dasharray="5,2" d="M353.48,-519.98C399.82,-516.76 461.96,-512.43 508.8,-509.17"/>
<polygon fill="#9a32cd" stroke="#9a32cd" points="352.99,-516.51 343.25,-520.69 353.47,-523.49 352.99,-516.51"/>
<text text-anchor="middle" x="426" y="-521.5" font-family="Helvetica,sans-Serif" font-size="10.00"> dimname</text>
</g>
<!-- Node3&#45;&gt;Node8 -->
<g id="edge15" class="edge">
<title>Node3&#45;&gt;Node8</title>
<path fill="none" stroke="#9a32cd" stroke-dasharray="5,2" d="M318.71,-511.04C331.56,-505.67 346.83,-499.77 361,-495.5 417.5,-478.48 446.59,-507.36 491,-468.5 564.39,-404.28 574.42,-272.83 575.79,-236.18"/>
<polygon fill="#9a32cd" stroke="#9a32cd" points="317.23,-507.86 309.41,-515 319.98,-514.3 317.23,-507.86"/>
<text text-anchor="middle" x="426" y="-498.5" font-family="Helvetica,sans-Serif" font-size="10.00"> varname</text>
</g>
<!-- Node4 -->
<g id="node4" class="node">
<title>Node4</title>
<g id="a_node4"><a xlink:title=" ">
<polygon fill="white" stroke="#bfbfbf" points="524.5,-591 524.5,-610 629.5,-610 629.5,-591 524.5,-591"/>
<text text-anchor="middle" x="577" y="-598" font-family="Helvetica,sans-Serif" font-size="10.00">character(len=20)</text>
</a>
</g>
</g>
<!-- Node4&#45;&gt;Node1 -->
<g id="edge3" class="edge">
<title>Node4&#45;&gt;Node1</title>
<path fill="none" stroke="#9a32cd" stroke-dasharray="5,2" d="M636.07,-589.02C670.65,-582.1 715.37,-573 755,-564.5 761.58,-563.09 768.55,-561.55 775.34,-560.04"/>
<polygon fill="#9a32cd" stroke="#9a32cd" points="635.26,-585.61 626.14,-591 636.63,-592.47 635.26,-585.61"/>
<text text-anchor="middle" x="709" y="-586.5" font-family="Helvetica,sans-Serif" font-size="10.00"> time_name</text>
</g>
<!-- Node5&#45;&gt;Node1 -->
<g id="edge4" class="edge">
<title>Node5&#45;&gt;Node1</title>
<path fill="none" stroke="#9a32cd" stroke-dasharray="5,2" d="M655.15,-509.18C686.48,-512.23 722.81,-517.26 755,-525.5 769.5,-529.21 785.13,-535.53 797.07,-540.89"/>
<polygon fill="#9a32cd" stroke="#9a32cd" points="655.45,-505.69 645.17,-508.26 654.8,-512.66 655.45,-505.69"/>
<text text-anchor="middle" x="709" y="-528.5" font-family="Helvetica,sans-Serif" font-size="10.00"> compressed_dims</text>
</g>
<!-- Node6 -->
<g id="node6" class="node">
<title>Node6</title>
<g id="a_node6"><a xlink:title=" ">
<polygon fill="white" stroke="#bfbfbf" points="28.5,-598 28.5,-617 79.5,-617 79.5,-598 28.5,-598"/>
<text text-anchor="middle" x="54" y="-605" font-family="Helvetica,sans-Serif" font-size="10.00">integer</text>
</a>
</g>
</g>
<!-- Node6&#45;&gt;Node1 -->
<g id="edge24" class="edge">
<title>Node6&#45;&gt;Node1</title>
<path fill="none" stroke="#9a32cd" stroke-dasharray="5,2" d="M89.56,-610.96C180.66,-619.48 434.8,-639.39 645,-619.5 694.55,-614.81 709.63,-618.96 755,-598.5 775.85,-589.1 796.03,-571.36 807.45,-560.28"/>
<polygon fill="#9a32cd" stroke="#9a32cd" points="89.81,-607.47 79.52,-610 89.15,-614.43 89.81,-607.47"/>
<text text-anchor="middle" x="426" y="-685.5" font-family="Helvetica,sans-Serif" font-size="10.00"> io_root</text>
<text text-anchor="middle" x="426" y="-674.5" font-family="Helvetica,sans-Serif" font-size="10.00">ncid</text>
<text text-anchor="start" x="382.5" y="-663.5" font-family="Helvetica,sans-Serif" font-size="10.00">num_compressed</text>
<text text-anchor="middle" x="426" y="-652.5" font-family="Helvetica,sans-Serif" font-size="10.00">_dims</text>
<text text-anchor="middle" x="426" y="-641.5" font-family="Helvetica,sans-Serif" font-size="10.00">num_restart_vars</text>
<text text-anchor="middle" x="426" y="-630.5" font-family="Helvetica,sans-Serif" font-size="10.00">pelist</text>
</g>
<!-- Node6&#45;&gt;Node5 -->
<g id="edge6" class="edge">
<title>Node6&#45;&gt;Node5</title>
<path fill="none" stroke="#9a32cd" stroke-dasharray="5,2" d="M90.1,-603.49C164.69,-594.54 344.17,-570.75 491,-533.5 511.71,-528.25 534.59,-520.31 551.4,-514.07"/>
<polygon fill="#9a32cd" stroke="#9a32cd" points="89.39,-600.05 79.87,-604.7 90.22,-607 89.39,-600.05"/>
<text text-anchor="middle" x="287.5" y="-607.5" font-family="Helvetica,sans-Serif" font-size="10.00"> nelems</text>
<text text-anchor="middle" x="287.5" y="-596.5" font-family="Helvetica,sans-Serif" font-size="10.00">npes_corner</text>
<text text-anchor="middle" x="287.5" y="-585.5" font-family="Helvetica,sans-Serif" font-size="10.00">npes_nelems</text>
</g>
<!-- Node7 -->
<g id="node7" class="node">
<title>Node7</title>
<g id="a_node7"><a xlink:href="group__netcdf__io__mod.html#structnetcdf__io__mod_1_1dimension__information" target="_top" xlink:title="information about the current dimensions for regional restart variables">
<polygon fill="white" stroke="black" points="361,-710 361,-729 491,-729 491,-710 361,-710"/>
<text text-anchor="middle" x="426" y="-717" font-family="Helvetica,sans-Serif" font-size="10.00">dimension_information</text>
</a>
</g>
</g>
<!-- Node6&#45;&gt;Node7 -->
<g id="edge8" class="edge">
<title>Node6&#45;&gt;Node7</title>
<path fill="none" stroke="#9a32cd" stroke-dasharray="5,2" d="M75.54,-623.2C89.18,-632.93 107.87,-644.97 126,-652.5 203.51,-684.67 299.03,-702.63 360.93,-711.68"/>
<polygon fill="#9a32cd" stroke="#9a32cd" points="77.49,-620.29 67.35,-617.2 73.35,-625.94 77.49,-620.29"/>
<text text-anchor="middle" x="170" y="-793.5" font-family="Helvetica,sans-Serif" font-size="10.00"> cur_dim_len</text>
<text text-anchor="middle" x="170" y="-782.5" font-family="Helvetica,sans-Serif" font-size="10.00">dimension</text>
<text text-anchor="middle" x="170" y="-771.5" font-family="Helvetica,sans-Serif" font-size="10.00">each</text>
<text text-anchor="middle" x="170" y="-760.5" font-family="Helvetica,sans-Serif" font-size="10.00">number</text>
<text text-anchor="middle" x="170" y="-749.5" font-family="Helvetica,sans-Serif" font-size="10.00">of</text>
<text text-anchor="middle" x="170" y="-738.5" font-family="Helvetica,sans-Serif" font-size="10.00">size</text>
<text text-anchor="middle" x="170" y="-727.5" font-family="Helvetica,sans-Serif" font-size="10.00">the</text>
<text text-anchor="middle" x="170" y="-716.5" font-family="Helvetica,sans-Serif" font-size="10.00">unique</text>
<text text-anchor="middle" x="170" y="-705.5" font-family="Helvetica,sans-Serif" font-size="10.00">x</text>
<text text-anchor="middle" x="170" y="-694.5" font-family="Helvetica,sans-Serif" font-size="10.00">xlen</text>
<text text-anchor="middle" x="170" y="-683.5" font-family="Helvetica,sans-Serif" font-size="10.00">...</text>
</g>
<!-- Node6&#45;&gt;Node15 -->
<g id="edge23" class="edge">
<title>Node6&#45;&gt;Node15</title>
<path fill="none" stroke="#9a32cd" stroke-dasharray="5,2" d="M65.17,-589.03C97.02,-530.95 193.88,-352.14 214,-289.5 229.55,-241.08 199.37,-215.51 232,-176.5 235.21,-172.66 239.25,-169.59 243.67,-167.14"/>
<polygon fill="#9a32cd" stroke="#9a32cd" points="62.07,-587.41 60.33,-597.86 68.21,-590.78 62.07,-587.41"/>
<text text-anchor="middle" x="170" y="-537.5" font-family="Helvetica,sans-Serif" font-size="10.00"> global_size</text>
<text text-anchor="middle" x="170" y="-526.5" font-family="Helvetica,sans-Serif" font-size="10.00">indices</text>
<text text-anchor="middle" x="170" y="-515.5" font-family="Helvetica,sans-Serif" font-size="10.00">ishift</text>
<text text-anchor="middle" x="170" y="-504.5" font-family="Helvetica,sans-Serif" font-size="10.00">jshift</text>
<text text-anchor="middle" x="170" y="-493.5" font-family="Helvetica,sans-Serif" font-size="10.00">pelist</text>
<text text-anchor="middle" x="170" y="-482.5" font-family="Helvetica,sans-Serif" font-size="10.00">x_halo</text>
<text text-anchor="middle" x="170" y="-471.5" font-family="Helvetica,sans-Serif" font-size="10.00">y_halo</text>
</g>
<!-- Node7&#45;&gt;Node1 -->
<g id="edge7" class="edge">
<title>Node7&#45;&gt;Node1</title>
<path fill="none" stroke="#9a32cd" stroke-dasharray="5,2" d="M501.41,-720.79C572.58,-718.47 679.9,-705.33 755,-652.5 788.56,-628.89 807.3,-580.79 814.06,-560.2"/>
<polygon fill="#9a32cd" stroke="#9a32cd" points="501.08,-717.3 491.18,-721.06 501.26,-724.29 501.08,-717.3"/>
<text text-anchor="middle" x="577" y="-722.5" font-family="Helvetica,sans-Serif" font-size="10.00"> bc_dimensions</text>
</g>
<!-- Node8&#45;&gt;Node1 -->
<g id="edge9" class="edge">
<title>Node8&#45;&gt;Node1</title>
<path fill="none" stroke="#9a32cd" stroke-dasharray="5,2" d="M605.57,-241.21C644.34,-263.24 714.73,-308.39 755,-365.5 796.19,-423.91 811.6,-511.71 815.74,-540.78"/>
<polygon fill="#9a32cd" stroke="#9a32cd" points="606.87,-237.92 596.43,-236.11 603.46,-244.04 606.87,-237.92"/>
<text text-anchor="middle" x="709" y="-368.5" font-family="Helvetica,sans-Serif" font-size="10.00"> restart_vars</text>
</g>
<!-- Node9 -->
<g id="node9" class="node">
<title>Node9</title>
<g id="a_node9"><a xlink:title=" ">
<polygon fill="white" stroke="#bfbfbf" points="232,-98.5 232,-128.5 343,-128.5 343,-98.5 232,-98.5"/>
<text text-anchor="start" x="240" y="-116.5" font-family="Helvetica,sans-Serif" font-size="10.00">class(*), dimension</text>
<text text-anchor="middle" x="287.5" y="-105.5" font-family="Helvetica,sans-Serif" font-size="10.00">(:,:,:), pointer</text>
</a>
</g>
</g>
<!-- Node9&#45;&gt;Node8 -->
<g id="edge11" class="edge">
<title>Node9&#45;&gt;Node8</title>
<path fill="none" stroke="#9a32cd" stroke-dasharray="5,2" d="M353.55,-117.35C394.67,-121.84 447.98,-131.54 491,-152.5 523.89,-168.52 554.09,-200.62 567.97,-216.76"/>
<polygon fill="#9a32cd" stroke="#9a32cd" points="353.68,-113.84 343.37,-116.32 352.97,-120.81 353.68,-113.84"/>
<text text-anchor="middle" x="426" y="-155.5" font-family="Helvetica,sans-Serif" font-size="10.00"> data3d</text>
</g>
<!-- Node10 -->
<g id="node10" class="node">
<title>Node10</title>
<g id="a_node10"><a xlink:title=" ">
<polygon fill="white" stroke="#bfbfbf" points="232,-49.5 232,-79.5 343,-79.5 343,-49.5 232,-49.5"/>
<text text-anchor="start" x="240" y="-67.5" font-family="Helvetica,sans-Serif" font-size="10.00">class(*), dimension</text>
<text text-anchor="middle" x="287.5" y="-56.5" font-family="Helvetica,sans-Serif" font-size="10.00">(:,:), pointer</text>
</a>
</g>
</g>
<!-- Node10&#45;&gt;Node8 -->
<g id="edge12" class="edge">
<title>Node10&#45;&gt;Node8</title>
<path fill="none" stroke="#9a32cd" stroke-dasharray="5,2" d="M353.56,-65.07C395.76,-68.25 450.26,-77.89 491,-104.5 534.87,-133.16 562.61,-193.08 572.22,-216.66"/>
<polygon fill="#9a32cd" stroke="#9a32cd" points="353.59,-61.57 343.39,-64.41 353.14,-68.55 353.59,-61.57"/>
<text text-anchor="middle" x="426" y="-107.5" font-family="Helvetica,sans-Serif" font-size="10.00"> data2d</text>
</g>
<!-- Node11 -->
<g id="node11" class="node">
<title>Node11</title>
<g id="a_node11"><a xlink:title=" ">
<polygon fill="white" stroke="#bfbfbf" points="232,-0.5 232,-30.5 343,-30.5 343,-0.5 232,-0.5"/>
<text text-anchor="start" x="240" y="-18.5" font-family="Helvetica,sans-Serif" font-size="10.00">class(*), dimension</text>
<text text-anchor="middle" x="287.5" y="-7.5" font-family="Helvetica,sans-Serif" font-size="10.00">(:,:,:,:,:), pointer</text>
</a>
</g>
</g>
<!-- Node11&#45;&gt;Node8 -->
<g id="edge13" class="edge">
<title>Node11&#45;&gt;Node8</title>
<path fill="none" stroke="#9a32cd" stroke-dasharray="5,2" d="M353.34,-12.47C396.34,-13.71 451.84,-21.9 491,-51.5 548.12,-94.68 568.93,-186.36 574.39,-216.59"/>
<polygon fill="#9a32cd" stroke="#9a32cd" points="353.32,-8.97 343.26,-12.3 353.2,-15.97 353.32,-8.97"/>
<text text-anchor="middle" x="426" y="-54.5" font-family="Helvetica,sans-Serif" font-size="10.00"> data5d</text>
</g>
<!-- Node12 -->
<g id="node12" class="node">
<title>Node12</title>
<g id="a_node12"><a xlink:title=" ">
<polygon fill="white" stroke="#bfbfbf" points="240,-343 240,-362 335,-362 335,-343 240,-343"/>
<text text-anchor="middle" x="287.5" y="-350" font-family="Helvetica,sans-Serif" font-size="10.00">class(*), pointer</text>
</a>
</g>
</g>
<!-- Node12&#45;&gt;Node8 -->
<g id="edge14" class="edge">
<title>Node12&#45;&gt;Node8</title>
<path fill="none" stroke="#9a32cd" stroke-dasharray="5,2" d="M345.19,-351.86C387.62,-349.22 445.86,-340.86 491,-316.5 527.88,-296.59 557.89,-254.79 570.1,-236"/>
<polygon fill="#9a32cd" stroke="#9a32cd" points="344.83,-348.38 335.03,-352.41 345.2,-355.37 344.83,-348.38"/>
<text text-anchor="middle" x="426" y="-353.5" font-family="Helvetica,sans-Serif" font-size="10.00"> data0d</text>
</g>
<!-- Node13 -->
<g id="node13" class="node">
<title>Node13</title>
<g id="a_node13"><a xlink:title=" ">
<polygon fill="white" stroke="#bfbfbf" points="232,-235.5 232,-265.5 343,-265.5 343,-235.5 232,-235.5"/>
<text text-anchor="start" x="240" y="-253.5" font-family="Helvetica,sans-Serif" font-size="10.00">class(*), dimension</text>
<text text-anchor="middle" x="287.5" y="-242.5" font-family="Helvetica,sans-Serif" font-size="10.00">(:,:,:,:), pointer</text>
</a>
</g>
</g>
<!-- Node13&#45;&gt;Node8 -->
<g id="edge16" class="edge">
<title>Node13&#45;&gt;Node8</title>
<path fill="none" stroke="#9a32cd" stroke-dasharray="5,2" d="M353.54,-245.07C406.43,-240.66 479.88,-234.52 527.66,-230.53"/>
<polygon fill="#9a32cd" stroke="#9a32cd" points="352.93,-241.61 343.25,-245.93 353.51,-248.59 352.93,-241.61"/>
<text text-anchor="middle" x="426" y="-247.5" font-family="Helvetica,sans-Serif" font-size="10.00"> data4d</text>
</g>
<!-- Node14 -->
<g id="node14" class="node">
<title>Node14</title>
<g id="a_node14"><a xlink:title=" ">
<polygon fill="white" stroke="#bfbfbf" points="232,-186.5 232,-216.5 343,-216.5 343,-186.5 232,-186.5"/>
<text text-anchor="start" x="240" y="-204.5" font-family="Helvetica,sans-Serif" font-size="10.00">class(*), dimension</text>
<text text-anchor="middle" x="287.5" y="-193.5" font-family="Helvetica,sans-Serif" font-size="10.00">(:), pointer</text>
</a>
</g>
</g>
<!-- Node14&#45;&gt;Node8 -->
<g id="edge17" class="edge">
<title>Node14&#45;&gt;Node8</title>
<path fill="none" stroke="#9a32cd" stroke-dasharray="5,2" d="M353.54,-207.16C406.43,-211.76 479.88,-218.14 527.66,-222.3"/>
<polygon fill="#9a32cd" stroke="#9a32cd" points="353.52,-203.64 343.25,-206.26 352.91,-210.61 353.52,-203.64"/>
<text text-anchor="middle" x="426" y="-221.5" font-family="Helvetica,sans-Serif" font-size="10.00"> data1d</text>
</g>
<!-- Node15&#45;&gt;Node8 -->
<g id="edge18" class="edge">
<title>Node15&#45;&gt;Node8</title>
<path fill="none" stroke="#9a32cd" stroke-dasharray="5,2" d="M342.59,-164.2C383.75,-170 441.55,-179.65 491,-193.5 513.26,-199.73 537.77,-209.59 554.73,-216.91"/>
<polygon fill="#9a32cd" stroke="#9a32cd" points="342.89,-160.71 332.5,-162.81 341.93,-167.64 342.89,-160.71"/>
<text text-anchor="middle" x="426" y="-196.5" font-family="Helvetica,sans-Serif" font-size="10.00"> bc_info</text>
</g>
<!-- Node16 -->
<g id="node16" class="node">
<title>Node16</title>
<g id="a_node16"><a xlink:title=" ">
<polygon fill="white" stroke="#bfbfbf" points="0,-103 0,-122 108,-122 108,-103 0,-103"/>
<text text-anchor="middle" x="54" y="-110" font-family="Helvetica,sans-Serif" font-size="10.00">real(kind=r8_kind)</text>
</a>
</g>
</g>
<!-- Node16&#45;&gt;Node15 -->
<g id="edge20" class="edge">
<title>Node16&#45;&gt;Node15</title>
<path fill="none" stroke="#9a32cd" stroke-dasharray="5,2" d="M118.29,-116.77C147.67,-119.59 182.9,-124.16 214,-131.5 218.78,-132.63 241.98,-141.03 260.86,-147.99"/>
<polygon fill="#9a32cd" stroke="#9a32cd" points="118.44,-113.27 108.16,-115.84 117.8,-120.24 118.44,-113.27"/>
<text text-anchor="middle" x="170" y="-145.5" font-family="Helvetica,sans-Serif" font-size="10.00"> globaldata2d_r8</text>
<text text-anchor="middle" x="170" y="-134.5" font-family="Helvetica,sans-Serif" font-size="10.00">globaldata3d_r8</text>
</g>
<!-- Node17 -->
<g id="node17" class="node">
<title>Node17</title>
<g id="a_node17"><a xlink:title=" ">
<polygon fill="white" stroke="#bfbfbf" points="0,-186 0,-205 108,-205 108,-186 0,-186"/>
<text text-anchor="middle" x="54" y="-193" font-family="Helvetica,sans-Serif" font-size="10.00">real(kind=r4_kind)</text>
</a>
</g>
</g>
<!-- Node17&#45;&gt;Node15 -->
<g id="edge21" class="edge">
<title>Node17&#45;&gt;Node15</title>
<path fill="none" stroke="#9a32cd" stroke-dasharray="5,2" d="M118.2,-187.25C147.42,-183.21 182.55,-178.02 214,-172.5 223.24,-170.88 233.11,-168.96 242.49,-167.05"/>
<polygon fill="#9a32cd" stroke="#9a32cd" points="117.56,-183.81 108.13,-188.63 118.51,-190.74 117.56,-183.81"/>
<text text-anchor="middle" x="170" y="-200.5" font-family="Helvetica,sans-Serif" font-size="10.00"> globaldata2d_r4</text>
<text text-anchor="middle" x="170" y="-189.5" font-family="Helvetica,sans-Serif" font-size="10.00">globaldata3d_r4</text>
</g>
<!-- Node18 -->
<g id="node18" class="node">
<title>Node18</title>
<g id="a_node18"><a xlink:title=" ">
<polygon fill="white" stroke="#bfbfbf" points="1.5,-148 1.5,-167 106.5,-167 106.5,-148 1.5,-148"/>
<text text-anchor="middle" x="54" y="-155" font-family="Helvetica,sans-Serif" font-size="10.00">character(len=32)</text>
</a>
</g>
</g>
<!-- Node18&#45;&gt;Node15 -->
<g id="edge22" class="edge">
<title>Node18&#45;&gt;Node15</title>
<path fill="none" stroke="#9a32cd" stroke-dasharray="5,2" d="M116.74,-157.5C156.34,-157.5 206.81,-157.5 242.39,-157.5"/>
<polygon fill="#9a32cd" stroke="#9a32cd" points="116.67,-154 106.66,-157.5 116.66,-161 116.67,-154"/>
<text text-anchor="middle" x="170" y="-160.5" font-family="Helvetica,sans-Serif" font-size="10.00"> chksum</text>
</g>
</g>
</svg>
        <g id="navigator" transform="translate(0 0)" fill="#404254">
                <rect fill="#f2f5e9" fill-opacity="0.5" stroke="#606060" stroke-width=".5" x="0" y="0" width="60" height="60"/>
                <use id="zoomplus" xlink:href="#zoomPlus" x="17" y="9" onmousedown="handleZoom(evt,'in')"/>
                <use id="zoomminus" xlink:href="#zoomMin" x="42" y="9" onmousedown="handleZoom(evt,'out')"/>
                <use id="reset" xlink:href="#resetDef" x="30" y="36" onmousedown="handleReset()"/>
                <g id="arrowUp" xlink:href="#dirArrow" transform="translate(30 24)" onmousedown="handlePan(0,-1)">
                  <use xlink:href="#rim" fill="#404040">
                        <set attributeName="fill" to="#808080" begin="arrowUp.mouseover" end="arrowUp.mouseout"/>
                  </use>
                  <path fill="none" stroke="white" stroke-width="1.5" d="M0,-3.0v7 M-2.5,-0.5L0,-3.0L2.5,-0.5"/>
                </g>
                <g id="arrowRight" xlink:href="#dirArrow" transform="rotate(90) translate(36 -43)" onmousedown="handlePan(1,0)">
                  <use xlink:href="#rim" fill="#404040">
                        <set attributeName="fill" to="#808080" begin="arrowRight.mouseover" end="arrowRight.mouseout"/>
                  </use>
                  <path fill="none" stroke="white" stroke-width="1.5" d="M0,-3.0v7 M-2.5,-0.5L0,-3.0L2.5,-0.5"/>
                </g>
                <g id="arrowDown" xlink:href="#dirArrow" transform="rotate(180) translate(-30 -48)" onmousedown="handlePan(0,1)">
                  <use xlink:href="#rim" fill="#404040">
                        <set attributeName="fill" to="#808080" begin="arrowDown.mouseover" end="arrowDown.mouseout"/>
                  </use>
                  <path fill="none" stroke="white" stroke-width="1.5" d="M0,-3.0v7 M-2.5,-0.5L0,-3.0L2.5,-0.5"/>
                </g>
                <g id="arrowLeft" xlink:href="#dirArrow" transform="rotate(270) translate(-36 17)" onmousedown="handlePan(-1,0)">
                  <use xlink:href="#rim" fill="#404040">
                        <set attributeName="fill" to="#808080" begin="arrowLeft.mouseover" end="arrowLeft.mouseout"/>
                  </use>
                  <path fill="none" stroke="white" stroke-width="1.5" d="M0,-3.0v7 M-2.5,-0.5L0,-3.0L2.5,-0.5"/>
                </g>
        </g>
        <svg viewBox="0 0 15 15" width="100%" height="30px" preserveAspectRatio="xMaxYMin meet">
         <g id="arrow_out" transform="scale(0.3 0.3)">
          <a xlink:href="structnetcdf__io__mod_1_1fmsnetcdffile__t__coll__graph_org.svg" target="_base">
           <rect id="button" ry="5" rx="5" y="6" x="6" height="38" width="38"
                fill="#f2f5e9" fill-opacity="0.5" stroke="#606060" stroke-width="1.0"/>
           <path id="arrow"
             d="M 11.500037,31.436501 C 11.940474,20.09759 22.043105,11.32322 32.158766,21.979434 L 37.068811,17.246167 C 37.068811,17.246167 37.088388,32 37.088388,32 L 22.160133,31.978069 C 22.160133,31.978069 26.997745,27.140456 26.997745,27.140456 C 18.528582,18.264221 13.291696,25.230495 11.500037,31.436501 z"
             style="fill:#404040;"/>
          </a>
         </g>
        </svg>
</svg>
