<?xml version="1.0" encoding="UTF-8" standalone="no"?>
<!DOCTYPE svg PUBLIC "-//W3C//DTD SVG 1.1//EN"
 "http://www.w3.org/Graphics/SVG/1.1/DTD/svg11.dtd">
<!-- Generated by graphviz version 2.43.0 (0)
 -->
<!-- Title: restartvariable_t Pages: 1 -->
<!--zoomable 448 -->
<svg id="main" version="1.1" xmlns="http://www.w3.org/2000/svg" xmlns:xlink="http://www.w3.org/1999/xlink" xml:space="preserve" onload="init(evt)">
<style type="text/css"><![CDATA[
.edge:hover path { stroke: red; }
.edge:hover polygon { stroke: red; fill: red; }
]]></style>
<script type="text/javascript"><![CDATA[
var edges = document.getElementsByTagName('g');
if (edges && edges.length) {
  for (var i=0;i<edges.length;i++) {
    if (edges[i].id.substr(0,4)=='edge') {
      edges[i].setAttribute('class','edge');
    }
  }
}
]]></script>
        <defs>
                <circle id="rim" cx="0" cy="0" r="7"/>
                <circle id="rim2" cx="0" cy="0" r="3.5"/>
                <g id="zoomPlus">
                        <use xlink:href="#rim" fill="#404040">
                                <set attributeName="fill" to="#808080" begin="zoomplus.mouseover" end="zoomplus.mouseout"/>
                        </use>
                        <path d="M-4,0h8M0,-4v8" fill="none" stroke="white" stroke-width="1.5" pointer-events="none"/>
                </g>
                <g id="zoomMin">
                        <use xlink:href="#rim" fill="#404040">
                                <set attributeName="fill" to="#808080" begin="zoomminus.mouseover" end="zoomminus.mouseout"/>
                        </use>
                        <path d="M-4,0h8" fill="none" stroke="white" stroke-width="1.5" pointer-events="none"/>
                </g>
                <g id="dirArrow">
                        <path fill="none" stroke="white" stroke-width="1.5" d="M0,-3.0v7 M-2.5,-0.5L0,-3.0L2.5,-0.5"/>
                </g>
               <g id="resetDef">
                       <use xlink:href="#rim2" fill="#404040">
                               <set attributeName="fill" to="#808080" begin="reset.mouseover" end="reset.mouseout"/>
                       </use>
               </g>
        </defs>

<script type="text/javascript">
var viewWidth = 532;
var viewHeight = 448;
var sectionId = 'dynsection-4';
</script>
<script xlink:href="svgpan.js"/>
<svg id="graph" class="graph">
<g id="viewport">
<title>restartvariable_t</title>
<polygon fill="white" stroke="transparent" points="-4,4 -4,-443.5 528,-443.5 528,4 -4,4"/>
<!-- Node1 -->
<g id="node1" class="node">
<title>Node1</title>
<g id="a_node1"><a xlink:title="Restart variable.">
<polygon fill="#bfbfbf" stroke="black" points="426,-181 426,-200 524,-200 524,-181 426,-181"/>
<text text-anchor="middle" x="475" y="-188" font-family="Helvetica,sans-Serif" font-size="10.00">restartvariable_t</text>
</a>
</g>
</g>
<!-- Node2 -->
<g id="node2" class="node">
<title>Node2</title>
<g id="a_node2"><a xlink:title=" ">
<polygon fill="white" stroke="#bfbfbf" points="29.5,-408 29.5,-427 78.5,-427 78.5,-408 29.5,-408"/>
<text text-anchor="middle" x="54" y="-415" font-family="Helvetica,sans-Serif" font-size="10.00">logical</text>
</a>
</g>
</g>
<!-- Node2&#45;&gt;Node1 -->
<g id="edge1" class="edge">
<title>Node2&#45;&gt;Node1</title>
<path fill="none" stroke="#9a32cd" stroke-dasharray="5,2" d="M88.51,-423.82C121.09,-428.74 171.7,-433.12 214,-422.5 308.88,-398.67 339.38,-388.23 408,-318.5 443.6,-282.32 464.24,-223.03 471.26,-200.04"/>
<polygon fill="#9a32cd" stroke="#9a32cd" points="89.03,-420.36 78.6,-422.22 87.92,-427.27 89.03,-420.36"/>
<text text-anchor="middle" x="287.5" y="-431.5" font-family="Helvetica,sans-Serif" font-size="10.00"> is_bc_variable</text>
<text text-anchor="middle" x="287.5" y="-420.5" font-family="Helvetica,sans-Serif" font-size="10.00">was_read</text>
</g>
<!-- Node10 -->
<g id="node10" class="node">
<title>Node10</title>
<g id="a_node10"><a xlink:href="group__netcdf__io__mod.html#structnetcdf__io__mod_1_1bc__information" target="_top" xlink:title="information needed fr regional restart variables">
<polygon fill="white" stroke="black" points="242.5,-323 242.5,-342 332.5,-342 332.5,-323 242.5,-323"/>
<text text-anchor="middle" x="287.5" y="-330" font-family="Helvetica,sans-Serif" font-size="10.00">bc_information</text>
</a>
</g>
</g>
<!-- Node2&#45;&gt;Node10 -->
<g id="edge10" class="edge">
<title>Node2&#45;&gt;Node10</title>
<path fill="none" stroke="#9a32cd" stroke-dasharray="5,2" d="M88.37,-409.01C127.91,-398.79 191.3,-381.83 214,-372.5 234.74,-363.97 257.13,-350.99 271.45,-342.14"/>
<polygon fill="#9a32cd" stroke="#9a32cd" points="87.44,-405.64 78.63,-411.52 89.18,-412.42 87.44,-405.64"/>
<text text-anchor="middle" x="170" y="-412.5" font-family="Helvetica,sans-Serif" font-size="10.00"> data_on_file_root</text>
<text text-anchor="middle" x="170" y="-401.5" font-family="Helvetica,sans-Serif" font-size="10.00">is_root_pe</text>
</g>
<!-- Node3 -->
<g id="node3" class="node">
<title>Node3</title>
<g id="a_node3"><a xlink:title=" ">
<polygon fill="white" stroke="#bfbfbf" points="232,-273.5 232,-303.5 343,-303.5 343,-273.5 232,-273.5"/>
<text text-anchor="start" x="240" y="-291.5" font-family="Helvetica,sans-Serif" font-size="10.00">class(*), dimension</text>
<text text-anchor="middle" x="287.5" y="-280.5" font-family="Helvetica,sans-Serif" font-size="10.00">(:,:,:), pointer</text>
</a>
</g>
</g>
<!-- Node3&#45;&gt;Node1 -->
<g id="edge2" class="edge">
<title>Node3&#45;&gt;Node1</title>
<path fill="none" stroke="#9a32cd" stroke-dasharray="5,2" d="M332.54,-269.24C336.08,-267.65 339.61,-266.06 343,-264.5 372.09,-251.16 380.09,-249.16 408,-233.5 426.73,-223 447.31,-209.2 460.42,-200.11"/>
<polygon fill="#9a32cd" stroke="#9a32cd" points="330.88,-266.15 323.17,-273.42 333.73,-272.55 330.88,-266.15"/>
<text text-anchor="middle" x="384.5" y="-258.5" font-family="Helvetica,sans-Serif" font-size="10.00"> data3d</text>
</g>
<!-- Node4 -->
<g id="node4" class="node">
<title>Node4</title>
<g id="a_node4"><a xlink:title=" ">
<polygon fill="white" stroke="#bfbfbf" points="232,-224.5 232,-254.5 343,-254.5 343,-224.5 232,-224.5"/>
<text text-anchor="start" x="240" y="-242.5" font-family="Helvetica,sans-Serif" font-size="10.00">class(*), dimension</text>
<text text-anchor="middle" x="287.5" y="-231.5" font-family="Helvetica,sans-Serif" font-size="10.00">(:,:), pointer</text>
</a>
</g>
</g>
<!-- Node4&#45;&gt;Node1 -->
<g id="edge3" class="edge">
<title>Node4&#45;&gt;Node1</title>
<path fill="none" stroke="#9a32cd" stroke-dasharray="5,2" d="M353.03,-222.46C381.46,-214.94 413.8,-206.4 437.89,-200.04"/>
<polygon fill="#9a32cd" stroke="#9a32cd" points="351.93,-219.13 343.15,-225.06 353.72,-225.89 351.93,-219.13"/>
<text text-anchor="middle" x="384.5" y="-221.5" font-family="Helvetica,sans-Serif" font-size="10.00"> data2d</text>
</g>
<!-- Node5 -->
<g id="node5" class="node">
<title>Node5</title>
<g id="a_node5"><a xlink:title=" ">
<polygon fill="white" stroke="#bfbfbf" points="232,-175.5 232,-205.5 343,-205.5 343,-175.5 232,-175.5"/>
<text text-anchor="start" x="240" y="-193.5" font-family="Helvetica,sans-Serif" font-size="10.00">class(*), dimension</text>
<text text-anchor="middle" x="287.5" y="-182.5" font-family="Helvetica,sans-Serif" font-size="10.00">(:,:,:,:,:), pointer</text>
</a>
</g>
</g>
<!-- Node5&#45;&gt;Node1 -->
<g id="edge4" class="edge">
<title>Node5&#45;&gt;Node1</title>
<path fill="none" stroke="#9a32cd" stroke-dasharray="5,2" d="M353.18,-190.5C377.02,-190.5 403.58,-190.5 425.72,-190.5"/>
<polygon fill="#9a32cd" stroke="#9a32cd" points="353.15,-187 343.15,-190.5 353.15,-194 353.15,-187"/>
<text text-anchor="middle" x="384.5" y="-193.5" font-family="Helvetica,sans-Serif" font-size="10.00"> data5d</text>
</g>
<!-- Node6 -->
<g id="node6" class="node">
<title>Node6</title>
<g id="a_node6"><a xlink:title=" ">
<polygon fill="white" stroke="#bfbfbf" points="240,-137 240,-156 335,-156 335,-137 240,-137"/>
<text text-anchor="middle" x="287.5" y="-144" font-family="Helvetica,sans-Serif" font-size="10.00">class(*), pointer</text>
</a>
</g>
</g>
<!-- Node6&#45;&gt;Node1 -->
<g id="edge5" class="edge">
<title>Node6&#45;&gt;Node1</title>
<path fill="none" stroke="#9a32cd" stroke-dasharray="5,2" d="M338.57,-158.38C368.45,-165.46 405.89,-174.34 433.83,-180.97"/>
<polygon fill="#9a32cd" stroke="#9a32cd" points="339.29,-154.95 328.75,-156.05 337.67,-161.76 339.29,-154.95"/>
<text text-anchor="middle" x="384.5" y="-176.5" font-family="Helvetica,sans-Serif" font-size="10.00"> data0d</text>
</g>
<!-- Node7 -->
<g id="node7" class="node">
<title>Node7</title>
<g id="a_node7"><a xlink:title=" ">
<polygon fill="white" stroke="#bfbfbf" points="232,-99 232,-118 343,-118 343,-99 232,-99"/>
<text text-anchor="middle" x="287.5" y="-106" font-family="Helvetica,sans-Serif" font-size="10.00">character(len=256)</text>
</a>
</g>
</g>
<!-- Node7&#45;&gt;Node1 -->
<g id="edge6" class="edge">
<title>Node7&#45;&gt;Node1</title>
<path fill="none" stroke="#9a32cd" stroke-dasharray="5,2" d="M332.6,-121.02C355.57,-128.18 383.84,-138.03 408,-149.5 427.01,-158.52 447.36,-171.77 460.36,-180.75"/>
<polygon fill="#9a32cd" stroke="#9a32cd" points="333.37,-117.59 322.79,-118.01 331.32,-124.29 333.37,-117.59"/>
<text text-anchor="middle" x="384.5" y="-152.5" font-family="Helvetica,sans-Serif" font-size="10.00"> varname</text>
</g>
<!-- Node8 -->
<g id="node8" class="node">
<title>Node8</title>
<g id="a_node8"><a xlink:title=" ">
<polygon fill="white" stroke="#bfbfbf" points="232,-49.5 232,-79.5 343,-79.5 343,-49.5 232,-49.5"/>
<text text-anchor="start" x="240" y="-67.5" font-family="Helvetica,sans-Serif" font-size="10.00">class(*), dimension</text>
<text text-anchor="middle" x="287.5" y="-56.5" font-family="Helvetica,sans-Serif" font-size="10.00">(:,:,:,:), pointer</text>
</a>
</g>
</g>
<!-- Node8&#45;&gt;Node1 -->
<g id="edge7" class="edge">
<title>Node8&#45;&gt;Node1</title>
<path fill="none" stroke="#9a32cd" stroke-dasharray="5,2" d="M346.57,-83.26C367.04,-91.39 389.54,-102.15 408,-115.5 434.14,-134.41 457.14,-165.43 467.76,-180.99"/>
<polygon fill="#9a32cd" stroke="#9a32cd" points="347.61,-79.91 337.02,-79.6 345.1,-86.45 347.61,-79.91"/>
<text text-anchor="middle" x="384.5" y="-118.5" font-family="Helvetica,sans-Serif" font-size="10.00"> data4d</text>
</g>
<!-- Node9 -->
<g id="node9" class="node">
<title>Node9</title>
<g id="a_node9"><a xlink:title=" ">
<polygon fill="white" stroke="#bfbfbf" points="232,-0.5 232,-30.5 343,-30.5 343,-0.5 232,-0.5"/>
<text text-anchor="start" x="240" y="-18.5" font-family="Helvetica,sans-Serif" font-size="10.00">class(*), dimension</text>
<text text-anchor="middle" x="287.5" y="-7.5" font-family="Helvetica,sans-Serif" font-size="10.00">(:), pointer</text>
</a>
</g>
</g>
<!-- Node9&#45;&gt;Node1 -->
<g id="edge8" class="edge">
<title>Node9&#45;&gt;Node1</title>
<path fill="none" stroke="#9a32cd" stroke-dasharray="5,2" d="M344.37,-34.57C366.13,-44.04 390.09,-57.21 408,-74.5 441.34,-106.68 462.87,-159.38 470.69,-180.9"/>
<polygon fill="#9a32cd" stroke="#9a32cd" points="345.45,-31.23 334.88,-30.61 342.76,-37.69 345.45,-31.23"/>
<text text-anchor="middle" x="384.5" y="-77.5" font-family="Helvetica,sans-Serif" font-size="10.00"> data1d</text>
</g>
<!-- Node10&#45;&gt;Node1 -->
<g id="edge9" class="edge">
<title>Node10&#45;&gt;Node1</title>
<path fill="none" stroke="#9a32cd" stroke-dasharray="5,2" d="M329.58,-319.42C334.18,-317.6 338.73,-315.61 343,-313.5 374.04,-298.12 382.25,-293.67 408,-270.5 432.9,-248.1 456.46,-216.02 467.48,-200.15"/>
<polygon fill="#9a32cd" stroke="#9a32cd" points="328.31,-316.16 320.17,-322.95 330.77,-322.72 328.31,-316.16"/>
<text text-anchor="middle" x="384.5" y="-306.5" font-family="Helvetica,sans-Serif" font-size="10.00"> bc_info</text>
</g>
<!-- Node11 -->
<g id="node11" class="node">
<title>Node11</title>
<g id="a_node11"><a xlink:title=" ">
<polygon fill="white" stroke="#bfbfbf" points="0,-345 0,-364 108,-364 108,-345 0,-345"/>
<text text-anchor="middle" x="54" y="-352" font-family="Helvetica,sans-Serif" font-size="10.00">real(kind=r8_kind)</text>
</a>
</g>
</g>
<!-- Node11&#45;&gt;Node10 -->
<g id="edge11" class="edge">
<title>Node11&#45;&gt;Node10</title>
<path fill="none" stroke="#9a32cd" stroke-dasharray="5,2" d="M118.13,-348.5C157.44,-344.77 207.03,-340.05 242.19,-336.71"/>
<polygon fill="#9a32cd" stroke="#9a32cd" points="117.73,-345.02 108.11,-349.45 118.4,-351.99 117.73,-345.02"/>
<text text-anchor="middle" x="170" y="-360.5" font-family="Helvetica,sans-Serif" font-size="10.00"> globaldata2d_r8</text>
<text text-anchor="middle" x="170" y="-349.5" font-family="Helvetica,sans-Serif" font-size="10.00">globaldata3d_r8</text>
</g>
<!-- Node12 -->
<g id="node12" class="node">
<title>Node12</title>
<g id="a_node12"><a xlink:title=" ">
<polygon fill="white" stroke="#bfbfbf" points="0,-301 0,-320 108,-320 108,-301 0,-301"/>
<text text-anchor="middle" x="54" y="-308" font-family="Helvetica,sans-Serif" font-size="10.00">real(kind=r4_kind)</text>
</a>
</g>
</g>
<!-- Node12&#45;&gt;Node10 -->
<g id="edge12" class="edge">
<title>Node12&#45;&gt;Node10</title>
<path fill="none" stroke="#9a32cd" stroke-dasharray="5,2" d="M118.33,-308.26C147.58,-308.11 182.69,-309.16 214,-313.5 228.18,-315.46 243.56,-319.25 256.49,-322.92"/>
<polygon fill="#9a32cd" stroke="#9a32cd" points="118.21,-304.76 108.25,-308.36 118.28,-311.76 118.21,-304.76"/>
<text text-anchor="middle" x="170" y="-327.5" font-family="Helvetica,sans-Serif" font-size="10.00"> globaldata2d_r4</text>
<text text-anchor="middle" x="170" y="-316.5" font-family="Helvetica,sans-Serif" font-size="10.00">globaldata3d_r4</text>
</g>
<!-- Node13 -->
<g id="node13" class="node">
<title>Node13</title>
<g id="a_node13"><a xlink:title=" ">
<polygon fill="white" stroke="#bfbfbf" points="1.5,-263 1.5,-282 106.5,-282 106.5,-263 1.5,-263"/>
<text text-anchor="middle" x="54" y="-270" font-family="Helvetica,sans-Serif" font-size="10.00">character(len=32)</text>
</a>
</g>
</g>
<!-- Node13&#45;&gt;Node10 -->
<g id="edge13" class="edge">
<title>Node13&#45;&gt;Node10</title>
<path fill="none" stroke="#9a32cd" stroke-dasharray="5,2" d="M116.75,-270.03C147.59,-271.26 184.5,-276.63 214,-292.5 224.83,-298.32 221.85,-306.57 232,-313.5 237.55,-317.28 243.92,-320.39 250.31,-322.91"/>
<polygon fill="#9a32cd" stroke="#9a32cd" points="116.63,-266.53 106.55,-269.76 116.45,-273.52 116.63,-266.53"/>
<text text-anchor="middle" x="170" y="-295.5" font-family="Helvetica,sans-Serif" font-size="10.00"> chksum</text>
</g>
<!-- Node14 -->
<g id="node14" class="node">
<title>Node14</title>
<g id="a_node14"><a xlink:title=" ">
<polygon fill="white" stroke="#bfbfbf" points="28.5,-164 28.5,-183 79.5,-183 79.5,-164 28.5,-164"/>
<text text-anchor="middle" x="54" y="-171" font-family="Helvetica,sans-Serif" font-size="10.00">integer</text>
</a>
</g>
</g>
<!-- Node14&#45;&gt;Node10 -->
<g id="edge14" class="edge">
<title>Node14&#45;&gt;Node10</title>
<path fill="none" stroke="#9a32cd" stroke-dasharray="5,2" d="M89.82,-165.91C125.86,-160.29 181.35,-158.25 214,-189.5 254.23,-228 196.56,-270.54 232,-313.5 235.19,-317.36 239.21,-320.44 243.62,-322.9"/>
<polygon fill="#9a32cd" stroke="#9a32cd" points="89.02,-162.5 79.76,-167.65 90.21,-169.4 89.02,-162.5"/>
<text text-anchor="middle" x="170" y="-258.5" font-family="Helvetica,sans-Serif" font-size="10.00"> global_size</text>
<text text-anchor="middle" x="170" y="-247.5" font-family="Helvetica,sans-Serif" font-size="10.00">indices</text>
<text text-anchor="middle" x="170" y="-236.5" font-family="Helvetica,sans-Serif" font-size="10.00">ishift</text>
<text text-anchor="middle" x="170" y="-225.5" font-family="Helvetica,sans-Serif" font-size="10.00">jshift</text>
<text text-anchor="middle" x="170" y="-214.5" font-family="Helvetica,sans-Serif" font-size="10.00">pelist</text>
<text text-anchor="middle" x="170" y="-203.5" font-family="Helvetica,sans-Serif" font-size="10.00">x_halo</text>
<text text-anchor="middle" x="170" y="-192.5" font-family="Helvetica,sans-Serif" font-size="10.00">y_halo</text>
</g>
</g>
</svg>
        <g id="navigator" transform="translate(0 0)" fill="#404254">
                <rect fill="#f2f5e9" fill-opacity="0.5" stroke="#606060" stroke-width=".5" x="0" y="0" width="60" height="60"/>
                <use id="zoomplus" xlink:href="#zoomPlus" x="17" y="9" onmousedown="handleZoom(evt,'in')"/>
                <use id="zoomminus" xlink:href="#zoomMin" x="42" y="9" onmousedown="handleZoom(evt,'out')"/>
                <use id="reset" xlink:href="#resetDef" x="30" y="36" onmousedown="handleReset()"/>
                <g id="arrowUp" xlink:href="#dirArrow" transform="translate(30 24)" onmousedown="handlePan(0,-1)">
                  <use xlink:href="#rim" fill="#404040">
                        <set attributeName="fill" to="#808080" begin="arrowUp.mouseover" end="arrowUp.mouseout"/>
                  </use>
                  <path fill="none" stroke="white" stroke-width="1.5" d="M0,-3.0v7 M-2.5,-0.5L0,-3.0L2.5,-0.5"/>
                </g>
                <g id="arrowRight" xlink:href="#dirArrow" transform="rotate(90) translate(36 -43)" onmousedown="handlePan(1,0)">
                  <use xlink:href="#rim" fill="#404040">
                        <set attributeName="fill" to="#808080" begin="arrowRight.mouseover" end="arrowRight.mouseout"/>
                  </use>
                  <path fill="none" stroke="white" stroke-width="1.5" d="M0,-3.0v7 M-2.5,-0.5L0,-3.0L2.5,-0.5"/>
                </g>
                <g id="arrowDown" xlink:href="#dirArrow" transform="rotate(180) translate(-30 -48)" onmousedown="handlePan(0,1)">
                  <use xlink:href="#rim" fill="#404040">
                        <set attributeName="fill" to="#808080" begin="arrowDown.mouseover" end="arrowDown.mouseout"/>
                  </use>
                  <path fill="none" stroke="white" stroke-width="1.5" d="M0,-3.0v7 M-2.5,-0.5L0,-3.0L2.5,-0.5"/>
                </g>
                <g id="arrowLeft" xlink:href="#dirArrow" transform="rotate(270) translate(-36 17)" onmousedown="handlePan(-1,0)">
                  <use xlink:href="#rim" fill="#404040">
                        <set attributeName="fill" to="#808080" begin="arrowLeft.mouseover" end="arrowLeft.mouseout"/>
                  </use>
                  <path fill="none" stroke="white" stroke-width="1.5" d="M0,-3.0v7 M-2.5,-0.5L0,-3.0L2.5,-0.5"/>
                </g>
        </g>
        <svg viewBox="0 0 15 15" width="100%" height="30px" preserveAspectRatio="xMaxYMin meet">
         <g id="arrow_out" transform="scale(0.3 0.3)">
          <a xlink:href="structnetcdf__io__mod_1_1restartvariable__t__coll__graph_org.svg" target="_base">
           <rect id="button" ry="5" rx="5" y="6" x="6" height="38" width="38"
                fill="#f2f5e9" fill-opacity="0.5" stroke="#606060" stroke-width="1.0"/>
           <path id="arrow"
             d="M 11.500037,31.436501 C 11.940474,20.09759 22.043105,11.32322 32.158766,21.979434 L 37.068811,17.246167 C 37.068811,17.246167 37.088388,32 37.088388,32 L 22.160133,31.978069 C 22.160133,31.978069 26.997745,27.140456 26.997745,27.140456 C 18.528582,18.264221 13.291696,25.230495 11.500037,31.436501 z"
             style="fill:#404040;"/>
          </a>
         </g>
        </svg>
</svg>
