<?xml version="1.0" encoding="UTF-8" standalone="no"?>
<!DOCTYPE svg PUBLIC "-//W3C//DTD SVG 1.1//EN"
 "http://www.w3.org/Graphics/SVG/1.1/DTD/svg11.dtd">
<!-- Generated by graphviz version 2.43.0 (0)
 -->
<!-- Title: var_type Pages: 1 -->
<svg width="1211pt" height="1005pt"
 viewBox="0.00 0.00 1211.00 1005.04" xmlns="http://www.w3.org/2000/svg" xmlns:xlink="http://www.w3.org/1999/xlink">
<g id="graph0" class="graph" transform="scale(1 1) rotate(0) translate(4 1001.04)">
<title>var_type</title>
<polygon fill="white" stroke="transparent" points="-4,4 -4,-1001.04 1207,-1001.04 1207,4 -4,4"/>
<!-- Node1 -->
<g id="node1" class="node">
<title>Node1</title>
<g id="a_node1"><a xlink:title=" ">
<polygon fill="#bfbfbf" stroke="black" points="1144,-326.54 1144,-345.54 1203,-345.54 1203,-326.54 1144,-326.54"/>
<text text-anchor="middle" x="1173.5" y="-333.54" font-family="Helvetica,sans-Serif" font-size="10.00">var_type</text>
</a>
</g>
</g>
<!-- Node2 -->
<g id="node2" class="node">
<title>Node2</title>
<g id="a_node2"><a xlink:title=" ">
<polygon fill="white" stroke="#bfbfbf" points="1,-538.54 1,-557.54 50,-557.54 50,-538.54 1,-538.54"/>
<text text-anchor="middle" x="25.5" y="-545.54" font-family="Helvetica,sans-Serif" font-size="10.00">logical</text>
</a>
</g>
</g>
<!-- Node2&#45;&gt;Node1 -->
<g id="edge1" class="edge">
<title>Node2&#45;&gt;Node1</title>
<path fill="none" stroke="#9a32cd" stroke-dasharray="5,2" d="M26.34,-567.94C26.84,-646.52 39.77,-931.04 201,-931.04 201,-931.04 201,-931.04 930.5,-931.04 1017.61,-931.04 1064.15,-978.38 1126,-917.04 1168.3,-875.09 1172.13,-418.65 1172.47,-345.82"/>
<polygon fill="#9a32cd" stroke="#9a32cd" points="29.84,-567.9 26.34,-557.9 22.84,-567.9 29.84,-567.9"/>
<text text-anchor="middle" x="516.5" y="-989.04" font-family="Helvetica,sans-Serif" font-size="10.00"> mandatory</text>
<text text-anchor="middle" x="516.5" y="-978.04" font-family="Helvetica,sans-Serif" font-size="10.00">is_dimvar</text>
<text text-anchor="middle" x="516.5" y="-967.04" font-family="Helvetica,sans-Serif" font-size="10.00">domain_present</text>
<text text-anchor="middle" x="516.5" y="-956.04" font-family="Helvetica,sans-Serif" font-size="10.00">initialized</text>
<text text-anchor="middle" x="516.5" y="-945.04" font-family="Helvetica,sans-Serif" font-size="10.00">read_only</text>
<text text-anchor="middle" x="516.5" y="-934.04" font-family="Helvetica,sans-Serif" font-size="10.00">owns_data</text>
</g>
<!-- Node13 -->
<g id="node13" class="node">
<title>Node13</title>
<g id="a_node13"><a xlink:href="structmpp__domains__mod_1_1domain1d.html" target="_top" xlink:title="One dimensional domain used to manage shared data access between pes.">
<polygon fill="white" stroke="black" points="371,-456.54 371,-475.54 436,-475.54 436,-456.54 371,-456.54"/>
<text text-anchor="middle" x="403.5" y="-463.54" font-family="Helvetica,sans-Serif" font-size="10.00">domain1d</text>
</a>
</g>
</g>
<!-- Node2&#45;&gt;Node13 -->
<g id="edge13" class="edge">
<title>Node2&#45;&gt;Node13</title>
<path fill="none" stroke="#9a32cd" stroke-dasharray="5,2" d="M60.2,-545.85C78.04,-543.97 100.11,-540.49 119,-534.04 127.66,-531.09 128.29,-526.86 137,-524.04 219.19,-497.46 247.08,-525.26 330,-501.04 350.53,-495.05 372.41,-483.72 386.7,-475.57"/>
<polygon fill="#9a32cd" stroke="#9a32cd" points="59.87,-542.37 50.24,-546.78 60.52,-549.34 59.87,-542.37"/>
<text text-anchor="middle" x="202" y="-527.04" font-family="Helvetica,sans-Serif" font-size="10.00"> cyclic</text>
</g>
<!-- Node14 -->
<g id="node14" class="node">
<title>Node14</title>
<g id="a_node14"><a xlink:href="structmpp__domains__mod_1_1domain__axis__spec.html" target="_top" xlink:title="Used to specify index limits along an axis of a domain.">
<polygon fill="white" stroke="black" points="148.5,-459.54 148.5,-478.54 255.5,-478.54 255.5,-459.54 148.5,-459.54"/>
<text text-anchor="middle" x="202" y="-466.54" font-family="Helvetica,sans-Serif" font-size="10.00">domain_axis_spec</text>
</a>
</g>
</g>
<!-- Node2&#45;&gt;Node14 -->
<g id="edge16" class="edge">
<title>Node2&#45;&gt;Node14</title>
<path fill="none" stroke="#9a32cd" stroke-dasharray="5,2" d="M50.78,-533.11C56.67,-529.67 63,-526.12 69,-523.04 104.15,-505.03 146.74,-488.5 173.85,-478.6"/>
<polygon fill="#9a32cd" stroke="#9a32cd" points="48.8,-530.21 42,-538.34 52.38,-536.23 48.8,-530.21"/>
<text text-anchor="middle" x="94" y="-526.04" font-family="Helvetica,sans-Serif" font-size="10.00"> is_global</text>
</g>
<!-- Node3 -->
<g id="node3" class="node">
<title>Node3</title>
<g id="a_node3"><a xlink:title=" ">
<polygon fill="white" stroke="#bfbfbf" points="862,-883.54 862,-902.54 997,-902.54 997,-883.54 862,-883.54"/>
<text text-anchor="middle" x="929.5" y="-890.54" font-family="Helvetica,sans-Serif" font-size="10.00">type(domainug), pointer</text>
</a>
</g>
</g>
<!-- Node3&#45;&gt;Node1 -->
<g id="edge2" class="edge">
<title>Node3&#45;&gt;Node1</title>
<path fill="none" stroke="#9a32cd" stroke-dasharray="5,2" d="M990.56,-903.64C1034.38,-907.63 1091.85,-904.42 1126,-869.04 1163.82,-829.87 1171.37,-415.23 1172.37,-345.86"/>
<polygon fill="#9a32cd" stroke="#9a32cd" points="990.9,-900.16 980.59,-902.59 990.17,-907.12 990.9,-900.16"/>
<text text-anchor="middle" x="1070.5" y="-907.04" font-family="Helvetica,sans-Serif" font-size="10.00"> domain_ug</text>
</g>
<!-- Node4 -->
<g id="node4" class="node">
<title>Node4</title>
<g id="a_node4"><a xlink:href="structmpp__io__mod_1_1fieldtype.html" target="_top" xlink:title=" ">
<polygon fill="white" stroke="black" points="900,-606.54 900,-625.54 959,-625.54 959,-606.54 900,-606.54"/>
<text text-anchor="middle" x="929.5" y="-613.54" font-family="Helvetica,sans-Serif" font-size="10.00">fieldtype</text>
</a>
</g>
</g>
<!-- Node4&#45;&gt;Node1 -->
<g id="edge3" class="edge">
<title>Node4&#45;&gt;Node1</title>
<path fill="none" stroke="#9a32cd" stroke-dasharray="5,2" d="M945.64,-598.53C991.67,-545.27 1129,-386.37 1164.2,-345.64"/>
<polygon fill="#9a32cd" stroke="#9a32cd" points="942.72,-596.55 938.83,-606.41 948.02,-601.13 942.72,-596.55"/>
<text text-anchor="middle" x="1070.5" y="-520.04" font-family="Helvetica,sans-Serif" font-size="10.00"> field</text>
</g>
<!-- Node5 -->
<g id="node5" class="node">
<title>Node5</title>
<g id="a_node5"><a xlink:title=" ">
<polygon fill="white" stroke="#bfbfbf" points="574,-583.54 574,-602.54 738,-602.54 738,-583.54 574,-583.54"/>
<text text-anchor="middle" x="656" y="-590.54" font-family="Helvetica,sans-Serif" font-size="10.00">integer(i8_kind), dimension(3)</text>
</a>
</g>
</g>
<!-- Node5&#45;&gt;Node4 -->
<g id="edge4" class="edge">
<title>Node5&#45;&gt;Node4</title>
<path fill="none" stroke="#9a32cd" stroke-dasharray="5,2" d="M748.17,-600.77C801.01,-605.24 863.99,-610.58 899.8,-613.61"/>
<polygon fill="#9a32cd" stroke="#9a32cd" points="748.35,-597.27 738.09,-599.91 747.76,-604.25 748.35,-597.27"/>
<text text-anchor="middle" x="800" y="-611.04" font-family="Helvetica,sans-Serif" font-size="10.00"> checksum</text>
</g>
<!-- Node6 -->
<g id="node6" class="node">
<title>Node6</title>
<g id="a_node6"><a xlink:title=" ">
<polygon fill="white" stroke="#bfbfbf" points="348,-650.54 348,-669.54 459,-669.54 459,-650.54 348,-650.54"/>
<text text-anchor="middle" x="403.5" y="-657.54" font-family="Helvetica,sans-Serif" font-size="10.00">character(len=256)</text>
</a>
</g>
</g>
<!-- Node6&#45;&gt;Node4 -->
<g id="edge5" class="edge">
<title>Node6&#45;&gt;Node4</title>
<path fill="none" stroke="#9a32cd" stroke-dasharray="5,2" d="M469.36,-660.31C496.23,-659.9 527.67,-658.77 556,-656.04 564.07,-655.27 565.96,-654.13 574,-653.04 694.8,-636.69 839.61,-623.59 899.94,-618.43"/>
<polygon fill="#9a32cd" stroke="#9a32cd" points="469.27,-656.81 459.31,-660.43 469.35,-663.81 469.27,-656.81"/>
<text text-anchor="middle" x="656" y="-667.04" font-family="Helvetica,sans-Serif" font-size="10.00"> longname</text>
<text text-anchor="middle" x="656" y="-656.04" font-family="Helvetica,sans-Serif" font-size="10.00">standard_name</text>
</g>
<!-- Node12 -->
<g id="node12" class="node">
<title>Node12</title>
<g id="a_node12"><a xlink:href="structmpp__io__mod_1_1axistype.html" target="_top" xlink:title=" ">
<polygon fill="white" stroke="black" points="626.5,-505.54 626.5,-524.54 685.5,-524.54 685.5,-505.54 626.5,-505.54"/>
<text text-anchor="middle" x="656" y="-512.54" font-family="Helvetica,sans-Serif" font-size="10.00">axistype</text>
</a>
</g>
</g>
<!-- Node6&#45;&gt;Node12 -->
<g id="edge19" class="edge">
<title>Node6&#45;&gt;Node12</title>
<path fill="none" stroke="#9a32cd" stroke-dasharray="5,2" d="M445.27,-645.95C450.24,-643.16 454.98,-639.88 459,-636.04 471.95,-623.71 463.26,-611.5 477,-600.04 505.08,-576.62 522.63,-592 556,-577.04 588.94,-562.28 623.94,-538.07 642.2,-524.69"/>
<polygon fill="#9a32cd" stroke="#9a32cd" points="443.57,-642.88 436.16,-650.46 446.68,-649.16 443.57,-642.88"/>
<text text-anchor="middle" x="516.5" y="-614.04" font-family="Helvetica,sans-Serif" font-size="10.00"> longname</text>
<text text-anchor="middle" x="516.5" y="-603.04" font-family="Helvetica,sans-Serif" font-size="10.00">compressed</text>
</g>
<!-- Node7 -->
<g id="node7" class="node">
<title>Node7</title>
<g id="a_node7"><a xlink:href="structmpp__io__mod_1_1atttype.html" target="_top" xlink:title=" ">
<polygon fill="white" stroke="black" points="377.5,-688.54 377.5,-707.54 429.5,-707.54 429.5,-688.54 377.5,-688.54"/>
<text text-anchor="middle" x="403.5" y="-695.54" font-family="Helvetica,sans-Serif" font-size="10.00">atttype</text>
</a>
</g>
</g>
<!-- Node7&#45;&gt;Node4 -->
<g id="edge6" class="edge">
<title>Node7&#45;&gt;Node4</title>
<path fill="none" stroke="#9a32cd" stroke-dasharray="5,2" d="M440.15,-698.28C501.54,-698.08 630.9,-695.04 738,-675.04 799.09,-663.64 868.17,-639.22 904,-625.64"/>
<polygon fill="#9a32cd" stroke="#9a32cd" points="439.85,-694.78 429.85,-698.28 439.86,-701.78 439.85,-694.78"/>
<text text-anchor="middle" x="656" y="-696.04" font-family="Helvetica,sans-Serif" font-size="10.00"> att</text>
</g>
<!-- Node7&#45;&gt;Node12 -->
<g id="edge20" class="edge">
<title>Node7&#45;&gt;Node12</title>
<path fill="none" stroke="#9a32cd" stroke-dasharray="5,2" d="M439.15,-687.11C445.83,-684.68 452.71,-681.96 459,-679.04 504.38,-658.05 523.82,-660.32 556,-622.04 570.66,-604.61 560.21,-592.18 574,-574.04 590.74,-552.02 617.93,-534.6 636.14,-524.55"/>
<polygon fill="#9a32cd" stroke="#9a32cd" points="437.89,-683.84 429.59,-690.44 440.19,-690.45 437.89,-683.84"/>
<text text-anchor="middle" x="516.5" y="-673.04" font-family="Helvetica,sans-Serif" font-size="10.00"> att</text>
</g>
<!-- Node8 -->
<g id="node8" class="node">
<title>Node8</title>
<g id="a_node8"><a xlink:title=" ">
<polygon fill="white" stroke="#bfbfbf" points="146.5,-807.54 146.5,-826.54 257.5,-826.54 257.5,-807.54 146.5,-807.54"/>
<text text-anchor="middle" x="202" y="-814.54" font-family="Helvetica,sans-Serif" font-size="10.00">character(len=128)</text>
</a>
</g>
</g>
<!-- Node8&#45;&gt;Node1 -->
<g id="edge32" class="edge">
<title>Node8&#45;&gt;Node1</title>
<path fill="none" stroke="#9a32cd" stroke-dasharray="5,2" d="M252.09,-828.71C262.87,-830.85 274.27,-832.8 285,-834.04 485.86,-857.29 548.37,-862.21 738,-792.04 932.68,-720.01 1014.86,-707.37 1126,-532.04 1165.69,-469.42 1171.53,-376.1 1172.37,-345.87"/>
<polygon fill="#9a32cd" stroke="#9a32cd" points="252.48,-825.21 241.98,-826.61 251.06,-832.07 252.48,-825.21"/>
<text text-anchor="middle" x="656" y="-865.04" font-family="Helvetica,sans-Serif" font-size="10.00"> longname</text>
<text text-anchor="middle" x="656" y="-854.04" font-family="Helvetica,sans-Serif" font-size="10.00">units</text>
<text text-anchor="middle" x="656" y="-843.04" font-family="Helvetica,sans-Serif" font-size="10.00">name</text>
</g>
<!-- Node8&#45;&gt;Node4 -->
<g id="edge26" class="edge">
<title>Node8&#45;&gt;Node4</title>
<path fill="none" stroke="#9a32cd" stroke-dasharray="5,2" d="M267.87,-819.9C339.17,-821.74 456.79,-820.95 556,-802.04 689.1,-776.68 729.5,-774.5 844,-702.04 877.78,-680.67 908.19,-643.32 921.46,-625.73"/>
<polygon fill="#9a32cd" stroke="#9a32cd" points="267.78,-816.4 257.69,-819.61 267.58,-823.39 267.78,-816.4"/>
<text text-anchor="middle" x="516.5" y="-827.04" font-family="Helvetica,sans-Serif" font-size="10.00"> units</text>
<text text-anchor="middle" x="516.5" y="-816.04" font-family="Helvetica,sans-Serif" font-size="10.00">name</text>
</g>
<!-- Node8&#45;&gt;Node7 -->
<g id="edge7" class="edge">
<title>Node8&#45;&gt;Node7</title>
<path fill="none" stroke="#9a32cd" stroke-dasharray="5,2" d="M237.7,-803.64C247.34,-799.59 257.71,-794.91 267,-790.04 315.36,-764.71 367.4,-725.63 390.4,-707.67"/>
<polygon fill="#9a32cd" stroke="#9a32cd" points="236.29,-800.44 228.37,-807.47 238.95,-806.91 236.29,-800.44"/>
<text text-anchor="middle" x="307.5" y="-782.04" font-family="Helvetica,sans-Serif" font-size="10.00"> name</text>
</g>
<!-- Node8&#45;&gt;Node12 -->
<g id="edge22" class="edge">
<title>Node8&#45;&gt;Node12</title>
<path fill="none" stroke="#9a32cd" stroke-dasharray="5,2" d="M250.52,-803.05C256.71,-799.6 262.46,-795.33 267,-790.04 288.22,-765.35 272.86,-749.25 285,-719.04 306.16,-666.41 303.69,-643.46 348,-608.04 370.35,-590.18 554.64,-541.07 626.48,-522.39"/>
<polygon fill="#9a32cd" stroke="#9a32cd" points="248.72,-800.04 241.24,-807.54 251.77,-806.34 248.72,-800.04"/>
<text text-anchor="middle" x="403.5" y="-633.04" font-family="Helvetica,sans-Serif" font-size="10.00"> units</text>
<text text-anchor="middle" x="403.5" y="-622.04" font-family="Helvetica,sans-Serif" font-size="10.00">name</text>
<text text-anchor="middle" x="403.5" y="-611.04" font-family="Helvetica,sans-Serif" font-size="10.00">name_bounds</text>
</g>
<!-- Node9 -->
<g id="node9" class="node">
<title>Node9</title>
<g id="a_node9"><a xlink:title=" ">
<polygon fill="white" stroke="#bfbfbf" points="184.5,-544.54 184.5,-563.54 219.5,-563.54 219.5,-544.54 184.5,-544.54"/>
<text text-anchor="middle" x="202" y="-551.54" font-family="Helvetica,sans-Serif" font-size="10.00">real</text>
</a>
</g>
</g>
<!-- Node9&#45;&gt;Node1 -->
<g id="edge34" class="edge">
<title>Node9&#45;&gt;Node1</title>
<path fill="none" stroke="#9a32cd" stroke-dasharray="5,2" d="M229.59,-551.18C241.58,-549.07 255.59,-545.4 267,-539.04 301.6,-519.79 313.6,-512.09 330,-476.04 342.08,-449.48 326.67,-233.96 348,-214.04 407.76,-158.25 1004.59,-296.05 1143.65,-329.11"/>
<polygon fill="#9a32cd" stroke="#9a32cd" points="229.05,-547.73 219.68,-552.67 230.09,-554.65 229.05,-547.73"/>
<text text-anchor="middle" x="656" y="-256.04" font-family="Helvetica,sans-Serif" font-size="10.00"> default_data</text>
<text text-anchor="middle" x="656" y="-245.04" font-family="Helvetica,sans-Serif" font-size="10.00">buffer</text>
</g>
<!-- Node9&#45;&gt;Node4 -->
<g id="edge28" class="edge">
<title>Node9&#45;&gt;Node4</title>
<path fill="none" stroke="#9a32cd" stroke-dasharray="5,2" d="M229.78,-555.37C242.14,-557.15 256.39,-560.98 267,-569.04 296.84,-591.74 315.75,-697.93 348,-717.04 379.52,-735.72 554.37,-741.43 738,-708.04 786.95,-699.15 799.34,-693.97 844,-672.04 871.33,-658.63 900.31,-637.77 916.23,-625.66"/>
<polygon fill="#9a32cd" stroke="#9a32cd" points="229.86,-551.86 219.54,-554.28 229.12,-558.82 229.86,-551.86"/>
<text text-anchor="middle" x="516.5" y="-790.04" font-family="Helvetica,sans-Serif" font-size="10.00"> fill</text>
<text text-anchor="middle" x="516.5" y="-779.04" font-family="Helvetica,sans-Serif" font-size="10.00">scale</text>
<text text-anchor="middle" x="516.5" y="-768.04" font-family="Helvetica,sans-Serif" font-size="10.00">missing</text>
<text text-anchor="middle" x="516.5" y="-757.04" font-family="Helvetica,sans-Serif" font-size="10.00">add</text>
<text text-anchor="middle" x="516.5" y="-746.04" font-family="Helvetica,sans-Serif" font-size="10.00">min</text>
<text text-anchor="middle" x="516.5" y="-735.04" font-family="Helvetica,sans-Serif" font-size="10.00">max</text>
</g>
<!-- Node9&#45;&gt;Node7 -->
<g id="edge8" class="edge">
<title>Node9&#45;&gt;Node7</title>
<path fill="none" stroke="#9a32cd" stroke-dasharray="5,2" d="M229.85,-550.27C258.67,-547.85 303.84,-549.08 330,-575.04 363.29,-608.09 317.66,-643.27 348,-679.04 355.32,-687.68 366.8,-692.39 377.34,-694.97"/>
<polygon fill="#9a32cd" stroke="#9a32cd" points="229.26,-546.81 219.68,-551.33 229.98,-553.77 229.26,-546.81"/>
<text text-anchor="middle" x="307.5" y="-578.04" font-family="Helvetica,sans-Serif" font-size="10.00"> fatt</text>
</g>
<!-- Node9&#45;&gt;Node12 -->
<g id="edge23" class="edge">
<title>Node9&#45;&gt;Node12</title>
<path fill="none" stroke="#9a32cd" stroke-dasharray="5,2" d="M229.8,-551.73C309.41,-544.86 544.08,-524.61 626.21,-517.53"/>
<polygon fill="#9a32cd" stroke="#9a32cd" points="229.29,-548.26 219.62,-552.61 229.89,-555.24 229.29,-548.26"/>
<text text-anchor="middle" x="403.5" y="-554.04" font-family="Helvetica,sans-Serif" font-size="10.00"> data_bounds</text>
<text text-anchor="middle" x="403.5" y="-543.04" font-family="Helvetica,sans-Serif" font-size="10.00">data</text>
</g>
<!-- Node10 -->
<g id="node10" class="node">
<title>Node10</title>
<g id="a_node10"><a xlink:title=" ">
<polygon fill="white" stroke="#bfbfbf" points="0,-336.54 0,-355.54 51,-355.54 51,-336.54 0,-336.54"/>
<text text-anchor="middle" x="25.5" y="-343.54" font-family="Helvetica,sans-Serif" font-size="10.00">integer</text>
</a>
</g>
</g>
<!-- Node10&#45;&gt;Node1 -->
<g id="edge33" class="edge">
<title>Node10&#45;&gt;Node1</title>
<path fill="none" stroke="#9a32cd" stroke-dasharray="5,2" d="M28.97,-326.18C38.2,-261.64 76.8,-62.04 201,-62.04 201,-62.04 201,-62.04 930.5,-62.04 1074.57,-62.04 1153.42,-277.48 1169.43,-326.29"/>
<polygon fill="#9a32cd" stroke="#9a32cd" points="25.48,-325.89 27.61,-336.27 32.41,-326.82 25.48,-325.89"/>
<text text-anchor="middle" x="516.5" y="-175.04" font-family="Helvetica,sans-Serif" font-size="10.00"> y_halo</text>
<text text-anchor="middle" x="516.5" y="-164.04" font-family="Helvetica,sans-Serif" font-size="10.00">pelist</text>
<text text-anchor="middle" x="516.5" y="-153.04" font-family="Helvetica,sans-Serif" font-size="10.00">x_halo</text>
<text text-anchor="middle" x="516.5" y="-142.04" font-family="Helvetica,sans-Serif" font-size="10.00">jshift</text>
<text text-anchor="middle" x="516.5" y="-131.04" font-family="Helvetica,sans-Serif" font-size="10.00">position</text>
<text text-anchor="middle" x="516.5" y="-120.04" font-family="Helvetica,sans-Serif" font-size="10.00">ishift</text>
<text text-anchor="middle" x="516.5" y="-109.04" font-family="Helvetica,sans-Serif" font-size="10.00">js</text>
<text text-anchor="middle" x="516.5" y="-98.04" font-family="Helvetica,sans-Serif" font-size="10.00">id_axes</text>
<text text-anchor="middle" x="516.5" y="-87.04" font-family="Helvetica,sans-Serif" font-size="10.00">domain_idx</text>
<text text-anchor="middle" x="516.5" y="-76.04" font-family="Helvetica,sans-Serif" font-size="10.00">is</text>
<text text-anchor="middle" x="516.5" y="-65.04" font-family="Helvetica,sans-Serif" font-size="10.00">...</text>
</g>
<!-- Node10&#45;&gt;Node4 -->
<g id="edge27" class="edge">
<title>Node10&#45;&gt;Node4</title>
<path fill="none" stroke="#9a32cd" stroke-dasharray="5,2" d="M40.66,-328.74C48.27,-320.47 58.28,-311.08 69,-305.04 96.24,-289.7 106.54,-294.1 137,-287.04 277.6,-254.47 322.66,-197.71 459,-245.04 682.76,-322.74 880.36,-556.32 920.91,-606.49"/>
<polygon fill="#9a32cd" stroke="#9a32cd" points="37.86,-326.63 33.92,-336.47 43.13,-331.24 37.86,-326.63"/>
<text text-anchor="middle" x="403.5" y="-325.04" font-family="Helvetica,sans-Serif" font-size="10.00"> size</text>
<text text-anchor="middle" x="403.5" y="-314.04" font-family="Helvetica,sans-Serif" font-size="10.00">natt</text>
<text text-anchor="middle" x="403.5" y="-303.04" font-family="Helvetica,sans-Serif" font-size="10.00">time_axis_index</text>
<text text-anchor="middle" x="403.5" y="-292.04" font-family="Helvetica,sans-Serif" font-size="10.00">position</text>
<text text-anchor="middle" x="403.5" y="-281.04" font-family="Helvetica,sans-Serif" font-size="10.00">pack</text>
<text text-anchor="middle" x="403.5" y="-270.04" font-family="Helvetica,sans-Serif" font-size="10.00">ndim</text>
<text text-anchor="middle" x="403.5" y="-259.04" font-family="Helvetica,sans-Serif" font-size="10.00">type</text>
<text text-anchor="middle" x="403.5" y="-248.04" font-family="Helvetica,sans-Serif" font-size="10.00">id</text>
</g>
<!-- Node10&#45;&gt;Node7 -->
<g id="edge9" class="edge">
<title>Node10&#45;&gt;Node7</title>
<path fill="none" stroke="#9a32cd" stroke-dasharray="5,2" d="M28.52,-365.83C32.23,-393.15 42.36,-442.72 69,-475.04 85.2,-494.7 103.46,-482.86 119,-503.04 138.59,-528.5 116.84,-548.04 137,-573.04 200.15,-651.38 323.88,-683.24 377.14,-693.72"/>
<polygon fill="#9a32cd" stroke="#9a32cd" points="31.96,-365.11 27.3,-355.59 25.01,-365.94 31.96,-365.11"/>
<text text-anchor="middle" x="202" y="-674.04" font-family="Helvetica,sans-Serif" font-size="10.00"> type</text>
<text text-anchor="middle" x="202" y="-663.04" font-family="Helvetica,sans-Serif" font-size="10.00">len</text>
</g>
<!-- Node10&#45;&gt;Node12 -->
<g id="edge24" class="edge">
<title>Node10&#45;&gt;Node12</title>
<path fill="none" stroke="#9a32cd" stroke-dasharray="5,2" d="M55.85,-332.26C114.07,-307.17 245.77,-261.84 330,-321.04 349.32,-334.62 331.02,-354.63 348,-371.04 365.46,-387.92 534.53,-426.7 556,-438.04 592,-457.07 628.23,-489.39 645.15,-505.43"/>
<polygon fill="#9a32cd" stroke="#9a32cd" points="54.25,-329.15 46.51,-336.39 57.07,-335.55 54.25,-329.15"/>
<text text-anchor="middle" x="307.5" y="-401.04" font-family="Helvetica,sans-Serif" font-size="10.00"> natt</text>
<text text-anchor="middle" x="307.5" y="-390.04" font-family="Helvetica,sans-Serif" font-size="10.00">sense</text>
<text text-anchor="middle" x="307.5" y="-379.04" font-family="Helvetica,sans-Serif" font-size="10.00">did</text>
<text text-anchor="middle" x="307.5" y="-368.04" font-family="Helvetica,sans-Serif" font-size="10.00">shift</text>
<text text-anchor="middle" x="307.5" y="-357.04" font-family="Helvetica,sans-Serif" font-size="10.00">type</text>
<text text-anchor="middle" x="307.5" y="-346.04" font-family="Helvetica,sans-Serif" font-size="10.00">id</text>
<text text-anchor="middle" x="307.5" y="-335.04" font-family="Helvetica,sans-Serif" font-size="10.00">idata</text>
<text text-anchor="middle" x="307.5" y="-324.04" font-family="Helvetica,sans-Serif" font-size="10.00">len</text>
</g>
<!-- Node10&#45;&gt;Node13 -->
<g id="edge18" class="edge">
<title>Node10&#45;&gt;Node13</title>
<path fill="none" stroke="#9a32cd" stroke-dasharray="5,2" d="M61.34,-352.19C108.79,-361.13 195.95,-379.58 267,-406.04 304.81,-420.13 310.87,-431.26 348,-447.04 355.93,-450.42 364.68,-453.67 372.81,-456.5"/>
<polygon fill="#9a32cd" stroke="#9a32cd" points="61.75,-348.71 51.28,-350.32 60.48,-355.59 61.75,-348.71"/>
<text text-anchor="middle" x="202" y="-442.04" font-family="Helvetica,sans-Serif" font-size="10.00"> pe</text>
<text text-anchor="middle" x="202" y="-431.04" font-family="Helvetica,sans-Serif" font-size="10.00">goffset</text>
<text text-anchor="middle" x="202" y="-420.04" font-family="Helvetica,sans-Serif" font-size="10.00">pos</text>
<text text-anchor="middle" x="202" y="-409.04" font-family="Helvetica,sans-Serif" font-size="10.00">loffset</text>
</g>
<!-- Node10&#45;&gt;Node14 -->
<g id="edge17" class="edge">
<title>Node10&#45;&gt;Node14</title>
<path fill="none" stroke="#9a32cd" stroke-dasharray="5,2" d="M35.66,-364.52C43.11,-378.02 54.71,-395.99 69,-408.04 87.7,-423.81 98.1,-418.34 119,-431.04 127.66,-436.31 128.15,-440.1 137,-445.04 147.25,-450.78 159.15,-455.67 169.88,-459.51"/>
<polygon fill="#9a32cd" stroke="#9a32cd" points="38.74,-362.86 30.99,-355.63 32.54,-366.11 38.74,-362.86"/>
<text text-anchor="middle" x="94" y="-467.04" font-family="Helvetica,sans-Serif" font-size="10.00"> max_size</text>
<text text-anchor="middle" x="94" y="-456.04" font-family="Helvetica,sans-Serif" font-size="10.00">size</text>
<text text-anchor="middle" x="94" y="-445.04" font-family="Helvetica,sans-Serif" font-size="10.00">begin</text>
<text text-anchor="middle" x="94" y="-434.04" font-family="Helvetica,sans-Serif" font-size="10.00">end</text>
</g>
<!-- Node11 -->
<g id="node11" class="node">
<title>Node11</title>
<g id="a_node11"><a xlink:title=" ">
<polygon fill="white" stroke="#bfbfbf" points="137,-750.04 137,-780.04 267,-780.04 267,-750.04 137,-750.04"/>
<text text-anchor="start" x="145" y="-768.04" font-family="Helvetica,sans-Serif" font-size="10.00">character(len=max_att</text>
<text text-anchor="middle" x="202" y="-757.04" font-family="Helvetica,sans-Serif" font-size="10.00">_length)</text>
</a>
</g>
</g>
<!-- Node11&#45;&gt;Node7 -->
<g id="edge10" class="edge">
<title>Node11&#45;&gt;Node7</title>
<path fill="none" stroke="#9a32cd" stroke-dasharray="5,2" d="M257.44,-746.76C296.52,-733.63 347.4,-716.55 377.35,-706.49"/>
<polygon fill="#9a32cd" stroke="#9a32cd" points="256.14,-743.51 247.77,-750.01 258.37,-750.14 256.14,-743.51"/>
<text text-anchor="middle" x="307.5" y="-738.04" font-family="Helvetica,sans-Serif" font-size="10.00"> catt</text>
</g>
<!-- Node12&#45;&gt;Node1 -->
<g id="edge30" class="edge">
<title>Node12&#45;&gt;Node1</title>
<path fill="none" stroke="#9a32cd" stroke-dasharray="5,2" d="M694.26,-502.11C792.79,-467.89 1058.57,-375.61 1144.96,-345.61"/>
<polygon fill="#9a32cd" stroke="#9a32cd" points="693.01,-498.83 684.72,-505.42 695.31,-505.45 693.01,-498.83"/>
<text text-anchor="middle" x="929.5" y="-446.04" font-family="Helvetica,sans-Serif" font-size="10.00"> axis</text>
</g>
<!-- Node12&#45;&gt;Node4 -->
<g id="edge11" class="edge">
<title>Node12&#45;&gt;Node4</title>
<path fill="none" stroke="#9a32cd" stroke-dasharray="5,2" d="M691.94,-528.04C747.3,-548.64 853.91,-588.3 902.83,-606.49"/>
<polygon fill="#9a32cd" stroke="#9a32cd" points="693.13,-524.75 682.54,-524.55 690.69,-531.31 693.13,-524.75"/>
<text text-anchor="middle" x="800" y="-586.04" font-family="Helvetica,sans-Serif" font-size="10.00"> axes</text>
</g>
<!-- Node13&#45;&gt;Node12 -->
<g id="edge12" class="edge">
<title>Node13&#45;&gt;Node12</title>
<path fill="none" stroke="#9a32cd" stroke-dasharray="5,2" d="M446.25,-474.21C497.21,-484.18 582.04,-500.77 626.24,-509.42"/>
<polygon fill="#9a32cd" stroke="#9a32cd" points="446.71,-470.73 436.23,-472.25 445.37,-477.6 446.71,-470.73"/>
<text text-anchor="middle" x="516.5" y="-497.04" font-family="Helvetica,sans-Serif" font-size="10.00"> domain</text>
</g>
<!-- Node13&#45;&gt;Node13 -->
<g id="edge14" class="edge">
<title>Node13&#45;&gt;Node13</title>
<path fill="none" stroke="#9a32cd" stroke-dasharray="5,2" d="M385.72,-485.44C386.91,-490.36 392.84,-494.04 403.5,-494.04 420.56,-494.04 425.49,-484.61 418.3,-475.8"/>
<polygon fill="#9a32cd" stroke="#9a32cd" points="389.09,-486.39 388.7,-475.8 382.41,-484.32 389.09,-486.39"/>
<text text-anchor="middle" x="403.5" y="-497.04" font-family="Helvetica,sans-Serif" font-size="10.00"> list</text>
</g>
<!-- Node14&#45;&gt;Node13 -->
<g id="edge15" class="edge">
<title>Node14&#45;&gt;Node13</title>
<path fill="none" stroke="#9a32cd" stroke-dasharray="5,2" d="M265.88,-458.89C272.33,-458.14 278.78,-457.5 285,-457.04 304.95,-455.59 310.04,-455.81 330,-457.04 343.42,-457.87 358.16,-459.56 370.82,-461.25"/>
<polygon fill="#9a32cd" stroke="#9a32cd" points="265.29,-455.44 255.81,-460.16 266.17,-462.39 265.29,-455.44"/>
<text text-anchor="middle" x="307.5" y="-493.04" font-family="Helvetica,sans-Serif" font-size="10.00"> memory</text>
<text text-anchor="middle" x="307.5" y="-482.04" font-family="Helvetica,sans-Serif" font-size="10.00">global</text>
<text text-anchor="middle" x="307.5" y="-471.04" font-family="Helvetica,sans-Serif" font-size="10.00">compute</text>
<text text-anchor="middle" x="307.5" y="-460.04" font-family="Helvetica,sans-Serif" font-size="10.00">data</text>
</g>
<!-- Node15 -->
<g id="node15" class="node">
<title>Node15</title>
<g id="a_node15"><a xlink:title=" ">
<polygon fill="white" stroke="#bfbfbf" points="354,-342.54 354,-361.54 453,-361.54 453,-342.54 354,-342.54"/>
<text text-anchor="middle" x="403.5" y="-349.54" font-family="Helvetica,sans-Serif" font-size="10.00">character(len=8)</text>
</a>
</g>
</g>
<!-- Node15&#45;&gt;Node1 -->
<g id="edge31" class="edge">
<title>Node15&#45;&gt;Node1</title>
<path fill="none" stroke="#9a32cd" stroke-dasharray="5,2" d="M463.27,-342.4C467.91,-341.86 472.52,-341.4 477,-341.04 735.2,-320.63 1049,-330.92 1143.95,-334.79"/>
<polygon fill="#9a32cd" stroke="#9a32cd" points="462.62,-338.96 453.14,-343.69 463.5,-345.9 462.62,-338.96"/>
<text text-anchor="middle" x="800" y="-332.04" font-family="Helvetica,sans-Serif" font-size="10.00"> compressed_axis</text>
</g>
<!-- Node15&#45;&gt;Node12 -->
<g id="edge21" class="edge">
<title>Node15&#45;&gt;Node12</title>
<path fill="none" stroke="#9a32cd" stroke-dasharray="5,2" d="M463.4,-345.46C493.08,-344.91 528.5,-348.69 556,-365.04 612.32,-398.54 642.86,-478.02 652.01,-505.5"/>
<polygon fill="#9a32cd" stroke="#9a32cd" points="463.03,-341.97 453.16,-345.82 463.28,-348.96 463.03,-341.97"/>
<text text-anchor="middle" x="516.5" y="-368.04" font-family="Helvetica,sans-Serif" font-size="10.00"> cartesian</text>
</g>
<!-- Node16 -->
<g id="node16" class="node">
<title>Node16</title>
<g id="a_node16"><a xlink:title=" ">
<polygon fill="white" stroke="#bfbfbf" points="351,-418.54 351,-437.54 456,-437.54 456,-418.54 351,-418.54"/>
<text text-anchor="middle" x="403.5" y="-425.54" font-family="Helvetica,sans-Serif" font-size="10.00">character(len=24)</text>
</a>
</g>
</g>
<!-- Node16&#45;&gt;Node12 -->
<g id="edge25" class="edge">
<title>Node16&#45;&gt;Node12</title>
<path fill="none" stroke="#9a32cd" stroke-dasharray="5,2" d="M466.23,-439.77C494.09,-445.92 527.16,-454.4 556,-465.04 586.35,-476.25 619.5,-494.28 638.71,-505.35"/>
<polygon fill="#9a32cd" stroke="#9a32cd" points="466.73,-436.3 456.21,-437.62 465.25,-443.14 466.73,-436.3"/>
<text text-anchor="middle" x="516.5" y="-468.04" font-family="Helvetica,sans-Serif" font-size="10.00"> calendar</text>
</g>
<!-- Node17 -->
<g id="node17" class="node">
<title>Node17</title>
<g id="a_node17"><a xlink:title=" ">
<polygon fill="white" stroke="#bfbfbf" points="880.5,-14.54 880.5,-33.54 978.5,-33.54 978.5,-14.54 880.5,-14.54"/>
<text text-anchor="middle" x="929.5" y="-21.54" font-family="Helvetica,sans-Serif" font-size="10.00">integer(int_kind)</text>
</a>
</g>
</g>
<!-- Node17&#45;&gt;Node1 -->
<g id="edge29" class="edge">
<title>Node17&#45;&gt;Node1</title>
<path fill="none" stroke="#9a32cd" stroke-dasharray="5,2" d="M967.3,-11.7C1010.73,0.32 1082.53,11.78 1126,-26.04 1172.5,-66.5 1173.12,-278.04 1172.64,-326.25"/>
<polygon fill="#9a32cd" stroke="#9a32cd" points="966.32,-8.34 957.69,-14.49 968.27,-15.06 966.32,-8.34"/>
<text text-anchor="middle" x="1070.5" y="-40.04" font-family="Helvetica,sans-Serif" font-size="10.00"> field_dimension_sizes</text>
<text text-anchor="middle" x="1070.5" y="-29.04" font-family="Helvetica,sans-Serif" font-size="10.00">field_dimension_order</text>
</g>
</g>
</svg>
