<?xml version="1.0" encoding="UTF-8" standalone="no"?>
<!DOCTYPE svg PUBLIC "-//W3C//DTD SVG 1.1//EN"
 "http://www.w3.org/Graphics/SVG/1.1/DTD/svg11.dtd">
<!-- Generated by graphviz version 2.43.0 (0)
 -->
<!-- Title: coupler_1d_field_type Pages: 1 -->
<svg width="541pt" height="397pt"
 viewBox="0.00 0.00 541.00 396.51" xmlns="http://www.w3.org/2000/svg" xmlns:xlink="http://www.w3.org/1999/xlink">
<g id="graph0" class="graph" transform="scale(1 1) rotate(0) translate(4 392.51)">
<title>coupler_1d_field_type</title>
<polygon fill="white" stroke="transparent" points="-4,4 -4,-392.51 537,-392.51 537,4 -4,4"/>
<!-- Node1 -->
<g id="node1" class="node">
<title>Node1</title>
<g id="a_node1"><a xlink:title="Coupler data for 1D fields.">
<polygon fill="#bfbfbf" stroke="black" points="410,-195.01 410,-214.01 533,-214.01 533,-195.01 410,-195.01"/>
<text text-anchor="middle" x="471.5" y="-202.01" font-family="Helvetica,sans-Serif" font-size="10.00">coupler_1d_field_type</text>
</a>
</g>
</g>
<!-- Node2 -->
<g id="node2" class="node">
<title>Node2</title>
<g id="a_node2"><a xlink:title=" ">
<polygon fill="white" stroke="#bfbfbf" points="31,-225.01 31,-244.01 80,-244.01 80,-225.01 31,-225.01"/>
<text text-anchor="middle" x="55.5" y="-232.01" font-family="Helvetica,sans-Serif" font-size="10.00">logical</text>
</a>
</g>
</g>
<!-- Node2&#45;&gt;Node1 -->
<g id="edge1" class="edge">
<title>Node2&#45;&gt;Node1</title>
<path fill="none" stroke="#9a32cd" stroke-dasharray="5,2" d="M90.42,-240.16C102.55,-241.93 116.35,-243.64 129,-244.51 238.43,-252.02 366.71,-228.14 430.4,-214.06"/>
<polygon fill="#9a32cd" stroke="#9a32cd" points="90.66,-236.66 80.25,-238.62 89.61,-243.58 90.66,-236.66"/>
<text text-anchor="middle" x="272" y="-280.51" font-family="Helvetica,sans-Serif" font-size="10.00"> flag</text>
<text text-anchor="middle" x="272" y="-269.51" font-family="Helvetica,sans-Serif" font-size="10.00">pass_through_ice</text>
<text text-anchor="middle" x="272" y="-258.51" font-family="Helvetica,sans-Serif" font-size="10.00">use_10m_wind_speed</text>
<text text-anchor="middle" x="272" y="-247.51" font-family="Helvetica,sans-Serif" font-size="10.00">use_atm_pressure</text>
</g>
<!-- Node5 -->
<g id="node5" class="node">
<title>Node5</title>
<g id="a_node5"><a xlink:href="group__coupler__types__mod.html#structcoupler__types__mod_1_1coupler__1d__values__type" target="_top" xlink:title="Coupler data for 1D values.">
<polygon fill="white" stroke="black" points="205,-195.01 205,-214.01 339,-214.01 339,-195.01 205,-195.01"/>
<text text-anchor="middle" x="272" y="-202.01" font-family="Helvetica,sans-Serif" font-size="10.00">coupler_1d_values_type</text>
</a>
</g>
</g>
<!-- Node2&#45;&gt;Node5 -->
<g id="edge5" class="edge">
<title>Node2&#45;&gt;Node5</title>
<path fill="none" stroke="#9a32cd" stroke-dasharray="5,2" d="M89.98,-221.9C102.1,-217.87 116,-213.85 129,-211.51 153.53,-207.09 180.81,-205.06 204.85,-204.24"/>
<polygon fill="#9a32cd" stroke="#9a32cd" points="88.58,-218.68 80.27,-225.25 90.87,-225.3 88.58,-218.68"/>
<text text-anchor="middle" x="158" y="-236.51" font-family="Helvetica,sans-Serif" font-size="10.00"> may_init</text>
<text text-anchor="middle" x="158" y="-225.51" font-family="Helvetica,sans-Serif" font-size="10.00">mean</text>
<text text-anchor="middle" x="158" y="-214.51" font-family="Helvetica,sans-Serif" font-size="10.00">override</text>
</g>
<!-- Node3 -->
<g id="node3" class="node">
<title>Node3</title>
<g id="a_node3"><a xlink:title=" ">
<polygon fill="white" stroke="#bfbfbf" points="219,-317.51 219,-347.51 325,-347.51 325,-317.51 219,-317.51"/>
<text text-anchor="start" x="227" y="-335.51" font-family="Helvetica,sans-Serif" font-size="10.00">real, dimension(:),</text>
<text text-anchor="middle" x="272" y="-324.51" font-family="Helvetica,sans-Serif" font-size="10.00"> pointer</text>
</a>
</g>
</g>
<!-- Node3&#45;&gt;Node1 -->
<g id="edge2" class="edge">
<title>Node3&#45;&gt;Node1</title>
<path fill="none" stroke="#9a32cd" stroke-dasharray="5,2" d="M318.23,-313C325.26,-309.66 332.39,-306.11 339,-302.51 387.76,-275.96 438.54,-232.99 459.97,-214.03"/>
<polygon fill="#9a32cd" stroke="#9a32cd" points="316.34,-310.01 308.74,-317.39 319.28,-316.36 316.34,-310.01"/>
<text text-anchor="middle" x="374.5" y="-293.51" font-family="Helvetica,sans-Serif" font-size="10.00"> param</text>
</g>
<!-- Node4 -->
<g id="node4" class="node">
<title>Node4</title>
<g id="a_node4"><a xlink:title=" ">
<polygon fill="white" stroke="#bfbfbf" points="3,-344.01 3,-363.01 108,-363.01 108,-344.01 3,-344.01"/>
<text text-anchor="middle" x="55.5" y="-351.01" font-family="Helvetica,sans-Serif" font-size="10.00">character(len=48)</text>
</a>
</g>
</g>
<!-- Node4&#45;&gt;Node1 -->
<g id="edge3" class="edge">
<title>Node4&#45;&gt;Node1</title>
<path fill="none" stroke="#9a32cd" stroke-dasharray="5,2" d="M104.31,-365.18C162.24,-376.9 261.69,-389.1 339,-357.51 407.74,-329.42 452.81,-242.92 466.27,-214.02"/>
<polygon fill="#9a32cd" stroke="#9a32cd" points="104.84,-361.72 94.34,-363.08 103.4,-368.57 104.84,-361.72"/>
<text text-anchor="middle" x="272" y="-380.51" font-family="Helvetica,sans-Serif" font-size="10.00"> name</text>
</g>
<!-- Node4&#45;&gt;Node5 -->
<g id="edge6" class="edge">
<title>Node4&#45;&gt;Node5</title>
<path fill="none" stroke="#9a32cd" stroke-dasharray="5,2" d="M76.87,-337.62C102.76,-317.31 148.7,-280.9 187,-248.51 195.17,-241.59 195.95,-238.23 205,-232.51 216.78,-225.06 230.89,-218.76 243.03,-214.04"/>
<polygon fill="#9a32cd" stroke="#9a32cd" points="74.62,-334.94 68.9,-343.86 78.93,-340.45 74.62,-334.94"/>
<text text-anchor="middle" x="158" y="-297.51" font-family="Helvetica,sans-Serif" font-size="10.00"> name</text>
</g>
<!-- Node5&#45;&gt;Node1 -->
<g id="edge4" class="edge">
<title>Node5&#45;&gt;Node1</title>
<path fill="none" stroke="#9a32cd" stroke-dasharray="5,2" d="M349.11,-204.51C369.23,-204.51 390.67,-204.51 409.85,-204.51"/>
<polygon fill="#9a32cd" stroke="#9a32cd" points="349.04,-201.01 339.04,-204.51 349.04,-208.01 349.04,-201.01"/>
<text text-anchor="middle" x="374.5" y="-207.51" font-family="Helvetica,sans-Serif" font-size="10.00"> field</text>
</g>
<!-- Node6 -->
<g id="node6" class="node">
<title>Node6</title>
<g id="a_node6"><a xlink:title=" ">
<polygon fill="white" stroke="#bfbfbf" points="0,-138.01 0,-157.01 111,-157.01 111,-138.01 0,-138.01"/>
<text text-anchor="middle" x="55.5" y="-145.01" font-family="Helvetica,sans-Serif" font-size="10.00">character(len=128)</text>
</a>
</g>
</g>
<!-- Node6&#45;&gt;Node1 -->
<g id="edge10" class="edge">
<title>Node6&#45;&gt;Node1</title>
<path fill="none" stroke="#9a32cd" stroke-dasharray="5,2" d="M121.28,-137.31C179.13,-130.27 265.78,-124.87 339,-141.51 384.42,-151.83 432.48,-179.86 455.92,-194.81"/>
<polygon fill="#9a32cd" stroke="#9a32cd" points="120.66,-133.86 111.18,-138.59 121.54,-140.8 120.66,-133.86"/>
<text text-anchor="middle" x="272" y="-177.51" font-family="Helvetica,sans-Serif" font-size="10.00"> flux_type</text>
<text text-anchor="middle" x="272" y="-166.51" font-family="Helvetica,sans-Serif" font-size="10.00">ice_restart_file</text>
<text text-anchor="middle" x="272" y="-155.51" font-family="Helvetica,sans-Serif" font-size="10.00">implementation</text>
<text text-anchor="middle" x="272" y="-144.51" font-family="Helvetica,sans-Serif" font-size="10.00">ocean_restart_file</text>
</g>
<!-- Node6&#45;&gt;Node5 -->
<g id="edge7" class="edge">
<title>Node6&#45;&gt;Node5</title>
<path fill="none" stroke="#9a32cd" stroke-dasharray="5,2" d="M109.76,-159.31C133.5,-164.79 161.74,-171.61 187,-178.51 205.41,-183.54 225.87,-189.85 241.98,-195"/>
<polygon fill="#9a32cd" stroke="#9a32cd" points="110.42,-155.87 99.89,-157.05 108.85,-162.69 110.42,-155.87"/>
<text text-anchor="middle" x="158" y="-192.51" font-family="Helvetica,sans-Serif" font-size="10.00"> long_name</text>
<text text-anchor="middle" x="158" y="-181.51" font-family="Helvetica,sans-Serif" font-size="10.00">units</text>
</g>
<!-- Node7 -->
<g id="node7" class="node">
<title>Node7</title>
<g id="a_node7"><a xlink:title=" ">
<polygon fill="white" stroke="#bfbfbf" points="30,-81.01 30,-100.01 81,-100.01 81,-81.01 30,-81.01"/>
<text text-anchor="middle" x="55.5" y="-88.01" font-family="Helvetica,sans-Serif" font-size="10.00">integer</text>
</a>
</g>
</g>
<!-- Node7&#45;&gt;Node1 -->
<g id="edge12" class="edge">
<title>Node7&#45;&gt;Node1</title>
<path fill="none" stroke="#9a32cd" stroke-dasharray="5,2" d="M79.18,-75.41C92.95,-67.16 111.25,-57.77 129,-53.51 154.06,-47.48 161.57,-49.28 187,-53.51 257.43,-65.22 275.53,-72.8 339,-105.51 364.76,-118.78 368.77,-126.17 392,-143.51 415.79,-161.27 443.05,-182.7 458.37,-194.85"/>
<polygon fill="#9a32cd" stroke="#9a32cd" points="77.07,-72.6 70.43,-80.86 80.77,-78.54 77.07,-72.6"/>
<text text-anchor="middle" x="272" y="-119.51" font-family="Helvetica,sans-Serif" font-size="10.00"> atm_tr_index</text>
<text text-anchor="middle" x="272" y="-108.51" font-family="Helvetica,sans-Serif" font-size="10.00">num_fields</text>
</g>
<!-- Node7&#45;&gt;Node5 -->
<g id="edge8" class="edge">
<title>Node7&#45;&gt;Node5</title>
<path fill="none" stroke="#9a32cd" stroke-dasharray="5,2" d="M91.07,-99.68C119.48,-108.63 159.39,-124.57 187,-149.51 198.82,-160.19 192.78,-170.28 205,-180.51 212.48,-186.77 221.73,-191.46 230.91,-194.95"/>
<polygon fill="#9a32cd" stroke="#9a32cd" points="91.76,-96.23 81.17,-96.7 89.74,-102.94 91.76,-96.23"/>
<text text-anchor="middle" x="158" y="-152.51" font-family="Helvetica,sans-Serif" font-size="10.00"> id_diag</text>
</g>
<!-- Node8 -->
<g id="node8" class="node">
<title>Node8</title>
<g id="a_node8"><a xlink:title=" ">
<polygon fill="white" stroke="#bfbfbf" points="38,-6.01 38,-25.01 73,-25.01 73,-6.01 38,-6.01"/>
<text text-anchor="middle" x="55.5" y="-13.01" font-family="Helvetica,sans-Serif" font-size="10.00">real</text>
</a>
</g>
</g>
<!-- Node8&#45;&gt;Node1 -->
<g id="edge11" class="edge">
<title>Node8&#45;&gt;Node1</title>
<path fill="none" stroke="#9a32cd" stroke-dasharray="5,2" d="M82.9,-10.08C135.28,-0.73 254.6,13.37 339,-31.51 409.95,-69.23 453.87,-163.94 466.62,-194.7"/>
<polygon fill="#9a32cd" stroke="#9a32cd" points="82.24,-6.64 73.06,-11.92 83.53,-13.52 82.24,-6.64"/>
<text text-anchor="middle" x="272" y="-45.51" font-family="Helvetica,sans-Serif" font-size="10.00"> mol_wt</text>
<text text-anchor="middle" x="272" y="-34.51" font-family="Helvetica,sans-Serif" font-size="10.00">param</text>
</g>
<!-- Node8&#45;&gt;Node5 -->
<g id="edge9" class="edge">
<title>Node8&#45;&gt;Node5</title>
<path fill="none" stroke="#9a32cd" stroke-dasharray="5,2" d="M82.49,-25.31C112.46,-37.99 160.93,-63.01 187,-100.51 207.8,-130.43 180.92,-153.15 205,-180.51 210.56,-186.82 217.91,-191.48 225.7,-194.91"/>
<polygon fill="#9a32cd" stroke="#9a32cd" points="83.67,-22.01 73.09,-21.48 81.03,-28.49 83.67,-22.01"/>
<text text-anchor="middle" x="158" y="-103.51" font-family="Helvetica,sans-Serif" font-size="10.00"> values</text>
</g>
</g>
</svg>
