<?xml version="1.0" encoding="UTF-8" standalone="no"?>
<!DOCTYPE svg PUBLIC "-//W3C//DTD SVG 1.1//EN"
 "http://www.w3.org/Graphics/SVG/1.1/DTD/svg11.dtd">
<!-- Generated by graphviz version 2.43.0 (0)
 -->
<!-- Title: horiz_interp_type Pages: 1 -->
<svg width="580pt" height="502pt"
 viewBox="0.00 0.00 580.00 502.00" xmlns="http://www.w3.org/2000/svg" xmlns:xlink="http://www.w3.org/1999/xlink">
<g id="graph0" class="graph" transform="scale(1 1) rotate(0) translate(4 498)">
<title>horiz_interp_type</title>
<polygon fill="white" stroke="transparent" points="-4,4 -4,-498 576,-498 576,4 -4,4"/>
<!-- Node1 -->
<g id="node1" class="node">
<title>Node1</title>
<g id="a_node1"><a xlink:title="Holds data pointers and metadata for horizontal interpolations, passed between the horiz_interp modul...">
<polygon fill="#bfbfbf" stroke="black" points="471,-240.5 471,-259.5 572,-259.5 572,-240.5 471,-240.5"/>
<text text-anchor="middle" x="521.5" y="-247.5" font-family="Helvetica,sans-Serif" font-size="10.00">horiz_interp_type</text>
</a>
</g>
</g>
<!-- Node2 -->
<g id="node2" class="node">
<title>Node2</title>
<g id="a_node2"><a xlink:title=" ">
<polygon fill="white" stroke="#bfbfbf" points="270.5,-350.5 270.5,-369.5 319.5,-369.5 319.5,-350.5 270.5,-350.5"/>
<text text-anchor="middle" x="295" y="-357.5" font-family="Helvetica,sans-Serif" font-size="10.00">logical</text>
</a>
</g>
</g>
<!-- Node2&#45;&gt;Node1 -->
<g id="edge1" class="edge">
<title>Node2&#45;&gt;Node1</title>
<path fill="none" stroke="#9a32cd" stroke-dasharray="5,2" d="M329.75,-361.18C363.23,-360.87 414.91,-356.27 453,-334 484.01,-315.87 506.47,-277.69 515.77,-259.73"/>
<polygon fill="#9a32cd" stroke="#9a32cd" points="329.58,-357.68 319.56,-361.15 329.55,-364.68 329.58,-357.68"/>
<text text-anchor="middle" x="410.5" y="-372" font-family="Helvetica,sans-Serif" font-size="10.00"> found_neighbors</text>
<text text-anchor="middle" x="410.5" y="-361" font-family="Helvetica,sans-Serif" font-size="10.00">i_am_initialized</text>
</g>
<!-- Node3 -->
<g id="node3" class="node">
<title>Node3</title>
<g id="a_node3"><a xlink:href="structhoriz__interp__type__mod_1_1horiz__interp__reals8.html" target="_top" xlink:title="real(8) pointers for use in horiz_interp_type">
<polygon fill="white" stroke="black" points="240,-312.5 240,-331.5 350,-331.5 350,-312.5 240,-312.5"/>
<text text-anchor="middle" x="295" y="-319.5" font-family="Helvetica,sans-Serif" font-size="10.00">horiz_interp_reals8</text>
</a>
</g>
</g>
<!-- Node3&#45;&gt;Node1 -->
<g id="edge2" class="edge">
<title>Node3&#45;&gt;Node1</title>
<path fill="none" stroke="#9a32cd" stroke-dasharray="5,2" d="M360.14,-320.2C389.35,-317.59 423.83,-311.93 453,-300 476.22,-290.5 498.71,-271.2 510.97,-259.55"/>
<polygon fill="#9a32cd" stroke="#9a32cd" points="359.74,-316.73 350.05,-321.01 360.29,-323.7 359.74,-316.73"/>
<text text-anchor="middle" x="410.5" y="-322" font-family="Helvetica,sans-Serif" font-size="10.00"> kind8_reals</text>
</g>
<!-- Node4 -->
<g id="node4" class="node">
<title>Node4</title>
<g id="a_node4"><a xlink:title=" ">
<polygon fill="white" stroke="#bfbfbf" points="13,-468.5 13,-487.5 121,-487.5 121,-468.5 13,-468.5"/>
<text text-anchor="middle" x="67" y="-475.5" font-family="Helvetica,sans-Serif" font-size="10.00">real(kind=r8_kind)</text>
</a>
</g>
</g>
<!-- Node4&#45;&gt;Node3 -->
<g id="edge3" class="edge">
<title>Node4&#45;&gt;Node3</title>
<path fill="none" stroke="#9a32cd" stroke-dasharray="5,2" d="M131.71,-484.78C162.93,-484.46 198.72,-478.09 222,-455 258.42,-418.88 207.17,-380.41 240,-341 243.24,-337.11 247.34,-334.01 251.82,-331.55"/>
<polygon fill="#9a32cd" stroke="#9a32cd" points="131.36,-481.27 121.32,-484.67 131.29,-488.27 131.36,-481.27"/>
<text text-anchor="middle" x="187" y="-486" font-family="Helvetica,sans-Serif" font-size="10.00"> max_src_dist</text>
</g>
<!-- Node5 -->
<g id="node5" class="node">
<title>Node5</title>
<g id="a_node5"><a xlink:title=" ">
<polygon fill="white" stroke="#bfbfbf" points="3,-363 3,-393 131,-393 131,-363 3,-363"/>
<text text-anchor="start" x="11" y="-381" font-family="Helvetica,sans-Serif" font-size="10.00">real(kind=r8_kind),</text>
<text text-anchor="middle" x="67" y="-370" font-family="Helvetica,sans-Serif" font-size="10.00"> dimension(:,:), pointer</text>
</a>
</g>
</g>
<!-- Node5&#45;&gt;Node3 -->
<g id="edge4" class="edge">
<title>Node5&#45;&gt;Node3</title>
<path fill="none" stroke="#9a32cd" stroke-dasharray="5,2" d="M141.53,-375.76C167.8,-372.85 197.05,-367.09 222,-356 231.52,-351.77 230.94,-346.14 240,-341 246.48,-337.32 253.8,-334.16 260.91,-331.54"/>
<polygon fill="#9a32cd" stroke="#9a32cd" points="140.85,-372.31 131.24,-376.78 141.53,-379.28 140.85,-372.31"/>
<text text-anchor="middle" x="187" y="-443" font-family="Helvetica,sans-Serif" font-size="10.00"> area_dst</text>
<text text-anchor="middle" x="187" y="-432" font-family="Helvetica,sans-Serif" font-size="10.00">area_src</text>
<text text-anchor="middle" x="187" y="-421" font-family="Helvetica,sans-Serif" font-size="10.00">faci</text>
<text text-anchor="middle" x="187" y="-410" font-family="Helvetica,sans-Serif" font-size="10.00">facj</text>
<text text-anchor="middle" x="187" y="-399" font-family="Helvetica,sans-Serif" font-size="10.00">mask_in</text>
<text text-anchor="middle" x="187" y="-388" font-family="Helvetica,sans-Serif" font-size="10.00">rat_x</text>
<text text-anchor="middle" x="187" y="-377" font-family="Helvetica,sans-Serif" font-size="10.00">rat_y</text>
</g>
<!-- Node6 -->
<g id="node6" class="node">
<title>Node6</title>
<g id="a_node6"><a xlink:title=" ">
<polygon fill="white" stroke="#bfbfbf" points="6,-307 6,-337 128,-337 128,-307 6,-307"/>
<text text-anchor="start" x="14" y="-325" font-family="Helvetica,sans-Serif" font-size="10.00">real(kind=r8_kind),</text>
<text text-anchor="middle" x="67" y="-314" font-family="Helvetica,sans-Serif" font-size="10.00"> dimension(:), pointer</text>
</a>
</g>
</g>
<!-- Node6&#45;&gt;Node3 -->
<g id="edge5" class="edge">
<title>Node6&#45;&gt;Node3</title>
<path fill="none" stroke="#9a32cd" stroke-dasharray="5,2" d="M138.65,-322C171.26,-322 209.38,-322 239.69,-322"/>
<polygon fill="#9a32cd" stroke="#9a32cd" points="138.27,-318.5 128.27,-322 138.27,-325.5 138.27,-318.5"/>
<text text-anchor="middle" x="187" y="-347" font-family="Helvetica,sans-Serif" font-size="10.00"> area_frac_dst</text>
<text text-anchor="middle" x="187" y="-336" font-family="Helvetica,sans-Serif" font-size="10.00">lat_in</text>
<text text-anchor="middle" x="187" y="-325" font-family="Helvetica,sans-Serif" font-size="10.00">lon_in</text>
</g>
<!-- Node7 -->
<g id="node7" class="node">
<title>Node7</title>
<g id="a_node7"><a xlink:title=" ">
<polygon fill="white" stroke="#bfbfbf" points="0,-251 0,-281 134,-281 134,-251 0,-251"/>
<text text-anchor="start" x="8" y="-269" font-family="Helvetica,sans-Serif" font-size="10.00">real(kind=r8_kind),</text>
<text text-anchor="middle" x="67" y="-258" font-family="Helvetica,sans-Serif" font-size="10.00"> dimension(:,:,:), pointer</text>
</a>
</g>
</g>
<!-- Node7&#45;&gt;Node3 -->
<g id="edge6" class="edge">
<title>Node7&#45;&gt;Node3</title>
<path fill="none" stroke="#9a32cd" stroke-dasharray="5,2" d="M144.47,-270.09C169.56,-272.83 197.34,-277.4 222,-285 242.95,-291.45 265.11,-303.78 279.22,-312.43"/>
<polygon fill="#9a32cd" stroke="#9a32cd" points="144.56,-266.58 134.26,-269.05 143.86,-273.54 144.56,-266.58"/>
<text text-anchor="middle" x="187" y="-310" font-family="Helvetica,sans-Serif" font-size="10.00"> src_dist</text>
<text text-anchor="middle" x="187" y="-299" font-family="Helvetica,sans-Serif" font-size="10.00">wti</text>
<text text-anchor="middle" x="187" y="-288" font-family="Helvetica,sans-Serif" font-size="10.00">wtj</text>
</g>
<!-- Node8 -->
<g id="node8" class="node">
<title>Node8</title>
<g id="a_node8"><a xlink:title=" ">
<polygon fill="white" stroke="#bfbfbf" points="269.5,-168.5 269.5,-187.5 320.5,-187.5 320.5,-168.5 269.5,-168.5"/>
<text text-anchor="middle" x="295" y="-175.5" font-family="Helvetica,sans-Serif" font-size="10.00">integer</text>
</a>
</g>
</g>
<!-- Node8&#45;&gt;Node1 -->
<g id="edge7" class="edge">
<title>Node8&#45;&gt;Node1</title>
<path fill="none" stroke="#9a32cd" stroke-dasharray="5,2" d="M330.73,-169.19C363.7,-162.66 413.9,-157.59 453,-175 483.4,-188.54 505.86,-223.3 515.42,-240.32"/>
<polygon fill="#9a32cd" stroke="#9a32cd" points="329.72,-165.83 320.67,-171.33 331.18,-172.67 329.72,-165.83"/>
<text text-anchor="middle" x="410.5" y="-288" font-family="Helvetica,sans-Serif" font-size="10.00"> i_dst</text>
<text text-anchor="middle" x="410.5" y="-277" font-family="Helvetica,sans-Serif" font-size="10.00">i_lon</text>
<text text-anchor="middle" x="410.5" y="-266" font-family="Helvetica,sans-Serif" font-size="10.00">i_src</text>
<text text-anchor="middle" x="410.5" y="-255" font-family="Helvetica,sans-Serif" font-size="10.00">ilon</text>
<text text-anchor="middle" x="410.5" y="-244" font-family="Helvetica,sans-Serif" font-size="10.00">interp_method</text>
<text text-anchor="middle" x="410.5" y="-233" font-family="Helvetica,sans-Serif" font-size="10.00">j_dst</text>
<text text-anchor="middle" x="410.5" y="-222" font-family="Helvetica,sans-Serif" font-size="10.00">j_lat</text>
<text text-anchor="middle" x="410.5" y="-211" font-family="Helvetica,sans-Serif" font-size="10.00">j_src</text>
<text text-anchor="middle" x="410.5" y="-200" font-family="Helvetica,sans-Serif" font-size="10.00">jlat</text>
<text text-anchor="middle" x="410.5" y="-189" font-family="Helvetica,sans-Serif" font-size="10.00">nlat_dst</text>
<text text-anchor="middle" x="410.5" y="-178" font-family="Helvetica,sans-Serif" font-size="10.00">...</text>
</g>
<!-- Node9 -->
<g id="node9" class="node">
<title>Node9</title>
<g id="a_node9"><a xlink:href="structhoriz__interp__type__mod_1_1horiz__interp__reals4.html" target="_top" xlink:title="holds real(4) pointers for use in horiz_interp_type">
<polygon fill="white" stroke="black" points="240,-100.5 240,-119.5 350,-119.5 350,-100.5 240,-100.5"/>
<text text-anchor="middle" x="295" y="-107.5" font-family="Helvetica,sans-Serif" font-size="10.00">horiz_interp_reals4</text>
</a>
</g>
</g>
<!-- Node9&#45;&gt;Node1 -->
<g id="edge8" class="edge">
<title>Node9&#45;&gt;Node1</title>
<path fill="none" stroke="#9a32cd" stroke-dasharray="5,2" d="M360.3,-114.69C390.62,-119.48 425.98,-129.04 453,-148 487.42,-172.15 508.97,-219.96 516.98,-240.38"/>
<polygon fill="#9a32cd" stroke="#9a32cd" points="360.63,-111.2 350.23,-113.24 359.63,-118.13 360.63,-111.2"/>
<text text-anchor="middle" x="410.5" y="-151" font-family="Helvetica,sans-Serif" font-size="10.00"> kind4_reals</text>
</g>
<!-- Node10 -->
<g id="node10" class="node">
<title>Node10</title>
<g id="a_node10"><a xlink:title=" ">
<polygon fill="white" stroke="#bfbfbf" points="6,-195 6,-225 128,-225 128,-195 6,-195"/>
<text text-anchor="start" x="14" y="-213" font-family="Helvetica,sans-Serif" font-size="10.00">real(kind=r4_kind),</text>
<text text-anchor="middle" x="67" y="-202" font-family="Helvetica,sans-Serif" font-size="10.00"> dimension(:), pointer</text>
</a>
</g>
</g>
<!-- Node10&#45;&gt;Node9 -->
<g id="edge9" class="edge">
<title>Node10&#45;&gt;Node9</title>
<path fill="none" stroke="#9a32cd" stroke-dasharray="5,2" d="M138.25,-212.45C166.23,-210.38 197.53,-203.98 222,-188 234.7,-179.7 230.29,-170.65 240,-159 252.64,-143.83 269.93,-128.95 281.51,-119.64"/>
<polygon fill="#9a32cd" stroke="#9a32cd" points="137.9,-208.96 128.11,-213.02 138.29,-215.95 137.9,-208.96"/>
<text text-anchor="middle" x="187" y="-235" font-family="Helvetica,sans-Serif" font-size="10.00"> area_frac_dst</text>
<text text-anchor="middle" x="187" y="-224" font-family="Helvetica,sans-Serif" font-size="10.00">lat_in</text>
<text text-anchor="middle" x="187" y="-213" font-family="Helvetica,sans-Serif" font-size="10.00">lon_in</text>
</g>
<!-- Node11 -->
<g id="node11" class="node">
<title>Node11</title>
<g id="a_node11"><a xlink:title=" ">
<polygon fill="white" stroke="#bfbfbf" points="3,-95 3,-125 131,-125 131,-95 3,-95"/>
<text text-anchor="start" x="11" y="-113" font-family="Helvetica,sans-Serif" font-size="10.00">real(kind=r4_kind),</text>
<text text-anchor="middle" x="67" y="-102" font-family="Helvetica,sans-Serif" font-size="10.00"> dimension(:,:), pointer</text>
</a>
</g>
</g>
<!-- Node11&#45;&gt;Node9 -->
<g id="edge10" class="edge">
<title>Node11&#45;&gt;Node9</title>
<path fill="none" stroke="#9a32cd" stroke-dasharray="5,2" d="M141.48,-110C173.55,-110 210.47,-110 239.96,-110"/>
<polygon fill="#9a32cd" stroke="#9a32cd" points="141.25,-106.5 131.25,-110 141.25,-113.5 141.25,-106.5"/>
<text text-anchor="middle" x="187" y="-179" font-family="Helvetica,sans-Serif" font-size="10.00"> area_dst</text>
<text text-anchor="middle" x="187" y="-168" font-family="Helvetica,sans-Serif" font-size="10.00">area_src</text>
<text text-anchor="middle" x="187" y="-157" font-family="Helvetica,sans-Serif" font-size="10.00">faci</text>
<text text-anchor="middle" x="187" y="-146" font-family="Helvetica,sans-Serif" font-size="10.00">facj</text>
<text text-anchor="middle" x="187" y="-135" font-family="Helvetica,sans-Serif" font-size="10.00">mask_in</text>
<text text-anchor="middle" x="187" y="-124" font-family="Helvetica,sans-Serif" font-size="10.00">rat_x</text>
<text text-anchor="middle" x="187" y="-113" font-family="Helvetica,sans-Serif" font-size="10.00">rat_y</text>
</g>
<!-- Node12 -->
<g id="node12" class="node">
<title>Node12</title>
<g id="a_node12"><a xlink:title=" ">
<polygon fill="white" stroke="#bfbfbf" points="0,-39 0,-69 134,-69 134,-39 0,-39"/>
<text text-anchor="start" x="8" y="-57" font-family="Helvetica,sans-Serif" font-size="10.00">real(kind=r4_kind),</text>
<text text-anchor="middle" x="67" y="-46" font-family="Helvetica,sans-Serif" font-size="10.00"> dimension(:,:,:), pointer</text>
</a>
</g>
</g>
<!-- Node12&#45;&gt;Node9 -->
<g id="edge11" class="edge">
<title>Node12&#45;&gt;Node9</title>
<path fill="none" stroke="#9a32cd" stroke-dasharray="5,2" d="M144.47,-58.09C169.56,-60.83 197.34,-65.4 222,-73 242.95,-79.45 265.11,-91.78 279.22,-100.43"/>
<polygon fill="#9a32cd" stroke="#9a32cd" points="144.56,-54.58 134.26,-57.05 143.86,-61.54 144.56,-54.58"/>
<text text-anchor="middle" x="187" y="-98" font-family="Helvetica,sans-Serif" font-size="10.00"> src_dist</text>
<text text-anchor="middle" x="187" y="-87" font-family="Helvetica,sans-Serif" font-size="10.00">wti</text>
<text text-anchor="middle" x="187" y="-76" font-family="Helvetica,sans-Serif" font-size="10.00">wtj</text>
</g>
<!-- Node13 -->
<g id="node13" class="node">
<title>Node13</title>
<g id="a_node13"><a xlink:title=" ">
<polygon fill="white" stroke="#bfbfbf" points="13,-0.5 13,-19.5 121,-19.5 121,-0.5 13,-0.5"/>
<text text-anchor="middle" x="67" y="-7.5" font-family="Helvetica,sans-Serif" font-size="10.00">real(kind=r4_kind)</text>
</a>
</g>
</g>
<!-- Node13&#45;&gt;Node9 -->
<g id="edge12" class="edge">
<title>Node13&#45;&gt;Node9</title>
<path fill="none" stroke="#9a32cd" stroke-dasharray="5,2" d="M131.31,-16.36C160.18,-21.14 194.08,-29.48 222,-44 249.38,-58.24 274.22,-85.59 286.29,-100.21"/>
<polygon fill="#9a32cd" stroke="#9a32cd" points="131.74,-12.89 121.32,-14.82 130.67,-19.81 131.74,-12.89"/>
<text text-anchor="middle" x="187" y="-47" font-family="Helvetica,sans-Serif" font-size="10.00"> max_src_dist</text>
</g>
</g>
</svg>
