<?xml version="1.0" encoding="UTF-8" standalone="no"?>
<!DOCTYPE svg PUBLIC "-//W3C//DTD SVG 1.1//EN"
 "http://www.w3.org/Graphics/SVG/1.1/DTD/svg11.dtd">
<!-- Generated by graphviz version 2.43.0 (0)
 -->
<!-- Title: horiz_interp_reals4 Pages: 1 -->
<svg width="358pt" height="245pt"
 viewBox="0.00 0.00 358.00 245.00" xmlns="http://www.w3.org/2000/svg" xmlns:xlink="http://www.w3.org/1999/xlink">
<g id="graph0" class="graph" transform="scale(1 1) rotate(0) translate(4 241)">
<title>horiz_interp_reals4</title>
<polygon fill="white" stroke="transparent" points="-4,4 -4,-241 354,-241 354,4 -4,4"/>
<!-- Node1 -->
<g id="node1" class="node">
<title>Node1</title>
<g id="a_node1"><a xlink:title="holds real(4) pointers for use in horiz_interp_type">
<polygon fill="#bfbfbf" stroke="black" points="240,-72.5 240,-91.5 350,-91.5 350,-72.5 240,-72.5"/>
<text text-anchor="middle" x="295" y="-79.5" font-family="Helvetica,sans-Serif" font-size="10.00">horiz_interp_reals4</text>
</a>
</g>
</g>
<!-- Node2 -->
<g id="node2" class="node">
<title>Node2</title>
<g id="a_node2"><a xlink:title=" ">
<polygon fill="white" stroke="#bfbfbf" points="6,-195 6,-225 128,-225 128,-195 6,-195"/>
<text text-anchor="start" x="14" y="-213" font-family="Helvetica,sans-Serif" font-size="10.00">real(kind=r4_kind),</text>
<text text-anchor="middle" x="67" y="-202" font-family="Helvetica,sans-Serif" font-size="10.00"> dimension(:), pointer</text>
</a>
</g>
</g>
<!-- Node2&#45;&gt;Node1 -->
<g id="edge1" class="edge">
<title>Node2&#45;&gt;Node1</title>
<path fill="none" stroke="#9a32cd" stroke-dasharray="5,2" d="M138.17,-207.28C165.99,-203.51 197.2,-195.71 222,-180 257.13,-157.74 280.83,-111.71 289.89,-91.67"/>
<polygon fill="#9a32cd" stroke="#9a32cd" points="137.59,-203.82 128.08,-208.49 138.43,-210.77 137.59,-203.82"/>
<text text-anchor="middle" x="187" y="-229" font-family="Helvetica,sans-Serif" font-size="10.00"> area_frac_dst</text>
<text text-anchor="middle" x="187" y="-218" font-family="Helvetica,sans-Serif" font-size="10.00">lat_in</text>
<text text-anchor="middle" x="187" y="-207" font-family="Helvetica,sans-Serif" font-size="10.00">lon_in</text>
</g>
<!-- Node3 -->
<g id="node3" class="node">
<title>Node3</title>
<g id="a_node3"><a xlink:title=" ">
<polygon fill="white" stroke="#bfbfbf" points="3,-95 3,-125 131,-125 131,-95 3,-95"/>
<text text-anchor="start" x="11" y="-113" font-family="Helvetica,sans-Serif" font-size="10.00">real(kind=r4_kind),</text>
<text text-anchor="middle" x="67" y="-102" font-family="Helvetica,sans-Serif" font-size="10.00"> dimension(:,:), pointer</text>
</a>
</g>
</g>
<!-- Node3&#45;&gt;Node1 -->
<g id="edge2" class="edge">
<title>Node3&#45;&gt;Node1</title>
<path fill="none" stroke="#9a32cd" stroke-dasharray="5,2" d="M141.48,-100.9C173.55,-96.92 210.47,-92.35 239.96,-88.7"/>
<polygon fill="#9a32cd" stroke="#9a32cd" points="140.75,-97.46 131.25,-102.16 141.61,-104.41 140.75,-97.46"/>
<text text-anchor="middle" x="187" y="-168" font-family="Helvetica,sans-Serif" font-size="10.00"> area_dst</text>
<text text-anchor="middle" x="187" y="-157" font-family="Helvetica,sans-Serif" font-size="10.00">area_src</text>
<text text-anchor="middle" x="187" y="-146" font-family="Helvetica,sans-Serif" font-size="10.00">faci</text>
<text text-anchor="middle" x="187" y="-135" font-family="Helvetica,sans-Serif" font-size="10.00">facj</text>
<text text-anchor="middle" x="187" y="-124" font-family="Helvetica,sans-Serif" font-size="10.00">mask_in</text>
<text text-anchor="middle" x="187" y="-113" font-family="Helvetica,sans-Serif" font-size="10.00">rat_x</text>
<text text-anchor="middle" x="187" y="-102" font-family="Helvetica,sans-Serif" font-size="10.00">rat_y</text>
</g>
<!-- Node4 -->
<g id="node4" class="node">
<title>Node4</title>
<g id="a_node4"><a xlink:title=" ">
<polygon fill="white" stroke="#bfbfbf" points="0,-39 0,-69 134,-69 134,-39 0,-39"/>
<text text-anchor="start" x="8" y="-57" font-family="Helvetica,sans-Serif" font-size="10.00">real(kind=r4_kind),</text>
<text text-anchor="middle" x="67" y="-46" font-family="Helvetica,sans-Serif" font-size="10.00"> dimension(:,:,:), pointer</text>
</a>
</g>
</g>
<!-- Node4&#45;&gt;Node1 -->
<g id="edge3" class="edge">
<title>Node4&#45;&gt;Node1</title>
<path fill="none" stroke="#9a32cd" stroke-dasharray="5,2" d="M144.21,-48.45C169.18,-48.1 196.94,-49.3 222,-54 240.72,-57.51 260.82,-65.74 275.02,-72.38"/>
<polygon fill="#9a32cd" stroke="#9a32cd" points="143.98,-44.95 134.06,-48.67 144.14,-51.95 143.98,-44.95"/>
<text text-anchor="middle" x="187" y="-79" font-family="Helvetica,sans-Serif" font-size="10.00"> src_dist</text>
<text text-anchor="middle" x="187" y="-68" font-family="Helvetica,sans-Serif" font-size="10.00">wti</text>
<text text-anchor="middle" x="187" y="-57" font-family="Helvetica,sans-Serif" font-size="10.00">wtj</text>
</g>
<!-- Node5 -->
<g id="node5" class="node">
<title>Node5</title>
<g id="a_node5"><a xlink:title=" ">
<polygon fill="white" stroke="#bfbfbf" points="13,-0.5 13,-19.5 121,-19.5 121,-0.5 13,-0.5"/>
<text text-anchor="middle" x="67" y="-7.5" font-family="Helvetica,sans-Serif" font-size="10.00">real(kind=r4_kind)</text>
</a>
</g>
</g>
<!-- Node5&#45;&gt;Node1 -->
<g id="edge4" class="edge">
<title>Node5&#45;&gt;Node1</title>
<path fill="none" stroke="#9a32cd" stroke-dasharray="5,2" d="M131.43,-13.05C159.89,-16.03 193.41,-21.82 222,-33 245.94,-42.36 269.83,-60.9 283.19,-72.3"/>
<polygon fill="#9a32cd" stroke="#9a32cd" points="131.48,-9.54 121.19,-12.08 130.81,-16.51 131.48,-9.54"/>
<text text-anchor="middle" x="187" y="-36" font-family="Helvetica,sans-Serif" font-size="10.00"> max_src_dist</text>
</g>
</g>
</svg>
