<?xml version="1.0" encoding="UTF-8" standalone="no"?>
<!DOCTYPE svg PUBLIC "-//W3C//DTD SVG 1.1//EN"
 "http://www.w3.org/Graphics/SVG/1.1/DTD/svg11.dtd">
<!-- Generated by graphviz version 2.43.0 (0)
 -->
<!-- Title: horiz_interp_reals8 Pages: 1 -->
<svg width="358pt" height="246pt"
 viewBox="0.00 0.00 358.00 245.50" xmlns="http://www.w3.org/2000/svg" xmlns:xlink="http://www.w3.org/1999/xlink">
<g id="graph0" class="graph" transform="scale(1 1) rotate(0) translate(4 241.5)">
<title>horiz_interp_reals8</title>
<polygon fill="white" stroke="transparent" points="-4,4 -4,-241.5 354,-241.5 354,4 -4,4"/>
<!-- Node1 -->
<g id="node1" class="node">
<title>Node1</title>
<g id="a_node1"><a xlink:title="real(8) pointers for use in horiz_interp_type">
<polygon fill="#bfbfbf" stroke="black" points="240,-90 240,-109 350,-109 350,-90 240,-90"/>
<text text-anchor="middle" x="295" y="-97" font-family="Helvetica,sans-Serif" font-size="10.00">horiz_interp_reals8</text>
</a>
</g>
</g>
<!-- Node2 -->
<g id="node2" class="node">
<title>Node2</title>
<g id="a_node2"><a xlink:title=" ">
<polygon fill="white" stroke="#bfbfbf" points="13,-218 13,-237 121,-237 121,-218 13,-218"/>
<text text-anchor="middle" x="67" y="-225" font-family="Helvetica,sans-Serif" font-size="10.00">real(kind=r8_kind)</text>
</a>
</g>
</g>
<!-- Node2&#45;&gt;Node1 -->
<g id="edge1" class="edge">
<title>Node2&#45;&gt;Node1</title>
<path fill="none" stroke="#9a32cd" stroke-dasharray="5,2" d="M131.29,-225.63C160.75,-222.25 195.14,-214.52 222,-197.5 257.13,-175.24 280.83,-129.21 289.89,-109.17"/>
<polygon fill="#9a32cd" stroke="#9a32cd" points="130.7,-222.18 121.1,-226.66 131.39,-229.14 130.7,-222.18"/>
<text text-anchor="middle" x="187" y="-224.5" font-family="Helvetica,sans-Serif" font-size="10.00"> max_src_dist</text>
</g>
<!-- Node3 -->
<g id="node3" class="node">
<title>Node3</title>
<g id="a_node3"><a xlink:title=" ">
<polygon fill="white" stroke="#bfbfbf" points="3,-112.5 3,-142.5 131,-142.5 131,-112.5 3,-112.5"/>
<text text-anchor="start" x="11" y="-130.5" font-family="Helvetica,sans-Serif" font-size="10.00">real(kind=r8_kind),</text>
<text text-anchor="middle" x="67" y="-119.5" font-family="Helvetica,sans-Serif" font-size="10.00"> dimension(:,:), pointer</text>
</a>
</g>
</g>
<!-- Node3&#45;&gt;Node1 -->
<g id="edge2" class="edge">
<title>Node3&#45;&gt;Node1</title>
<path fill="none" stroke="#9a32cd" stroke-dasharray="5,2" d="M141.48,-118.4C173.55,-114.42 210.47,-109.85 239.96,-106.2"/>
<polygon fill="#9a32cd" stroke="#9a32cd" points="140.75,-114.96 131.25,-119.66 141.61,-121.91 140.75,-114.96"/>
<text text-anchor="middle" x="187" y="-185.5" font-family="Helvetica,sans-Serif" font-size="10.00"> area_dst</text>
<text text-anchor="middle" x="187" y="-174.5" font-family="Helvetica,sans-Serif" font-size="10.00">area_src</text>
<text text-anchor="middle" x="187" y="-163.5" font-family="Helvetica,sans-Serif" font-size="10.00">faci</text>
<text text-anchor="middle" x="187" y="-152.5" font-family="Helvetica,sans-Serif" font-size="10.00">facj</text>
<text text-anchor="middle" x="187" y="-141.5" font-family="Helvetica,sans-Serif" font-size="10.00">mask_in</text>
<text text-anchor="middle" x="187" y="-130.5" font-family="Helvetica,sans-Serif" font-size="10.00">rat_x</text>
<text text-anchor="middle" x="187" y="-119.5" font-family="Helvetica,sans-Serif" font-size="10.00">rat_y</text>
</g>
<!-- Node4 -->
<g id="node4" class="node">
<title>Node4</title>
<g id="a_node4"><a xlink:title=" ">
<polygon fill="white" stroke="#bfbfbf" points="6,-56.5 6,-86.5 128,-86.5 128,-56.5 6,-56.5"/>
<text text-anchor="start" x="14" y="-74.5" font-family="Helvetica,sans-Serif" font-size="10.00">real(kind=r8_kind),</text>
<text text-anchor="middle" x="67" y="-63.5" font-family="Helvetica,sans-Serif" font-size="10.00"> dimension(:), pointer</text>
</a>
</g>
</g>
<!-- Node4&#45;&gt;Node1 -->
<g id="edge3" class="edge">
<title>Node4&#45;&gt;Node1</title>
<path fill="none" stroke="#9a32cd" stroke-dasharray="5,2" d="M138.39,-66.06C164.81,-65.43 194.97,-66.43 222,-71.5 240.72,-75.01 260.82,-83.24 275.02,-89.88"/>
<polygon fill="#9a32cd" stroke="#9a32cd" points="137.96,-62.57 128.08,-66.38 138.18,-69.56 137.96,-62.57"/>
<text text-anchor="middle" x="187" y="-96.5" font-family="Helvetica,sans-Serif" font-size="10.00"> area_frac_dst</text>
<text text-anchor="middle" x="187" y="-85.5" font-family="Helvetica,sans-Serif" font-size="10.00">lat_in</text>
<text text-anchor="middle" x="187" y="-74.5" font-family="Helvetica,sans-Serif" font-size="10.00">lon_in</text>
</g>
<!-- Node5 -->
<g id="node5" class="node">
<title>Node5</title>
<g id="a_node5"><a xlink:title=" ">
<polygon fill="white" stroke="#bfbfbf" points="0,-0.5 0,-30.5 134,-30.5 134,-0.5 0,-0.5"/>
<text text-anchor="start" x="8" y="-18.5" font-family="Helvetica,sans-Serif" font-size="10.00">real(kind=r8_kind),</text>
<text text-anchor="middle" x="67" y="-7.5" font-family="Helvetica,sans-Serif" font-size="10.00"> dimension(:,:,:), pointer</text>
</a>
</g>
</g>
<!-- Node5&#45;&gt;Node1 -->
<g id="edge4" class="edge">
<title>Node5&#45;&gt;Node1</title>
<path fill="none" stroke="#9a32cd" stroke-dasharray="5,2" d="M144.28,-11.68C169.95,-13.03 198.12,-17.51 222,-28.5 251.82,-42.22 276.49,-73.78 287.63,-89.8"/>
<polygon fill="#9a32cd" stroke="#9a32cd" points="144.33,-8.18 134.21,-11.3 144.07,-15.18 144.33,-8.18"/>
<text text-anchor="middle" x="187" y="-53.5" font-family="Helvetica,sans-Serif" font-size="10.00"> src_dist</text>
<text text-anchor="middle" x="187" y="-42.5" font-family="Helvetica,sans-Serif" font-size="10.00">wti</text>
<text text-anchor="middle" x="187" y="-31.5" font-family="Helvetica,sans-Serif" font-size="10.00">wtj</text>
</g>
</g>
</svg>
