<?xml version="1.0" encoding="UTF-8" standalone="no"?>
<!DOCTYPE svg PUBLIC "-//W3C//DTD SVG 1.1//EN"
 "http://www.w3.org/Graphics/SVG/1.1/DTD/svg11.dtd">
<!-- Generated by graphviz version 2.43.0 (0)
 -->
<!-- Title: interpolate_type Pages: 1 -->
<svg width="1106pt" height="1550pt"
 viewBox="0.00 0.00 1106.00 1549.50" xmlns="http://www.w3.org/2000/svg" xmlns:xlink="http://www.w3.org/1999/xlink">
<g id="graph0" class="graph" transform="scale(1 1) rotate(0) translate(4 1545.5)">
<title>interpolate_type</title>
<polygon fill="white" stroke="transparent" points="-4,4 -4,-1545.5 1102,-1545.5 1102,4 -4,4"/>
<!-- Node1 -->
<g id="node1" class="node">
<title>Node1</title>
<g id="a_node1"><a xlink:title="Redundant climatology data between fields.">
<polygon fill="#bfbfbf" stroke="black" points="1001,-560 1001,-579 1098,-579 1098,-560 1001,-560"/>
<text text-anchor="middle" x="1049.5" y="-567" font-family="Helvetica,sans-Serif" font-size="10.00">interpolate_type</text>
</a>
</g>
</g>
<!-- Node2 -->
<g id="node2" class="node">
<title>Node2</title>
<g id="a_node2"><a xlink:title=" ">
<polygon fill="white" stroke="#bfbfbf" points="42.5,-585 42.5,-604 91.5,-604 91.5,-585 42.5,-585"/>
<text text-anchor="middle" x="67" y="-592" font-family="Helvetica,sans-Serif" font-size="10.00">logical</text>
</a>
</g>
</g>
<!-- Node2&#45;&gt;Node1 -->
<g id="edge1" class="edge">
<title>Node2&#45;&gt;Node1</title>
<path fill="none" stroke="#9a32cd" stroke-dasharray="5,2" d="M101.45,-588.9C148.44,-581.53 236.73,-569.5 312.5,-569.5 312.5,-569.5 312.5,-569.5 852.5,-569.5 903.2,-569.5 961.28,-569.5 1000.97,-569.5"/>
<polygon fill="#9a32cd" stroke="#9a32cd" points="100.84,-585.45 91.52,-590.48 101.95,-592.36 100.84,-585.45"/>
<text text-anchor="middle" x="603" y="-594.5" font-family="Helvetica,sans-Serif" font-size="10.00"> climatological_year</text>
<text text-anchor="middle" x="603" y="-583.5" font-family="Helvetica,sans-Serif" font-size="10.00">has_level</text>
<text text-anchor="middle" x="603" y="-572.5" font-family="Helvetica,sans-Serif" font-size="10.00">separate_time_vary_calc</text>
</g>
<!-- Node5 -->
<g id="node5" class="node">
<title>Node5</title>
<g id="a_node5"><a xlink:href="group__netcdf__io__mod.html#structnetcdf__io__mod_1_1fmsnetcdffile__t" target="_top" xlink:title="Netcdf file type.">
<polygon fill="white" stroke="black" points="806.5,-1114 806.5,-1133 896.5,-1133 896.5,-1114 806.5,-1114"/>
<text text-anchor="middle" x="851.5" y="-1121" font-family="Helvetica,sans-Serif" font-size="10.00">fmsnetcdffile_t</text>
</a>
</g>
</g>
<!-- Node2&#45;&gt;Node5 -->
<g id="edge5" class="edge">
<title>Node2&#45;&gt;Node5</title>
<path fill="none" stroke="#9a32cd" stroke-dasharray="5,2" d="M101.53,-593.15C199.94,-589.47 483.19,-581.06 517,-604.5 534.7,-616.77 524.98,-630.43 535,-649.5 639.17,-847.7 805.98,-1066.23 843.05,-1113.96"/>
<polygon fill="#9a32cd" stroke="#9a32cd" points="101.39,-589.65 91.53,-593.53 101.65,-596.65 101.39,-589.65"/>
<text text-anchor="middle" x="452" y="-673.5" font-family="Helvetica,sans-Serif" font-size="10.00"> is_diskless</text>
<text text-anchor="middle" x="452" y="-662.5" font-family="Helvetica,sans-Serif" font-size="10.00">is_netcdf4</text>
<text text-anchor="middle" x="452" y="-651.5" font-family="Helvetica,sans-Serif" font-size="10.00">is_open</text>
<text text-anchor="middle" x="452" y="-640.5" font-family="Helvetica,sans-Serif" font-size="10.00">is_readonly</text>
<text text-anchor="middle" x="452" y="-629.5" font-family="Helvetica,sans-Serif" font-size="10.00">is_restart</text>
<text text-anchor="middle" x="452" y="-618.5" font-family="Helvetica,sans-Serif" font-size="10.00">is_root</text>
<text text-anchor="middle" x="452" y="-607.5" font-family="Helvetica,sans-Serif" font-size="10.00">mode_is_append</text>
</g>
<!-- Node10 -->
<g id="node10" class="node">
<title>Node10</title>
<g id="a_node10"><a xlink:href="group__netcdf__io__mod.html#structnetcdf__io__mod_1_1restartvariable__t" target="_top" xlink:title="Restart variable.">
<polygon fill="white" stroke="black" points="554,-1016 554,-1035 652,-1035 652,-1016 554,-1016"/>
<text text-anchor="middle" x="603" y="-1023" font-family="Helvetica,sans-Serif" font-size="10.00">restartvariable_t</text>
</a>
</g>
</g>
<!-- Node2&#45;&gt;Node10 -->
<g id="edge14" class="edge">
<title>Node2&#45;&gt;Node10</title>
<path fill="none" stroke="#9a32cd" stroke-dasharray="5,2" d="M86.45,-610.85C102.54,-624.06 127.14,-641.84 152,-650.5 243.38,-682.35 280.63,-629.06 369,-668.5 379.05,-672.98 377.81,-679.45 387,-685.5 439.56,-720.07 475.17,-694.51 517,-741.5 592.63,-826.45 601.03,-976.38 601.91,-1015.79"/>
<polygon fill="#9a32cd" stroke="#9a32cd" points="88.33,-607.86 78.44,-604.07 83.81,-613.2 88.33,-607.86"/>
<text text-anchor="middle" x="313.5" y="-682.5" font-family="Helvetica,sans-Serif" font-size="10.00"> is_bc_variable</text>
<text text-anchor="middle" x="313.5" y="-671.5" font-family="Helvetica,sans-Serif" font-size="10.00">was_read</text>
</g>
<!-- Node17 -->
<g id="node17" class="node">
<title>Node17</title>
<g id="a_node17"><a xlink:href="group__netcdf__io__mod.html#structnetcdf__io__mod_1_1bc__information" target="_top" xlink:title="information needed fr regional restart variables">
<polygon fill="white" stroke="black" points="268.5,-749 268.5,-768 358.5,-768 358.5,-749 268.5,-749"/>
<text text-anchor="middle" x="313.5" y="-756" font-family="Helvetica,sans-Serif" font-size="10.00">bc_information</text>
</a>
</g>
</g>
<!-- Node2&#45;&gt;Node17 -->
<g id="edge23" class="edge">
<title>Node2&#45;&gt;Node17</title>
<path fill="none" stroke="#9a32cd" stroke-dasharray="5,2" d="M82.74,-612.03C98.44,-629.85 124.76,-657.36 152,-675.5 187.46,-699.11 207.05,-686.5 240,-713.5 250.87,-722.41 246.81,-730.99 258,-739.5 263.02,-743.32 268.88,-746.41 274.84,-748.9"/>
<polygon fill="#9a32cd" stroke="#9a32cd" points="85.11,-609.42 75.92,-604.14 79.81,-614 85.11,-609.42"/>
<text text-anchor="middle" x="196" y="-727.5" font-family="Helvetica,sans-Serif" font-size="10.00"> data_on_file_root</text>
<text text-anchor="middle" x="196" y="-716.5" font-family="Helvetica,sans-Serif" font-size="10.00">is_root_pe</text>
</g>
<!-- Node21 -->
<g id="node21" class="node">
<title>Node21</title>
<g id="a_node21"><a xlink:href="group__horiz__interp__type__mod.html#structhoriz__interp__type__mod_1_1horiz__interp__type" target="_top" xlink:title="Holds data pointers and metadata for horizontal interpolations, passed between the horiz_interp modul...">
<polygon fill="white" stroke="black" points="552.5,-510 552.5,-529 653.5,-529 653.5,-510 552.5,-510"/>
<text text-anchor="middle" x="603" y="-517" font-family="Helvetica,sans-Serif" font-size="10.00">horiz_interp_type</text>
</a>
</g>
</g>
<!-- Node2&#45;&gt;Node21 -->
<g id="edge30" class="edge">
<title>Node2&#45;&gt;Node21</title>
<path fill="none" stroke="#9a32cd" stroke-dasharray="5,2" d="M96.98,-580.61C112.95,-573.33 133.28,-564.67 152,-558.5 291.46,-512.55 467.66,-512.96 552.24,-516.49"/>
<polygon fill="#9a32cd" stroke="#9a32cd" points="95.26,-577.55 87.65,-584.93 98.2,-583.9 95.26,-577.55"/>
<text text-anchor="middle" x="313.5" y="-546.5" font-family="Helvetica,sans-Serif" font-size="10.00"> found_neighbors</text>
<text text-anchor="middle" x="313.5" y="-535.5" font-family="Helvetica,sans-Serif" font-size="10.00">i_am_initialized</text>
</g>
<!-- Node3 -->
<g id="node3" class="node">
<title>Node3</title>
<g id="a_node3"><a xlink:href="group__time__manager__mod.html#structtime__manager__mod_1_1time__type" target="_top" xlink:title="Type to represent amounts of time. Implemented as seconds and days to allow for larger intervals.">
<polygon fill="white" stroke="black" points="419,-1386 419,-1405 485,-1405 485,-1386 419,-1386"/>
<text text-anchor="middle" x="452" y="-1393" font-family="Helvetica,sans-Serif" font-size="10.00">time_type</text>
</a>
</g>
</g>
<!-- Node3&#45;&gt;Node1 -->
<g id="edge2" class="edge">
<title>Node3&#45;&gt;Node1</title>
<path fill="none" stroke="#9a32cd" stroke-dasharray="5,2" d="M495.57,-1396.79C562.17,-1396.75 692.53,-1388.25 781,-1328.5 1054.25,-1143.95 1051.03,-654.63 1048.86,-579.29"/>
<polygon fill="#9a32cd" stroke="#9a32cd" points="495.46,-1393.28 485.44,-1396.72 495.42,-1400.28 495.46,-1393.28"/>
<text text-anchor="middle" x="735" y="-1383.5" font-family="Helvetica,sans-Serif" font-size="10.00"> clim_times</text>
<text text-anchor="middle" x="735" y="-1372.5" font-family="Helvetica,sans-Serif" font-size="10.00">time_slice</text>
</g>
<!-- Node4 -->
<g id="node4" class="node">
<title>Node4</title>
<g id="a_node4"><a xlink:title=" ">
<polygon fill="white" stroke="#bfbfbf" points="41.5,-1300 41.5,-1319 92.5,-1319 92.5,-1300 41.5,-1300"/>
<text text-anchor="middle" x="67" y="-1307" font-family="Helvetica,sans-Serif" font-size="10.00">integer</text>
</a>
</g>
</g>
<!-- Node4&#45;&gt;Node1 -->
<g id="edge43" class="edge">
<title>Node4&#45;&gt;Node1</title>
<path fill="none" stroke="#9a32cd" stroke-dasharray="5,2" d="M77.88,-1327.85C91.31,-1350.73 117.63,-1388.95 152,-1406.5 215.77,-1439.06 240.9,-1420.5 312.5,-1420.5 312.5,-1420.5 312.5,-1420.5 852.5,-1420.5 1034.43,-1420.5 1047.51,-672.55 1048.43,-579.06"/>
<polygon fill="#9a32cd" stroke="#9a32cd" points="80.9,-1326.08 72.93,-1319.09 74.8,-1329.52 80.9,-1326.08"/>
<text text-anchor="middle" x="603" y="-1533.5" font-family="Helvetica,sans-Serif" font-size="10.00"> climatology</text>
<text text-anchor="middle" x="603" y="-1522.5" font-family="Helvetica,sans-Serif" font-size="10.00">ie</text>
<text text-anchor="middle" x="603" y="-1511.5" font-family="Helvetica,sans-Serif" font-size="10.00">indexm</text>
<text text-anchor="middle" x="603" y="-1500.5" font-family="Helvetica,sans-Serif" font-size="10.00">indexp</text>
<text text-anchor="middle" x="603" y="-1489.5" font-family="Helvetica,sans-Serif" font-size="10.00">is</text>
<text text-anchor="middle" x="603" y="-1478.5" font-family="Helvetica,sans-Serif" font-size="10.00">itaum</text>
<text text-anchor="middle" x="603" y="-1467.5" font-family="Helvetica,sans-Serif" font-size="10.00">itaup</text>
<text text-anchor="middle" x="603" y="-1456.5" font-family="Helvetica,sans-Serif" font-size="10.00">je</text>
<text text-anchor="middle" x="603" y="-1445.5" font-family="Helvetica,sans-Serif" font-size="10.00">js</text>
<text text-anchor="middle" x="603" y="-1434.5" font-family="Helvetica,sans-Serif" font-size="10.00">level_type</text>
<text text-anchor="middle" x="603" y="-1423.5" font-family="Helvetica,sans-Serif" font-size="10.00">...</text>
</g>
<!-- Node4&#45;&gt;Node3 -->
<g id="edge3" class="edge">
<title>Node4&#45;&gt;Node3</title>
<path fill="none" stroke="#9a32cd" stroke-dasharray="5,2" d="M93.71,-1323.72C109.97,-1332.14 131.68,-1342.32 152,-1348.5 246.51,-1377.25 363.46,-1389.12 418.92,-1393.4"/>
<polygon fill="#9a32cd" stroke="#9a32cd" points="95.3,-1320.6 84.82,-1319.02 92.02,-1326.79 95.3,-1320.6"/>
<text text-anchor="middle" x="196" y="-1394.5" font-family="Helvetica,sans-Serif" font-size="10.00"> days</text>
<text text-anchor="middle" x="196" y="-1383.5" font-family="Helvetica,sans-Serif" font-size="10.00">seconds</text>
<text text-anchor="middle" x="196" y="-1372.5" font-family="Helvetica,sans-Serif" font-size="10.00">ticks</text>
</g>
<!-- Node4&#45;&gt;Node5 -->
<g id="edge28" class="edge">
<title>Node4&#45;&gt;Node5</title>
<path fill="none" stroke="#9a32cd" stroke-dasharray="5,2" d="M102.62,-1312.22C140.68,-1315.04 203.65,-1319.22 258,-1320.5 307.32,-1321.66 321.24,-1332.87 369,-1320.5 377.86,-1318.2 378.22,-1313.08 387,-1310.5 471.19,-1285.81 714.62,-1342.87 781,-1285.5 810.22,-1260.25 783.99,-1236.08 799,-1200.5 810.12,-1174.12 830.68,-1147.2 842.17,-1133.24"/>
<polygon fill="#9a32cd" stroke="#9a32cd" points="102.81,-1308.72 92.57,-1311.46 102.28,-1315.7 102.81,-1308.72"/>
<text text-anchor="middle" x="452" y="-1368.5" font-family="Helvetica,sans-Serif" font-size="10.00"> io_root</text>
<text text-anchor="middle" x="452" y="-1357.5" font-family="Helvetica,sans-Serif" font-size="10.00">ncid</text>
<text text-anchor="start" x="408.5" y="-1346.5" font-family="Helvetica,sans-Serif" font-size="10.00">num_compressed</text>
<text text-anchor="middle" x="452" y="-1335.5" font-family="Helvetica,sans-Serif" font-size="10.00">_dims</text>
<text text-anchor="middle" x="452" y="-1324.5" font-family="Helvetica,sans-Serif" font-size="10.00">num_restart_vars</text>
<text text-anchor="middle" x="452" y="-1313.5" font-family="Helvetica,sans-Serif" font-size="10.00">pelist</text>
</g>
<!-- Node8 -->
<g id="node8" class="node">
<title>Node8</title>
<g id="a_node8"><a xlink:href="group__netcdf__io__mod.html#structnetcdf__io__mod_1_1compresseddimension__t" target="_top" xlink:title="Compressed dimension.">
<polygon fill="white" stroke="black" points="535,-1259 535,-1278 671,-1278 671,-1259 535,-1259"/>
<text text-anchor="middle" x="603" y="-1266" font-family="Helvetica,sans-Serif" font-size="10.00">compresseddimension_t</text>
</a>
</g>
</g>
<!-- Node4&#45;&gt;Node8 -->
<g id="edge10" class="edge">
<title>Node4&#45;&gt;Node8</title>
<path fill="none" stroke="#9a32cd" stroke-dasharray="5,2" d="M102.86,-1310.07C138.01,-1309.85 193.56,-1307.34 240,-1295.5 248.48,-1293.34 249.49,-1289.55 258,-1287.5 352.05,-1264.81 464.58,-1263.21 534.69,-1265.1"/>
<polygon fill="#9a32cd" stroke="#9a32cd" points="102.64,-1306.57 92.64,-1310.07 102.64,-1313.57 102.64,-1306.57"/>
<text text-anchor="middle" x="313.5" y="-1312.5" font-family="Helvetica,sans-Serif" font-size="10.00"> nelems</text>
<text text-anchor="middle" x="313.5" y="-1301.5" font-family="Helvetica,sans-Serif" font-size="10.00">npes_corner</text>
<text text-anchor="middle" x="313.5" y="-1290.5" font-family="Helvetica,sans-Serif" font-size="10.00">npes_nelems</text>
</g>
<!-- Node9 -->
<g id="node9" class="node">
<title>Node9</title>
<g id="a_node9"><a xlink:href="group__netcdf__io__mod.html#structnetcdf__io__mod_1_1dimension__information" target="_top" xlink:title="information about the current dimensions for regional restart variables">
<polygon fill="white" stroke="black" points="387,-1221 387,-1240 517,-1240 517,-1221 387,-1221"/>
<text text-anchor="middle" x="452" y="-1228" font-family="Helvetica,sans-Serif" font-size="10.00">dimension_information</text>
</a>
</g>
</g>
<!-- Node4&#45;&gt;Node9 -->
<g id="edge12" class="edge">
<title>Node4&#45;&gt;Node9</title>
<path fill="none" stroke="#9a32cd" stroke-dasharray="5,2" d="M73.33,-1290.36C83.1,-1259.44 107.1,-1199.44 152,-1174.5 186.19,-1155.51 206.49,-1154.33 240,-1174.5 254.65,-1183.32 243.88,-1198.86 258,-1208.5 295.33,-1233.97 346.46,-1238.8 386.71,-1237.62"/>
<polygon fill="#9a32cd" stroke="#9a32cd" points="69.96,-1289.4 70.46,-1299.98 76.67,-1291.4 69.96,-1289.4"/>
<text text-anchor="middle" x="196" y="-1287.5" font-family="Helvetica,sans-Serif" font-size="10.00"> cur_dim_len</text>
<text text-anchor="middle" x="196" y="-1276.5" font-family="Helvetica,sans-Serif" font-size="10.00">dimension</text>
<text text-anchor="middle" x="196" y="-1265.5" font-family="Helvetica,sans-Serif" font-size="10.00">each</text>
<text text-anchor="middle" x="196" y="-1254.5" font-family="Helvetica,sans-Serif" font-size="10.00">number</text>
<text text-anchor="middle" x="196" y="-1243.5" font-family="Helvetica,sans-Serif" font-size="10.00">of</text>
<text text-anchor="middle" x="196" y="-1232.5" font-family="Helvetica,sans-Serif" font-size="10.00">size</text>
<text text-anchor="middle" x="196" y="-1221.5" font-family="Helvetica,sans-Serif" font-size="10.00">the</text>
<text text-anchor="middle" x="196" y="-1210.5" font-family="Helvetica,sans-Serif" font-size="10.00">unique</text>
<text text-anchor="middle" x="196" y="-1199.5" font-family="Helvetica,sans-Serif" font-size="10.00">x</text>
<text text-anchor="middle" x="196" y="-1188.5" font-family="Helvetica,sans-Serif" font-size="10.00">xlen</text>
<text text-anchor="middle" x="196" y="-1177.5" font-family="Helvetica,sans-Serif" font-size="10.00">...</text>
</g>
<!-- Node4&#45;&gt;Node17 -->
<g id="edge27" class="edge">
<title>Node4&#45;&gt;Node17</title>
<path fill="none" stroke="#9a32cd" stroke-dasharray="5,2" d="M68.08,-1289.42C68.86,-1201.28 76.71,-849.93 152,-777.5 168.13,-761.99 226.46,-758.43 268.15,-757.95"/>
<polygon fill="#9a32cd" stroke="#9a32cd" points="64.58,-1289.62 68.01,-1299.65 71.58,-1289.67 64.58,-1289.62"/>
<text text-anchor="middle" x="196" y="-846.5" font-family="Helvetica,sans-Serif" font-size="10.00"> global_size</text>
<text text-anchor="middle" x="196" y="-835.5" font-family="Helvetica,sans-Serif" font-size="10.00">indices</text>
<text text-anchor="middle" x="196" y="-824.5" font-family="Helvetica,sans-Serif" font-size="10.00">ishift</text>
<text text-anchor="middle" x="196" y="-813.5" font-family="Helvetica,sans-Serif" font-size="10.00">jshift</text>
<text text-anchor="middle" x="196" y="-802.5" font-family="Helvetica,sans-Serif" font-size="10.00">pelist</text>
<text text-anchor="middle" x="196" y="-791.5" font-family="Helvetica,sans-Serif" font-size="10.00">x_halo</text>
<text text-anchor="middle" x="196" y="-780.5" font-family="Helvetica,sans-Serif" font-size="10.00">y_halo</text>
</g>
<!-- Node4&#45;&gt;Node21 -->
<g id="edge36" class="edge">
<title>Node4&#45;&gt;Node21</title>
<path fill="none" stroke="#9a32cd" stroke-dasharray="5,2" d="M75.12,-1290.29C108.54,-1200.18 248.63,-823.46 258,-814.5 295.58,-778.56 321.77,-799.25 369,-777.5 438.72,-745.39 475.05,-752.78 517,-688.5 551.53,-635.59 496.72,-597.76 535,-547.5 541.42,-539.08 550.84,-533.17 560.6,-529.03"/>
<polygon fill="#9a32cd" stroke="#9a32cd" points="71.78,-1289.22 71.59,-1299.81 78.35,-1291.65 71.78,-1289.22"/>
<text text-anchor="middle" x="313.5" y="-927.5" font-family="Helvetica,sans-Serif" font-size="10.00"> i_dst</text>
<text text-anchor="middle" x="313.5" y="-916.5" font-family="Helvetica,sans-Serif" font-size="10.00">i_lon</text>
<text text-anchor="middle" x="313.5" y="-905.5" font-family="Helvetica,sans-Serif" font-size="10.00">i_src</text>
<text text-anchor="middle" x="313.5" y="-894.5" font-family="Helvetica,sans-Serif" font-size="10.00">ilon</text>
<text text-anchor="middle" x="313.5" y="-883.5" font-family="Helvetica,sans-Serif" font-size="10.00">interp_method</text>
<text text-anchor="middle" x="313.5" y="-872.5" font-family="Helvetica,sans-Serif" font-size="10.00">j_dst</text>
<text text-anchor="middle" x="313.5" y="-861.5" font-family="Helvetica,sans-Serif" font-size="10.00">j_lat</text>
<text text-anchor="middle" x="313.5" y="-850.5" font-family="Helvetica,sans-Serif" font-size="10.00">j_src</text>
<text text-anchor="middle" x="313.5" y="-839.5" font-family="Helvetica,sans-Serif" font-size="10.00">jlat</text>
<text text-anchor="middle" x="313.5" y="-828.5" font-family="Helvetica,sans-Serif" font-size="10.00">nlat_dst</text>
<text text-anchor="middle" x="313.5" y="-817.5" font-family="Helvetica,sans-Serif" font-size="10.00">...</text>
</g>
<!-- Node5&#45;&gt;Node1 -->
<g id="edge4" class="edge">
<title>Node5&#45;&gt;Node1</title>
<path fill="none" stroke="#9a32cd" stroke-dasharray="5,2" d="M859.31,-1104.25C890.81,-1015.21 1021.87,-644.76 1045,-579.38"/>
<polygon fill="#9a32cd" stroke="#9a32cd" points="855.94,-1103.29 855.9,-1113.88 862.54,-1105.62 855.94,-1103.29"/>
<text text-anchor="middle" x="952.5" y="-914.5" font-family="Helvetica,sans-Serif" font-size="10.00"> fileobj</text>
</g>
<!-- Node6 -->
<g id="node6" class="node">
<title>Node6</title>
<g id="a_node6"><a xlink:title=" ">
<polygon fill="white" stroke="#bfbfbf" points="258,-1180 258,-1199 369,-1199 369,-1180 258,-1180"/>
<text text-anchor="middle" x="313.5" y="-1187" font-family="Helvetica,sans-Serif" font-size="10.00">character(len=256)</text>
</a>
</g>
</g>
<!-- Node6&#45;&gt;Node5 -->
<g id="edge6" class="edge">
<title>Node6&#45;&gt;Node5</title>
<path fill="none" stroke="#9a32cd" stroke-dasharray="5,2" d="M379.36,-1181.51C489.93,-1167.9 712.07,-1140.55 806.46,-1128.92"/>
<polygon fill="#9a32cd" stroke="#9a32cd" points="378.84,-1178.05 369.34,-1182.75 379.7,-1185 378.84,-1178.05"/>
<text text-anchor="middle" x="603" y="-1175.5" font-family="Helvetica,sans-Serif" font-size="10.00"> nc_format</text>
<text text-anchor="middle" x="603" y="-1164.5" font-family="Helvetica,sans-Serif" font-size="10.00">path</text>
</g>
<!-- Node6&#45;&gt;Node8 -->
<g id="edge9" class="edge">
<title>Node6&#45;&gt;Node8</title>
<path fill="none" stroke="#9a32cd" stroke-dasharray="5,2" d="M379.58,-1186.88C430.26,-1186.12 495.5,-1188.37 517,-1203.5 533.28,-1214.95 520.45,-1230.93 535,-1244.5 541.78,-1250.82 550.33,-1255.5 559.05,-1258.95"/>
<polygon fill="#9a32cd" stroke="#9a32cd" points="379.26,-1183.38 369.33,-1187.08 379.4,-1190.38 379.26,-1183.38"/>
<text text-anchor="middle" x="452" y="-1206.5" font-family="Helvetica,sans-Serif" font-size="10.00"> dimname</text>
</g>
<!-- Node6&#45;&gt;Node10 -->
<g id="edge19" class="edge">
<title>Node6&#45;&gt;Node10</title>
<path fill="none" stroke="#9a32cd" stroke-dasharray="5,2" d="M360.58,-1175.74C363.53,-1174.16 366.37,-1172.42 369,-1170.5 379.76,-1162.63 375.64,-1153.48 387,-1146.5 436.99,-1115.77 465.96,-1152.44 517,-1123.5 555.6,-1101.62 585.13,-1055.38 596.69,-1035.23"/>
<polygon fill="#9a32cd" stroke="#9a32cd" points="359.06,-1172.58 351.46,-1179.97 362.01,-1178.93 359.06,-1172.58"/>
<text text-anchor="middle" x="452" y="-1149.5" font-family="Helvetica,sans-Serif" font-size="10.00"> varname</text>
</g>
<!-- Node7 -->
<g id="node7" class="node">
<title>Node7</title>
<g id="a_node7"><a xlink:title=" ">
<polygon fill="white" stroke="#bfbfbf" points="550.5,-621 550.5,-640 655.5,-640 655.5,-621 550.5,-621"/>
<text text-anchor="middle" x="603" y="-628" font-family="Helvetica,sans-Serif" font-size="10.00">character(len=20)</text>
</a>
</g>
</g>
<!-- Node7&#45;&gt;Node5 -->
<g id="edge7" class="edge">
<title>Node7&#45;&gt;Node5</title>
<path fill="none" stroke="#9a32cd" stroke-dasharray="5,2" d="M651.83,-619.24C691.6,-612.96 746.99,-611.81 781,-643.5 852.61,-710.23 851.47,-1051.67 850.66,-1113.8"/>
<polygon fill="#9a32cd" stroke="#9a32cd" points="651.08,-615.82 641.83,-620.98 652.28,-622.72 651.08,-615.82"/>
<text text-anchor="middle" x="735" y="-646.5" font-family="Helvetica,sans-Serif" font-size="10.00"> time_name</text>
</g>
<!-- Node8&#45;&gt;Node5 -->
<g id="edge8" class="edge">
<title>Node8&#45;&gt;Node5</title>
<path fill="none" stroke="#9a32cd" stroke-dasharray="5,2" d="M681.32,-1272.13C714.44,-1270.19 752.08,-1262.99 781,-1243.5 821.53,-1216.18 841.48,-1156.73 848.01,-1133.29"/>
<polygon fill="#9a32cd" stroke="#9a32cd" points="681.03,-1268.64 671.19,-1272.57 681.34,-1275.63 681.03,-1268.64"/>
<text text-anchor="middle" x="735" y="-1273.5" font-family="Helvetica,sans-Serif" font-size="10.00"> compressed_dims</text>
</g>
<!-- Node9&#45;&gt;Node5 -->
<g id="edge11" class="edge">
<title>Node9&#45;&gt;Node5</title>
<path fill="none" stroke="#9a32cd" stroke-dasharray="5,2" d="M527.42,-1232.46C596.24,-1231.51 699.84,-1222.96 781,-1185.5 807.43,-1173.3 831.05,-1147.61 842.75,-1133.42"/>
<polygon fill="#9a32cd" stroke="#9a32cd" points="527.07,-1228.96 517.1,-1232.54 527.13,-1235.96 527.07,-1228.96"/>
<text text-anchor="middle" x="603" y="-1234.5" font-family="Helvetica,sans-Serif" font-size="10.00"> bc_dimensions</text>
</g>
<!-- Node10&#45;&gt;Node5 -->
<g id="edge13" class="edge">
<title>Node10&#45;&gt;Node5</title>
<path fill="none" stroke="#9a32cd" stroke-dasharray="5,2" d="M637.56,-1038.84C687.98,-1058.89 782.06,-1096.29 826.32,-1113.89"/>
<polygon fill="#9a32cd" stroke="#9a32cd" points="638.67,-1035.52 628.08,-1035.08 636.08,-1042.02 638.67,-1035.52"/>
<text text-anchor="middle" x="735" y="-1097.5" font-family="Helvetica,sans-Serif" font-size="10.00"> restart_vars</text>
</g>
<!-- Node11 -->
<g id="node11" class="node">
<title>Node11</title>
<g id="a_node11"><a xlink:title=" ">
<polygon fill="white" stroke="#bfbfbf" points="258,-1130.5 258,-1160.5 369,-1160.5 369,-1130.5 258,-1130.5"/>
<text text-anchor="start" x="266" y="-1148.5" font-family="Helvetica,sans-Serif" font-size="10.00">class(*), dimension</text>
<text text-anchor="middle" x="313.5" y="-1137.5" font-family="Helvetica,sans-Serif" font-size="10.00">(:,:,:), pointer</text>
</a>
</g>
</g>
<!-- Node11&#45;&gt;Node10 -->
<g id="edge15" class="edge">
<title>Node11&#45;&gt;Node10</title>
<path fill="none" stroke="#9a32cd" stroke-dasharray="5,2" d="M358.73,-1126.24C362.21,-1124.66 365.67,-1123.06 369,-1121.5 377.1,-1117.7 378.51,-1115.31 387,-1112.5 442.71,-1094.08 463.19,-1112.9 517,-1089.5 547.83,-1076.09 577.79,-1049.4 592.53,-1035.09"/>
<polygon fill="#9a32cd" stroke="#9a32cd" points="357.19,-1123.1 349.5,-1130.39 360.06,-1129.48 357.19,-1123.1"/>
<text text-anchor="middle" x="452" y="-1115.5" font-family="Helvetica,sans-Serif" font-size="10.00"> data3d</text>
</g>
<!-- Node12 -->
<g id="node12" class="node">
<title>Node12</title>
<g id="a_node12"><a xlink:title=" ">
<polygon fill="white" stroke="#bfbfbf" points="258,-1081.5 258,-1111.5 369,-1111.5 369,-1081.5 258,-1081.5"/>
<text text-anchor="start" x="266" y="-1099.5" font-family="Helvetica,sans-Serif" font-size="10.00">class(*), dimension</text>
<text text-anchor="middle" x="313.5" y="-1088.5" font-family="Helvetica,sans-Serif" font-size="10.00">(:,:), pointer</text>
</a>
</g>
</g>
<!-- Node12&#45;&gt;Node10 -->
<g id="edge16" class="edge">
<title>Node12&#45;&gt;Node10</title>
<path fill="none" stroke="#9a32cd" stroke-dasharray="5,2" d="M378.94,-1080.26C381.66,-1079.65 384.36,-1079.06 387,-1078.5 444.4,-1066.31 460.26,-1070.43 517,-1055.5 538.04,-1049.97 561.29,-1041.6 578.15,-1035.1"/>
<polygon fill="#9a32cd" stroke="#9a32cd" points="378,-1076.89 369.04,-1082.54 379.57,-1083.71 378,-1076.89"/>
<text text-anchor="middle" x="452" y="-1081.5" font-family="Helvetica,sans-Serif" font-size="10.00"> data2d</text>
</g>
<!-- Node13 -->
<g id="node13" class="node">
<title>Node13</title>
<g id="a_node13"><a xlink:title=" ">
<polygon fill="white" stroke="#bfbfbf" points="258,-1032.5 258,-1062.5 369,-1062.5 369,-1032.5 258,-1032.5"/>
<text text-anchor="start" x="266" y="-1050.5" font-family="Helvetica,sans-Serif" font-size="10.00">class(*), dimension</text>
<text text-anchor="middle" x="313.5" y="-1039.5" font-family="Helvetica,sans-Serif" font-size="10.00">(:,:,:,:,:), pointer</text>
</a>
</g>
</g>
<!-- Node13&#45;&gt;Node10 -->
<g id="edge17" class="edge">
<title>Node13&#45;&gt;Node10</title>
<path fill="none" stroke="#9a32cd" stroke-dasharray="5,2" d="M379.54,-1042.52C432.43,-1038.48 505.88,-1032.86 553.66,-1029.2"/>
<polygon fill="#9a32cd" stroke="#9a32cd" points="378.96,-1039.06 369.25,-1043.31 379.49,-1046.04 378.96,-1039.06"/>
<text text-anchor="middle" x="452" y="-1044.5" font-family="Helvetica,sans-Serif" font-size="10.00"> data5d</text>
</g>
<!-- Node14 -->
<g id="node14" class="node">
<title>Node14</title>
<g id="a_node14"><a xlink:title=" ">
<polygon fill="white" stroke="#bfbfbf" points="266,-994 266,-1013 361,-1013 361,-994 266,-994"/>
<text text-anchor="middle" x="313.5" y="-1001" font-family="Helvetica,sans-Serif" font-size="10.00">class(*), pointer</text>
</a>
</g>
</g>
<!-- Node14&#45;&gt;Node10 -->
<g id="edge18" class="edge">
<title>Node14&#45;&gt;Node10</title>
<path fill="none" stroke="#9a32cd" stroke-dasharray="5,2" d="M371.16,-1007.04C411.78,-1009.67 467.78,-1013.48 517,-1017.5 528.97,-1018.48 541.87,-1019.64 553.92,-1020.76"/>
<polygon fill="#9a32cd" stroke="#9a32cd" points="371.38,-1003.55 361.17,-1006.4 370.93,-1010.53 371.38,-1003.55"/>
<text text-anchor="middle" x="452" y="-1020.5" font-family="Helvetica,sans-Serif" font-size="10.00"> data0d</text>
</g>
<!-- Node15 -->
<g id="node15" class="node">
<title>Node15</title>
<g id="a_node15"><a xlink:title=" ">
<polygon fill="white" stroke="#bfbfbf" points="258,-944.5 258,-974.5 369,-974.5 369,-944.5 258,-944.5"/>
<text text-anchor="start" x="266" y="-962.5" font-family="Helvetica,sans-Serif" font-size="10.00">class(*), dimension</text>
<text text-anchor="middle" x="313.5" y="-951.5" font-family="Helvetica,sans-Serif" font-size="10.00">(:,:,:,:), pointer</text>
</a>
</g>
</g>
<!-- Node15&#45;&gt;Node10 -->
<g id="edge20" class="edge">
<title>Node15&#45;&gt;Node10</title>
<path fill="none" stroke="#9a32cd" stroke-dasharray="5,2" d="M379.23,-966.55C419.35,-971.78 471.69,-980.16 517,-992.5 539.45,-998.62 564.15,-1008.59 581.1,-1015.97"/>
<polygon fill="#9a32cd" stroke="#9a32cd" points="379.67,-963.08 369.31,-965.29 378.79,-970.02 379.67,-963.08"/>
<text text-anchor="middle" x="452" y="-995.5" font-family="Helvetica,sans-Serif" font-size="10.00"> data4d</text>
</g>
<!-- Node16 -->
<g id="node16" class="node">
<title>Node16</title>
<g id="a_node16"><a xlink:title=" ">
<polygon fill="white" stroke="#bfbfbf" points="258,-699.5 258,-729.5 369,-729.5 369,-699.5 258,-699.5"/>
<text text-anchor="start" x="266" y="-717.5" font-family="Helvetica,sans-Serif" font-size="10.00">class(*), dimension</text>
<text text-anchor="middle" x="313.5" y="-706.5" font-family="Helvetica,sans-Serif" font-size="10.00">(:), pointer</text>
</a>
</g>
</g>
<!-- Node16&#45;&gt;Node10 -->
<g id="edge21" class="edge">
<title>Node16&#45;&gt;Node10</title>
<path fill="none" stroke="#9a32cd" stroke-dasharray="5,2" d="M363.69,-733.63C408.99,-753.48 475.3,-788.52 517,-837.5 566.23,-895.32 592.21,-986.31 599.69,-1015.87"/>
<polygon fill="#9a32cd" stroke="#9a32cd" points="364.93,-730.35 354.36,-729.63 362.17,-736.79 364.93,-730.35"/>
<text text-anchor="middle" x="452" y="-840.5" font-family="Helvetica,sans-Serif" font-size="10.00"> data1d</text>
</g>
<!-- Node17&#45;&gt;Node10 -->
<g id="edge22" class="edge">
<title>Node17&#45;&gt;Node10</title>
<path fill="none" stroke="#9a32cd" stroke-dasharray="5,2" d="M357.9,-772.98C362.04,-775.65 365.86,-778.8 369,-782.5 389.79,-806.99 369.3,-825.69 387,-852.5 427.15,-913.34 460.44,-906.51 517,-952.5 544.17,-974.59 575.15,-1001.71 591.16,-1015.86"/>
<polygon fill="#9a32cd" stroke="#9a32cd" points="359.5,-769.87 349.05,-768.12 356.14,-776 359.5,-769.87"/>
<text text-anchor="middle" x="452" y="-955.5" font-family="Helvetica,sans-Serif" font-size="10.00"> bc_info</text>
</g>
<!-- Node18 -->
<g id="node18" class="node">
<title>Node18</title>
<g id="a_node18"><a xlink:title=" ">
<polygon fill="white" stroke="#bfbfbf" points="13,-528 13,-547 121,-547 121,-528 13,-528"/>
<text text-anchor="middle" x="67" y="-535" font-family="Helvetica,sans-Serif" font-size="10.00">real(kind=r8_kind)</text>
</a>
</g>
</g>
<!-- Node18&#45;&gt;Node17 -->
<g id="edge24" class="edge">
<title>Node18&#45;&gt;Node17</title>
<path fill="none" stroke="#9a32cd" stroke-dasharray="5,2" d="M94.41,-552.01C106.61,-558.89 121.19,-567.36 134,-575.5 182.5,-606.31 208.54,-601.42 240,-649.5 262.33,-683.64 231.21,-708.73 258,-739.5 261.36,-743.35 265.54,-746.43 270.08,-748.88"/>
<polygon fill="#9a32cd" stroke="#9a32cd" points="96.05,-548.92 85.62,-547.09 92.64,-555.03 96.05,-548.92"/>
<text text-anchor="middle" x="196" y="-663.5" font-family="Helvetica,sans-Serif" font-size="10.00"> globaldata2d_r8</text>
<text text-anchor="middle" x="196" y="-652.5" font-family="Helvetica,sans-Serif" font-size="10.00">globaldata3d_r8</text>
</g>
<!-- Node22 -->
<g id="node22" class="node">
<title>Node22</title>
<g id="a_node22"><a xlink:href="structhoriz__interp__type__mod_1_1horiz__interp__reals8.html" target="_top" xlink:title="real(8) pointers for use in horiz_interp_type">
<polygon fill="white" stroke="black" points="258.5,-408 258.5,-427 368.5,-427 368.5,-408 258.5,-408"/>
<text text-anchor="middle" x="313.5" y="-415" font-family="Helvetica,sans-Serif" font-size="10.00">horiz_interp_reals8</text>
</a>
</g>
</g>
<!-- Node18&#45;&gt;Node22 -->
<g id="edge32" class="edge">
<title>Node18&#45;&gt;Node22</title>
<path fill="none" stroke="#9a32cd" stroke-dasharray="5,2" d="M120.64,-525.74C169.24,-514.75 234.72,-499.6 240,-496.5 270.34,-478.68 295.4,-444.11 306.44,-427.24"/>
<polygon fill="#9a32cd" stroke="#9a32cd" points="119.84,-522.33 110.85,-527.94 121.38,-529.16 119.84,-522.33"/>
<text text-anchor="middle" x="196" y="-520.5" font-family="Helvetica,sans-Serif" font-size="10.00"> max_src_dist</text>
</g>
<!-- Node19 -->
<g id="node19" class="node">
<title>Node19</title>
<g id="a_node19"><a xlink:title=" ">
<polygon fill="white" stroke="#bfbfbf" points="13,-280 13,-299 121,-299 121,-280 13,-280"/>
<text text-anchor="middle" x="67" y="-287" font-family="Helvetica,sans-Serif" font-size="10.00">real(kind=r4_kind)</text>
</a>
</g>
</g>
<!-- Node19&#45;&gt;Node17 -->
<g id="edge25" class="edge">
<title>Node19&#45;&gt;Node17</title>
<path fill="none" stroke="#9a32cd" stroke-dasharray="5,2" d="M129.65,-304.18C131.21,-305.5 132.66,-306.94 134,-308.5 175.65,-357.17 108.73,-404.27 152,-451.5 179.03,-481 213.84,-440.22 240,-470.5 279.17,-515.84 221.69,-691.84 258,-739.5 260.98,-743.41 264.81,-746.51 269.06,-748.98"/>
<polygon fill="#9a32cd" stroke="#9a32cd" points="131.42,-301.15 121.17,-298.47 127.51,-306.96 131.42,-301.15"/>
<text text-anchor="middle" x="196" y="-484.5" font-family="Helvetica,sans-Serif" font-size="10.00"> globaldata2d_r4</text>
<text text-anchor="middle" x="196" y="-473.5" font-family="Helvetica,sans-Serif" font-size="10.00">globaldata3d_r4</text>
</g>
<!-- Node26 -->
<g id="node26" class="node">
<title>Node26</title>
<g id="a_node26"><a xlink:href="structhoriz__interp__type__mod_1_1horiz__interp__reals4.html" target="_top" xlink:title="holds real(4) pointers for use in horiz_interp_type">
<polygon fill="white" stroke="black" points="258.5,-118 258.5,-137 368.5,-137 368.5,-118 258.5,-118"/>
<text text-anchor="middle" x="313.5" y="-125" font-family="Helvetica,sans-Serif" font-size="10.00">horiz_interp_reals4</text>
</a>
</g>
</g>
<!-- Node19&#45;&gt;Node26 -->
<g id="edge41" class="edge">
<title>Node19&#45;&gt;Node26</title>
<path fill="none" stroke="#9a32cd" stroke-dasharray="5,2" d="M125.99,-275.37C128.84,-273.63 131.54,-271.69 134,-269.5 148.89,-256.29 136.86,-241.42 152,-228.5 182.75,-202.26 205.3,-226.24 240,-205.5 269.99,-187.57 295.22,-153.6 306.36,-137.05"/>
<polygon fill="#9a32cd" stroke="#9a32cd" points="124.35,-272.27 117.06,-279.95 127.55,-278.5 124.35,-272.27"/>
<text text-anchor="middle" x="196" y="-231.5" font-family="Helvetica,sans-Serif" font-size="10.00"> max_src_dist</text>
</g>
<!-- Node20 -->
<g id="node20" class="node">
<title>Node20</title>
<g id="a_node20"><a xlink:title=" ">
<polygon fill="white" stroke="#bfbfbf" points="14.5,-733 14.5,-752 119.5,-752 119.5,-733 14.5,-733"/>
<text text-anchor="middle" x="67" y="-740" font-family="Helvetica,sans-Serif" font-size="10.00">character(len=32)</text>
</a>
</g>
</g>
<!-- Node20&#45;&gt;Node17 -->
<g id="edge26" class="edge">
<title>Node20&#45;&gt;Node17</title>
<path fill="none" stroke="#9a32cd" stroke-dasharray="5,2" d="M130.05,-739.9C162.83,-739.28 203.69,-739.68 240,-743.5 250.99,-744.66 262.78,-746.73 273.59,-748.97"/>
<polygon fill="#9a32cd" stroke="#9a32cd" points="129.62,-736.41 119.7,-740.14 129.78,-743.41 129.62,-736.41"/>
<text text-anchor="middle" x="196" y="-746.5" font-family="Helvetica,sans-Serif" font-size="10.00"> chksum</text>
</g>
<!-- Node21&#45;&gt;Node1 -->
<g id="edge29" class="edge">
<title>Node21&#45;&gt;Node1</title>
<path fill="none" stroke="#9a32cd" stroke-dasharray="5,2" d="M663.9,-522.23C738.94,-526.34 871.25,-535.8 983,-555.5 990.44,-556.81 998.33,-558.36 1005.95,-559.94"/>
<polygon fill="#9a32cd" stroke="#9a32cd" points="663.87,-518.73 653.7,-521.69 663.5,-525.72 663.87,-518.73"/>
<text text-anchor="middle" x="851.5" y="-545.5" font-family="Helvetica,sans-Serif" font-size="10.00"> interph</text>
</g>
<!-- Node22&#45;&gt;Node21 -->
<g id="edge31" class="edge">
<title>Node22&#45;&gt;Node21</title>
<path fill="none" stroke="#9a32cd" stroke-dasharray="5,2" d="M350.88,-430.41C409.46,-451.19 523.36,-491.6 575.17,-509.98"/>
<polygon fill="#9a32cd" stroke="#9a32cd" points="351.88,-427.05 341.29,-427 349.54,-433.65 351.88,-427.05"/>
<text text-anchor="middle" x="452" y="-489.5" font-family="Helvetica,sans-Serif" font-size="10.00"> kind8_reals</text>
</g>
<!-- Node23 -->
<g id="node23" class="node">
<title>Node23</title>
<g id="a_node23"><a xlink:title=" ">
<polygon fill="white" stroke="#bfbfbf" points="3,-318.5 3,-348.5 131,-348.5 131,-318.5 3,-318.5"/>
<text text-anchor="start" x="11" y="-336.5" font-family="Helvetica,sans-Serif" font-size="10.00">real(kind=r8_kind),</text>
<text text-anchor="middle" x="67" y="-325.5" font-family="Helvetica,sans-Serif" font-size="10.00"> dimension(:,:), pointer</text>
</a>
</g>
</g>
<!-- Node23&#45;&gt;Node22 -->
<g id="edge33" class="edge">
<title>Node23&#45;&gt;Node22</title>
<path fill="none" stroke="#9a32cd" stroke-dasharray="5,2" d="M141.26,-322.07C172.93,-320.27 209.61,-322.6 240,-336.5 273.12,-351.65 297.51,-390 307.51,-407.95"/>
<polygon fill="#9a32cd" stroke="#9a32cd" points="140.9,-318.58 131.17,-322.78 141.39,-325.56 140.9,-318.58"/>
<text text-anchor="middle" x="196" y="-405.5" font-family="Helvetica,sans-Serif" font-size="10.00"> area_dst</text>
<text text-anchor="middle" x="196" y="-394.5" font-family="Helvetica,sans-Serif" font-size="10.00">area_src</text>
<text text-anchor="middle" x="196" y="-383.5" font-family="Helvetica,sans-Serif" font-size="10.00">faci</text>
<text text-anchor="middle" x="196" y="-372.5" font-family="Helvetica,sans-Serif" font-size="10.00">facj</text>
<text text-anchor="middle" x="196" y="-361.5" font-family="Helvetica,sans-Serif" font-size="10.00">mask_in</text>
<text text-anchor="middle" x="196" y="-350.5" font-family="Helvetica,sans-Serif" font-size="10.00">rat_x</text>
<text text-anchor="middle" x="196" y="-339.5" font-family="Helvetica,sans-Serif" font-size="10.00">rat_y</text>
</g>
<!-- Node24 -->
<g id="node24" class="node">
<title>Node24</title>
<g id="a_node24"><a xlink:title=" ">
<polygon fill="white" stroke="#bfbfbf" points="6,-230.5 6,-260.5 128,-260.5 128,-230.5 6,-230.5"/>
<text text-anchor="start" x="14" y="-248.5" font-family="Helvetica,sans-Serif" font-size="10.00">real(kind=r8_kind),</text>
<text text-anchor="middle" x="67" y="-237.5" font-family="Helvetica,sans-Serif" font-size="10.00"> dimension(:), pointer</text>
</a>
</g>
</g>
<!-- Node24&#45;&gt;Node22 -->
<g id="edge34" class="edge">
<title>Node24&#45;&gt;Node22</title>
<path fill="none" stroke="#9a32cd" stroke-dasharray="5,2" d="M138.31,-248.71C171.9,-253.32 210.99,-263.52 240,-285.5 282.72,-317.87 303.51,-383.04 310.1,-407.73"/>
<polygon fill="#9a32cd" stroke="#9a32cd" points="138.44,-245.19 128.08,-247.45 137.58,-252.14 138.44,-245.19"/>
<text text-anchor="middle" x="196" y="-310.5" font-family="Helvetica,sans-Serif" font-size="10.00"> area_frac_dst</text>
<text text-anchor="middle" x="196" y="-299.5" font-family="Helvetica,sans-Serif" font-size="10.00">lat_in</text>
<text text-anchor="middle" x="196" y="-288.5" font-family="Helvetica,sans-Serif" font-size="10.00">lon_in</text>
</g>
<!-- Node25 -->
<g id="node25" class="node">
<title>Node25</title>
<g id="a_node25"><a xlink:title=" ">
<polygon fill="white" stroke="#bfbfbf" points="0,-402.5 0,-432.5 134,-432.5 134,-402.5 0,-402.5"/>
<text text-anchor="start" x="8" y="-420.5" font-family="Helvetica,sans-Serif" font-size="10.00">real(kind=r8_kind),</text>
<text text-anchor="middle" x="67" y="-409.5" font-family="Helvetica,sans-Serif" font-size="10.00"> dimension(:,:,:), pointer</text>
</a>
</g>
</g>
<!-- Node25&#45;&gt;Node22 -->
<g id="edge35" class="edge">
<title>Node25&#45;&gt;Node22</title>
<path fill="none" stroke="#9a32cd" stroke-dasharray="5,2" d="M144.39,-417.5C181.32,-417.5 224.77,-417.5 258.24,-417.5"/>
<polygon fill="#9a32cd" stroke="#9a32cd" points="144.17,-414 134.17,-417.5 144.17,-421 144.17,-414"/>
<text text-anchor="middle" x="196" y="-442.5" font-family="Helvetica,sans-Serif" font-size="10.00"> src_dist</text>
<text text-anchor="middle" x="196" y="-431.5" font-family="Helvetica,sans-Serif" font-size="10.00">wti</text>
<text text-anchor="middle" x="196" y="-420.5" font-family="Helvetica,sans-Serif" font-size="10.00">wtj</text>
</g>
<!-- Node26&#45;&gt;Node21 -->
<g id="edge37" class="edge">
<title>Node26&#45;&gt;Node21</title>
<path fill="none" stroke="#9a32cd" stroke-dasharray="5,2" d="M327.55,-145.3C377.67,-213.63 556.88,-457.98 594.88,-509.8"/>
<polygon fill="#9a32cd" stroke="#9a32cd" points="330.34,-143.18 321.61,-137.19 324.7,-147.32 330.34,-143.18"/>
<text text-anchor="middle" x="452" y="-395.5" font-family="Helvetica,sans-Serif" font-size="10.00"> kind4_reals</text>
</g>
<!-- Node27 -->
<g id="node27" class="node">
<title>Node27</title>
<g id="a_node27"><a xlink:title=" ">
<polygon fill="white" stroke="#bfbfbf" points="6,-0.5 6,-30.5 128,-30.5 128,-0.5 6,-0.5"/>
<text text-anchor="start" x="14" y="-18.5" font-family="Helvetica,sans-Serif" font-size="10.00">real(kind=r4_kind),</text>
<text text-anchor="middle" x="67" y="-7.5" font-family="Helvetica,sans-Serif" font-size="10.00"> dimension(:), pointer</text>
</a>
</g>
</g>
<!-- Node27&#45;&gt;Node26 -->
<g id="edge38" class="edge">
<title>Node27&#45;&gt;Node26</title>
<path fill="none" stroke="#9a32cd" stroke-dasharray="5,2" d="M138.74,-13.31C171.36,-15.12 209.51,-21.44 240,-38.5 273.92,-57.47 298.23,-99.18 307.89,-117.98"/>
<polygon fill="#9a32cd" stroke="#9a32cd" points="138.49,-9.79 128.35,-12.87 138.2,-16.79 138.49,-9.79"/>
<text text-anchor="middle" x="196" y="-63.5" font-family="Helvetica,sans-Serif" font-size="10.00"> area_frac_dst</text>
<text text-anchor="middle" x="196" y="-52.5" font-family="Helvetica,sans-Serif" font-size="10.00">lat_in</text>
<text text-anchor="middle" x="196" y="-41.5" font-family="Helvetica,sans-Serif" font-size="10.00">lon_in</text>
</g>
<!-- Node28 -->
<g id="node28" class="node">
<title>Node28</title>
<g id="a_node28"><a xlink:title=" ">
<polygon fill="white" stroke="#bfbfbf" points="3,-112.5 3,-142.5 131,-142.5 131,-112.5 3,-112.5"/>
<text text-anchor="start" x="11" y="-130.5" font-family="Helvetica,sans-Serif" font-size="10.00">real(kind=r4_kind),</text>
<text text-anchor="middle" x="67" y="-119.5" font-family="Helvetica,sans-Serif" font-size="10.00"> dimension(:,:), pointer</text>
</a>
</g>
</g>
<!-- Node28&#45;&gt;Node26 -->
<g id="edge39" class="edge">
<title>Node28&#45;&gt;Node26</title>
<path fill="none" stroke="#9a32cd" stroke-dasharray="5,2" d="M141.65,-127.5C179.13,-127.5 223.89,-127.5 258.19,-127.5"/>
<polygon fill="#9a32cd" stroke="#9a32cd" points="141.28,-124 131.28,-127.5 141.28,-131 141.28,-124"/>
<text text-anchor="middle" x="196" y="-196.5" font-family="Helvetica,sans-Serif" font-size="10.00"> area_dst</text>
<text text-anchor="middle" x="196" y="-185.5" font-family="Helvetica,sans-Serif" font-size="10.00">area_src</text>
<text text-anchor="middle" x="196" y="-174.5" font-family="Helvetica,sans-Serif" font-size="10.00">faci</text>
<text text-anchor="middle" x="196" y="-163.5" font-family="Helvetica,sans-Serif" font-size="10.00">facj</text>
<text text-anchor="middle" x="196" y="-152.5" font-family="Helvetica,sans-Serif" font-size="10.00">mask_in</text>
<text text-anchor="middle" x="196" y="-141.5" font-family="Helvetica,sans-Serif" font-size="10.00">rat_x</text>
<text text-anchor="middle" x="196" y="-130.5" font-family="Helvetica,sans-Serif" font-size="10.00">rat_y</text>
</g>
<!-- Node29 -->
<g id="node29" class="node">
<title>Node29</title>
<g id="a_node29"><a xlink:title=" ">
<polygon fill="white" stroke="#bfbfbf" points="0,-56.5 0,-86.5 134,-86.5 134,-56.5 0,-56.5"/>
<text text-anchor="start" x="8" y="-74.5" font-family="Helvetica,sans-Serif" font-size="10.00">real(kind=r4_kind),</text>
<text text-anchor="middle" x="67" y="-63.5" font-family="Helvetica,sans-Serif" font-size="10.00"> dimension(:,:,:), pointer</text>
</a>
</g>
</g>
<!-- Node29&#45;&gt;Node26 -->
<g id="edge40" class="edge">
<title>Node29&#45;&gt;Node26</title>
<path fill="none" stroke="#9a32cd" stroke-dasharray="5,2" d="M144.14,-73.98C174.46,-76.49 209.36,-81.32 240,-90.5 261.12,-96.82 283.42,-109.18 297.62,-117.87"/>
<polygon fill="#9a32cd" stroke="#9a32cd" points="144.28,-70.48 134.04,-73.22 143.75,-77.46 144.28,-70.48"/>
<text text-anchor="middle" x="196" y="-115.5" font-family="Helvetica,sans-Serif" font-size="10.00"> src_dist</text>
<text text-anchor="middle" x="196" y="-104.5" font-family="Helvetica,sans-Serif" font-size="10.00">wti</text>
<text text-anchor="middle" x="196" y="-93.5" font-family="Helvetica,sans-Serif" font-size="10.00">wtj</text>
</g>
<!-- Node30 -->
<g id="node30" class="node">
<title>Node30</title>
<g id="a_node30"><a xlink:title=" ">
<polygon fill="white" stroke="#bfbfbf" points="799,-475 799,-494 904,-494 904,-475 799,-475"/>
<text text-anchor="middle" x="851.5" y="-482" font-family="Helvetica,sans-Serif" font-size="10.00">character(len=64)</text>
</a>
</g>
</g>
<!-- Node30&#45;&gt;Node1 -->
<g id="edge42" class="edge">
<title>Node30&#45;&gt;Node1</title>
<path fill="none" stroke="#9a32cd" stroke-dasharray="5,2" d="M914.36,-479.71C936.98,-480.36 962.13,-484.04 983,-494.5 1012.21,-509.14 1033.99,-543.04 1043.39,-559.79"/>
<polygon fill="#9a32cd" stroke="#9a32cd" points="914.2,-476.21 904.17,-479.61 914.13,-483.21 914.2,-476.21"/>
<text text-anchor="middle" x="952.5" y="-508.5" font-family="Helvetica,sans-Serif" font-size="10.00"> field_name</text>
<text text-anchor="middle" x="952.5" y="-497.5" font-family="Helvetica,sans-Serif" font-size="10.00">file_name</text>
</g>
<!-- Node31 -->
<g id="node31" class="node">
<title>Node31</title>
<g id="a_node31"><a xlink:title=" ">
<polygon fill="white" stroke="#bfbfbf" points="834,-336 834,-355 869,-355 869,-336 834,-336"/>
<text text-anchor="middle" x="851.5" y="-343" font-family="Helvetica,sans-Serif" font-size="10.00">real</text>
</a>
</g>
</g>
<!-- Node31&#45;&gt;Node1 -->
<g id="edge44" class="edge">
<title>Node31&#45;&gt;Node1</title>
<path fill="none" stroke="#9a32cd" stroke-dasharray="5,2" d="M879.17,-339.25C907.98,-334.17 953.69,-331.18 983,-354.5 1049.27,-407.21 1050.25,-525.04 1049.02,-559.72"/>
<polygon fill="#9a32cd" stroke="#9a32cd" points="878.16,-335.89 869.02,-341.25 879.51,-342.75 878.16,-335.89"/>
<text text-anchor="middle" x="952.5" y="-467.5" font-family="Helvetica,sans-Serif" font-size="10.00"> data</text>
<text text-anchor="middle" x="952.5" y="-456.5" font-family="Helvetica,sans-Serif" font-size="10.00">halflevs</text>
<text text-anchor="middle" x="952.5" y="-445.5" font-family="Helvetica,sans-Serif" font-size="10.00">lat</text>
<text text-anchor="middle" x="952.5" y="-434.5" font-family="Helvetica,sans-Serif" font-size="10.00">latb</text>
<text text-anchor="middle" x="952.5" y="-423.5" font-family="Helvetica,sans-Serif" font-size="10.00">levs</text>
<text text-anchor="middle" x="952.5" y="-412.5" font-family="Helvetica,sans-Serif" font-size="10.00">lon</text>
<text text-anchor="middle" x="952.5" y="-401.5" font-family="Helvetica,sans-Serif" font-size="10.00">lonb</text>
<text text-anchor="middle" x="952.5" y="-390.5" font-family="Helvetica,sans-Serif" font-size="10.00">nmon_nyear</text>
<text text-anchor="middle" x="952.5" y="-379.5" font-family="Helvetica,sans-Serif" font-size="10.00">nmon_pyear</text>
<text text-anchor="middle" x="952.5" y="-368.5" font-family="Helvetica,sans-Serif" font-size="10.00">pmon_nyear</text>
<text text-anchor="middle" x="952.5" y="-357.5" font-family="Helvetica,sans-Serif" font-size="10.00">...</text>
</g>
</g>
</svg>
