<?xml version="1.0" encoding="UTF-8" standalone="no"?>
<!DOCTYPE svg PUBLIC "-//W3C//DTD SVG 1.1//EN"
 "http://www.w3.org/Graphics/SVG/1.1/DTD/svg11.dtd">
<!-- Generated by graphviz version 2.43.0 (0)
 -->
<!-- Title: diag_fieldtype Pages: 1 -->
<svg width="1145pt" height="1340pt"
 viewBox="0.00 0.00 1145.00 1340.00" xmlns="http://www.w3.org/2000/svg" xmlns:xlink="http://www.w3.org/1999/xlink">
<g id="graph0" class="graph" transform="scale(1 1) rotate(0) translate(4 1336)">
<title>diag_fieldtype</title>
<polygon fill="white" stroke="transparent" points="-4,4 -4,-1336 1141,-1336 1141,4 -4,4"/>
<!-- Node1 -->
<g id="node1" class="node">
<title>Node1</title>
<g id="a_node1"><a xlink:title="Diagnostic field type.">
<polygon fill="#bfbfbf" stroke="black" points="1051,-794.5 1051,-813.5 1137,-813.5 1137,-794.5 1051,-794.5"/>
<text text-anchor="middle" x="1094" y="-801.5" font-family="Helvetica,sans-Serif" font-size="10.00">diag_fieldtype</text>
</a>
</g>
</g>
<!-- Node2 -->
<g id="node2" class="node">
<title>Node2</title>
<g id="a_node2"><a xlink:title=" ">
<polygon fill="white" stroke="#bfbfbf" points="1,-652.5 1,-671.5 50,-671.5 50,-652.5 1,-652.5"/>
<text text-anchor="middle" x="25.5" y="-659.5" font-family="Helvetica,sans-Serif" font-size="10.00">logical</text>
</a>
</g>
</g>
<!-- Node2&#45;&gt;Node1 -->
<g id="edge1" class="edge">
<title>Node2&#45;&gt;Node1</title>
<path fill="none" stroke="#9a32cd" stroke-dasharray="5,2" d="M27.97,-681.89C36.56,-790.8 84.54,-1310 219,-1310 219,-1310 219,-1310 922.5,-1310 981.51,-1310 1029.66,-1174.22 1033,-1165 1081.4,-1031.51 1091.02,-855.95 1092.68,-813.52"/>
<polygon fill="#9a32cd" stroke="#9a32cd" points="31.44,-681.37 27.19,-671.66 24.46,-681.9 31.44,-681.37"/>
<text text-anchor="middle" x="556" y="-1324" font-family="Helvetica,sans-Serif" font-size="10.00"> miss_present</text>
<text text-anchor="middle" x="556" y="-1313" font-family="Helvetica,sans-Serif" font-size="10.00">miss_pack_present</text>
</g>
<!-- Node12 -->
<g id="node12" class="node">
<title>Node12</title>
<g id="a_node12"><a xlink:href="structmpp__domains__mod_1_1domain1d.html" target="_top" xlink:title="One dimensional domain used to manage shared data access between pes.">
<polygon fill="white" stroke="black" points="403,-546.5 403,-565.5 468,-565.5 468,-546.5 403,-546.5"/>
<text text-anchor="middle" x="435.5" y="-553.5" font-family="Helvetica,sans-Serif" font-size="10.00">domain1d</text>
</a>
</g>
</g>
<!-- Node2&#45;&gt;Node12 -->
<g id="edge12" class="edge">
<title>Node2&#45;&gt;Node12</title>
<path fill="none" stroke="#9a32cd" stroke-dasharray="5,2" d="M60.48,-658.36C82.41,-655.77 111.51,-651.89 137,-647 238.21,-627.6 265.09,-626.03 362,-591 381.59,-583.92 402.93,-573.23 417.36,-565.52"/>
<polygon fill="#9a32cd" stroke="#9a32cd" points="59.87,-654.91 50.33,-659.52 60.67,-661.86 59.87,-654.91"/>
<text text-anchor="middle" x="220" y="-646" font-family="Helvetica,sans-Serif" font-size="10.00"> cyclic</text>
</g>
<!-- Node13 -->
<g id="node13" class="node">
<title>Node13</title>
<g id="a_node13"><a xlink:href="structmpp__domains__mod_1_1domain__axis__spec.html" target="_top" xlink:title="Used to specify index limits along an axis of a domain.">
<polygon fill="white" stroke="black" points="166.5,-529.5 166.5,-548.5 273.5,-548.5 273.5,-529.5 166.5,-529.5"/>
<text text-anchor="middle" x="220" y="-536.5" font-family="Helvetica,sans-Serif" font-size="10.00">domain_axis_spec</text>
</a>
</g>
</g>
<!-- Node2&#45;&gt;Node13 -->
<g id="edge15" class="edge">
<title>Node2&#45;&gt;Node13</title>
<path fill="none" stroke="#9a32cd" stroke-dasharray="5,2" d="M50.22,-646.84C90.38,-621.18 170.65,-569.9 203.97,-548.61"/>
<polygon fill="#9a32cd" stroke="#9a32cd" points="48.15,-644.01 41.61,-652.35 51.92,-649.91 48.15,-644.01"/>
<text text-anchor="middle" x="103" y="-635" font-family="Helvetica,sans-Serif" font-size="10.00"> is_global</text>
</g>
<!-- Node16 -->
<g id="node16" class="node">
<title>Node16</title>
<g id="a_node16"><a xlink:href="structmpp__domains__mod_1_1domain2d.html" target="_top" xlink:title="The domain2D type contains all the necessary information to define the global, compute and data domai...">
<polygon fill="white" stroke="black" points="889,-353.5 889,-372.5 954,-372.5 954,-353.5 889,-353.5"/>
<text text-anchor="middle" x="921.5" y="-360.5" font-family="Helvetica,sans-Serif" font-size="10.00">domain2d</text>
</a>
</g>
</g>
<!-- Node2&#45;&gt;Node16 -->
<g id="edge29" class="edge">
<title>Node2&#45;&gt;Node16</title>
<path fill="none" stroke="#9a32cd" stroke-dasharray="5,2" d="M57.1,-675.5C107.26,-696.81 210.68,-737.35 303,-752 386.5,-765.25 412.77,-755.06 491,-723 633.42,-664.63 671.04,-643.45 785,-540 845.17,-485.38 897.8,-401.26 914.78,-372.8"/>
<polygon fill="#9a32cd" stroke="#9a32cd" points="58.36,-672.23 47.79,-671.5 55.6,-678.66 58.36,-672.23"/>
<text text-anchor="middle" x="435.5" y="-781" font-family="Helvetica,sans-Serif" font-size="10.00"> rotated_ninety</text>
<text text-anchor="middle" x="435.5" y="-770" font-family="Helvetica,sans-Serif" font-size="10.00">symmetry</text>
<text text-anchor="middle" x="435.5" y="-759" font-family="Helvetica,sans-Serif" font-size="10.00">initialized</text>
</g>
<!-- Node19 -->
<g id="node19" class="node">
<title>Node19</title>
<g id="a_node19"><a xlink:href="structmpp__domains__mod_1_1overlap__type.html" target="_top" xlink:title="Type for overlapping data.">
<polygon fill="white" stroke="black" points="180,-271.5 180,-290.5 260,-290.5 260,-271.5 180,-271.5"/>
<text text-anchor="middle" x="220" y="-278.5" font-family="Helvetica,sans-Serif" font-size="10.00">overlap_type</text>
</a>
</g>
</g>
<!-- Node2&#45;&gt;Node19 -->
<g id="edge35" class="edge">
<title>Node2&#45;&gt;Node19</title>
<path fill="none" stroke="#9a32cd" stroke-dasharray="5,2" d="M28.03,-641.77C31.41,-605.07 41.52,-525.68 69,-465 103.85,-388.03 179.07,-316.34 207.66,-290.83"/>
<polygon fill="#9a32cd" stroke="#9a32cd" points="24.51,-641.85 27.15,-652.11 31.48,-642.44 24.51,-641.85"/>
<text text-anchor="middle" x="103" y="-468" font-family="Helvetica,sans-Serif" font-size="10.00"> from_contact</text>
</g>
<!-- Node3 -->
<g id="node3" class="node">
<title>Node3</title>
<g id="a_node3"><a xlink:href="structmpp__io__mod_1_1fieldtype.html" target="_top" xlink:title=" ">
<polygon fill="white" stroke="black" points="892,-1055.5 892,-1074.5 951,-1074.5 951,-1055.5 892,-1055.5"/>
<text text-anchor="middle" x="921.5" y="-1062.5" font-family="Helvetica,sans-Serif" font-size="10.00">fieldtype</text>
</a>
</g>
</g>
<!-- Node3&#45;&gt;Node1 -->
<g id="edge2" class="edge">
<title>Node3&#45;&gt;Node1</title>
<path fill="none" stroke="#9a32cd" stroke-dasharray="5,2" d="M934.45,-1046.71C967.85,-995.57 1061.45,-852.29 1086.67,-813.69"/>
<polygon fill="#9a32cd" stroke="#9a32cd" points="931.31,-1045.12 928.77,-1055.4 937.17,-1048.94 931.31,-1045.12"/>
<text text-anchor="middle" x="1010" y="-968" font-family="Helvetica,sans-Serif" font-size="10.00"> field</text>
</g>
<!-- Node4 -->
<g id="node4" class="node">
<title>Node4</title>
<g id="a_node4"><a xlink:title=" ">
<polygon fill="white" stroke="#bfbfbf" points="621,-1204.5 621,-1223.5 785,-1223.5 785,-1204.5 621,-1204.5"/>
<text text-anchor="middle" x="703" y="-1211.5" font-family="Helvetica,sans-Serif" font-size="10.00">integer(i8_kind), dimension(3)</text>
</a>
</g>
</g>
<!-- Node4&#45;&gt;Node3 -->
<g id="edge3" class="edge">
<title>Node4&#45;&gt;Node3</title>
<path fill="none" stroke="#9a32cd" stroke-dasharray="5,2" d="M795.27,-1213.47C816.72,-1209.75 838.43,-1202.69 856,-1190 896.38,-1160.83 913.36,-1098.77 918.6,-1074.77"/>
<polygon fill="#9a32cd" stroke="#9a32cd" points="794.48,-1210.05 785.11,-1215 795.52,-1216.97 794.48,-1210.05"/>
<text text-anchor="middle" x="829.5" y="-1214" font-family="Helvetica,sans-Serif" font-size="10.00"> checksum</text>
</g>
<!-- Node5 -->
<g id="node5" class="node">
<title>Node5</title>
<g id="a_node5"><a xlink:title=" ">
<polygon fill="white" stroke="#bfbfbf" points="380,-1085.5 380,-1104.5 491,-1104.5 491,-1085.5 380,-1085.5"/>
<text text-anchor="middle" x="435.5" y="-1092.5" font-family="Helvetica,sans-Serif" font-size="10.00">character(len=256)</text>
</a>
</g>
</g>
<!-- Node5&#45;&gt;Node3 -->
<g id="edge4" class="edge">
<title>Node5&#45;&gt;Node3</title>
<path fill="none" stroke="#9a32cd" stroke-dasharray="5,2" d="M501.38,-1090.98C607.91,-1084.38 815.66,-1071.5 891.72,-1066.78"/>
<polygon fill="#9a32cd" stroke="#9a32cd" points="500.84,-1087.5 491.08,-1091.62 501.28,-1094.49 500.84,-1087.5"/>
<text text-anchor="middle" x="703" y="-1097" font-family="Helvetica,sans-Serif" font-size="10.00"> longname</text>
<text text-anchor="middle" x="703" y="-1086" font-family="Helvetica,sans-Serif" font-size="10.00">standard_name</text>
</g>
<!-- Node11 -->
<g id="node11" class="node">
<title>Node11</title>
<g id="a_node11"><a xlink:href="structmpp__io__mod_1_1axistype.html" target="_top" xlink:title=" ">
<polygon fill="white" stroke="black" points="673.5,-924.5 673.5,-943.5 732.5,-943.5 732.5,-924.5 673.5,-924.5"/>
<text text-anchor="middle" x="703" y="-931.5" font-family="Helvetica,sans-Serif" font-size="10.00">axistype</text>
</a>
</g>
</g>
<!-- Node5&#45;&gt;Node11 -->
<g id="edge18" class="edge">
<title>Node5&#45;&gt;Node11</title>
<path fill="none" stroke="#9a32cd" stroke-dasharray="5,2" d="M473.45,-1081.13C479.54,-1078.18 485.62,-1074.79 491,-1071 500.51,-1064.3 499.69,-1058.97 509,-1052 546.56,-1023.9 562.86,-1028.27 603,-1004 635.42,-984.4 671.2,-957.75 689.58,-943.66"/>
<polygon fill="#9a32cd" stroke="#9a32cd" points="471.65,-1078.11 463.97,-1085.41 474.52,-1084.49 471.65,-1078.11"/>
<text text-anchor="middle" x="556" y="-1066" font-family="Helvetica,sans-Serif" font-size="10.00"> longname</text>
<text text-anchor="middle" x="556" y="-1055" font-family="Helvetica,sans-Serif" font-size="10.00">compressed</text>
</g>
<!-- Node6 -->
<g id="node6" class="node">
<title>Node6</title>
<g id="a_node6"><a xlink:href="structmpp__io__mod_1_1atttype.html" target="_top" xlink:title=" ">
<polygon fill="white" stroke="black" points="409.5,-989.5 409.5,-1008.5 461.5,-1008.5 461.5,-989.5 409.5,-989.5"/>
<text text-anchor="middle" x="435.5" y="-996.5" font-family="Helvetica,sans-Serif" font-size="10.00">atttype</text>
</a>
</g>
</g>
<!-- Node6&#45;&gt;Node3 -->
<g id="edge5" class="edge">
<title>Node6&#45;&gt;Node3</title>
<path fill="none" stroke="#9a32cd" stroke-dasharray="5,2" d="M471.15,-1010.82C478.14,-1014.12 485.13,-1018.16 491,-1023 501.84,-1031.95 496.66,-1042.28 509,-1049 522.47,-1056.34 769.67,-1057.35 785,-1058 821.95,-1059.56 864.54,-1061.84 891.96,-1063.37"/>
<polygon fill="#9a32cd" stroke="#9a32cd" points="472.3,-1007.5 461.73,-1006.77 469.53,-1013.93 472.3,-1007.5"/>
<text text-anchor="middle" x="703" y="-1061" font-family="Helvetica,sans-Serif" font-size="10.00"> att</text>
</g>
<!-- Node6&#45;&gt;Node11 -->
<g id="edge19" class="edge">
<title>Node6&#45;&gt;Node11</title>
<path fill="none" stroke="#9a32cd" stroke-dasharray="5,2" d="M467.82,-985.21C485.39,-977.55 504.65,-969.29 509,-968 566.07,-951.02 635.3,-941.37 673.4,-936.96"/>
<polygon fill="#9a32cd" stroke="#9a32cd" points="466.09,-982.15 458.33,-989.36 468.9,-988.56 466.09,-982.15"/>
<text text-anchor="middle" x="556" y="-971" font-family="Helvetica,sans-Serif" font-size="10.00"> att</text>
</g>
<!-- Node7 -->
<g id="node7" class="node">
<title>Node7</title>
<g id="a_node7"><a xlink:title=" ">
<polygon fill="white" stroke="#bfbfbf" points="164.5,-961.5 164.5,-980.5 275.5,-980.5 275.5,-961.5 164.5,-961.5"/>
<text text-anchor="middle" x="220" y="-968.5" font-family="Helvetica,sans-Serif" font-size="10.00">character(len=128)</text>
</a>
</g>
</g>
<!-- Node7&#45;&gt;Node3 -->
<g id="edge25" class="edge">
<title>Node7&#45;&gt;Node3</title>
<path fill="none" stroke="#9a32cd" stroke-dasharray="5,2" d="M285.48,-982.02C313.45,-990.21 343.88,-1004.41 362,-1029 384.91,-1060.09 350,-1089.69 380,-1114 402.05,-1131.87 546.5,-1148.84 785,-1109 825.98,-1102.15 871.53,-1085.34 898,-1074.6"/>
<polygon fill="#9a32cd" stroke="#9a32cd" points="286.29,-978.61 275.72,-979.37 284.45,-985.36 286.29,-978.61"/>
<text text-anchor="middle" x="556" y="-1147" font-family="Helvetica,sans-Serif" font-size="10.00"> units</text>
<text text-anchor="middle" x="556" y="-1136" font-family="Helvetica,sans-Serif" font-size="10.00">name</text>
</g>
<!-- Node7&#45;&gt;Node6 -->
<g id="edge6" class="edge">
<title>Node7&#45;&gt;Node6</title>
<path fill="none" stroke="#9a32cd" stroke-dasharray="5,2" d="M285.76,-966.75C309.87,-966.4 337.35,-967.47 362,-972 380.49,-975.4 400.44,-983.16 414.72,-989.49"/>
<polygon fill="#9a32cd" stroke="#9a32cd" points="285.57,-963.26 275.65,-966.98 285.73,-970.25 285.57,-963.26"/>
<text text-anchor="middle" x="332.5" y="-975" font-family="Helvetica,sans-Serif" font-size="10.00"> name</text>
</g>
<!-- Node7&#45;&gt;Node11 -->
<g id="edge21" class="edge">
<title>Node7&#45;&gt;Node11</title>
<path fill="none" stroke="#9a32cd" stroke-dasharray="5,2" d="M284.21,-959.83C313.29,-955.12 348.3,-950.02 380,-947 487.77,-936.72 616.59,-934.55 673.06,-934.11"/>
<polygon fill="#9a32cd" stroke="#9a32cd" points="283.48,-956.41 274.18,-961.48 284.62,-963.31 283.48,-956.41"/>
<text text-anchor="middle" x="435.5" y="-972" font-family="Helvetica,sans-Serif" font-size="10.00"> units</text>
<text text-anchor="middle" x="435.5" y="-961" font-family="Helvetica,sans-Serif" font-size="10.00">name</text>
<text text-anchor="middle" x="435.5" y="-950" font-family="Helvetica,sans-Serif" font-size="10.00">name_bounds</text>
</g>
<!-- Node8 -->
<g id="node8" class="node">
<title>Node8</title>
<g id="a_node8"><a xlink:title=" ">
<polygon fill="white" stroke="#bfbfbf" points="202.5,-1140.5 202.5,-1159.5 237.5,-1159.5 237.5,-1140.5 202.5,-1140.5"/>
<text text-anchor="middle" x="220" y="-1147.5" font-family="Helvetica,sans-Serif" font-size="10.00">real</text>
</a>
</g>
</g>
<!-- Node8&#45;&gt;Node1 -->
<g id="edge50" class="edge">
<title>Node8&#45;&gt;Node1</title>
<path fill="none" stroke="#9a32cd" stroke-dasharray="5,2" d="M238.98,-1166.86C273.82,-1197.69 354.16,-1260 434.5,-1260 434.5,-1260 434.5,-1260 922.5,-1260 1021.39,-1260 1081.95,-879.01 1091.63,-813.52"/>
<polygon fill="#9a32cd" stroke="#9a32cd" points="240.9,-1163.88 231.13,-1159.76 236.2,-1169.07 240.9,-1163.88"/>
<text text-anchor="middle" x="703" y="-1274" font-family="Helvetica,sans-Serif" font-size="10.00"> miss_pack</text>
<text text-anchor="middle" x="703" y="-1263" font-family="Helvetica,sans-Serif" font-size="10.00">miss</text>
</g>
<!-- Node8&#45;&gt;Node3 -->
<g id="edge27" class="edge">
<title>Node8&#45;&gt;Node3</title>
<path fill="none" stroke="#9a32cd" stroke-dasharray="5,2" d="M247.73,-1153.27C354.24,-1165.84 747.78,-1207.56 856,-1152 888.62,-1135.25 908.97,-1093.54 916.81,-1074.61"/>
<polygon fill="#9a32cd" stroke="#9a32cd" points="247.87,-1149.77 237.53,-1152.06 247.04,-1156.72 247.87,-1149.77"/>
<text text-anchor="middle" x="556" y="-1237" font-family="Helvetica,sans-Serif" font-size="10.00"> fill</text>
<text text-anchor="middle" x="556" y="-1226" font-family="Helvetica,sans-Serif" font-size="10.00">scale</text>
<text text-anchor="middle" x="556" y="-1215" font-family="Helvetica,sans-Serif" font-size="10.00">missing</text>
<text text-anchor="middle" x="556" y="-1204" font-family="Helvetica,sans-Serif" font-size="10.00">add</text>
<text text-anchor="middle" x="556" y="-1193" font-family="Helvetica,sans-Serif" font-size="10.00">min</text>
<text text-anchor="middle" x="556" y="-1182" font-family="Helvetica,sans-Serif" font-size="10.00">max</text>
</g>
<!-- Node8&#45;&gt;Node6 -->
<g id="edge7" class="edge">
<title>Node8&#45;&gt;Node6</title>
<path fill="none" stroke="#9a32cd" stroke-dasharray="5,2" d="M242.22,-1134.42C266.24,-1116.8 302.18,-1090.45 303,-1090 327.68,-1076.46 341.93,-1086.74 362,-1067 377.06,-1052.18 365.26,-1038.14 380,-1023 387.93,-1014.85 399.11,-1009.28 409.28,-1005.56"/>
<polygon fill="#9a32cd" stroke="#9a32cd" points="239.99,-1131.72 234,-1140.46 244.13,-1137.36 239.99,-1131.72"/>
<text text-anchor="middle" x="332.5" y="-1093" font-family="Helvetica,sans-Serif" font-size="10.00"> fatt</text>
</g>
<!-- Node8&#45;&gt;Node11 -->
<g id="edge22" class="edge">
<title>Node8&#45;&gt;Node11</title>
<path fill="none" stroke="#9a32cd" stroke-dasharray="5,2" d="M247.85,-1147.44C279.14,-1143.08 330.54,-1131.49 362,-1101 378.06,-1085.43 363.78,-1069.4 380,-1054 417.62,-1018.3 443.88,-1039.67 491,-1018 499.52,-1014.08 500.44,-1010.81 509,-1007 548.82,-989.26 562.17,-994.28 603,-979 631.47,-968.35 663.29,-953.3 682.98,-943.59"/>
<polygon fill="#9a32cd" stroke="#9a32cd" points="247.19,-1143.99 237.69,-1148.69 248.05,-1150.94 247.19,-1143.99"/>
<text text-anchor="middle" x="435.5" y="-1068" font-family="Helvetica,sans-Serif" font-size="10.00"> data_bounds</text>
<text text-anchor="middle" x="435.5" y="-1057" font-family="Helvetica,sans-Serif" font-size="10.00">data</text>
</g>
<!-- Node9 -->
<g id="node9" class="node">
<title>Node9</title>
<g id="a_node9"><a xlink:title=" ">
<polygon fill="white" stroke="#bfbfbf" points="0,-387.5 0,-406.5 51,-406.5 51,-387.5 0,-387.5"/>
<text text-anchor="middle" x="25.5" y="-394.5" font-family="Helvetica,sans-Serif" font-size="10.00">integer</text>
</a>
</g>
</g>
<!-- Node9&#45;&gt;Node1 -->
<g id="edge49" class="edge">
<title>Node9&#45;&gt;Node1</title>
<path fill="none" stroke="#9a32cd" stroke-dasharray="5,2" d="M26.03,-377.35C24.94,-313.08 25.12,-110.78 69,-67 116.57,-19.53 151.8,-48 219,-48 219,-48 219,-48 922.5,-48 1083.28,-48 1092.46,-706.93 1092.97,-794.44"/>
<polygon fill="#9a32cd" stroke="#9a32cd" points="22.53,-377.44 26.23,-387.37 29.53,-377.3 22.53,-377.44"/>
<text text-anchor="middle" x="556" y="-51" font-family="Helvetica,sans-Serif" font-size="10.00"> tile_count</text>
</g>
<!-- Node9&#45;&gt;Node3 -->
<g id="edge26" class="edge">
<title>Node9&#45;&gt;Node3</title>
<path fill="none" stroke="#9a32cd" stroke-dasharray="5,2" d="M28.83,-416.9C33.92,-456.75 47.33,-544.23 69,-564 104.07,-596 444.96,-619.43 491,-631 542.12,-643.85 559.87,-639.71 603,-670 766.44,-784.79 889.67,-1006.58 915.49,-1055.36"/>
<polygon fill="#9a32cd" stroke="#9a32cd" points="32.29,-416.31 27.59,-406.81 25.34,-417.16 32.29,-416.31"/>
<text text-anchor="middle" x="435.5" y="-711" font-family="Helvetica,sans-Serif" font-size="10.00"> size</text>
<text text-anchor="middle" x="435.5" y="-700" font-family="Helvetica,sans-Serif" font-size="10.00">natt</text>
<text text-anchor="middle" x="435.5" y="-689" font-family="Helvetica,sans-Serif" font-size="10.00">time_axis_index</text>
<text text-anchor="middle" x="435.5" y="-678" font-family="Helvetica,sans-Serif" font-size="10.00">position</text>
<text text-anchor="middle" x="435.5" y="-667" font-family="Helvetica,sans-Serif" font-size="10.00">pack</text>
<text text-anchor="middle" x="435.5" y="-656" font-family="Helvetica,sans-Serif" font-size="10.00">ndim</text>
<text text-anchor="middle" x="435.5" y="-645" font-family="Helvetica,sans-Serif" font-size="10.00">type</text>
<text text-anchor="middle" x="435.5" y="-634" font-family="Helvetica,sans-Serif" font-size="10.00">id</text>
</g>
<!-- Node9&#45;&gt;Node6 -->
<g id="edge8" class="edge">
<title>Node9&#45;&gt;Node6</title>
<path fill="none" stroke="#9a32cd" stroke-dasharray="5,2" d="M29.28,-416.65C43.41,-515.19 108.46,-952.47 155,-990 193.55,-1021.09 348.15,-1008.34 409.36,-1001.88"/>
<polygon fill="#9a32cd" stroke="#9a32cd" points="32.72,-415.98 27.84,-406.58 25.79,-416.97 32.72,-415.98"/>
<text text-anchor="middle" x="220" y="-1024" font-family="Helvetica,sans-Serif" font-size="10.00"> type</text>
<text text-anchor="middle" x="220" y="-1013" font-family="Helvetica,sans-Serif" font-size="10.00">len</text>
</g>
<!-- Node9&#45;&gt;Node11 -->
<g id="edge23" class="edge">
<title>Node9&#45;&gt;Node11</title>
<path fill="none" stroke="#9a32cd" stroke-dasharray="5,2" d="M28.55,-416.71C33.43,-460.26 47.02,-562.85 69,-589 90.03,-614.02 112.53,-595.34 137,-617 149.22,-627.81 143.78,-637.16 155,-649 236.5,-735.01 272.05,-743.16 380,-792 474.06,-834.56 511.07,-810.03 603,-857 639.26,-875.53 675.37,-908.07 692.2,-924.27"/>
<polygon fill="#9a32cd" stroke="#9a32cd" points="32.01,-416.12 27.45,-406.55 25.05,-416.87 32.01,-416.12"/>
<text text-anchor="middle" x="332.5" y="-863" font-family="Helvetica,sans-Serif" font-size="10.00"> natt</text>
<text text-anchor="middle" x="332.5" y="-852" font-family="Helvetica,sans-Serif" font-size="10.00">sense</text>
<text text-anchor="middle" x="332.5" y="-841" font-family="Helvetica,sans-Serif" font-size="10.00">did</text>
<text text-anchor="middle" x="332.5" y="-830" font-family="Helvetica,sans-Serif" font-size="10.00">shift</text>
<text text-anchor="middle" x="332.5" y="-819" font-family="Helvetica,sans-Serif" font-size="10.00">type</text>
<text text-anchor="middle" x="332.5" y="-808" font-family="Helvetica,sans-Serif" font-size="10.00">id</text>
<text text-anchor="middle" x="332.5" y="-797" font-family="Helvetica,sans-Serif" font-size="10.00">idata</text>
<text text-anchor="middle" x="332.5" y="-786" font-family="Helvetica,sans-Serif" font-size="10.00">len</text>
</g>
<!-- Node9&#45;&gt;Node12 -->
<g id="edge17" class="edge">
<title>Node9&#45;&gt;Node12</title>
<path fill="none" stroke="#9a32cd" stroke-dasharray="5,2" d="M47.63,-412.35C54.23,-416.61 61.7,-420.9 69,-424 159.91,-462.55 193.46,-438.97 285,-476 330.43,-494.38 336.39,-509.64 380,-532 390.03,-537.14 401.4,-542.26 411.15,-546.43"/>
<polygon fill="#9a32cd" stroke="#9a32cd" points="49.52,-409.4 39.28,-406.7 45.6,-415.2 49.52,-409.4"/>
<text text-anchor="middle" x="220" y="-512" font-family="Helvetica,sans-Serif" font-size="10.00"> pe</text>
<text text-anchor="middle" x="220" y="-501" font-family="Helvetica,sans-Serif" font-size="10.00">goffset</text>
<text text-anchor="middle" x="220" y="-490" font-family="Helvetica,sans-Serif" font-size="10.00">pos</text>
<text text-anchor="middle" x="220" y="-479" font-family="Helvetica,sans-Serif" font-size="10.00">loffset</text>
</g>
<!-- Node9&#45;&gt;Node13 -->
<g id="edge16" class="edge">
<title>Node9&#45;&gt;Node13</title>
<path fill="none" stroke="#9a32cd" stroke-dasharray="5,2" d="M31.99,-416.33C38.19,-434.93 49.96,-462.72 69,-480 97.6,-505.95 138.95,-521.07 171,-529.49"/>
<polygon fill="#9a32cd" stroke="#9a32cd" points="35.28,-415.1 28.98,-406.58 28.59,-417.17 35.28,-415.1"/>
<text text-anchor="middle" x="103" y="-554" font-family="Helvetica,sans-Serif" font-size="10.00"> max_size</text>
<text text-anchor="middle" x="103" y="-543" font-family="Helvetica,sans-Serif" font-size="10.00">size</text>
<text text-anchor="middle" x="103" y="-532" font-family="Helvetica,sans-Serif" font-size="10.00">begin</text>
<text text-anchor="middle" x="103" y="-521" font-family="Helvetica,sans-Serif" font-size="10.00">end</text>
</g>
<!-- Node9&#45;&gt;Node16 -->
<g id="edge46" class="edge">
<title>Node9&#45;&gt;Node16</title>
<path fill="none" stroke="#9a32cd" stroke-dasharray="5,2" d="M61.4,-398.22C169.24,-401.65 506.7,-409.74 785,-388 816.77,-385.52 824.67,-383.84 856,-378 866.74,-376 878.39,-373.42 888.79,-370.96"/>
<polygon fill="#9a32cd" stroke="#9a32cd" points="61.22,-394.71 51.11,-397.89 60.99,-401.71 61.22,-394.71"/>
<text text-anchor="middle" x="435.5" y="-526" font-family="Helvetica,sans-Serif" font-size="10.00"> fold</text>
<text text-anchor="middle" x="435.5" y="-515" font-family="Helvetica,sans-Serif" font-size="10.00">tile_id</text>
<text text-anchor="middle" x="435.5" y="-504" font-family="Helvetica,sans-Serif" font-size="10.00">tile_id_all</text>
<text text-anchor="middle" x="435.5" y="-493" font-family="Helvetica,sans-Serif" font-size="10.00">io_layout</text>
<text text-anchor="middle" x="435.5" y="-482" font-family="Helvetica,sans-Serif" font-size="10.00">nhalo</text>
<text text-anchor="middle" x="435.5" y="-471" font-family="Helvetica,sans-Serif" font-size="10.00">ntiles</text>
<text text-anchor="middle" x="435.5" y="-460" font-family="Helvetica,sans-Serif" font-size="10.00">pe</text>
<text text-anchor="start" x="411" y="-449" font-family="Helvetica,sans-Serif" font-size="10.00">max_ntile</text>
<text text-anchor="middle" x="435.5" y="-438" font-family="Helvetica,sans-Serif" font-size="10.00">_pe</text>
<text text-anchor="middle" x="435.5" y="-427" font-family="Helvetica,sans-Serif" font-size="10.00">shalo</text>
<text text-anchor="middle" x="435.5" y="-416" font-family="Helvetica,sans-Serif" font-size="10.00">ncontacts</text>
<text text-anchor="middle" x="435.5" y="-405" font-family="Helvetica,sans-Serif" font-size="10.00">...</text>
</g>
<!-- Node18 -->
<g id="node18" class="node">
<title>Node18</title>
<g id="a_node18"><a xlink:href="structmpp__domains__mod_1_1overlapspec.html" target="_top" xlink:title="Private type for overlap specifications.">
<polygon fill="white" stroke="black" points="397.5,-122.5 397.5,-141.5 473.5,-141.5 473.5,-122.5 397.5,-122.5"/>
<text text-anchor="middle" x="435.5" y="-129.5" font-family="Helvetica,sans-Serif" font-size="10.00">overlapspec</text>
</a>
</g>
</g>
<!-- Node9&#45;&gt;Node18 -->
<g id="edge38" class="edge">
<title>Node9&#45;&gt;Node18</title>
<path fill="none" stroke="#9a32cd" stroke-dasharray="5,2" d="M27.53,-377.2C30.53,-327.11 40.91,-197.08 69,-166 112,-118.43 313.27,-124.64 397.4,-129.47"/>
<polygon fill="#9a32cd" stroke="#9a32cd" points="24.02,-377.19 26.96,-387.37 31.01,-377.58 24.02,-377.19"/>
<text text-anchor="middle" x="220" y="-248" font-family="Helvetica,sans-Serif" font-size="10.00"> nsend</text>
<text text-anchor="middle" x="220" y="-237" font-family="Helvetica,sans-Serif" font-size="10.00">ybegin</text>
<text text-anchor="middle" x="220" y="-226" font-family="Helvetica,sans-Serif" font-size="10.00">xbegin</text>
<text text-anchor="middle" x="220" y="-215" font-family="Helvetica,sans-Serif" font-size="10.00">yend</text>
<text text-anchor="middle" x="220" y="-204" font-family="Helvetica,sans-Serif" font-size="10.00">nhalo</text>
<text text-anchor="middle" x="220" y="-193" font-family="Helvetica,sans-Serif" font-size="10.00">xend</text>
<text text-anchor="middle" x="220" y="-182" font-family="Helvetica,sans-Serif" font-size="10.00">recvsize</text>
<text text-anchor="middle" x="220" y="-171" font-family="Helvetica,sans-Serif" font-size="10.00">shalo</text>
<text text-anchor="middle" x="220" y="-160" font-family="Helvetica,sans-Serif" font-size="10.00">ehalo</text>
<text text-anchor="middle" x="220" y="-149" font-family="Helvetica,sans-Serif" font-size="10.00">sendsize</text>
<text text-anchor="middle" x="220" y="-138" font-family="Helvetica,sans-Serif" font-size="10.00">...</text>
</g>
<!-- Node9&#45;&gt;Node19 -->
<g id="edge36" class="edge">
<title>Node9&#45;&gt;Node19</title>
<path fill="none" stroke="#9a32cd" stroke-dasharray="5,2" d="M27.36,-377.32C29.92,-329.33 39.24,-208.41 69,-184 92.37,-164.83 113.21,-165.36 137,-184 163.31,-204.61 132.79,-232.03 155,-257 161.55,-264.36 170.57,-269.47 179.79,-273.02"/>
<polygon fill="#9a32cd" stroke="#9a32cd" points="23.86,-377.21 26.87,-387.37 30.86,-377.55 23.86,-377.21"/>
<text text-anchor="middle" x="103" y="-297" font-family="Helvetica,sans-Serif" font-size="10.00"> rotation</text>
<text text-anchor="middle" x="103" y="-286" font-family="Helvetica,sans-Serif" font-size="10.00">totsize</text>
<text text-anchor="middle" x="103" y="-275" font-family="Helvetica,sans-Serif" font-size="10.00">pe</text>
<text text-anchor="middle" x="103" y="-264" font-family="Helvetica,sans-Serif" font-size="10.00">dir</text>
<text text-anchor="middle" x="103" y="-253" font-family="Helvetica,sans-Serif" font-size="10.00">tileme</text>
<text text-anchor="middle" x="103" y="-242" font-family="Helvetica,sans-Serif" font-size="10.00">js</text>
<text text-anchor="middle" x="103" y="-231" font-family="Helvetica,sans-Serif" font-size="10.00">count</text>
<text text-anchor="middle" x="103" y="-220" font-family="Helvetica,sans-Serif" font-size="10.00">is</text>
<text text-anchor="middle" x="103" y="-209" font-family="Helvetica,sans-Serif" font-size="10.00">tilenbr</text>
<text text-anchor="middle" x="103" y="-198" font-family="Helvetica,sans-Serif" font-size="10.00">index</text>
<text text-anchor="middle" x="103" y="-187" font-family="Helvetica,sans-Serif" font-size="10.00">...</text>
</g>
<!-- Node20 -->
<g id="node20" class="node">
<title>Node20</title>
<g id="a_node20"><a xlink:href="structmpp__domains__mod_1_1domain2d__spec.html" target="_top" xlink:title="Private type to specify multiple index limits and pe information for a 2D domain.">
<polygon fill="white" stroke="black" points="656.5,-309.5 656.5,-328.5 749.5,-328.5 749.5,-309.5 656.5,-309.5"/>
<text text-anchor="middle" x="703" y="-316.5" font-family="Helvetica,sans-Serif" font-size="10.00">domain2d_spec</text>
</a>
</g>
</g>
<!-- Node9&#45;&gt;Node20 -->
<g id="edge43" class="edge">
<title>Node9&#45;&gt;Node20</title>
<path fill="none" stroke="#9a32cd" stroke-dasharray="5,2" d="M42.18,-379.89C49.64,-372.72 59.09,-364.93 69,-360 164.15,-312.7 197.31,-321.95 303,-311 430.49,-297.79 582.09,-307.85 656.37,-314.45"/>
<polygon fill="#9a32cd" stroke="#9a32cd" points="39.46,-377.67 34.94,-387.25 44.45,-382.58 39.46,-377.67"/>
<text text-anchor="middle" x="332.5" y="-347" font-family="Helvetica,sans-Serif" font-size="10.00"> tile_id</text>
<text text-anchor="middle" x="332.5" y="-336" font-family="Helvetica,sans-Serif" font-size="10.00">pe</text>
<text text-anchor="middle" x="332.5" y="-325" font-family="Helvetica,sans-Serif" font-size="10.00">tile_root_pe</text>
<text text-anchor="middle" x="332.5" y="-314" font-family="Helvetica,sans-Serif" font-size="10.00">pos</text>
</g>
<!-- Node21 -->
<g id="node21" class="node">
<title>Node21</title>
<g id="a_node21"><a xlink:href="structmpp__domains__mod_1_1domain1d__spec.html" target="_top" xlink:title="A private type used to specify index limits for a domain decomposition.">
<polygon fill="white" stroke="black" points="389,-340.5 389,-359.5 482,-359.5 482,-340.5 389,-340.5"/>
<text text-anchor="middle" x="435.5" y="-347.5" font-family="Helvetica,sans-Serif" font-size="10.00">domain1d_spec</text>
</a>
</g>
</g>
<!-- Node9&#45;&gt;Node21 -->
<g id="edge42" class="edge">
<title>Node9&#45;&gt;Node21</title>
<path fill="none" stroke="#9a32cd" stroke-dasharray="5,2" d="M61.22,-393C134.78,-384.53 306.28,-364.77 388.69,-355.28"/>
<polygon fill="#9a32cd" stroke="#9a32cd" points="60.64,-389.54 51.1,-394.17 61.44,-396.5 60.64,-389.54"/>
<text text-anchor="middle" x="220" y="-384" font-family="Helvetica,sans-Serif" font-size="10.00"> pos</text>
</g>
<!-- Node22 -->
<g id="node22" class="node">
<title>Node22</title>
<g id="a_node22"><a xlink:href="structmpp__domains__mod_1_1tile__type.html" target="_top" xlink:title="Upper and lower x and y bounds for a tile.">
<polygon fill="white" stroke="black" points="303,-76.5 303,-95.5 362,-95.5 362,-76.5 303,-76.5"/>
<text text-anchor="middle" x="332.5" y="-83.5" font-family="Helvetica,sans-Serif" font-size="10.00">tile_type</text>
</a>
</g>
</g>
<!-- Node9&#45;&gt;Node22 -->
<g id="edge45" class="edge">
<title>Node9&#45;&gt;Node22</title>
<path fill="none" stroke="#9a32cd" stroke-dasharray="5,2" d="M26.01,-377.13C24.96,-314.82 25.43,-125.15 69,-87 103.03,-57.2 242.11,-73.01 302.87,-81.62"/>
<polygon fill="#9a32cd" stroke="#9a32cd" points="22.52,-377.29 26.22,-387.21 29.51,-377.14 22.52,-377.29"/>
<text text-anchor="middle" x="103" y="-123" font-family="Helvetica,sans-Serif" font-size="10.00"> ybegin</text>
<text text-anchor="middle" x="103" y="-112" font-family="Helvetica,sans-Serif" font-size="10.00">xbegin</text>
<text text-anchor="middle" x="103" y="-101" font-family="Helvetica,sans-Serif" font-size="10.00">yend</text>
<text text-anchor="middle" x="103" y="-90" font-family="Helvetica,sans-Serif" font-size="10.00">xend</text>
</g>
<!-- Node10 -->
<g id="node10" class="node">
<title>Node10</title>
<g id="a_node10"><a xlink:title=" ">
<polygon fill="white" stroke="#bfbfbf" points="155,-1063 155,-1093 285,-1093 285,-1063 155,-1063"/>
<text text-anchor="start" x="163" y="-1081" font-family="Helvetica,sans-Serif" font-size="10.00">character(len=max_att</text>
<text text-anchor="middle" x="220" y="-1070" font-family="Helvetica,sans-Serif" font-size="10.00">_length)</text>
</a>
</g>
</g>
<!-- Node10&#45;&gt;Node6 -->
<g id="edge9" class="edge">
<title>Node10&#45;&gt;Node6</title>
<path fill="none" stroke="#9a32cd" stroke-dasharray="5,2" d="M286.6,-1060.02C310.7,-1052.65 337.95,-1043.39 362,-1033 370.4,-1029.37 371.8,-1027.07 380,-1023 390.19,-1017.94 401.68,-1012.8 411.48,-1008.58"/>
<polygon fill="#9a32cd" stroke="#9a32cd" points="285.4,-1056.72 276.84,-1062.96 287.42,-1063.43 285.4,-1056.72"/>
<text text-anchor="middle" x="332.5" y="-1057" font-family="Helvetica,sans-Serif" font-size="10.00"> catt</text>
</g>
<!-- Node11&#45;&gt;Node3 -->
<g id="edge10" class="edge">
<title>Node11&#45;&gt;Node3</title>
<path fill="none" stroke="#9a32cd" stroke-dasharray="5,2" d="M733.27,-948.09C764.45,-963.49 814.88,-989.52 856,-1016 875.39,-1028.49 896.41,-1045.09 909.01,-1055.4"/>
<polygon fill="#9a32cd" stroke="#9a32cd" points="734.76,-944.92 724.24,-943.66 731.68,-951.21 734.76,-944.92"/>
<text text-anchor="middle" x="829.5" y="-1019" font-family="Helvetica,sans-Serif" font-size="10.00"> axes</text>
</g>
<!-- Node12&#45;&gt;Node11 -->
<g id="edge11" class="edge">
<title>Node12&#45;&gt;Node11</title>
<path fill="none" stroke="#9a32cd" stroke-dasharray="5,2" d="M455.43,-572.45C466.42,-582.47 480.19,-595.83 491,-609 585.79,-724.41 674.85,-884.06 696.84,-924.43"/>
<polygon fill="#9a32cd" stroke="#9a32cd" points="457.45,-569.56 447.66,-565.51 452.78,-574.78 457.45,-569.56"/>
<text text-anchor="middle" x="556" y="-766" font-family="Helvetica,sans-Serif" font-size="10.00"> domain</text>
</g>
<!-- Node12&#45;&gt;Node12 -->
<g id="edge13" class="edge">
<title>Node12&#45;&gt;Node12</title>
<path fill="none" stroke="#9a32cd" stroke-dasharray="5,2" d="M416.61,-575.4C417.87,-580.31 424.17,-584 435.5,-584 453.63,-584 458.87,-574.57 451.22,-565.76"/>
<polygon fill="#9a32cd" stroke="#9a32cd" points="419.98,-576.35 419.78,-565.76 413.33,-574.17 419.98,-576.35"/>
<text text-anchor="middle" x="435.5" y="-587" font-family="Helvetica,sans-Serif" font-size="10.00"> list</text>
</g>
<!-- Node12&#45;&gt;Node16 -->
<g id="edge30" class="edge">
<title>Node12&#45;&gt;Node16</title>
<path fill="none" stroke="#9a32cd" stroke-dasharray="5,2" d="M478.02,-548.67C556.14,-533.6 728.58,-494.27 856,-421 878.98,-407.79 900.85,-385.33 912.27,-372.58"/>
<polygon fill="#9a32cd" stroke="#9a32cd" points="477.25,-545.25 468.08,-550.55 478.56,-552.13 477.25,-545.25"/>
<text text-anchor="middle" x="703" y="-528" font-family="Helvetica,sans-Serif" font-size="10.00"> x</text>
<text text-anchor="middle" x="703" y="-517" font-family="Helvetica,sans-Serif" font-size="10.00">y</text>
</g>
<!-- Node13&#45;&gt;Node12 -->
<g id="edge14" class="edge">
<title>Node13&#45;&gt;Node12</title>
<path fill="none" stroke="#9a32cd" stroke-dasharray="5,2" d="M283.84,-541.66C308.27,-542.94 336.47,-544.69 362,-547 375.39,-548.21 390.12,-549.96 402.79,-551.6"/>
<polygon fill="#9a32cd" stroke="#9a32cd" points="283.79,-538.16 273.62,-541.15 283.43,-545.15 283.79,-538.16"/>
<text text-anchor="middle" x="332.5" y="-583" font-family="Helvetica,sans-Serif" font-size="10.00"> memory</text>
<text text-anchor="middle" x="332.5" y="-572" font-family="Helvetica,sans-Serif" font-size="10.00">global</text>
<text text-anchor="middle" x="332.5" y="-561" font-family="Helvetica,sans-Serif" font-size="10.00">compute</text>
<text text-anchor="middle" x="332.5" y="-550" font-family="Helvetica,sans-Serif" font-size="10.00">data</text>
</g>
<!-- Node13&#45;&gt;Node21 -->
<g id="edge41" class="edge">
<title>Node13&#45;&gt;Node21</title>
<path fill="none" stroke="#9a32cd" stroke-dasharray="5,2" d="M265.87,-525.51C272.66,-522.36 279.29,-518.55 285,-514 343.78,-467.1 322.23,-422.14 380,-374 387.23,-367.98 396.2,-363.2 404.77,-359.55"/>
<polygon fill="#9a32cd" stroke="#9a32cd" points="264.44,-522.31 256.58,-529.42 267.15,-528.77 264.44,-522.31"/>
<text text-anchor="middle" x="332.5" y="-508" font-family="Helvetica,sans-Serif" font-size="10.00"> global</text>
<text text-anchor="middle" x="332.5" y="-497" font-family="Helvetica,sans-Serif" font-size="10.00">compute</text>
</g>
<!-- Node14 -->
<g id="node14" class="node">
<title>Node14</title>
<g id="a_node14"><a xlink:title=" ">
<polygon fill="white" stroke="#bfbfbf" points="386,-882.5 386,-901.5 485,-901.5 485,-882.5 386,-882.5"/>
<text text-anchor="middle" x="435.5" y="-889.5" font-family="Helvetica,sans-Serif" font-size="10.00">character(len=8)</text>
</a>
</g>
</g>
<!-- Node14&#45;&gt;Node11 -->
<g id="edge20" class="edge">
<title>Node14&#45;&gt;Node11</title>
<path fill="none" stroke="#9a32cd" stroke-dasharray="5,2" d="M495.29,-895.9C527.3,-898.55 567.5,-902.74 603,-909 626.92,-913.22 653.59,-920.08 673.22,-925.55"/>
<polygon fill="#9a32cd" stroke="#9a32cd" points="495.45,-892.4 485.21,-895.1 494.9,-899.38 495.45,-892.4"/>
<text text-anchor="middle" x="556" y="-912" font-family="Helvetica,sans-Serif" font-size="10.00"> cartesian</text>
</g>
<!-- Node15 -->
<g id="node15" class="node">
<title>Node15</title>
<g id="a_node15"><a xlink:title=" ">
<polygon fill="white" stroke="#bfbfbf" points="383,-844.5 383,-863.5 488,-863.5 488,-844.5 383,-844.5"/>
<text text-anchor="middle" x="435.5" y="-851.5" font-family="Helvetica,sans-Serif" font-size="10.00">character(len=24)</text>
</a>
</g>
</g>
<!-- Node15&#45;&gt;Node11 -->
<g id="edge24" class="edge">
<title>Node15&#45;&gt;Node11</title>
<path fill="none" stroke="#9a32cd" stroke-dasharray="5,2" d="M498.24,-859.66C530.12,-863.75 569.29,-870.64 603,-882 634.64,-892.67 668.46,-912.47 687.24,-924.32"/>
<polygon fill="#9a32cd" stroke="#9a32cd" points="498.52,-856.17 488.17,-858.42 497.67,-863.11 498.52,-856.17"/>
<text text-anchor="middle" x="556" y="-885" font-family="Helvetica,sans-Serif" font-size="10.00"> calendar</text>
</g>
<!-- Node16&#45;&gt;Node1 -->
<g id="edge28" class="edge">
<title>Node16&#45;&gt;Node1</title>
<path fill="none" stroke="#9a32cd" stroke-dasharray="5,2" d="M929.99,-382.38C959.54,-458.81 1067.48,-737.99 1089.18,-794.13"/>
<polygon fill="#9a32cd" stroke="#9a32cd" points="933.09,-380.69 926.22,-372.62 926.56,-383.21 933.09,-380.69"/>
<text text-anchor="middle" x="1010" y="-651" font-family="Helvetica,sans-Serif" font-size="10.00"> domain</text>
</g>
<!-- Node16&#45;&gt;Node16 -->
<g id="edge32" class="edge">
<title>Node16&#45;&gt;Node16</title>
<path fill="none" stroke="#9a32cd" stroke-dasharray="5,2" d="M905.2,-382.4C906.29,-387.31 911.72,-391 921.5,-391 937.14,-391 941.66,-381.57 935.06,-372.76"/>
<polygon fill="#9a32cd" stroke="#9a32cd" points="908.58,-383.33 907.94,-372.76 901.84,-381.42 908.58,-383.33"/>
<text text-anchor="middle" x="921.5" y="-394" font-family="Helvetica,sans-Serif" font-size="10.00"> io_domain</text>
</g>
<!-- Node17 -->
<g id="node17" class="node">
<title>Node17</title>
<g id="a_node17"><a xlink:title=" ">
<polygon fill="white" stroke="#bfbfbf" points="656,-271.5 656,-290.5 750,-290.5 750,-271.5 656,-271.5"/>
<text text-anchor="middle" x="703" y="-278.5" font-family="Helvetica,sans-Serif" font-size="10.00">integer(i8_kind)</text>
</a>
</g>
</g>
<!-- Node17&#45;&gt;Node16 -->
<g id="edge31" class="edge">
<title>Node17&#45;&gt;Node16</title>
<path fill="none" stroke="#9a32cd" stroke-dasharray="5,2" d="M760.36,-291.91C789.7,-298.73 825.67,-308.94 856,-323 874.65,-331.65 894.52,-344.61 907.2,-353.42"/>
<polygon fill="#9a32cd" stroke="#9a32cd" points="760.8,-288.42 750.28,-289.63 759.26,-295.25 760.8,-288.42"/>
<text text-anchor="middle" x="829.5" y="-326" font-family="Helvetica,sans-Serif" font-size="10.00"> id</text>
</g>
<!-- Node18&#45;&gt;Node16 -->
<g id="edge33" class="edge">
<title>Node18&#45;&gt;Node16</title>
<path fill="none" stroke="#9a32cd" stroke-dasharray="5,2" d="M481.96,-120.25C552.23,-104.78 689.12,-85.55 785,-141 870.21,-190.28 908.56,-316.61 918.06,-353.04"/>
<polygon fill="#9a32cd" stroke="#9a32cd" points="481.07,-116.87 472.09,-122.5 482.62,-123.69 481.07,-116.87"/>
<text text-anchor="middle" x="703" y="-254" font-family="Helvetica,sans-Serif" font-size="10.00"> update_c</text>
<text text-anchor="middle" x="703" y="-243" font-family="Helvetica,sans-Serif" font-size="10.00">update_t</text>
<text text-anchor="middle" x="703" y="-232" font-family="Helvetica,sans-Serif" font-size="10.00">update_e</text>
<text text-anchor="middle" x="703" y="-221" font-family="Helvetica,sans-Serif" font-size="10.00">bound_c</text>
<text text-anchor="middle" x="703" y="-210" font-family="Helvetica,sans-Serif" font-size="10.00">bound_e</text>
<text text-anchor="middle" x="703" y="-199" font-family="Helvetica,sans-Serif" font-size="10.00">check_n</text>
<text text-anchor="middle" x="703" y="-188" font-family="Helvetica,sans-Serif" font-size="10.00">update_n</text>
<text text-anchor="middle" x="703" y="-177" font-family="Helvetica,sans-Serif" font-size="10.00">check_c</text>
<text text-anchor="middle" x="703" y="-166" font-family="Helvetica,sans-Serif" font-size="10.00">bound_n</text>
<text text-anchor="middle" x="703" y="-155" font-family="Helvetica,sans-Serif" font-size="10.00">check_e</text>
<text text-anchor="middle" x="703" y="-144" font-family="Helvetica,sans-Serif" font-size="10.00">...</text>
</g>
<!-- Node18&#45;&gt;Node18 -->
<g id="edge37" class="edge">
<title>Node18&#45;&gt;Node18</title>
<path fill="none" stroke="#9a32cd" stroke-dasharray="5,2" d="M416.61,-151.4C417.87,-156.31 424.17,-160 435.5,-160 453.63,-160 458.87,-150.57 451.22,-141.76"/>
<polygon fill="#9a32cd" stroke="#9a32cd" points="419.98,-152.35 419.78,-141.76 413.33,-150.17 419.98,-152.35"/>
<text text-anchor="middle" x="435.5" y="-163" font-family="Helvetica,sans-Serif" font-size="10.00"> next</text>
</g>
<!-- Node19&#45;&gt;Node18 -->
<g id="edge34" class="edge">
<title>Node19&#45;&gt;Node18</title>
<path fill="none" stroke="#9a32cd" stroke-dasharray="5,2" d="M262.25,-267.88C270.02,-264.76 277.93,-261.12 285,-257 344.05,-222.59 402.99,-164.66 425.23,-141.75"/>
<polygon fill="#9a32cd" stroke="#9a32cd" points="261,-264.61 252.89,-271.43 263.48,-271.16 261,-264.61"/>
<text text-anchor="middle" x="332.5" y="-257" font-family="Helvetica,sans-Serif" font-size="10.00"> recv</text>
<text text-anchor="middle" x="332.5" y="-246" font-family="Helvetica,sans-Serif" font-size="10.00">send</text>
</g>
<!-- Node20&#45;&gt;Node16 -->
<g id="edge39" class="edge">
<title>Node20&#45;&gt;Node16</title>
<path fill="none" stroke="#9a32cd" stroke-dasharray="5,2" d="M759.55,-329.05C788.38,-334.4 824.14,-341.26 856,-348 866.69,-350.26 878.32,-352.91 888.73,-355.35"/>
<polygon fill="#9a32cd" stroke="#9a32cd" points="760.13,-325.59 749.66,-327.22 758.85,-332.48 760.13,-325.59"/>
<text text-anchor="middle" x="829.5" y="-351" font-family="Helvetica,sans-Serif" font-size="10.00"> list</text>
</g>
<!-- Node21&#45;&gt;Node20 -->
<g id="edge40" class="edge">
<title>Node21&#45;&gt;Node20</title>
<path fill="none" stroke="#9a32cd" stroke-dasharray="5,2" d="M492.18,-343.5C540.82,-337.82 610.56,-329.68 656.07,-324.36"/>
<polygon fill="#9a32cd" stroke="#9a32cd" points="491.67,-340.03 482.14,-344.67 492.48,-346.99 491.67,-340.03"/>
<text text-anchor="middle" x="556" y="-355" font-family="Helvetica,sans-Serif" font-size="10.00"> x</text>
<text text-anchor="middle" x="556" y="-344" font-family="Helvetica,sans-Serif" font-size="10.00">y</text>
</g>
<!-- Node22&#45;&gt;Node16 -->
<g id="edge44" class="edge">
<title>Node22&#45;&gt;Node16</title>
<path fill="none" stroke="#9a32cd" stroke-dasharray="5,2" d="M372.1,-79.86C451.86,-68.74 639.54,-50.82 785,-101 821.24,-113.5 833.4,-119.03 856,-150 904.74,-216.79 917.06,-320.76 919.8,-353.08"/>
<polygon fill="#9a32cd" stroke="#9a32cd" points="371.42,-76.42 362.02,-81.31 372.42,-83.35 371.42,-76.42"/>
<text text-anchor="middle" x="556" y="-72" font-family="Helvetica,sans-Serif" font-size="10.00"> tilelist</text>
</g>
<!-- Node23 -->
<g id="node23" class="node">
<title>Node23</title>
<g id="a_node23"><a xlink:title=" ">
<polygon fill="white" stroke="#bfbfbf" points="644.5,-348 644.5,-378 761.5,-378 761.5,-348 644.5,-348"/>
<text text-anchor="start" x="652.5" y="-366" font-family="Helvetica,sans-Serif" font-size="10.00">character(len=name</text>
<text text-anchor="middle" x="703" y="-355" font-family="Helvetica,sans-Serif" font-size="10.00">_length)</text>
</a>
</g>
</g>
<!-- Node23&#45;&gt;Node16 -->
<g id="edge47" class="edge">
<title>Node23&#45;&gt;Node16</title>
<path fill="none" stroke="#9a32cd" stroke-dasharray="5,2" d="M771.98,-363C811.01,-363 858.17,-363 888.73,-363"/>
<polygon fill="#9a32cd" stroke="#9a32cd" points="771.73,-359.5 761.73,-363 771.73,-366.5 771.73,-359.5"/>
<text text-anchor="middle" x="829.5" y="-366" font-family="Helvetica,sans-Serif" font-size="10.00"> name</text>
</g>
<!-- Node24 -->
<g id="node24" class="node">
<title>Node24</title>
<g id="a_node24"><a xlink:title=" ">
<polygon fill="white" stroke="#bfbfbf" points="874,-0.5 874,-19.5 969,-19.5 969,-0.5 874,-0.5"/>
<text text-anchor="middle" x="921.5" y="-7.5" font-family="Helvetica,sans-Serif" font-size="10.00">type(domainug)</text>
</a>
</g>
</g>
<!-- Node24&#45;&gt;Node1 -->
<g id="edge48" class="edge">
<title>Node24&#45;&gt;Node1</title>
<path fill="none" stroke="#9a32cd" stroke-dasharray="5,2" d="M979.18,-3.01C998.79,-3.78 1019.27,-8.7 1033,-23 1089.16,-81.48 1092.76,-708.87 1092.98,-794.37"/>
<polygon fill="#9a32cd" stroke="#9a32cd" points="979.07,0.49 969.05,-2.96 979.03,-6.51 979.07,0.49"/>
<text text-anchor="middle" x="1010" y="-26" font-family="Helvetica,sans-Serif" font-size="10.00"> domainu</text>
</g>
</g>
</svg>
