<?xml version="1.0" encoding="UTF-8" standalone="no"?>
<!DOCTYPE svg PUBLIC "-//W3C//DTD SVG 1.1//EN"
 "http://www.w3.org/Graphics/SVG/1.1/DTD/svg11.dtd">
<!-- Generated by graphviz version 2.43.0 (0)
 -->
<!-- Title: Node Pages: 1 -->
<svg width="137pt" height="152pt"
 viewBox="0.00 0.00 137.00 151.79" xmlns="http://www.w3.org/2000/svg" xmlns:xlink="http://www.w3.org/1999/xlink">
<g id="graph0" class="graph" transform="scale(1 1) rotate(0) translate(4 147.79)">
<title>Node</title>
<polygon fill="white" stroke="transparent" points="-4,4 -4,-147.79 133,-147.79 133,4 -4,4"/>
<!-- Node1 -->
<g id="node1" class="node">
<title>Node1</title>
<g id="a_node1"><a xlink:title=" ">
<polygon fill="#bfbfbf" stroke="black" points="33,-2.29 33,-21.29 75,-21.29 75,-2.29 33,-2.29"/>
<text text-anchor="middle" x="54" y="-9.29" font-family="Helvetica,sans-Serif" font-size="10.00">Node</text>
</a>
</g>
</g>
<!-- Node1&#45;&gt;Node1 -->
<g id="edge1" class="edge">
<title>Node1&#45;&gt;Node1</title>
<path fill="none" stroke="#9a32cd" stroke-dasharray="5,2" d="M78.39,-23.04C86.51,-23.04 93,-19.29 93,-11.79 93,-1.36 80.43,1.81 68.4,-2.26"/>
<polygon fill="#9a32cd" stroke="#9a32cd" points="78.85,-19.57 68.4,-21.33 77.66,-26.47 78.85,-19.57"/>
<text text-anchor="middle" x="106.5" y="-9.29" font-family="Helvetica,sans-Serif" font-size="10.00"> Next</text>
</g>
<!-- Node2 -->
<g id="node2" class="node">
<title>Node2</title>
<g id="a_node2"><a xlink:title=" ">
<polygon fill="white" stroke="#bfbfbf" points="0,-124.29 0,-143.29 50,-143.29 50,-124.29 0,-124.29"/>
<text text-anchor="middle" x="25" y="-131.29" font-family="Helvetica,sans-Serif" font-size="10.00">double</text>
</a>
</g>
</g>
<!-- Node2&#45;&gt;Node1 -->
<g id="edge2" class="edge">
<title>Node2&#45;&gt;Node1</title>
<path fill="none" stroke="#9a32cd" stroke-dasharray="5,2" d="M23.2,-114.03C22.06,-94.71 22.32,-64.07 32,-39.79 34.78,-32.83 40.03,-26.28 44.7,-21.37"/>
<polygon fill="#9a32cd" stroke="#9a32cd" points="19.72,-114.51 23.99,-124.21 26.7,-113.97 19.72,-114.51"/>
<text text-anchor="middle" x="46.5" y="-92.29" font-family="Helvetica,sans-Serif" font-size="10.00"> x</text>
<text text-anchor="middle" x="46.5" y="-81.29" font-family="Helvetica,sans-Serif" font-size="10.00">y</text>
<text text-anchor="middle" x="46.5" y="-70.29" font-family="Helvetica,sans-Serif" font-size="10.00">z</text>
<text text-anchor="middle" x="46.5" y="-59.29" font-family="Helvetica,sans-Serif" font-size="10.00">u_clip</text>
<text text-anchor="middle" x="46.5" y="-48.29" font-family="Helvetica,sans-Serif" font-size="10.00">u</text>
</g>
<!-- Node3 -->
<g id="node3" class="node">
<title>Node3</title>
<g id="a_node3"><a xlink:title=" ">
<polygon fill="white" stroke="#bfbfbf" points="68.5,-124.29 68.5,-143.29 97.5,-143.29 97.5,-124.29 68.5,-124.29"/>
<text text-anchor="middle" x="83" y="-131.29" font-family="Helvetica,sans-Serif" font-size="10.00">int</text>
</a>
</g>
</g>
<!-- Node3&#45;&gt;Node1 -->
<g id="edge3" class="edge">
<title>Node3&#45;&gt;Node1</title>
<path fill="none" stroke="#9a32cd" stroke-dasharray="5,2" d="M78.71,-114.15C74.36,-95.35 67.38,-65.52 61,-39.79 59.46,-33.59 57.65,-26.61 56.25,-21.29"/>
<polygon fill="#9a32cd" stroke="#9a32cd" points="75.34,-115.1 81,-124.06 82.16,-113.53 75.34,-115.1"/>
<text text-anchor="middle" x="102.5" y="-97.79" font-family="Helvetica,sans-Serif" font-size="10.00"> clip_index</text>
<text text-anchor="middle" x="102.5" y="-86.79" font-family="Helvetica,sans-Serif" font-size="10.00">isInside</text>
<text text-anchor="middle" x="102.5" y="-75.79" font-family="Helvetica,sans-Serif" font-size="10.00">intersect</text>
<text text-anchor="middle" x="102.5" y="-64.79" font-family="Helvetica,sans-Serif" font-size="10.00">subj_index</text>
<text text-anchor="middle" x="102.5" y="-53.79" font-family="Helvetica,sans-Serif" font-size="10.00">inbound</text>
<text text-anchor="middle" x="102.5" y="-42.79" font-family="Helvetica,sans-Serif" font-size="10.00">initialized</text>
</g>
</g>
</svg>
